<?xml version="1.0" encoding="UTF-8"?>
<svg width="311px" height="497px" viewBox="0 0 311 497" version="1.1" xmlns="http://www.w3.org/2000/svg" xmlns:xlink="http://www.w3.org/1999/xlink">
    <title>Artboard</title>
    <g id="Artboard" stroke="none" stroke-width="1" fill="none" fill-rule="evenodd" opacity="0.5">
        <path d="M286.765963,414.503095 C286.765963,379.248344 272.091869,347.420911 248.518293,324.795409 C237.125457,313.860766 225.511363,318.314526 211.486072,325.304617 L209.824781,326.137907 L205.569016,328.293003 L203.823615,329.171582 C192.102437,335.042194 178.660287,341.077863 162.440584,341.077863 C146.220882,341.077863 133.111969,334.900146 121.806177,328.776679 L120.123668,327.859345 L114.433721,324.722564 C114.169707,324.577975 113.906635,324.434296 113.644486,324.291625 L112.0825,323.448469 C99.6725681,316.812421 84.2932821,318.185895 73.6868611,327.859345 C48.7570511,350.596258 38.1152061,378.103297 38.1152061,414.503095 C38.1152061,482.479475 94.7258401,443.192514 162.440584,443.294916 C230.155329,443.397318 286.765963,483.166105 286.765963,414.503095 Z" id="Path" fill="#79AEA3" fill-rule="nonzero" opacity="0.5"></path>
        <path d="M162.441183,278.363841 C233.961728,278.363841 291.940585,236.818904 291.940585,185.570626 C291.940585,134.322349 233.961129,187.391894 162.440585,187.391894 C146.611306,187.391894 108.805436,131.870696 94.7845958,129.164256 C45.4558594,119.642342 32.9405846,145.66487 32.9405846,185.570626 C32.9405846,236.818904 90.9206385,278.363841 162.441183,278.363841 Z" id="Oval" fill="#589286" fill-rule="nonzero" opacity="0.5"></path>
        <path d="M177.916847,149.062182 C206.04974,152.201728 219.433588,150.857462 237.918719,132.372331 C256.40385,113.8872 256.746283,101.489095 251.859435,75.119595 C246.972586,48.7500949 233.866796,39.9254409 218.273933,26.3687996 C205.292064,15.0821905 187.825566,35.0396077 162.844466,31.4544962 C137.863367,27.8693847 131.792899,-0.877681674 115.034188,11.5525583 C98.2754764,23.9827982 98.4600124,55.2568944 103.97426,75.119595 C109.488508,94.9822956 123.013229,87.8508936 141.289949,106.127614 C159.56667,124.404334 149.783955,145.922636 177.916847,149.062182 Z" id="Oval" fill="#79AEA3" fill-rule="nonzero" transform="translate(177.577798, 79.416859) rotate(-30.000000) translate(-177.577798, -79.416859) " opacity="0.5"></path>
        <path d="M104.356259,172.284397 C114.622599,180.521227 168.345788,197.767335 188.387494,178.287114 C207.974442,160.620682 207.972932,144.729297 204.03309,130.651925 C200.126288,116.012709 186.358803,100.218901 168.941117,101.893001 C151.461818,105.466714 155.050284,134.129873 140.739736,140.904342 C127.993191,147.407652 103.449284,129.615684 93.5259949,139.607253 C83.5181923,149.447657 94.7532699,165.101095 104.356259,172.284397 Z" id="Oval-Copy" fill="#79AEA3" fill-rule="nonzero" opacity="0.5"></path>
        <path d="M41.8035445,152.141217 C52.9980795,153.736407 66.2332058,148.645792 66.2332058,136.021833 C66.2332058,130.527023 67.0729555,119.988886 61.4197222,113.140114 C55.7664889,106.291343 48.2577769,106.42582 41.8035445,106.42582 C40.0949022,106.42582 40.4124966,94.9436799 30.9095459,97.3970504 C21.4065952,99.850421 18.9458455,118.546874 18.9458455,129.283518 C18.9458455,141.907477 30.6090095,150.546028 41.8035445,152.141217 Z" id="Oval" fill="#589286" fill-rule="nonzero" opacity="0.5"></path>
        <path d="M247.72174,111.145828 C258.916275,112.741017 272.151401,107.650402 272.151401,95.0264437 C272.151401,89.5316335 272.991151,78.9934964 267.337918,72.1447248 C261.684685,65.2959532 254.175972,65.4302377 247.72174,65.4302377 C236.292891,65.4302377 224.864041,75.6641702 224.864041,88.2881287 C224.864041,100.912087 236.527205,109.550638 247.72174,111.145828 Z" id="Oval-Copy-2" fill="#589286" fill-rule="nonzero" transform="translate(248.529748, 88.430047) rotate(-120.000000) translate(-248.529748, -88.430047) " opacity="0.5"></path>
        <path d="M268.099612,190.020215 C276.373834,191.199268 286.156318,187.43664 286.156318,178.105888 C286.156318,174.044506 286.777003,166.255448 282.598526,161.193313 C279.812875,157.818556 274.951534,157.484192 268.014504,160.190222 C256.808029,162.593169 251.204791,166.904893 251.204791,173.125394 C251.204791,182.456146 259.825391,188.841162 268.099612,190.020215 Z" id="Oval-Copy-3" fill="#589286" fill-rule="nonzero" transform="translate(268.696835, 174.307022) rotate(127.000000) translate(-268.696835, -174.307022) " opacity="0.5"></path>
        <path d="M286.765963,383.305813 C286.765963,348.051062 272.091869,316.223629 248.518293,293.598127 C237.125457,282.663485 225.511363,287.117244 211.486072,294.107335 L209.824781,294.940626 L205.569016,297.095722 L203.823615,297.9743 C192.102437,303.844912 178.660287,309.880581 162.440584,309.880581 C146.220882,309.880581 133.111969,303.702864 121.806177,297.579397 L120.123668,296.662063 L114.433721,293.525282 C114.169707,293.380693 113.906635,293.237014 113.644486,293.094343 L112.0825,292.251187 C99.6725681,285.615139 84.2932821,286.988613 73.6868611,296.662063 C48.7570511,319.398977 38.1152061,346.906015 38.1152061,383.305813 C38.1152061,451.282194 94.7258401,411.995233 162.440584,412.097635 C230.155329,412.200037 286.765963,451.968824 286.765963,383.305813 Z" id="Path-Copy" fill="#79AEA3" fill-rule="nonzero" transform="translate(162.440585, 355.325379) rotate(-270.000000) translate(-162.440585, -355.325379) " opacity="0.5"></path>
    </g>
</svg>