<?xml version="1.0" standalone="no"?>
<!DOCTYPE svg PUBLIC "-//W3C//DTD SVG 1.1//EN" "http://www.w3.org/Graphics/SVG/1.1/DTD/svg11.dtd">
<svg xmlns="http://www.w3.org/2000/svg"><metadata>This SVG WebFont was generated by YouWorkForThem.
Olga Zakharova</metadata><defs><font horiz-adv-x="338" id="ywftsvg"><font-face ascent="750" bbox="-980.5 -320 867 750" cap-height="458" descent="-250" font-family="" font-stretch="normal" font-weight="400" panose-1="0 0 5 0 0 0 0 0 0 0" underline-position="0" underline-thickness="0" unicode-range="U+0020-E025" units-per-em="1000" x-height="370"/><missing-glyph d="M410 750v-1000h-317v1000h317zM333 683h-165v-33h65v-37h-66v-33h166v33h-66v37h66v33zM267 554h-100v-104h166v34h-66v70zM233 520v-36h-33v36h33zM333 423h-166v-33h66v-37h-66v-33h100v70h66v33zM333 363h-33v-66h-133v-34h166v100zM333 241h-100v-56h34v23h33v-47 h-100v80h-33v-113h166v113zM333 68h-166v-113h166v113zM300 35v-47h-100v47h100zM333 -68h-166v-33h70l-70 -47v-33h166v33h-102l70 47h32v33z" horiz-adv-x="500"/><glyph d="M410 750v-1000h-317v1000h317zM333 683h-165v-33h65v-37h-66v-33h166v33h-66v37h66v33zM267 554h-100v-104h166v34h-66v70zM233 520v-36h-33v36h33zM333 423h-166v-33h66v-37h-66v-33h100v70h66v33zM333 363h-33v-66h-133v-34h166v100zM333 241h-100v-56h34v23h33v-47 h-100v80h-33v-113h166v113zM333 68h-166v-113h166v113zM300 35v-47h-100v47h100zM333 -68h-166v-33h70l-70 -47v-33h166v33h-102l70 47h32v33z" glyph-name=".notdef" horiz-adv-x="500"/><glyph glyph-name="glyph1" horiz-adv-x="0"/><glyph glyph-name="glyph2" horiz-adv-x="333"/><glyph glyph-name="space" horiz-adv-x="350" unicode=" "/><glyph d="M53 270v19q-1 36 -2 38q-2 4 0 4q1 1 0 5v5q1 1 0 3q-2 2 0 2l-1 1q-2 0 0 2q1 2 -1 3q-1 0 -1 1.5t1 1.5l1 1v1q2 0 1 1t-2 1q-2 2 -2 3t2 3q4 3 1 6q-1 0 -1 1.5t1 2.5q2 2 0 2l-2 1h-1q0 1 2 1t0 6q-1 4 0 5q2 0 0 2q-1 1 0 6q1 4 0 5q-3 2 0 5q1 1 0 2q-2 0 0 2t0 2 t-2 2q0 1 2 1q1 0 1 1q-1 1 1 1l3 1q1 1 5 1h5q2 1 5 0h4q0 1 3 1q2 0 1 -1q0 -2 1 -1q2 1 7 1t5 -1h2l4 1q0 -1 15 -1q19 0 25 -1q11 0 12 1q3 1 4 -3q1 -8 1 -54q0 -41 1 -42v-4h-1v-3q0 -1 0.5 -3.5t0.5 -3.5q0 -3 2 -5q0 -2 -1 -3l-1 -1q1 -1 1 -2v-2q-1 0 -1 -13.5 t1 -14.5v-2q-1 -1 -1 -5t1 -5v-10q-1 -10 1 -11q3 -2 1 -4q-2 -1 -2.5 -6t1.5 -7q1 -2 0 -3t-1 -10t1 -9q0 -1 -1 -1t-1 -4t0.5 -8t1.5 -4q0 -2 -1 -2q-1 -1 0 -3t0 -6v-5q1 -1 1 -29t-1 -28v-1q1 -1 1 -10v-8l-4 -1q-11 0 -19 -1q-17 0 -21 -1h-25h-20h-10v3q0 3 -0.5 8.5 t-0.5 13.5t-0.5 20.5t-0.5 26.5q0 57 -1 99zM165 -8q2 -3 2 -10q-1 -13 -2 -13v-1q-1 -2 -1 -3l-2 -4q0 -1 -1 -3l-2 -2q5 0 -15 -16q-4 -3 -6 -4l-2 -2q-2 -1 -3 -2l-4 -2l-1 -1q0 -2 -11 0q-2 0 -10 2q-23 6 -32 15l-2 2q-4 0 -10 14l-4 6q-1 0 -3 8q0 4 -2 6q-1 3 -1 5 q0 12 6 23q12 26 33 32q7 2 15 3t8 0q0 -2 3 -2q4 0 6 -2q1 -1 3 -1l2 -1l1 -1l4 -1q2 -2 4 -2q7 0 7 -4q0 -1 1 -1q1 -1 1 -2q0 -2 2 -4q2 -1 8 -15q2 -4 3 -5t1 -2v-2q2 0 2 -1z" glyph-name="exclam" horiz-adv-x="220" unicode="!"/><glyph d="M112 496q0 2 2 3q1 1 14 1q19 0 25 -1h18l6 -1v-5v-8q0 -4 1 -4v-3v-24q2 -5 0 -9v-10q1 -6 1 -18v-7v-12v-23v-9v-10q0 -7 1 -7v-8v-12v-12l-1 -7h-3h-6q-7 1 -11 1q-50 4 -50 7v14q0 3 0.5 11t0.5 11v10v14v5t0.5 5t0.5 4v2v10v13v14q0 2 0.5 11.5t0.5 15.5v28 q2 10 0 10zM22 460l-2 24v6h8h13h7q7 1 12 1h15v-14q0 -4 -0.5 -18.5t-0.5 -22.5q-1 -14 -1 -47q0 -5 -0.5 -12t-1 -11.5t-0.5 -6.5v-16q0 -9 -1 -10q-1 -2 -4 -1.5t-4 2.5q0 2 -2 -1q-2 -2 -17 -2q-9 -1 -9 1q-1 1 -2 0q-2 0 -2 8q1 7 3 7q3 0 3 2q-1 1 -3 0q-2 0 -2 1 q0 4 -1 8q-2 12 -3 29q0 3 -1 7v3q0 1 1 1t0 1l-2 14q0 4 -0.5 11t-0.5 9q-2 10 -2 27z" glyph-name="quotedbl" horiz-adv-x="200" unicode="&quot;"/><glyph d="M22 80q-2 0 -2 6q3 15 3 50q0 6 3 6h4q4 0 11 0.5t14 0.5h27l-1 11q-1 27 -4 28q-5 1 -9 1q-9 0 -11 1q-2 2 -2 0q0 -1 -2 -1l-3 1h-5.5h-6.5h-13l1 22q0 23 1 23q1 2 37 6l20 1v18q0 31 -1 48v30h6q6 0 18 -2q13 0 15 -1h7h3v-22q-2 -66 -3 -69q0 -2 13 -3q16 -2 28 -2 l14 -1l1 11q0 4 0.5 13.5t1.5 27.5t2 31v13l14 -1q18 0 25 -1q12 0 13 -2l1 -3q-1 -1 -1 -8q0 -3 -1 -10.5t-2 -15.5q0 -8 -1 -11q0 -2 -0.5 -7.5t-0.5 -8.5q-2 -10 -2 -21l-1 -12l15 -1q23 -3 56 -1q24 1 24 0v-3q0 -3 -0.5 -8t-0.5 -10q-1 -29 -4 -30q-37 0 -62 2 q-12 1 -23 1q0 -9 -1 -20v-19h29q38 0 54 -2h4l-1 -18q0 -4 -0.5 -9t-0.5 -8v-3q0 -3 -1 -3q-2 0 -1 -1q2 0 2 -2t-2 -4q-1 -1 -14.5 -0.5t-26.5 1.5q-1 0 -9 0.5t-14 0.5h-17l-1 -35q0 -39 -1 -45q0 -2 -0.5 -13t-0.5 -19q-1 -25 -3 -26q-48 0 -60 4q0 4 1 9q0 2 0.5 11.5 t0.5 14.5l2 20l1 6v11q2 14 2 32l2 19q-3 3 -41 5q-14 0 -14 -3q1 -2 1.5 -54.5t-0.5 -59.5l-1 -8l-5 -1q-11 0 -19 1h-14v27q0 8 0.5 21t0.5 14q2 10 2 28q0 6 0.5 16t0.5 12l1 11l-3 -1q-1 0 -5.5 -0.5t-7.5 -0.5l-44 -4q-2 0 -5 -0.5t-5 -1.5h-2z" glyph-name="numbersign" horiz-adv-x="348" unicode="#"/><glyph d="M25 -64q-5 10 -5 31v16q0 10 1 13q0 2 1 4v3v3q1 1 1 5q0 1 0.5 3t1 4.5t0.5 4.5q1 4 1 5.5v2.5l1 2l1 2q0 2 1 4.5t1 4.5q5 21 12 31q12 15 84 51q39 19 39 20q-1 1 -21.5 1t-34.5 -1q-15 -2 -20 0h-6h-2q-2 1 -4 1q-1 0 -3.5 1t-6 1.5t-6.5 1.5q-12 2 -15 7 q-10 12 -13 24q-5 13 -9 47q-2 19 4 19q1 0 0 1q-3 3 3 12q1 3 0 4q0 2 2 4t2 4q0 1 4 6.5t5 5.5t3 4l2 4q1 0 3 3t3 3t1 1l6 6l4 4q4 4 6 4h1q1 1 2 1q0 1 5 3q1 0 5.5 2t6.5 3t7 3t7 3l8 4q2 2 3 1l4 2q1 0 2.5 0.5t3.5 1.5t3 1t5 1t5 2q5 2 40.5 7t45.5 5h8h13h14h14h14 q7 0 8 -1q2 -1 2 -31v-18q0 -2 -10 -3q-2 0 -12 -0.5t-15 -0.5l-36 -3q-10 -1 -26 -1q-35 -3 -54 -8q-21 -8 -27 -12q-6 -5 -8 -13q-2 -7 -1 -16q3 -13 6 -17q2 -2 10.5 -6.5t9.5 -3.5q3 -2 7 -3q5 -3 7 -3l4 -2q9 -5 30 -1q4 1 34 1q14 -1 26 0h13q1 0 17 2q18 2 25 2l1 -4 v-9.5v-12.5q0 -33 1 -60q1 -23 0.5 -26t-4.5 -3q-23 0 -86 -9q-33 -6 -40 -9q-22 -11 -35 -20l-10 -6l-3 -11q-8 -23 -6 -36q6 -36 10 -40q10 -6 24 -10q7 0 22 -1q4 0 10 -1h6q6 -1 36 3.5t34 6.5q3 1 -3 50q-2 9 -2 17h15h12q20 0 22 -1q3 -2 3 -52q0 -12 1 -29v-18v-12 q1 -6 1 -22l1 -11l-10 -1l-57 -9q-35 -6 -70 -10q-8 0 -18.5 -0.5t-11.5 -0.5q-13 -2 -68 9q-13 2 -18 7q-17 12 -31 51z" glyph-name="ampersand" horiz-adv-x="329" unicode="&amp;"/><glyph d="M21 438q-1 10 -1 24v5h8q2 0 6.5 0.5t5.5 0.5q12 0 20 1h14v-15v-40q-2 -28 -2 -48q0 -7 -0.5 -17.5t-0.5 -11.5q0 -2 -0.5 -7.5t-0.5 -8.5v-11q-1 -2 -4 -1.5t-4 2.5q-1 3 -3 0q-3 -3 -17 -3h-4h-4l-1 1q0 1 -2 1q-1 0 -1 7q0 8 3 8q2 0 2 1t-2 1h-2l-1 3v5q-2 15 -3 30 l-1 9v1q1 0 1 2q-2 2 -2 14q0 3 -0.5 10.5t-1.5 9.5q0 7 -2 27z" glyph-name="quotesingle" horiz-adv-x="94" unicode="'"/><glyph d="M20 121q0 8 2 20t2 17q3 17 10 49q1 1 1.5 3t0.5 3l1 4q1 0 1 2q2 13 12 33q4 9 6 15q4 8 5 8l1 2l2 4q16 36 23 40q1 1 4.5 0.5t4.5 -1.5q3 -3 7 -5q1 0 3 -2q1 -1 2 -1q0 -1 4 -3q12 -8 13 -9l3 -2q1 0 3 -2t0 -8l-2 -7q-1 -1 -3 -10q0 -1 -4 -17l-3 -9q0 -2 -1 -5 t-2.5 -7t-2.5 -6l-5 -17q-8 -27 -8 -77l2 -38v-13q2 -22 3 -24q1 -3 1 -5q2 -6 3 -7q1 -2 1 -5q0 -1 2 -3t2 -4t1 -3l1 -2q0 -2 6 -14l6 -15q5 -10 5 -11l6 -13l4 -9q0 -2 5 -10l5 -13l3 -6l2 -3l2 -2q-1 -1 1 -5q11 -18 11 -25q-3 -2 -6 -2l-3 -2l-12 -5l-5 -2.5t-6 -3.5 l-3 -1q-4 -3 -7 -3q-1 0 -2 -1q-4 -4 -10 3l-6 9q-2 4 -4 6l-5 6q-1 3 -4 6l-4 6q-5 7 -12 16q-7 10 -8 11l-2 4q-2 4 -5 9t-5 10q-2 3 -4 7l-3.5 7t-3.5 5l-1 2q0 2 -3 6l-7 20q-1 3 -2 6.5t-1.5 5.5t-1.5 4v2l-3 11q0 6 -2 8l-1 2q0 4 -1 8q-2 6 -5 32q-2 8 -2 16 q-2 8 -2 10z" glyph-name="parenleft" horiz-adv-x="192" unicode="("/><glyph d="M21 288q-3 4 4 8l11 6q5 3 16 9t14 8l6 3l3 -4q1 -1 29 -43q14 -20 23 -44q9 -20 11 -23l3 -8q0 -1 1.5 -5.5l2.5 -7.5q1 -2 1.5 -4t1.5 -4l1 -2q0 -3 1 -5q4 -10 12 -50q1 -3 1 -6q2 -4 2 -21q1 -2 3 -18q3 -24 0 -37l-2 -6q0 -2 -2 -16q-6 -33 -9 -33q-1 0 -1 -1 q0 -3 -1 -6q-2 -4 -2 -6q-1 -4 -6 -16t-6 -13t-1 -3t-4 -10q-1 -1 -3 -6t-3 -7q-1 -4 -5 -6q-3 0 -3 1h-3q-2 -2 -1 -4q1 0 1 -1q1 -1 2 -1l2 -1q0 -6 -4 -6q-6 0 -6 -5q1 -2 -3 -3q-2 -1 -6 1q-4 3 -4 0q0 -2 -3 -1q-1 1 -2 1l-8 2q-8 2 -10 3l-4 1q0 1 -2 1q-2 1 -3 1 q-9 3 -9 8q1 0 1 2v2q2 2 2 4q0 5 1 7l3 9q1 5 2 9.5t2 8t2 4.5l1 2q1 0 1 1q-1 1 0.5 7t2.5 6t1 3q0 4 1 6q8 20 12 53q2 12 1 43q-3 53 -10 78q-3 9 -3 12q-4 19 -19 54q-14 31 -21 43l-2 4l-4 6l-5 9q-4 6 -5 7zM87 -98l-3 -1q0 -5 4 -1q2 2 -1 2z" glyph-name="parenright" horiz-adv-x="190" unicode=")"/><glyph d="M195 129q5 1 15 1v-59h-6q-10 0 -28.5 -0.5t-27.5 -1.5v-12q0 -2 0.5 -13.5t0.5 -17.5q1 -5 1 -15q-39 0 -59 1v6q-1 20 -1 50q-6 0 -19.5 -0.5t-18.5 -1.5q-6 -1 -20 -1q-9 0 -10 3q-1 6 -2 26t0 23q1 5 3 5.5t13 1.5h15q1 0 9.5 0.5t13.5 0.5h14q0 23 -2 45q-1 6 -1 20 q0 9 3 10q6 1 25.5 1.5t23.5 -0.5q5 -1 5.5 -3t1.5 -13v-15q0 -1 0.5 -9.5t0.5 -13.5q0 -13 1 -20h3q2 1 15 1q2 0 13.5 0.5t17.5 0.5z" glyph-name="plus" horiz-adv-x="230" unicode="+"/><glyph d="M25 -82l-5 4l1 9q2 20 3 21q2 2 2 5l2 3q1 0 1 2q0 5 10 15q2 2 4 2q2 2 4 2q6 4 14 7q1 0 3.5 0.5t4.5 0.5q5 2 7 0l1 1q0 1 10 1q18 -1 24 -6q8 -5 16 -14t8 -12q0 -1 2 -5l4 -10q2 -8 3 -8q0 -1 2 -14q0 -8 -3 -15q-10 -29 -18 -35l-1 -2q-2 -1 -2 -2l-1 -2l-1 -2 q-1 0 -5 -6q-1 -2 -2.5 -3.5l-3 -3t-1.5 -2.5q-2 -3 -7 -9t-9 -12l-4 -5q-1 0 -2 3q2 8 3 17q0 4 1 9t1.5 8.5t0.5 4.5q5 19 -3 38l-1 4h-5h-15q-32 -2 -43 11z" glyph-name="comma" horiz-adv-x="166" unicode=","/><glyph d="M233 115q-18 -2 -24 -2h-4l-2 -1q-2 0 -5 -0.5t-5 -0.5q-32 -2 -35 -2q-36 0 -50 -1q-4 0 -13 -0.5t-11 -0.5l-39 -1q-5 -1 -15 -1q-8 0 -8 3q-2 10 -2 36q1 5 12 5h12q2 1 17 1q4 0 12 0.5t11 0.5q15 0 20 1h13h11q2 0 10 0.5t13 0.5q8 1 20 1q1 0 9 0.5t14 0.5 q14 0 34 2q1 -6 2 -15.5t2 -16t1 -10.5z" glyph-name="hyphen" horiz-adv-x="253" unicode="-"/><glyph d="M20 18q0 12 6 24q13 25 33 31q4 1 10 2t9 1h4l4 -2q3 0 5 -2l3 -1q2 0 2 -1q1 -1 2 -1q2 0 3 -1t4 -1l7 -4q0 -2 1 -2t1 -2q0 -1 2 -3t8 -15l3 -5q1 -1 1 -2q0 -2 1 -2q1 -1 1 -2q0 -2 2 -6t2 -11q-1 -12 -2 -12v-1v-2q-1 -1 -1 -2l-1 -3l-2 -4l-2 -2q5 0 -15 -16 q-4 -3 -6 -4q-2 0 -5 -3t-4 -3t-1 -1q0 -2 -11 0q-1 1 -10 3q-16 2 -31 14l-3 2q-3 0 -10 14l-4 6q0 1 -1 3.5t-1 4.5q-2 6 -3 6q0 3 -1 5z" glyph-name="period" horiz-adv-x="154" unicode="."/><glyph d="M27 4q-6 0 -6.5 1t1.5 6q2 4 3 8q2 2 7 14l5 10q0 1 1 2q2 4 2 5q0 3 3 3l1 1q-1 1 0.5 4.5t2.5 3.5q1 1 1 3t5 7q2 2 2 5l2 2l3 7q3 5 4 6q3 3 3 10q2 2 4 5l19 38l9 15q1 1 1 2q0 3 1 4l1 4q2 3 4 5l2 4v2q1 0 7.5 14t6.5 15l3 4q4 4 2 4l1 4l1 2q1 2 2.5 4.5t2.5 4.5 q2 9 9 21q2 5 5 14l2 4l2 2q1 0 0 2l2 5l3 6l1 2l2.5 5t2.5 6q5 12 10 22q0 7 4 9q1 1 1 3l1 2q0 3 1 3l2 6l2 4q2 0 2 3l5 13q1 0 1 4l1 2l1 3q0 4 4 4v1q1 1 1 2q0 5 3 12q4 4 4 9h1q1 2 1 3q0 4 4 10q2 6 2 7t2 3q1 2 2.5 4.5t1.5 3.5l1 4l1 1q0 5 4 10l3 9l12 -1 q3 0 8 -1l5 -1h3q0 -1 1 -1h5l1 -1q2 0 4 -0.5t4 -0.5q10 0 13 -2h9l4 -1q5 -1 10 -1l10 -1q1 -2 7 -2q10 -2 10 -3q0 -5 -4 -17q-2 -5 -6 -13.5t-6.5 -14.5t-3.5 -7l-1 -4q-1 -1 -13 -25q0 -2 -1 -4v-2q0 -1 -4 -9l-4 -9v-1q-1 0 -5 -9q-16 -36 -16 -39q-1 -1 -2 -3l-1 -1 q-3 -2 -4 -6q0 -1 -3 -7.5t-4 -10.5q-6 -12 -6 -14q-1 -3 -3 -6q0 -1 -2 -3t-2 -3q-8 -22 -14 -29l-2 -6q0 -1 -1 -3.5t-1 -3.5l-6 -12q0 -2 -1 -2q-2 -1 0 -1q0 -1 -2 -1q-1 -1 -6 -13t-5 -14v-1q-1 0 -7.5 -12.5t-6.5 -13.5t-1 -1l-2 -2q0 -5 -17 -39q-36 -78 -40 -82 q-1 -1 -14 -1q-2 0 -10.5 1t-12.5 2q-3 0 -13.5 0.5t-15.5 0.5q-4 0 -13 0.5t-12 1.5q-10 0 -14 2z" glyph-name="slash" horiz-adv-x="302" unicode="/"/><glyph d="M329 185q10 -15 12 -68q0 -28 -3 -34q-1 -1 -1 -3q-1 -3 -1 -4q-1 -6 -2.5 -13.5t-1.5 -8.5q-1 -1 -1.5 -5t-0.5 -5l-1 -4q-1 0 -1 -2v-7l-2 -6q0 -3 -4 -10q-10 -23 -14 -30q-2 -5 -3 -5t-1 -2v-1q-1 0 -1 -1t-4.5 -9.5t-5.5 -8.5v-1q1 -2 -4 -5v-3q0 -3 -2 -3t-2 -2 q-1 -1 -2 0q-2 0 -2 -1t-2 -1q-3 2 -3 -1q-2 -1 -3 -1t-5 -2t-6 -2h-2q0 -1 -7 -3l-9 -2q-4 -2 -18 -5q-5 -1 -31 -1.5t-31 0.5q-4 0 -4 2t-1 1q-1 -2 -4.5 -2.5t-4.5 1.5q-2 2 -2 0l-2 1q-2 0 -4.5 1t-3.5 2t-3 1t-2 1l-4 2q-6 0 -2 2q-4 0 -19 7l-16 7q-3 0 -4 0.5t0 2.5 q0 1 -1 0q-2 -2 -28 13q-9 5 -9 10l-1 1q-1 0 -3 4q0 3 -3 6q-2 1 -4 9q0 2 -2 4q-5 3 -5 8q0 2 -1 2q-1 1 -1 6q0 2 -1 6t-1 5q-2 6 0 8q0 1 -1 2q-1 4 -1 7v8q-1 1 -1 15t2 21q4 22 5 28q1 11 4 25l3 17q0 2 1.5 9t2.5 10l4 26q1 11 3 13v1l2 4t1 3q6 16 8 18l2 4 q5 10 20 25q22 14 28 17q2 0 8 4q13 9 21 6l25 -2q26 -1 38 -5q12 -3 18 -6q3 -1 6 -1q0 -2 1 -1q15 0 15 -4q0 -1 1 0q2 0 2 -1q1 -1 3 -1q3 0 9 -3q4 -3 7 -3l3 -2l4 -2l2 -3q2 -3 3 -3q3 0 4 -3q2 -4 5 -7q13 -13 13 -19q0 -2 2 -2l6 -9q5 -9 6 -11q15 -24 16 -26z" glyph-name="zero" horiz-adv-x="366" unicode="0"/><glyph d="M26 197q-3 1 15 15q3 2 8 6l44 35q14 11 55 43l9 7l6 -1q2 0 7 -1t7 -1q13 0 20 -1q14 -2 29 -2q13 -1 15.5 -2.5t2.5 -6.5l5 -54q5 -70 5 -76q1 -9 2 -40.5t0 -36.5v-14q1 -21 -1 -68q-1 -6 -1 -14q0 -1 -0.5 -5.5t-1 -16t-0.5 -25.5q-1 -18 -8 -17q-42 4 -55 1l-57 -1 h-12l-4 1l1 27q1 15 1 32q0 14 1 21q1 6 1 15v12q0 5 1 19.5t2 19.5q0 11 1 15v26q-1 6 -1 17v13q-1 4 -1 13v6l-8 4q-10 4 -31 12l-13 6h-1q-1 1 -2 1q-26 9 -27 11l-2 1q-3 1 -5 1q-1 0 -3.5 1t-3.5 2z" glyph-name="one" horiz-adv-x="281" unicode="1"/><glyph d="M29 300q-1 1 0 12.5t2 11.5q1 1 26 3q8 0 23 3q65 6 79 8q8 0 12 1q8 1 42.5 -2.5t40.5 -5.5q4 -1 13 -2q17 -3 22 -8q3 -3 4 -3l17 -14l11 -10l6 -6l8 -8q18 -17 22 -25q12 -20 18 -41q1 -5 -1 -13l-4 -19q-7 -25 -9 -31q-4 -8 -6 -15q-2 -6 -6 -14l-2 -4l-1 -2 q0 -1 -1 -3.5t-2 -4.5l-11 -23q-16 -33 -22 -39q-12 -13 -26 -21l-10 -6q-1 -2 -15.5 -10.5t-17.5 -9.5q-2 -1 -18 -10.5t-16 -10.5q3 -1 7 -1l49 -5q27 -3 40 -4l22 -2q33 -3 36 -3l26 -2q0 -3 -2 -39t-3 -37q-2 -2 -55 2q-158 8 -182 8q-4 0 -12 0.5t-11 0.5h-11l2 23 q2 48 2 73q1 7 1 22l1 8l8 4q6 2 31 14l16 8q5 2 18 13.5t13 13.5q0 1 1 3q2 2 2 4q3 6 6 11t4 7q12 27 9 46q-2 11 -14 25.5t-22 18.5q-7 4 -51 11q-54 7 -111 7q-2 0 -2 10q4 52 4 82z" glyph-name="two" horiz-adv-x="412" unicode="2"/><glyph d="M25 -119q-1 6 0 49.5t2 45.5q1 1 45 1t51 -1q25 -3 69 -2q40 1 60 8q6 1 15 14q2 2 19 28l3 6l-2 10q-4 19 -8 22q-1 0 -2.5 1.5t-4 2.5t-4.5 2q-22 13 -53 18l-33 7q-64 12 -72 13q-14 3 -37 6l-11 2q-2 0 -14.5 2t-13.5 2l-3 1l1 17q0 5 0.5 13t0.5 9l1 14v25v33h11 q44 0 48 -1q8 -1 48 -1t48 1q25 1 41 17l7 7v7q-1 10 -4.5 13t-17.5 6q-52 9 -110 5q-5 -1 -40 -1l-32 -1l1 32v8v7v6t0.5 5t0.5 3.5v2.5v1q1 1 35 0q10 0 28 -0.5t21 -0.5l16 -1h3q3 0 7.5 -0.5t10 -0.5h13h14.5q76 -1 87 -3q10 -2 15 -2h6q0 -1 2 -1h4q0 -2 3 -2t4 -1t2 0 q2 0 1 -1q0 -1 3 -1q3 1 3 0q0 -3 10 -3q2 0 2 -1q0 -2 2 -2t2 -1q1 -1 1 0q2 0 4 -2l8 -5q12 -7 12 -10t3 -4l2 -2t1 -2q0 -7 4 -7q1 0 3 -9q0 -2 1 -5t1.5 -5t0.5 -3q2 -4 2 -15l1 -12l-4 -8l-7 -12q-3 -1 -5 -6q-1 -3 -13 -7q-2 -1 -5.5 -2t-5.5 -2t-3 -1q-5 -4 -35 -11 l-19 -6q1 -1 2 -1l2 -1l3 -3t3 -2.5t5 -3.5t4 -3q9 -5 9 -7l2 -1q1 -2 2 -2q5 -2 20 -16l8 -6q1 1 1 -1l1 -2q2 0 2 -2t2 -2l3 -2l4 -3q2 0 1 -1l4 -4q5 -5 8 -11t5 -8l1 -1q3 -8 7 -16q8 -14 8 -20q1 -3 1 -7q1 0 3 -20q6 -79 -34 -115q-6 -4 -12 -10q-17 -15 -42 -24 q-6 -2 -35 -11q-43 -8 -52 -8q-39 0 -78 1q-17 0 -35 0.5t-29 0.5h-12h-20h-12z" glyph-name="three" horiz-adv-x="413" unicode="3"/><glyph d="M26 280q-2 2 0 4h4q3 1 5 1h15h10v-4q1 -4 1 -7q0 -4 0.5 -9t0.5 -6q0 -2 0.5 -5t0.5 -4v-11q0 -3 0.5 -7.5t0.5 -5.5q0 -9 1 -25l1 -7v-3q1 -3 1 -5q0 -9 1 -12v-8q0 -7 1 -12v-14q1 -8 1.5 -16t1 -11t0.5 -4q2 -2 23 -2h11.5h13.5h9q15 0 28 1h15q3 0 7.5 0.5t5.5 0.5 h20q17 -2 19 0h3v31q1 18 1 49q0 12 2 58l1 42h3q1 1 5 1h5q2 -1 5 -1q2 1 18 1h16q1 1 12 1q8 0 24 2q3 0 6.5 0.5t6.5 0.5h2h10q8 2 10 0q3 -1 3 -6q2 -14 2 -36v-14q0 -4 0.5 -13t1.5 -13v-21v-26v-23q0 -38 1 -47v-40v-22q1 -4 1 -16v-27q1 -11 1 -39v-7v-6.5v-5.5v-2 q-1 -2 -37 0q-40 2 -81 2q-45 2 -45 3q0 5 -1 10q0 2 -0.5 11t-0.5 15q-3 51 -6 69l-1 13h-19q-6 0 -50 -2q-22 -3 -43 -3q-35 -1 -41 -3h-3l-1 9v14q-3 53 -3 89q-1 76 -3 96z" glyph-name="four" horiz-adv-x="389" unicode="4"/><glyph d="M39 -97h-14l1 21q1 11 1 23v3h68q56 0 90 2q27 2 31 3t18 8l13 6v6q0 11 -3 27q-3 15 -5 17q0 1 -1.5 2.5l-3 3t-2.5 3.5q-6 8 -17 12q-17 6 -40 3q-22 -2 -40 -2q-33 1 -74 -3q-10 -1 -23 -1h-5l1 9q0 15 1 22q0 3 0.5 14.5t0.5 18.5q1 11 1 21l2 21q0 24 1 30 q0 3 0.5 16t0.5 22q0 10 1 37t2 55l1 16q1 1 5 1h4q0 1 13.5 1t24.5 -1q33 -2 34 -1t2.5 1t1.5 -1t3.5 -1t4.5 1q0 1 3 0q3 0 4 1q0 1 4 0q3 -1 11 -1.5t9 0.5q2 2 4 0q0 -2 3 -2q4 -2 4 0q0 1 2 1t3 -1t5.5 -1t7.5 1q4 1 4 0q2 -3 8 0q1 1 2 1t1 -2t4 -1h5q0 -1 20 -1 q5 0 20.5 -0.5t22.5 -0.5q13 -1 39 -1q63 -1 65 -3l-2 -12q-1 -7 -3 -43q0 -2 -28 -1q-9 0 -22.5 0.5t-14.5 0.5t-12 0.5t-18 0.5q-6 0 -15 0.5t-21.5 1.5t-19.5 1q-27 3 -51 3h-18l-1 -9q-1 -18 1 -67q1 -8 1 -24l1 -15l1 -7h15q19 0 24 -1l19 -3q9 0 17 -2q4 0 13 -3l8 -2 q19 -4 27 -12l3 -2l6 -4l6 -5q12 -8 29 -25q7 -7 14 -29.5t8 -40.5q1 -12 -2 -19q-9 -21 -38 -53q-14 -15 -19 -16q-2 -1 -8 -3.5t-9 -3.5q-24 -10 -43 -10q-40 -3 -122 -3q-34 1 -76 1z" glyph-name="five" horiz-adv-x="414" unicode="5"/><glyph d="M25 59q0 49 2 89q4 31 8 47q6 24 8 26l6 15q-1 0 0 1q2 1 3.5 5.5t0.5 5.5q0 1 1 1t3 6q3 7 9 13q6 7 8 11q7 8 16 14l6 5q1 0 3 2q1 1 2 1q2 0 2 1q1 1 5 3l9 5q20 10 21 10l5 2l4 2q5 0 10 1q14 3 25 4q3 0 6 0.5t5 1t4 1.5h2q1 1 16 2l8 2l52 3q4 0 11.5 0.5t10.5 0.5 q21 3 41 2l21 -2q8 0 13 -1l19 -1q6 -1 13 -1l2 -1q3 0 6.5 -0.5t5.5 -0.5q3 0 6.5 -0.5t5.5 -0.5h3q1 0 5.5 -0.5t6.5 -0.5q3 0 7.5 -0.5t5.5 -0.5q4 -1 4 -5q-1 -2 -1 -16q0 -3 -0.5 -6.5t-1 -6t-0.5 -3.5q0 -11 -1 -19l-1 -24q0 -1 -57 -1q-32 1 -136 1q-78 0 -87 -2 q-20 -7 -20 -10q-1 -1 -1 -3q-1 -1 -1 -3q-2 -3 -5 -25q-1 -4 1 -17q1 -8 2.5 -9.5t11.5 -2.5q7 -1 51 -2q11 -1 27 -1q2 -1 9 -1.5t10 -0.5q12 0 14 -1h4.5t8.5 -0.5t10 -0.5q33 -3 43 -6q10 -4 24 -12q17 -11 20 -15q11 -11 16 -23q3 -6 4 -7q3 -3 8 -20q6 -24 9 -42 q3 -16 2.5 -43.5t-3.5 -32.5q-2 -2 -2 -8t-2 -8q-2 -4 -2 -5l-1 -2q-2 -2 -2 -4q0 -4 -2 -4q-1 0 -1 -1q0 -3 -3 -7.5t-5 -3.5h-2q0 -1 2 -1q1 0 1 -1q0 -4 -6 -10l-2 -2t-1 -2l-4 -6l-4 -6q0 -5 -26 -14q-17 -3 -41 -5q-14 -1 -50.5 -1t-48.5 2q-1 0 -6.5 0.5t-14 0.5 h-16.5l-34 1l-17 9q-33 16 -43 24q-18 15 -23 24q-15 23 -23 43q-4 10 -5 11q-11 26 -13 63z" glyph-name="six" horiz-adv-x="487" unicode="6"/><glyph d="M26 289v3q0 4 -0.5 10t-0.5 12v24h6h12h7t15 0.5t17 0.5q19 1 66 1q29 1 66 1.5t62 0.5t26 -1l1 -1l-1 -4v-6q0 -7 -2 -15l-1 -15q0 -2 -0.5 -4.5t-1 -4.5t-0.5 -3v-6l-1 -3v-3q-1 -4 -1 -6q0 -4 -0.5 -7t-1 -10.5t-1.5 -16.5q-1 -6 -6 -41q-2 -12 -2 -18q-1 -5 -1 -9 l-1 -2q0 -2 -0.5 -5.5t-0.5 -5.5t-0.5 -5t-0.5 -5v-4l-1 -2q0 -7 -2 -21l-1 -8q0 -4 -2 -14q0 -10 -2 -12v-6l-1 -4q-1 0 -1.5 -2t0.5 -3v-9q-2 -7 -3 -26q0 -3 -0.5 -7t-0.5 -5q-1 -1 -1 -10q0 -4 -1.5 -21t-2.5 -21q0 -2 -0.5 -4.5t-1 -8t-0.5 -12.5q0 -6 -2 -8q-2 0 0 -2 q1 -1 0 -16q0 -5 -0.5 -14t-0.5 -12l-1 -11h-58l1 2v4q-1 0 -1 54t1 60q0 13 1 22q0 2 3 65q1 5 1 19q0 3 0.5 9.5t1.5 8.5q1 19 1 21.5t-2 2.5h-6q-7 1 -12 1q-19 2 -73 5q-17 0 -20 1q-11 0 -19 1q-44 1 -47 3q-1 1 -1 64v64z" glyph-name="seven" horiz-adv-x="328" unicode="7"/><glyph d="M25 21q0 2 1 3v7q0 3 2 7l3 7q0 5 3 9q2 6 1 6l2 7q0 2 1.5 5.5t1.5 4.5l2 3q1 2 2 3q3 1 3 4q0 1 16 14.5t17 13.5q2 1 4 3q5 4 11.5 9t6.5 4l1 1h1q0 1 10 7q16 8 21 13l4 2q1 0 5 2l10 5q5 2 18 10.5t13 9.5l-4 2q-4 2 -6 2l-3 1q-2 1 -5.5 2.5t-6.5 2.5q-16 5 -34 12 q-5 3 -5 2l-10 4q-8 5 -12 5l-4 3q-3 3 -5 3q-1 0 -1 1q-1 2 -3 3q-4 3 -11 11.5t-8 11.5l-3 6l-1 2l-1 4q-1 2 -1 5v1l-1 2q-2 2 -2.5 4.5t-0.5 3.5l-1 2q-1 3 -1 3.5t3 16.5q1 7 6 10q8 8 24 16q17 8 36 9q2 0 7 1t13.5 1.5t14.5 1.5q39 4 47 4h3l2 1q4 1 29.5 0t25.5 -3 t3 -2q12 -3 21 -14q9 -9 20 -19q13 -11 12 -29q-1 -11 -11 -28q-5 -10 -14 -17q-7 -5 -12 -9l-11 -9l-33 -28q0 -3 14 -5q2 -1 10 -3q5 -3 9 -3h2q1 -1 3 -2t3 -1l8 -3q18 -7 22 -7q2 -2 3 -2q29 -7 29 -13q1 -1 2 -1q2 0 4 -3l10 -9q11 -11 15 -16q8 -9 9.5 -12t7.5 -26 q3 -9 3 -15q0 -5 1 -7v-10q0 -2 0.5 -5.5t0.5 -4.5q2 -12 -4 -48q-1 -7 -4 -15q0 -6 -2 -8l-2 -8q-1 -5 -9 -17q-22 -27 -34 -34l-6 -4q-7 -7 -11 -7q-2 0 -3 -1q-5 -1 -10 -1l-34 -5q-2 0 -5 -1q-4 -1 -5 -1l-13 -2q-10 -2 -25.5 -1.5t-17.5 2.5h-2q-1 -1 -18 0t-21 3h-4 h-9t-21 1q-27 1 -33 3l-3 3q-1 1 -2 1q-2 0 -8.5 3t-6.5 4t-3 1q-2 0 -5 3l-3 2q-3 2 -4 3l-6 4q-2 2 -3 2t-8 6.5t-7 7.5q1 1 -6 16q-1 1 -3 9q-2 7 -3 7v4q0 1 -1 3q-2 0 -2 6t-1 6v3v4l-1 2q-2 0 0 3q0 2 -1 2q-1 1 -1 2v8v10v3z" glyph-name="eight" horiz-adv-x="422" unicode="8"/><glyph d="M25 219q0 5 1 12l2 14q0 2 2 14q3 7 3 14q5 21 13 37q4 8 12 17q10 10 24 15l9 5q20 11 47 12q1 0 10.5 0.5t15.5 0.5q83 4 108 -4q28 -9 27 -11q5 3 13 -5l6 -5q10 -7 22 -26q7 -12 22 -51q1 -4 2.5 -7.5t2.5 -6.5t1 -4l5 -14l5 -15q0 -2 1.5 -20t1.5 -22l4 -47v-13 q-1 -19 -1 -48q1 -22 -1.5 -45.5t-4.5 -25.5l-2 -4q-3 -18 -8 -26q-2 -2 -2 -6q-4 -16 -22 -38q-9 -11 -13 -13q-1 -1 -4.5 -3.5t-5.5 -4.5l-10 -7q-1 0 -5 -3t-7 -5q-18 -13 -21 -11t-5 0q-9 -4 -11 -2q0 1 -1 1t-2 -1l-3 -1q-2 2 -7 0q-8 0 -9 1q-2 1 -2 0q1 -1 0 -1.5 t-4 -0.5q-10 1 -20 1h-14h-6l-3 -1q-4 0 -6 1q-2 2 -2 0q-1 -1 -10 -0.5t-10 1.5t-1 0q-2 -1 -3 0h-5l-2 -1q-3 0 -6 -1h-17q-12 2 -12 0h-5q-5 2 -5 0q-4 -1 -8 -1h-9q-9 0 -19 -1h-19q-1 -1 -1.5 0t-1.5 6q0 4 1 4q0 1 -1 1q-2 0 -2 7v8q0 2 -1 2v6l-1 6q-1 1 -1 3 q2 4 0 7v9q0 8 -1 10q-2 14 0 14h8h7h7h14q1 0 9 -0.5t13 -0.5h21q15 0 26 -1h6q0 1 11 1q7 1 23 1q7 1 16 1l15 2q4 0 10 0.5t7 0.5h5q0 1 4 1l7 1h5q5 1 8 1q10 2 11 3q2 1 4 9l2 8l2 4q0 4 2 18q4 23 1 31l-2 25l-1 2v3q-2 5 -1 6q0 2 -2 4.5t-3 1.5q-3 -1 -11 -1 q-5 0 -5 -1h-2q-2 0 -4.5 -0.5t-5.5 -0.5q-10 -1 -30 -5q-8 -2 -11 -2q-5 0 -17 -3l-16 -2q-2 0 -3 -1q-12 -2 -14 -2h-9h-3q-3 -1 -5 -1h-15q-11 0 -17 3q-27 12 -33 18q-2 2 -3 2q-7 0 -19 16q-14 18 -18 32q-1 2 -6 28l-3 12q-3 27 -3 51v8z" glyph-name="nine" horiz-adv-x="410" unicode="9"/><glyph d="M33 294q0 12 6 24q13 25 33 31q4 1 10 2t9 1h4l4 -2q3 0 5 -2l3 -1q2 0 2 -1q1 -1 2 -1q2 0 3 -1t4 -1l7 -4q0 -2 1 -2t1 -2q0 -1 2 -3t8 -15l3 -5q1 -1 1 -2q0 -2 1 -2q1 -1 1 -2q0 -2 2 -6t2 -11q-1 -12 -2 -12v-1l-1 -2v-2l-1 -3l-2 -4l-2 -2q5 0 -15 -16q-4 -3 -6 -4 q-2 0 -5 -3t-4 -3t-1 -1q0 -2 -11 0q-1 1 -10 3q-16 2 -31 14l-3 2q-3 0 -10 14l-4 6q0 1 -1 3.5t-1 4.5q-2 6 -3 6q0 3 -1 5zM33 44q0 12 6 24q13 25 33 31q4 1 10 2t9 1h4l4 -2q3 0 5 -2l3 -1q2 0 2 -1q1 -1 2 -1q2 0 3 -1t4 -1l7 -4q0 -2 1 -2t1 -2q0 -1 2 -3t8 -15l3 -5 q1 -1 1 -2q0 -2 1 -2q1 -1 1 -2q0 -2 2 -6t2 -11q-1 -12 -2 -12v-1l-1 -2v-2l-1 -3l-2 -4l-2 -2q5 0 -15 -16q-4 -3 -6 -4q-2 0 -5 -3t-4 -3t-1 -1q0 -2 -11 0q-1 1 -10 3q-16 2 -31 14l-3 2q-3 0 -10 14l-4 6q0 1 -1 3.5t-1 4.5q-2 6 -3 6q0 3 -1 5z" glyph-name="colon" horiz-adv-x="154" unicode=":"/><glyph d="M26 270q0 12 6 24q13 25 33 31q4 1 10 2t9 1h4l4 -2q3 0 5 -2l3 -1q2 0 2 -1q1 -1 2 -1q2 0 3 -1t4 -1l7 -4q0 -2 1 -2t1 -2q0 -1 2 -3t8 -15l3 -5q1 -1 1 -2q0 -2 1 -2q1 -1 1 -2q0 -2 2 -6t2 -11q-1 -12 -2 -12v-1v-2q-1 -1 -1 -2l-1 -3l-2 -4l-2 -2q5 0 -15 -16 q-4 -3 -6 -4q-2 0 -5 -3t-4 -3t-1 -1q0 -2 -11 0q-1 1 -10 3q-16 2 -31 14l-3 2q-3 0 -10 14l-4 6q0 1 -1 3.5t-1 4.5q-2 6 -3 6q0 3 -1 5zM25 -11l-5 4l1 9q2 20 3 21q2 2 2 5l2 3q1 0 1 2q0 5 10 15q2 2 4 2q2 2 4 2q6 4 14 7q1 0 3.5 0.5t4.5 0.5q5 2 7 0l1 1q0 1 10 1 q18 -1 24 -6q8 -5 16 -14t8 -12q0 -1 2 -5l4 -10q2 -8 3 -8q0 -1 2 -14q0 -8 -3 -15q-10 -29 -18 -35q0 -1 -1 -2q-2 -1 -2 -2t-1 -2t-1 -2q-1 0 -5 -6q-1 -2 -2.5 -3.5l-3 -3t-1.5 -2.5q-2 -3 -7 -9t-9 -11l-4 -6q-1 0 -2 3q2 8 3 17q0 4 1 9t1.5 8.5t0.5 4.5q5 19 -3 38 l-1 4h-5h-15q-32 -2 -43 11z" glyph-name="semicolon" horiz-adv-x="166" unicode=";"/><glyph d="M20 158v8v7l5 4q6 4 6 5q2 2 4 2l5 5q3 3 4 3q2 0 5 3q4 2 10 8l8 6q0 1 1 1l4 2q4 4 10 7q2 1 4 3l3.5 3.5t2.5 1.5q2 2 4 2q1 1 1 2l2 1q2 0 2 1q1 2 4 3l6 5q1 0 3 1.5t2 2.5q4 2 7 5l5 4q1 0 5 4l6 4l1 1q0 1 1 1t3 2q0 2 2 2q1 0 3 2l3 2l4 4q1 1 10 7l7 5q0 2 2 2 q3 0 3 2l1 1q3 0 4 3q2 2 4 2l1 1q0 1 1 0q2 0 2 -8t1 -9l3 -34q0 -11 1 -16v-10l-5 -4l-5 -5l-19 -15q-4 -3 -9 -7.5t-8.5 -7t-4.5 -3.5q-3 -3 -7 -5q-4 -4 -7 -6l-6 -5l-6 -4q-6 -6 -8 -7q-4 -3 -17.5 -14t-13.5 -12q2 -2 5 -4l6 -4q1 -2 3 -3q4 -2 5 -4q4 -2 5 -3 q1 0 3 -2q3 -2 4 -3q8 -4 9 -5l2 -2q0 -1 1 -1t3 -2l18 -12q1 0 2 -1l3 -2q1 1 1 0v-2l2 -1q0 1 2 -1l3 -2q0 1 3 -2q4 -2 5 -2t3 -3l3 -3q6 -1 6 -13q0 -1 3 -23q2 -20 3 -22q0 -9 2 -22v-7l-5 4q-5 5 -13 11l-27 20q-23 18 -24 19q-6 4 -9 7q-39 30 -46 36l-10 8 q-2 1 -12.5 9.5t-12.5 9.5q-3 3 -4 28q-1 18 -2 29v1z" glyph-name="less" horiz-adv-x="216" unicode="&lt;"/><glyph d="M210 180v-59h-6q-12 0 -34 -0.5t-32 -1.5q-12 -1 -32 -1q-26 0 -54 -2q-6 -1 -20 -1q-9 0 -10 3q-1 6 -2 26t0 23q1 5 3 5.5t13 1.5h15q1 0 9.5 0.5t13.5 0.5t16 0.5t15 0.5q8 1 27 1h17q2 1 15 1q2 0 13.5 0.5t17.5 0.5q5 1 15 1zM210 60v-59h-6q-12 0 -34 -0.5 t-32 -1.5q-12 -1 -32 -1q-26 0 -54 -2q-6 -1 -20 -1q-9 0 -10 3q-1 6 -2 26t0 23q1 5 3 5.5t13 1.5h15q1 0 9.5 0.5t13.5 0.5t16 0.5t15 0.5q8 1 27 1h17q2 1 15 1q2 0 13.5 0.5t17.5 0.5q5 1 15 1z" glyph-name="equal" horiz-adv-x="230" unicode="="/><glyph d="M196 158v8v7l-5 4q-6 4 -6 5q-2 2 -4 2l-5 5q-3 3 -4 3q-2 0 -5 3q-4 2 -10 8l-8 6q0 1 -1 1l-4 2q-4 4 -10 7q-2 1 -4 3l-3.5 3.5t-2.5 1.5q-2 2 -4 2q-1 1 -1 2l-2 1q-2 0 -2 1q-1 2 -4 3l-6 5q-1 0 -3 1.5t-2 2.5q-4 2 -7 5l-5 4q-1 0 -5 4l-6 4l-1 1q0 1 -1 1t-3 2 l-2 2q-1 0 -3 2l-3 2l-4 4q-1 1 -10 7l-7 5q0 2 -2 2q-3 0 -3 2l-1 1q-3 0 -4 3q-2 2 -4 2l-1 1q0 1 -1 0q-2 0 -2 -8t-1 -9l-3 -34q0 -11 -1 -16v-10l5 -4l5 -5l19 -15q4 -3 9 -7.5t8.5 -7t4.5 -3.5q3 -3 7 -5q4 -4 7 -6l6 -5l6 -4q6 -6 8 -7q4 -3 17.5 -14t13.5 -12 q-2 -2 -5 -4l-6 -4q-1 -2 -3 -3q-4 -2 -5 -4q-4 -2 -5 -3q-1 0 -3 -2q-3 -2 -4 -3q-8 -4 -9 -5q-4 -2 -2 -2q0 -1 -1 -1t-3 -2l-18 -12q-1 0 -2 -1l-3 -2q-1 1 -1 0v-2l-2 -1q-1 0 -2 -1l-3 -2q0 1 -3 -2q-4 -2 -5 -2t-3 -3l-3 -3q-6 -1 -6 -13q0 -1 -3 -23q-2 -20 -3 -22 q0 -9 -2 -22v-7l5 4q5 5 13 11l27 20q22 18 24 19q6 4 9 7q39 30 46 36l10 8q2 1 12.5 9.5t12.5 9.5q3 3 4 28q1 18 2 29v1z" glyph-name="greater" horiz-adv-x="216" unicode=">"/><glyph d="M23 359l-1 7q0 4 3 4t4 1h6q4 -1 4 0t2 1h8q3 1 13 1h9q3 1 6 1h5h8q9 1 11 1l17 -1q2 -1 5 -1q6 0 6 -2q0 -1 2 -1q2 -1 3 -1q4 0 4 -1h2q2 0 2 -1t3 -1t3 -1q1 -2 4 -2q4 -1 4 -2l1 -2q2 0 3 -1l5 -5q4 -2 8 -6q1 -3 4 -3q4 -2 3 -5v-2q2 0 3 -4l3 -4q1 0 1 -3 q0 -4 2 -4q1 -1 1 -4q-1 -3 0 -4t0 -1q0 -1 1 -1q1 -1 0 -2q0 -5 1 -9v-5l1 -3v-7q1 -6 -1 -19q-1 -1 -1.5 -3.5t-0.5 -3.5v-4l-1 -2q-4 -8 -4 -15l-1 -2q-1 -1 -1 -2t-4 -7q-3 -3 -4 -5t-4 -5l-2 -2q1 0 -2 -3q-2 -2 -2 -3l-4 -4l-6 -6q-1 -2 -14 -13q-14 -13 -15.5 -15 t-1.5 -9q0 -11 -1 -14q0 -5 1 -5v-5q-1 -8 -1 -44l-1 -9q-1 -1 -50 1l-24 2l-2 2q0 2 -2 8q0 1 -0.5 4t-1.5 6.5t-1 5.5t-0.5 5t-1 4.5t-1.5 3.5v1q0 6 -1 11t-1 12l-2 18v2q-1 3 -1 5v10q0 1 -3 32q0 9 -1 10q0 7 5 8q1 1 6.5 2t7.5 1l11 3q1 0 3 0.5t3 0.5q1 1 4 1l1 1 q0 1 1 1q2 -2 2 0q3 1 6 1q4 0 4 1q1 1 2 1q2 0 2 1h3q1 0 2 1h2q0 2 2 0q2 0 4 1q1 1 3 1t5 3q10 7 3 26q-3 7 -21 15q-9 4 -39 13q-1 0 -9.5 2t-12.5 3t-5 4v7v13l-1 7q-2 0 0 5v7zM33 8q-1 1 -1 5v3q1 3 1 5q1 8 6 13q3 2 3 3t2.5 3t3.5 2t3 2t5 2q1 0 2 1q2 0 2 1h3 q2 0 2 2q1 1 2 0q2 0 2 1q1 1 10 0t9 -2h2q1 -1 1 -2q1 0 3 -1l1 -1l1 -1l2 -1q0 -1 1 -1q2 0 3 -2l4 -3q2 0 2 -4q0 -3 3 -3q2 0 2 -1q1 -1 2 -1l1 -2q0 -1 1 -1q1 -2 1 -4v-4v-5q0 -6 1 -9q0 -6 -1 -8l-1 -4q2 -2 -6 -19l-4 -5q-2 -2 -2 -4l-3 -2l-4 -4q0 -3 -2 -1 q-1 0 -3 -2q-1 -1 -4.5 -0.5t-4.5 1.5h-2q-1 -1 -4 0q-2 1 -5 1h-3q-1 1 -2 1q-2 1 -3 1q-7 0 -14 7l-3 3l-8 8q-2 2 -2 5v1q-1 -1 -1 1q3 5 -3 16v3q0 1 -0.5 3t-0.5 3z" glyph-name="question" horiz-adv-x="211" unicode="?"/><glyph d="M21 8q-1 2 -1 4l1 1q1 0 0 1v3l2 12l1 11q0 3 1 6q0 2 1 4v3q1 1 0 1t-1 1.5t0.5 4t1.5 3.5q0 2 -1 2q0 2 1 5q0 1 0.5 3.5t1 6t0.5 6.5l1 11l2 6q0 2 0.5 5t0.5 4q2 6 2 9q-1 4 1 6q3 1 1 3q-1 0 -1 1t0.5 3.5t1.5 6.5q4 22 4 28v2q1 2 2 5t1 6q2 12 3 15l1 9 q1 5 2 10.5t2 8.5q0 2 0.5 5.5t1.5 8t1 7.5t1.5 10.5t1.5 9.5q2 6 2 9q3 12 3 20q0 5 2 5q1 4 1 9q0 1 5 33q2 8 2 12q2 10 3 11v4q0 4 1 4q1 1 1 4q0 4 2.5 13.5t4.5 10.5h18q44 -2 51 -1h17q14 0 15 1q1 0 2 -1q2 -2 2 0q6 1 16 1h23h8l1 -4q1 -1 3 -13q0 -5 12 -63 q12 -53 16 -64q1 -3 1 -6q-1 -1 0 -1q1 1 3 -14q4 -18 4 -19l1 -4v-2q2 -2 1 -3q0 -2 2 -8q0 -3 1.5 -8.5t3 -14t2.5 -14.5q0 -2 1 -6t1.5 -7t0.5 -4q1 -5 7 -33q1 -9 2 -11l1 -2q0 -2 0.5 -4.5t0.5 -4.5t1 -5q1 -8 2 -10q0 -1 1 -4.5t1.5 -9t1.5 -9.5q1 -6 5 -28 q3 -11 3 -15v-4h-9q-9 2 -16 0h-39q-28 0 -31.5 1t-5.5 12q0 9 -2 11q-5 12 -5 26q0 4 -1 5v3q0 2 -1 3l-2 4q2 0 0 4l-1 7q0 2 -2 10q-3 12 -4 19q-1 3 -1.5 6.5t-1.5 6.5l-1 2l-1 2v5l-1 7q-1 1 -1.5 3t-0.5 3v4q-2 8 -9 8q-21 -3 -22 -4q-2 -2 -11 -133q-2 -14 -3 -14 q0 -1 -7 -1h-16h-52h-14q0 -1 -16 -1h-17q-3 0 -3 3z" glyph-name="A" unicode="A"/><glyph d="M30 390v7q0 7 1 8q4 2 21 2q4 0 5 1h4h3q0 1 10 1h12q0 1 12 1q19 0 26 1l5 1h9q5 1 12 1q1 1 10 1q2 0 6 0.5t5 0.5q7 1 25 0.5t20 -1.5q2 -2 4 -2q1 1 6 -1q1 -1 5 -1q1 0 3 -2q4 -4 15 -4q2 0 2 -1q0 -2 2 0q3 0 6 -3l5 -3l2 -1q0 -2 3 -3l4 -4q2 -2 4 -2q1 0 3 -2 q4 -4 7 -6q5 -2 5 -4q2 -3 5 -6q5 -5 5 -7q0 -4 1 -5q2 -2 5 -11.5t3 -13.5q0 -6 2 -6v-14q-1 -21 -11 -35q-16 -18 -26 -23l-27 -14q-38 -19 -36 -22q0 -1 3 0q3 0 3 -1q2 -1 4 -1l5 -1q0 -4 8 -4q3 0 3 -2q2 -2 4 -1q3 0 3 -1t4 -1t5.5 -1t0.5 -3q0 -4 7 -4q3 0 3 -1 q1 -1 2 -1q3 0 3 -2q0 -1 3 -1t3 -1q1 -1 4 -2q3 0 3 -2h2q2 0 2 -2q2 -2 4 -2q3 2 3 -1q0 -2 6 -4l5 -5q1 -1 2 -1t5 -4q3 -5 5 -5t4 -5l6 -7l4 -4v-10q-2 -32 -5 -52q-1 -12 -5 -16l-2 -3q0 -2 -1 -3q-1 0 -6 -5q-2 -6 -11 -15q-18 -25 -38 -38q-3 -3 -18 -8 q-10 -2 -13 -4l-18 -3q-11 -1 -64.5 1t-70.5 4q-20 2 -27 2q-9 0 -11 2q-2 1 -2 10q-1 4 -1 18q-1 5 -1 20q0 3 -0.5 9t-0.5 7v61q1 18 1 37q0 3 -0.5 9.5t-1.5 8.5q0 6 -1 11l-1 8q-2 2 0 2q1 4 0 8q-1 21 0 67q2 37 0 42l-1 14q0 7 -1 7v9q-1 4 -1 12q0 1 -0.5 7t-0.5 10 v13z" glyph-name="B" horiz-adv-x="362" unicode="B"/><glyph d="M30 208q-1 1 0.5 19.5t2.5 26.5l1 6v9q0 10 1 10v4q3 27 3 28v7q0 2 2 4q2 4 1 8l1 1q1 -1 5 5q1 1 1 2l1 1q1 0 1 2v2q2 0 2 2q0 3 2 3q3 3 3 6q0 4 2 4l1 2l3 3q3 5 4 5q1 1 1 2q0 2 1 2q1 1 1 3l1 1l2 4t2 3q4 6 3 7q-4 4 2 4q2 0 5 3q2 2 4 2l5 3l4 3q0 -1 3.5 1 t9.5 5q14 7 16 7t2 1l3 2q2 2 2 3t2 1t2 2t4 2q8 -2 8 2q0 1 -1 1q-2 0 -2 2q0 3 -1 5t1 2t6 -3q3 -2 8 -2q1 0 2 1q2 0 2 1t2 1t7.5 2.5t5.5 3.5t2 1h2q2 1 3 1q10 5 18 5h3l2 1q0 2 5 2q15 0 17 2q0 1 7 1q13 0 19 2q5 2 5 1t3 -1q1 1 17 1h15l2 -3q3 -3 4 -2q2 2 2 3 q0 2 1 2q11 3 137 1l26 -1v-18q0 -4 -0.5 -10t-1 -10t-0.5 -6q0 -12 -1 -18l-1 -18q0 -4 -2 -34l-1 -13q-1 -2 0 -3q0 -6 -1 -11t-1 -12q0 -3 -10 -4q-2 0 -12 -0.5t-16 -0.5l-50 -3q-4 0 -40 -2l-38 -2q-3 -1 -31 -3q-40 -2 -56 -13q-15 -10 -18 -13.5t-11 -20.5 q-5 -9 -9 -21l-2.5 -5l-2.5 -5l-2 -4l-1 -2q-1 -2 -1 -5v-1q-2 0 -2 -2.5t1 -3.5q0 -1 3 -1q2 1 2 -1q0 -3 -1 -4q-3 -3 -1 -10q0 -2 2 -2q4 0 1 -4q-2 -1 0 -8q3 -6 6 -7q5 0 1 -4q-2 -2 1 -2q2 0 2 -2q0 -3 4 -3q3 0 3 -2q-1 -3 3 -3t4 -1q0 -3 2 -1q3 0 3 -2l3 -3 q2 0 3 -1q2 -1 4 -1q3 0 3 -2t2 -2q4 0 7 -1q9 0 9 -3q0 -2 2 -2q1 0 5 -2q6 -3 8 -3l8 -3q4 -2 5 -2h1q0 -1 7 -1q2 0 6.5 -0.5t6.5 -0.5q1 0 6 -0.5t7 -0.5q36 -2 48 -2q3 0 8 -0.5t6 -0.5h8l4 1q2 -2 5 -2q6 0 9 -1q6 -2 8 -1l8 -2q3 -1 13 -1q7 0 8 -1h2q2 -1 3 -1l3 -1 q2 -1 5 -1q16 0 16 -2l1 -1q2 1 4 0t1 -3v-3q0 -4 -0.5 -9.5t-0.5 -10.5q0 -20 -2 -34l-1 -14v-17q0 -4 -0.5 -14.5t-1.5 -14.5q0 -26 -2 -26q-9 -1 -21 -1q-11 -1 -31 -1q-2 0 -8 -0.5t-15.5 -1t-15.5 -0.5h-23l-14 -1h-31l-25 -1l-23 6q-26 6 -28 6q-39 9 -41 11l-6 3 l-6 3l-2 1q-1 1 -3 2t-3 2q-39 24 -75 61q-32 33 -33 46l-2 54v13l-1 7l-1 4v10v11z" glyph-name="C" horiz-adv-x="500" unicode="C"/><glyph d="M345 174q1 -23 0 -30q0 -9 -13 -44l-5 -14q0 -1 -1 -2q-2 -2 -2 -3l-7 -7q-9 -11 -21 -20q-3 -1 -19 -11q-14 -7 -17 -10q-9 -5 -20 -7q-2 0 -18 -4q-42 -11 -44 -9h-1q0 -4 -13 -2l-5 -1q-1 -1 -4 -1h-9h-12q-2 0 -5 -0.5t-4 -0.5h-6q0 2 -2 0h-3q-5 0 -7 -1h-11h-5 q-1 -1 -15 -1h-4h-4h-3q-4 -1 -8 -1h-15q-6 -1 -6 0q-1 1 -1 0l-1 -1q-1 0 -1 2t-1 2v4v9v7q2 2 0 2q-1 -1 -1 1v6v8v12q1 -1 1 -0.5t-1 2.5v10v22v5v10v9q1 5 0 17v9v9v10v7v19v10v8v17v14v8q0 1 -0.5 8.5t-0.5 12.5q1 3 1 10v10v11q-1 4 -1 13q1 3 1 17v16v5v4 q0 2 0.5 14.5t0.5 21.5q0 16 1 16l32 -1q11 0 20 -0.5t13 -0.5l4 -1q12 0 24 -1l23 -2l11 -2q12 -3 25 -5.5t15 -2.5q1 -1 3 -1.5t3 -0.5q13 -2 22 -8q2 -2 5 -2l2 -2q0 -1 1 -1q6 0 28 -19q14 -12 26 -21q1 -1 5 -4.5t7 -6.5l12 -11q6 -6 11 -16q0 -2 2 -4l8 -21 q1 -3 4 -29l2 -17l1 -2v-8q1 -3 1 -6q0 -5 1 -11q0 -15 1 -21z" glyph-name="D" horiz-adv-x="376" unicode="D"/><glyph d="M30 435q0 37 1 37q2 2 76 3h43q18 1 40 1q47 0 55 1h17h35q19 -1 75 -1l42 -2q2 -1 2 -18q0 -10 2 -12q2 0 0 -2q-1 -2 0 -31q1 -16 1 -54v-7l-59 1q-66 0 -99 -3q-32 -4 -57 -5l-56 -7l-6 -1l1 -5q0 -1 0.5 -7.5t0.5 -10.5q2 -14 2 -18q0 -1 0.5 -5.5t0.5 -7.5 q0 -8 2 -10v-2l-1 -1v-2q0 -2 0.5 -5.5t0.5 -6.5q1 -7 1 -16q2 -3 7 -3q7 -2 24 0q9 1 43 1l26 1q2 2 2 0q1 -1 4 -1l24 2q48 2 54 3q2 0 2 -1h2q2 1 19.5 1.5t19.5 -0.5q1 -1 8 -2h3v-40h-40h-13t-11.5 -0.5t-8.5 -0.5h-7h-2q-33 -1 -73 -1q-79 -1 -80 -2q-1 0 -1 -10 q0 -3 -1 -9t-1 -9l-1 -10q0 -8 -2 -50l-1 -17h6q75 0 84 -3h5l3 1h5.5h7.5q40 1 45 2q6 1 12 1q9 0 17 1q9 1 23 1q8 1 15.5 1.5t11 1t5.5 0.5q10 2 13 -1q2 -2 3 -23q5 -71 5 -77t0.5 -18t0.5 -16q1 -20 -3 -20h-9q-2 0 -6 -0.5t-10 -1t-10 -0.5q-30 0 -79 -3 q-12 0 -26.5 -1t-20.5 -1q-34 -2 -40 -3q-57 -4 -143 0q-3 1 -11 1q-11 0 -11 5q0 3 1 3q2 0 0 2q-2 10 -3 72q0 10 -0.5 30t-0.5 25q0 3 -0.5 29t-0.5 42q-1 28 -1 67q-2 36 -3 139z" glyph-name="E" horiz-adv-x="449" unicode="E"/><glyph d="M32 -55q-2 1 -1 89l2 124q0 4 0.5 15t1 28.5t0.5 29.5q0 19 0.5 44.5t0.5 26.5v49q0 8 0.5 19.5t1 19.5t0.5 11l1 30q0 17 1 17q1 1 19 1q5 1 20.5 1.5t22.5 0.5l115 2q15 0 36 0.5t23 0.5q21 3 74 4q4 0 13 0.5t12 1.5q14 0 20 1q3 0 9 0.5t8 0.5h7l-1 -24 q0 -7 -0.5 -27t-0.5 -29q0 -8 -0.5 -27.5t-1.5 -25.5v-25v-3l-40 1q-6 0 -56.5 0.5t-82.5 0.5q-24 0 -50 0.5t-42 0.5h-17l-10 1v-4q1 -1 1 -5t1 -5q1 -7 2 -21q0 -3 0.5 -5.5t0.5 -4.5v-2q1 -5 1 -10l1 -19q2 -34 2 -36l1 -13h1q4 2 50 2q32 1 44 2q24 2 50 2l25 1v-3 q0 -9 1 -18v-15l-8 -1h-11h-4q-4 0 -11 0.5t-13 0.5q-9 0 -22 0.5t-15 0.5q-39 3 -82 3h-8v-35q2 -70 3 -75q0 -20 1 -41q1 -57 0 -58t-47 -1.5t-49 0.5z" glyph-name="F" horiz-adv-x="419" unicode="F"/><glyph d="M30 185q0 61 1 64q1 2 2 9t1 9v3q0 4 1 9q0 12 3 30q0 1 0.5 4.5t0.5 5.5q3 17 15 42q7 16 7 17q1 1 1 2l14 21q0 1 1 1t3 4q3 6 13 13q8 4 9 5q8 6 28 14l10 4q2 2 26 9q4 2 5 3h3q2 0 2 1q2 1 4 1q4 2 5 3l2 1q1 -2 3 0l4 2q2 0 14 4l20 7q3 1 8.5 3t7.5 2q19 7 63 11 q1 0 5.5 0.5t6.5 0.5q5 1 11 1q16 2 22 3q5 0 17 2q1 0 18 0.5t27 0.5q33 0 33 -2q1 -1 1 -47q0 -12 0.5 -42t1.5 -41q1 -39 -2 -39h-5h-4h-11t-15.5 -0.5t-20 -0.5h-22.5q-74 -1 -80 -3q-10 -2 -12 -2q-1 -1 -5 -1q-10 0 -28 -16l-9 -5l-1 -1q0 -1 -3 -4q-10 -4 -21 -26 q-1 -1 -3 -5t-3 -5q-10 -20 -20 -53l-3 -11l2 -9q2 -10 3 -12l2 -11q4 -10 4 -14q5 -15 14 -26q2 -2 2 -3l6 -10q9 -12 19 -18q2 0 2 -2q1 -1 2 -1q10 0 10 -5h4q3 0 5 -2t4 -2q3 0 3 -1q-1 -1 3 -1q5 0 17 -2q4 -1 9 -1q4 0 7 -1q7 -2 8 -1q2 0 2 -1q2 -1 4 -1q27 0 29 1 q1 0 0.5 0.5l-1.5 1.5q-2 2 0 3q2 0 1 6q0 18 -1 34q0 30 -1 30t-2 1q-10 2 -47 4l-12 1q0 1 -15 1l-18 2l-4 1v24q0 6 0.5 12t0.5 9v4q21 0 45 1h44h8q14 -2 29 -1q12 0 24 -1h28l6 -1q0 -1 2 -1q3 0 4 -1q1 0 4.5 -0.5t5.5 -0.5l7 -1v-142v-32.5v-30.5t-0.5 -26.5 t-0.5 -22.5v-17v-11v-4q0 -1 -10 -1t-10 -1h-1h-4q-4 0 -11 0.5t-14 0.5q-28 0 -28 1h-6q-5 -2 -7 0h-9q-8 -2 -8 0h-5q-2 -2 -6 0h-11q-10 0 -13 1l-14 2q-8 0 -10 2l-3 1h-4h-7q0 1 -2 1h-7q-2 1 -7.5 1.5t-8.5 0.5q-23 0 -32 3l-3 1q-3 -3 -21 4q-1 0 -2 1l-2 1l-1 1 q-1 0 -3 2l-6 3l-3 3l-2 2q-3 0 -19 13l-4 2q-5 0 -25 20l-6 6q-5 4 -20 19.5t-19 20.5q-1 1 -3.5 4.5t-3.5 4.5l-9 12q0 2 -1 2q-9 6 -6 11q0 2 -1 1q-1 1 -1 3q0 1 -1 4.5t-2 6.5q-7 25 -8 29q-2 12 -3 14q-3 8 -2 10q0 1 -1 1v2q-1 1 -1 2v13q-1 10 0 10t0 1q-1 2 -1 4 q0 25 -2 27z" glyph-name="G" horiz-adv-x="481" unicode="G"/><glyph d="M401 264q0 -3 1 -8v-5v-58q0 -96 -1 -118q0 -5 -0.5 -10.5t-0.5 -9v-4.5q1 -29 -2 -29q-1 -1 -3 1q-3 5 -9 -1q-4 -4 -9 1q0 1 -1 0t-5 -1q-4 2 -4 0q0 -1 -19 -1h-20l-4 4q-3 3 -2 6q4 7 2 10q-1 1 0 2q0 3 -1 3v2q0 3 1 6v4q1 0 1 11q0 19 0.5 41.5t0.5 34v22.5v15v4 h-2q-3 1 -5 1q-10 0 -17.5 0.5t-10 1t-3.5 0.5q-20 0 -38 3q-8 1 -32 0.5t-25 -1.5t-1 -34t1 -52q3 -57 3 -61q1 -9 -1 -13q-2 -3 0 -3q2 -1 2 -8v-7h-7q-9 0 -10 1q-3 2 -3 0q0 -1 -6.5 -1.5t-7.5 0.5t-7 1l-5 -1q0 -1 -2.5 -1t-4.5 1q0 1 -1 1t-1 -1q-5 -2 -8 1q-2 2 -3 0 q-2 -2 -18 -2t-18 1h-2q0 -2 -4.5 -2t-5.5 1h-1q0 -1 -2 -1q-8 0 -16 -1q-13 -1 -16 0q-3 2 -3 0q-2 0 -4 -1q-9 -2 -11 5q0 136 1 175q1 19 1 98q1 35 1 70q1 2 1.5 10t0.5 11q0 15 1 15q0 1 2 1q2 1 3 1q0 1 1 1t1 -1h1q4 -1 6 0h10l5 1h3q3 0 7 0.5t8 0.5h16q0 1 3 1 q9 -3 13 -1q2 2 2 0l47 1q15 0 15 -1t3.5 -1t6.5 1q2 1 3 0.5t0 -2.5v-2q0 -2 -0.5 -4.5t-0.5 -5.5t-0.5 -11t-0.5 -12q-2 -24 -2 -78q0 -46 1 -47h74q7 1 14.5 1.5t12 0.5t4.5 -1t1 -1l3 1h5h2q2 -1 5 -1h9q2 -1 8 -1l4 -1l1 8q4 20 4 64q2 45 2 68v15h7q2 0 4 -0.5t3 -1.5 h2l2 -1q0 2 2 0q0 -2 9 -2q26 -3 26 -4q2 0 5 -25q0 -12 1 -14q0 -16 1 -34q0 -10 0.5 -25t0.5 -17z" glyph-name="H" horiz-adv-x="432" unicode="H"/><glyph d="M10 353v16q0 4 0.5 20t0.5 24q1 42 3 43q1 1 14 1t14 -1h2q0 2 7 0q6 -2 6 0t3 2l1 -1q0 -1 18 -1l44 -2h2l2 1q0 -1 3 -1q2 1 4 1l22 -2h25h6q1 1 2 1t1 -1l2 -1h4.5h5.5q4 0 10.5 -0.5t17.5 -1t22 -0.5q32 -1 33 0h1q1 0 53 -3q2 0 2 -1q1 -2 1 -54t-2 -54h-11 q-2 0 -13.5 0.5t-17.5 0.5l-47 1l-26 1v-6q1 -7 2 -7q1 -1 0 -3q-1 -1 -1 -28v-14.5t0.5 -12.5t0.5 -6l2 -60v-117l1 -34q0 -7 0.5 -16.5t1 -14.5t0.5 -6q0 -2 13 -2q2 0 5 -1q3 0 4 -1q7 0 13 -1q12 0 14 -1q1 0 5.5 -0.5t7.5 -0.5q11 -1 17 -1q3 -1 -1 -27q-1 -2 -1.5 -8 t-0.5 -8q-1 -14 -3 -14l-2 -1q0 -2 -29 0q-1 0 -12 0.5t-19 0.5q-12 1 -24 1l-22 2h-10h-9l-3 1q-1 1 -1 0q-2 -1 -7 0q-1 0 -9.5 0.5t-13.5 0.5t-14.5 0.5t-11.5 0.5q-1 0 -10.5 0.5t-15.5 0.5l-19 1q0 24 1 43v16v5h11l16 -2l67 -2h9h8v93q0 141 2 145q1 1 1 32t-1 48v12 l-10 1q-3 0 -12.5 0.5t-14.5 0.5q-4 0 -13 0.5t-12 1.5q-10 1 -53 1t-51 -1h-11z" glyph-name="I" horiz-adv-x="362" unicode="I"/><glyph d="M31 151q-1 1 -0.5 5.5t1.5 4.5l8 -2q2 -1 25 -3l23 -2q2 -1 21 -1l18 -2q1 0 3 -14l2 -15l1 -2q-1 -1 1.5 -14t4.5 -16q4 -10 12 -11l11 -1q4 -1 14 -1t14 1q6 0 8 1q11 1 14 4q11 8 13 17l2 4q1 0 1 2q2 3 3 7q3 6 3 25l-2 24q-1 3 -1 7q1 1 -8 39q-3 7 -8 8t-69 -3 q-4 0 -16 -0.5t-17 -0.5q-34 0 -52 -3l-17 -2q-1 0 -2 35q0 5 -0.5 13t-0.5 9q-2 19 -4 101q0 11 -1 25v15v4v3l1 2q2 1 31 1q103 0 125 4q32 4 93 5q22 0 27 1h10v-5l3 -42q0 -2 1 -7.5t1 -7.5q0 -10 1 -13q2 -22 2 -29l1 -11q1 -1 1 -11q1 -6 1 -14q1 -9 3 -43 q0 -6 0.5 -15t0.5 -10q2 -18 2 -32l1 -19q0 -10 2 -16q1 -2 1 -5.5t1 -4.5q0 -14 4 -34q3 -22 -1 -41q-6 -20 -24 -38q-20 -18 -21 -18l-4 -4q0 -2 -9.5 -7t-15.5 -6q-34 -9 -100 -10h-42l-8 3q-25 13 -49 44q-17 21 -20.5 27.5t-13.5 37.5l-9 26l-1 15v16z" glyph-name="J" horiz-adv-x="380" unicode="J"/><glyph d="M391 76q5 -6 -1 -9q-3 0 -3 -2q-1 -1 -2 -1q-7 0 -13 -6q-1 -1 -3 -1h-1q2 -2 -2 -2q-3 0 -2 -1q-1 -1 -2 -1l-27 -11l-37 -18q-19 -8 -22 -10l-10 -4l-2 -1q0 -2 -4 -2q-4 -3 -5 0l-3 2q-3 0 -44 43q-24 23 -55 54l-25 22q-3 3 -11 10.5t-10 9.5q-14 12 -11 8 q1 -12 1 -27q2 -38 3 -52q0 -12 1 -18q0 -3 0.5 -5.5t0.5 -4.5v-2v-2q0 -2 0.5 -5.5t0.5 -6.5v-4.5t0.5 -4t0.5 -2.5v-2q1 -7 1 -15q1 -13 -1 -13l-55 -4q-2 0 -3 12q0 11 -2 31l-4 81q0 20 -1 28q0 4 -0.5 16.5t-0.5 18.5t-0.5 18t-0.5 15t-0.5 14.5t-0.5 16.5 q0 6 -0.5 15.5t-0.5 11.5q-2 35 -4 62v15q-1 0 -1 35q1 35 2 36t8 1l35 4q2 0 2 -1q0 -2 2 0h3q4 1 6 1h7v-4q0 -1 -0.5 -7.5t-0.5 -10.5t-0.5 -15.5t-0.5 -16.5l-2 -17q0 -21 -1 -44q0 -43 1 -44q2 0 3 1q0 2 2 2t2 1t1 1t3 2l1 1q3 1 5 3l5 4q3 2 6 5q9 9 10 9q3 0 4 3 l4 4q5 0 5 4q0 2 2 2t11 7l5 5q1 0 6 5t7 5q1 1 1 2q0 2 2 2t8 6q2 1 4 3l2 2q2 0 2 1l1 2q3 0 3 2q1 1 3 1l1 1q-1 0 0 1t2 1q3 3 5 4l3 2h1q0 1 4.5 6t5.5 5q3 0 18 15l11 10q1 0 3.5 2.5t2.5 4.5q-1 3 2 1q2 0 3 2q0 2 5 4q4 2 3 3q0 4 8 7h3l3 1q3 1 4 -2l1 -3l4 -2 q3 -3 7 -3q6 -1 6 -2q1 -1 0 -3q-1 -4 3 -4q2 0 2 -1q2 -2 3 -2q2 0 4 -2q0 -2 3 -2q3 -1 0 -5q-2 -2 -2 -3l-2 -3l-2 -2t0 -1q0 -1 -1 -2q-2 0 -2 -2t-1 -2l-2 -2q-4 -8 -9 -13l-2 -2q0 -1 -1 -2q-2 -2 -2 -3q-3 -3 -3 -5q-1 -1 -2 -1q-2 -2 -2 -3q0 -3 -1 -2q-1 0 -1 -1 q0 -3 -4 -5l-3 -4q1 -1 -1 -3l-2 -2q2 -2 -1 -2q-2 -1 -19.5 -24.5t-17.5 -24.5t4 -3q4 -3 4 -5l1 -3q1 -1 1 -2q-1 -1 0 -1q2 2 7 -6q0 -1 1 -2q3 -5 4 -5t1 -1t4 -5t4 -5q0 -2 2 -4q3 -3 4 -5q0 -2 2 -2l4 -4q2 -4 1 -3l1 -2q2 -1 7 -6.5t8 -9.5l3 -3q0 -2 1 -2t3 -3l3 -6 l6 -7l5 -5l6 -6q2 0 3 -3q2 -4 3 -4q2 0 2 -4q3 -3 4 -3q2 0 2 -2v-2q1 0 3.5 -2.5t2.5 -3.5t2.5 -5t3.5 -4l2 -1q0 -2 3 -5q2 -2 4 -4.5t3 -4.5l1 -2q-1 0 0 -1l3 -3q5 -3 7 -8q2 -4 3 -4l2 -3q0 -4 2 -4q4 0 7 -7q0 -1 1 -2.5l2 -3t1 -2.5z" glyph-name="K" horiz-adv-x="414" unicode="K"/><glyph d="M31 -11v4v28q-2 27 0 35v6q-1 1 0 28v13v6q1 1 1 3q-2 9 0 28v19v12l1 32v23l1 48v10v14q0 13 -2 12h-2q0 1 2 1q2 1 3 32v13q0 2 0.5 9t0.5 10q0 13 1 16v10v7q1 0 1 3q-1 1 -0.5 1.5t3.5 0.5q5 0 5 1q3 1 7 1h9l4 -1q3 0 4 1h3q11 0 26 1l28 2l1 -2v-2q2 -3 0 -3 q-1 -2 0 -5v-16q1 -11 2 -11q1 -1 0 -3q-2 -1 0 -30v-10v-3q1 -2 1 -4q-1 0 -1 -3q3 -18 3 -67q0 -18 1 -43q1 -11 1 -30q1 -12 3 -13q5 -1 9 -1h8q2 0 2 1q3 0 6 -1h12q7 2 7 0q3 -1 6 -1h10h17q21 1 21 0h5q10 0 17 1h18h31q13 0 32 1h19h6q2 2 2 0q2 -1 5 -1q5 2 14 0h10 q1 0 2 -9t2 -17l2 -16l2 -8q0 -7 2 -19q5 -41 8 -72q2 -27 1 -28q-1 0 -5.5 -1t-8 -1h-4.5q0 1 -8 1q-5 -1 -18 -1q-2 0 -11.5 -0.5t-15.5 -0.5q-16 -2 -20 0h-7q-2 0 -6 -0.5t-9.5 -1t-9.5 -0.5q-25 0 -34 -1h-20q-13 0 -23 -1q-5 0 -14.5 -0.5t-10.5 -0.5q-16 0 -25 -1 q-5 0 -14.5 -0.5t-11.5 -0.5l-42 -2q-62 -2 -63 -2h-2z" glyph-name="L" horiz-adv-x="445" unicode="L"/><glyph d="M480 49q0 -1 0.5 -5.5t1 -12.5t0.5 -13q0 -26 -2 -26q-21 -2 -34 1h-6l1 24q1 34 0.5 106t-2.5 99q0 26 -1 46v10.5v10t-0.5 8t-0.5 5.5v2l-11 -12q-10 -12 -23 -28.5t-20 -25.5l-24 -32q-43 -56 -56 -74q-5 -7 -7 -8t-12 -2q-17 -2 -62 -0.5t-49 3.5q-7 5 -22 36l-8 17 l-4 10l-4 9q0 1 -4 9l-9 23q-1 4 -5 14t-9 23.5t-7 18.5q-2 8 -4 10l2 -29q0 -1 0.5 -13.5t0.5 -32.5v-39q0 -152 3 -176v-5h-33q-33 0 -34 2t0 125v93q-1 6 -1.5 28t-0.5 31q0 12 -0.5 31t-0.5 22q-1 5 -1.5 21.5t-0.5 23.5l-1 29q0 2 1 2q1 2 39 3q30 1 46 3q2 0 6.5 0.5 t5.5 0.5q6 0 7 -3l1 -5q2 -4 2 -6q1 -3 5 -17.5t5 -18.5q10 -27 10 -36q4 -12 8 -27q8 -28 8 -29q5 -18 8 -18q1 0 1 2q1 1 2 0q5 4 11 10q16 16 24 23q31 29 57 55q31 31 45 47l4 4l14 -1q4 0 17 -0.5t19 -0.5q21 0 37 -2h8.5h7.5l3 -1q7 0 10 -1l38 -3q1 0 1 -6 q-3 -21 -3 -179q0 -20 0.5 -56.5t1 -65.5t0.5 -31z" glyph-name="M" horiz-adv-x="512" unicode="M"/><glyph d="M31 40q-2 2 1 28l2 32q0 2 0.5 6.5t0.5 5.5l1 6v9l2 11v7q0 4 1 20t2 20q0 19 1 23q2 28 2 58q1 9 1 24q0 1 0.5 5t1 9t0.5 9q0 22 1 28v12q0 1 1 1v5l-1 5l-1 -1q-1 -1 -2 0t-1 2l1 2q1 0 3 2l3 3q3 0 1 -3q0 -2 4 -1q3 0 3 -2l1 -1q2 0 3 -1q2 -2 16 2q1 1 1 0 q0 -2 1 -2l1 1q-1 1 0 2q3 5 5 -1q1 -3 6 -3l10 1q4 0 5 -1h9q4 -1 11 -1t11 1q7 0 8 -1q2 0 3 1q4 2 4 1q-2 -2 1 -2l1 1q0 1 2 1l1 -1h-1q1 -1 3 0q4 0 4 -1q0 -3 3 -6v-1q1 -1 1 -2l1 -2q1 0 1 -1v-3q1 -1 7 -16q1 -1 2 -3t1.5 -3.5t1.5 -3t1 -2.5l5 -9q0 -1 2 -5l3 -6 l4 -9q2 -4 4 -7q3 -4 3 -7l2 -3l9 -18q2 -4 8 -15.5t10 -18.5l1 -2q0 -1 1 -1q0 -3 4 -8l6 -11q6 -11 9 -11q2 2 -1 40q-3 45 -3 49q0 3 -1.5 23.5t-2.5 31.5l-2 35q1 1 6 1q20 0 37 1l34 2q3 0 3 -9l-1 -11v-8v-14v-17v-12v-6v-15q1 -8 1 -20v-16v-12v-7v-31q0 -6 -1 -7v-1 l2 -3q0 -20 -1 -24v-10v-7q-1 0 -1 -6q2 -7 0 -12q0 -36 6 -84q0 -3 -4 -3q-5 0 -8 1h-13q-13 0 -36 3q-4 0 -5.5 1.5t-7.5 13.5l-9 20l-11 22q-6 12 -6 13l-1 2q-1 2 -2 3q-2 5 -26 53q-3 3 -3 6q-2 4 -5 8q-1 2 -2 4.5t-2 4t-1 2.5l-3 6l-5 12q-16 38 -21 46l-2 -11v-2v-9 v-12q-1 -5 -1 -11v-6q0 -1 -0.5 -6.5t-0.5 -8.5v-22.5v-18.5v-15l1 -18q-1 -1 1 -44l2 -29v-8l-5 -1q-15 0 -30 1q-18 2 -42 2q-21 0 -26 1h-17q-2 0 -5 1h-3z" glyph-name="N" horiz-adv-x="360" unicode="N"/><glyph d="M32 141l-2 6q1 1 1 43v29v18q-1 24 4 51q8 24 8 30q5 20 7 24q4 8 30 47q16 21 23 26q1 0 3 2t4 3q0 1 2 3l3 3q5 4 13 6q3 0 9 2q8 2 13 2q8 2 16 2q1 0 5 -0.5t9 -1.5t7 -1q7 0 17 -1h6q2 -1 8 -1q5 0 10 -1h6q2 -1 7 -1q4 0 31 -16q16 -8 19 -13l13 -13q8 -8 11 -14 l7 -22q13 -42 17 -49q3 -6 3 -20q2 -28 2 -55q0 -16 1 -31q1 -31 -2 -51v-2l-2 -5v-4q0 -2 -1 -5l-1 -7q0 -4 -5 -24q0 -4 -2 -16q-3 -15 -13 -34l-4 -10q-5 -8 -7 -9q-5 -5 -6 -5l-35 -32q-15 -13 -21 -15l-12 -4q-2 -1 -24 -5q-17 -2 -32 0q-52 8 -75 21q-12 6 -30 26 q-7 10 -9 10q-1 1 -8.5 11t-7.5 11l-2 11q-2 14 -3 15q0 1 -0.5 4t-0.5 5q-1 2 -3 18q-3 11 -3 15l-2 10q-2 8 -2 14z" glyph-name="O" horiz-adv-x="375" unicode="O"/><glyph d="M31 346q-2 15 1 17q3 3 4 3q2 1 4 3q1 0 3 2q1 1 2 1q3 2 7 4l6 4q1 1 2 1q2 0 2 1q1 1 2 1l4 2q2 2 5 2l3 1q0 2 5 2q1 0 2 1q2 0 2 1l1 1q0 -1 3 0q2 1 18 2t26 0q2 0 9 -0.5t10 -0.5t10.5 -1t10.5 -1h13q1 0 4 -0.5t4 -0.5q3 -1 14 -3q3 0 3 -2q1 -1 2 -1q6 0 6 -1 q0 -2 2 0q1 0 1 -1t3 -1t5 -2l2 -1h1q0 -1 4 -3q5 -2 6 -3q2 -2 4 -2q1 0 1 -1l5 -2l5 -2q0 -1 1 -1t4 -3l4 -2q2 0 2 -3l4 -6q3 -5 3 -6t1 -1t0 -1q1 -1 2 -1l1 -2q0 -3 1 -5q2 -4 2 -5q-2 -2 1 -2q1 0 0 -1q0 -3 1 -6l3 -10q11 -49 8 -67q-3 -9 -3 -19q-5 -34 -16 -56 l-4 -9l-9 -4q-28 -13 -56 -20q-5 -1 -11.5 -2t-12 -2.5t-6.5 -1.5q-10 0 -12 -1q-14 0 -28 -1l-25 -1q-2 0 -2 -57q1 -56 -1 -57q-2 -2 -25 -2q-25 0 -28 1h-5v8q-1 2 -3 24q-10 70 -12 148q0 7 -0.5 19t-0.5 15q0 2 -0.5 20.5t-0.5 30.5q-1 20 -1 38l-2 12q0 3 -0.5 10 t-0.5 9z" glyph-name="P" horiz-adv-x="328" unicode="P"/><glyph d="M31 194q-1 7 -1 24q1 6 1 19q0 2 4 42q2 10 4 12q1 1 3 4q1 3 2 4q0 3 2 3l1 2q-1 1 0 1t1 2t4 6q3 3 2 3h-1l2 2q1 3 3 3v1q0 2 1 2q2 0 2 3q2 4 5 7q4 4 4 5l1 1q2 0 6 4t5 4q2 0 3 3q3 3 3 1q1 0 1 1l1 2q2 -2 2 1q0 1 2 1t3 3q0 3 2 1q1 0 3 2t3 2q3 2 5 4q4 4 7 4h1 q0 2 5 4q2 0 2 1l3 3q1 1 2 1q0 2 8 2q4 0 4 2q1 1 6 1q3 -1 3 0q-2 0 -2 2q0 1 7 1t8 1h3h5q5 0 5 3q1 3 5 1q1 -1 1 -2l1 -1q1 1 4 0q2 -2 7 -2t6 -2q1 -1 6 -1q2 0 4.5 -0.5t3.5 -0.5q2 -2 2 0q1 1 4 -1q2 -2 5 -1h4q2 -2 4 -2q3 0 3 2t1.5 3t3.5 0q1 0 1 -2t2 -2t2 -1 q0 -2 2 -2l3 -3q0 -3 6 -3q6 -2 5 -3q0 -1 1 0q3 0 3 -1q1 -1 1 0q1 1 3 1t2 -2q0 -1 2 -1l1 -1q0 -3 7 -3q3 0 5 -3q4 -4 5 -4q2 -1 2 -3t2 -1q2 0 4 -2l1 -3q2 0 4 -3q3 -3 6 -3q2 0 2 -4q0 -3 1 -3t5.5 -4.5t4.5 -5.5l2 -2q1 0 3 -3l3 -3q2 0 2 -3q0 -2 3 -4t3 -4 q-2 -2 0 -2q4 2 4 -3q0 -1 3 -4q3 0 3 -2q-1 -1 0 -2.5t2 -2.5q6 -12 7 -17q0 -3 2 -11l2 -11q0 -3 2 -7v-5q0 -2 1 -2h1q-1 -1 1 -8q3 -22 1 -28l-2 -17q-2 -16 -2 -18q-2 -19 -12 -40q-3 -6 -3 -9l-1 -1q-4 0 -7 -16l-3 -3q-1 -1 -1 -3q15 1 17 2q1 0 1 -1t1 0l2 1 q2 0 8 0.5t13 0.5q19 1 21 3q2 1 4 1q6 0 10 1h6v-10q1 -6 1 -15l1 -9v-17q1 -21 -1 -21l-2 -1q-6 0 -12 -1q-9 0 -21 -2l-17 -1q-21 -3 -58 -6q-20 -2 -26 -2q-2 0 -13.5 -1.5t-18.5 -2.5q-31 -4 -56 1q-18 3 -19 3q-49 8 -71 21q-15 8 -26 19q-7 7 -16 22q-1 3 -3 6.5 t-3 6.5l-1 2l-6 14q-2 4 -4 10l-3 6q0 1 -1.5 4t-2.5 6.5t-2 6.5q-1 2 -2 5l-1.5 4.5t-1.5 3.5v1q-1 1 -3 19q0 8 -2 20z" glyph-name="Q" horiz-adv-x="455" unicode="Q"/><glyph d="M30 383v9q1 8 5 9h16l28 3q14 2 21 2q6 0 22 2q13 0 25 2l24 1q11 1 35.5 1t30.5 -1q1 -1 5 -1t5 -1q2 0 6.5 -0.5t5.5 -0.5h6q4 -1 11 -2q6 0 9 -3t4 -3l2 -2q2 -2 5 -4.5t6 -5.5q8 -8 20 -17q21 -18 32 -53q4 -10 -1 -38q-2 -11 -17 -25l-11 -11q-5 -5 -42 -23 q-24 -13 -24 -15t2 -4t2 -3q0 -2 9 -20l3 -9q0 -1 2 -1v-1q0 -2 1 -3q2 -2 2 -4q0 -1 2 -5q2 -2 2 -6q1 -1 7 -15q6 -12 6 -13t2 -5q1 -3 2.5 -5t2 -4t1.5 -5t2 -5.5l2 -5t3 -6.5l6 -15q1 -4 3 -8l3 -7q0 -3 10 -21q4 -8 3 -10t-13 -10l-12 -7l-2 3q-3 3 -3 7l-4 6 q-2 2 -4 6q-4 8 -7 12q-4 6 -7 11q-1 1 -2 3l-1 2l-4 7l-3 6q0 3 -2 3q-2 2 -2 3t-4 7t-4 7t-1 1l-4 6q-2 5 -6 9q0 1 -1.5 2t-1.5 2l-2 5l-3 4q-2 3 -3 6l-5 6q0 2 -6 10q-7 9 -7 10q-21 33 -24 31q-1 -1 -0.5 -16.5t1.5 -17.5l2 -27q0 -2 1 -2q1 -2 1 -3q0 -18 2 -24 q2 -16 0 -16v-1q2 -2 1 -3v-3q1 0 1 -5q0 -2 4 -34q0 -7 1 -10v-6q1 0 1 -7t-1 -8q-6 -3 -53 -3l-14 -1q0 -2 -3 0h-5q-4 -1 -17 -1t-13 1q0 2 -2 0q-1 -1 -22 -1q-12 1 -33 1h-11v4v6q-1 7 -1 12q0 16 1 16q2 1 2 2.5t-2 2.5q-2 0 -2 4.5t2 4.5v1q-1 1 -1 99q0 113 -3 117 q-1 1 -1 4q-1 4 -1 5q0 11 -1 16q0 6 -2 60q0 33 -1 33z" glyph-name="R" horiz-adv-x="376" unicode="R"/><glyph d="M32 270q-2 4 -2 27q1 26 7 40q3 6 18.5 27.5t17.5 22.5q1 1 1 2t3 4q11 6 16 11l7 5q1 0 8 5q17 13 24 13q3 0 7 2l5 1q8 0 12 3l4 1h2q2 1 4 1q2 1 34 1q8 0 28 0.5t27 1.5q23 1 51.5 1t29.5 -1t1 -50v-48l-8 -1q-11 -1 -23 -2l-18 -1.5t-8 -0.5q-41 -5 -43 -5l-20 -1 q-14 -2 -15 -2l-7 -7q-6 -5 -6 -10q0 -16 9 -27q3 -4 8 -8t7 -3h1q0 -1 4 -3.5t9 -4.5t6 -2q2 0 3 -1l6 -3q3 0 5 -2t3 -2q3 0 3 -1l1 -1q2 0 4 -1t4 -1q23 -9 24 -10q0 -1 1 -1q4 -1 7 -3q10 -5 13 -6l6 -4l8 -4q12 -8 22 -19l22 -21q7 -8 9 -12l6 -14q4 -10 4 -11 q0 -2 2 -2l1 -2v-3q3 -8 3 -28q-2 -20 -2 -25q-3 -16 -6 -30q0 -1 -0.5 -3t-1 -3.5l-1 -3t-0.5 -2.5q0 -4 -2 -4v-1q2 -6 -31 -33q-15 -14 -51 -25q-14 -4 -16 -4q-4 0 -4 -1q-3 0 -5 1q-4 2 -4 1q0 -2 -5 -3t-8 1h-1q0 -1 -5.5 -1t-6.5 1q-2 2 -2 0t-2 -2h-15q0 1 -1 1 t-2 -1q-1 0 -11.5 -0.5t-20.5 -0.5l-10 1q0 1 -11 1q-12 0 -13 2q-2 1 -3 -1q0 -2 -4 -2t-4 2h-3q-12 -4 -14 -1h-1q-2 -2 -10 -2q-5 0 -29 -2q-10 0 -10 1q-2 1 -4 -1q-12 -4 -20 -1q2 2 2 5v4l1 2q1 1 1 8q0 6 2 8v3q0 1 1 2v2l2 11q3 16 3 17l1 7q1 1 1.5 3t0.5 3v6 q4 8 4 27q0 1 11.5 0.5t17.5 -1.5l28 -2q2 0 8 -0.5t8 -1.5q20 -1 28 2q5 3 7 6l2 3q1 0 1 2q0 1 2 5q6 15 6 31q0 9 -5 14q-3 3 -3 4t-1 2q-3 0 -6 7q-1 1 -2 2.5t-2 3.5l-1 1l-5 5q-12 12 -16 12l-5 2q-1 1 -17 10l-14 7l-12 6q-10 5 -29 23q-20 20 -21 24l-8 12l-6 9 q0 2 -3 5z" glyph-name="S" horiz-adv-x="420" unicode="S"/><glyph d="M-21 251q-3 2 -2 64l2 72q0 11 -1 15v8q1 0 1 18l-1 18l4 1h7h5q1 1 5.5 1t6.5 -1h2q1 1 20 1q5 1 19 1.5t19 0.5q6 0 17.5 0.5t13.5 0.5q30 1 30 3t2 2q2 -2 2 0q0 1 3 1t3 -1t2 -1q3 1 7 1.5t6.5 0.5t2.5 -1q1 -1 1 -2q1 1 7 2t11.5 1t5.5 -1l1 -1q5 5 12 1q3 -2 3 0 q0 1 1 1q1 -1 3 1q4 4 6 0q0 -1 1 -2t2 2q1 2 5 2.5t6 -0.5h1q4 -1 6 0q6 0 7 -1q1 -2 2 0l3 2q2 -2 2 1q0 1 2 1q1 0 1 -3q0 -2 27 -1l14 1l7 1q7 -1 8 1q1 3 0 4q0 1 2 1q3 0 3 -2q-2 -2 2 -2q3 0 3 2q2 2 3 2q3 0 3 -2q3 -6 3 0q0 2 12 2h14q2 1 3 0q3 -1 6 -1 q10 0 12 -2t2 -12v-16v-5v-3q0 -3 0.5 -7.5t0.5 -8.5q0 -14 2 -44q0 -28 2 -30q1 -1 0 -1q-2 0 0 -15q4 -49 0 -53q-2 -2 -69 -9q-36 -4 -38 -4q-3 0 -19 -2l-15 -3q-1 0 0 -41.5t2 -59.5v-56q0 -10 -0.5 -43.5t-0.5 -48.5l-1 -54v-1q2 -2 1 -5l-1 -4l-30 1q-30 0 -31 1 q-1 52 -1 115q-2 186 -4 188l-69 2q-77 0 -95 3q-1 0 -5 0.5t-7 0.5z" glyph-name="T" horiz-adv-x="385" unicode="T"/><glyph d="M30 268l1 69q1 26 1 67v10v8l1 3q1 1 66 1t136 -0.5t84 -1.5q17 0 81 -2l26 -1l2 -13q0 -4 0.5 -9t0.5 -6q1 -5 3 -27q0 -2 0.5 -11t0.5 -13q0 -3 0.5 -18t0.5 -23q0 -19 -0.5 -49t-1 -52t-0.5 -23q-3 -17 -8 -34q0 -3 -2 -9q-4 -18 -12 -41q-8 -20 -29 -48 q-20 -26 -46 -38q-42 -19 -59 -22q-39 -7 -62 -3q-59 7 -76 16q-16 9 -34 27q-15 14 -28 33l-13 19q-4 4 -6 12q-2 3 -5 12l-7 23q0 6 -2 6q0 1 -1 2q0 3 -3 12l-3 12q-2 10 -2 41q0 4 -0.5 13t-1.5 12q0 18 -1 28q0 18 -1 18z" glyph-name="U" horiz-adv-x="464" unicode="U"/><glyph d="M22 351q-2 6 -2 8t7 3q9 0 10 1l36 1h7l1 -3q0 -1 5 -17q5 -27 7 -30l1 -3q1 -3 2 -8.5t2 -9.5l2 -10t2 -8l1 -3l7 -30q1 -10 12 -47q0 -1 0.5 -2.5t1.5 -3.5t1 -3q0 -3 3 -9q3 -7 3 -10q0 -2 1 -2q1 -1 1 -2v-2q1 -1 1 -3q0 -3 2 -5q1 -3 1 -1q0 1 1 4l5 19q0 3 1 6.5 t2 6.5v2q0 4 1 4l1 2q0 1 1 3.5t1 5.5q1 2 1.5 4t1 3.5t1.5 3.5v1q0 2 2 12q1 2 2 6l1 3q2 2 9 48q1 4 2 10t2 14t2 12q7 46 9 48q15 0 33 -1q76 -2 78 -4l-2 -15q0 -3 -1 -7t-1.5 -7.5t-0.5 -4.5q0 -2 -1 -5v-2q-1 0 -7 -41q-1 -3 -1 -6v-1q-1 -2 -1.5 -4t-0.5 -3 q0 -5 -2 -11q0 -2 -0.5 -5t-0.5 -4l-4 -24q-1 -4 -1.5 -9t-0.5 -9q-1 -2 -1 -8q0 -1 -1 -3q0 -3 -1 -3v-3q-1 -4 -1 -6q-2 -10 -2 -13q-1 -1 -1 -3.5t-1 -3.5q0 -1 -0.5 -4.5t-0.5 -5.5q-3 -14 -15 -102q0 -7 -2 -7q-4 -1 -8 -1q-3 0 -8.5 -0.5t-7.5 -0.5q-26 0 -36 -2 q-9 0 -14 -1l-17 -1q-3 0 -8 -0.5t-6 -0.5t-5.5 -0.5t-6.5 -0.5h-15h-9l-3 10q-2 8 -4 13l-1 2q0 2 -1 4.5t-1 4.5q-5 15 -7 19l-7 24q-7 23 -9 33l-4 13q-6 24 -10 42q-1 3 -1.5 6.5t-1.5 6t-1 3.5q-3 10 -5 22q-3 12 -6 25l-1 7q0 3 -2 9q-1 2 -1 8q0 1 -0.5 3t-1.5 3 l-6 26q-1 5 -2.5 12t-2.5 11.5t-1 6.5z" glyph-name="V" horiz-adv-x="294" unicode="V"/><glyph d="M32 423q-3 11 2 11q3 0 5 2q1 1 5 0q2 -2 2 0q-1 1 0 1t2 -1h11q0 1 2 1t2 -1q1 -1 4 -1t3 1q-1 1 1 1l1 1q4 0 4 -1q1 -1 7 -0.5t8 2.5h6q3 -1 27 -1t26 1q1 1 14 1q4 1 14.5 1.5t15.5 0.5q17 1 17 -1t2 -2q1 -2 1 -4q0 -15 3 -19l1 -1v-2l2 -6l1 -6q-1 -1 2 -5l3 -9 q0 -5 2 -11q1 -2 2.5 -6t1.5 -5v-7q0 -3 1 -3q1 -2 1 -4q0 -3 2 -4l4 -1q0 -1 -2 -1q-1 1 -2 0.5t-1 -1.5q2 0 2 -2q0 -4 1 -4t1 -2q0 -3 -1 -2v-7q2 -6 4 -6t0 -2q-2 -1 -2 -4t2 -4q1 0 1 1l1 1l1 -1q0 -2 1 -2q3 -3 -1 -3q-2 2 -2 -1q0 -2 1 -2t1 -3v-4q1 -1 1 -4t1 -3 t1 -3q-2 -3 0 -3q1 0 1 -6q0 -4 2 -6q1 0 1 -3v-7q1 -2 1.5 -3.5t-0.5 -1.5q0 -2 1 -3t1 -4v-2q1 0 1 -3q0 -5 1 -6q2 0 2 -4q-1 -1 1 -5l1 -2q-1 0 0 -4q3 -5 4 -14l3 -13v3q0 2 1 19t1 21l2 27v10v9l1 3q1 1 1 9q0 9 1 13v7q-1 2 0 3q2 0 2 9q0 3 0.5 8t0.5 7l1 11 q1 7 3 20t3 20l1 7q0 3 40 4l6 1l3 -13q9 -36 7 -40q0 -1 1 -1q2 0 2 -4q0 -3 1 -3q1 -1 3 -14q2 -10 4 -10t1 -2t-0.5 -9.5t2.5 -8.5q2 -2 2 -5q0 -4 1 -4v-5q-1 -4 1 -4q1 -2 1 -5q0 -5 2 -7q1 -1 1 -5q0 -3 2 -4q2 -2 1 -3q-1 0 -1 -4.5t1 -4.5q2 0 2 -9q0 -2 2 -6t2 -9 t2 -7t2 -5q0 -2 0.5 -6t1 -7.5t1.5 -3.5t1 -5q0 -3 2 -5q1 -3 1 -7q2 -7 4 -9q2 -4 2 -5t1 -2q3 0 4 12q0 14 3 29q1 4 1 11l1 16q1 0 1 4t1 4l2 10v6l1 4l1 2v6v6q0 11 2 13v3q1 3 1 5q0 7 1 9q1 5 0 5v1q4 16 4 25q0 8 1 9l1 2v3q0 12 1 13q3 3 3 22v7l1 2q1 1 1 2l1 13 q2 0 2 1q0 2 -1 2q-1 1 0 1v3q1 3 1 5q0 6 2 6v1q-1 1 -0.5 6.5t1.5 6.5q4 2 63 0q4 -1 17 -1.5t18 -0.5l19 -1q0 -1 -1 -2v-1q1 -1 1 -3q-1 0 -1 -3q-1 -3 -1 -4q0 -2 -0.5 -7t-0.5 -6t-0.5 -7.5t-0.5 -10.5q-1 -3 -1 -12.5t-1 -13.5q-2 -16 -2 -25q0 -3 -0.5 -9.5 t-0.5 -8.5q-2 -8 0 -9q4 -2 0 -2q-2 -2 -2 -7q0 -10 -1 -15l-1 -18q-2 -22 -3 -25q0 -2 2 -1q2 0 2 -2v-4q0 -4 -2 -2q-1 1 -1 2q-1 1 -1 -1q0 -27 -4 -49q0 -9 -1 -15q0 -6 -2 -36q-1 -6 -1 -12q0 -1 -1 -1q-1 -5 -1 -11q0 -15 -1 -20q0 -7 -2 -27t-2 -29q-2 -14 -2 -20 q-2 -10 -2 -24q-2 -22 -3 -25v-9h-19q-19 0 -20 1t-1 0q-9 -1 -20 0h-48l-30 2q-1 1 -6.5 21.5t-7.5 31.5l-1 10q0 1 -2 9.5t-4 14.5q-4 22 -12 54q-1 4 -2 9.5t-2 9.5t-1 5l-3 13q0 2 -1 5t-1.5 5.5t-0.5 4.5q0 1 -1 6l-2.5 12.5t-2.5 13.5q-6 30 -6 33q0 2 -1.5 9.5 t-2.5 11.5q0 3 -0.5 6t-1 5t-1.5 4v2q-4 22 -4 23q-1 6 -2 -6q-1 -4 -1 -9l-3 -32q0 -4 -0.5 -10.5t-1.5 -15.5t-1 -13l-2 -30q-1 -11 -6 -71q0 -14 -1 -18q-1 -5 -1.5 -21t-0.5 -23q0 -3 -3 -40l-2 -27q0 -1 -22.5 -1t-25.5 1q-2 1 -2 0q-7 -1 -20 -1l-100 3q-6 0 -7 16 q0 7 -2 15q-3 27 -3 29q0 5 -1 5q-1 3 -3 22q0 5 -2 13q0 8 -2 14q0 5 -2 21q-2 18 -3 20q0 3 -4 35q-2 10 -2 15v5l-1 4q-1 5 -1 11l-2 12q0 1 -0.5 5t-0.5 7q-1 5 -1 12l-7 44q-1 6 -1 13l-2 7q0 1 -0.5 4t-1.5 6.5t-1 5.5q-1 7 -2 11.5t-1.5 7.5t-0.5 5q-1 2 -5 24l-6 25 q-3 12 -3 16q0 2 -1 5q-2 5 -2 6z" glyph-name="W" horiz-adv-x="575" unicode="W"/><glyph d="M37 398q-7 18 -7 20t4 1q1 0 6 -0.5t8 -0.5l11 -1l3 -1h5q6 -2 14 -2q2 0 7.5 -0.5t7.5 -1.5q18 0 20 -2q1 -1 12 -22.5t11 -23.5l1 -4q1 -1 7.5 -13t6.5 -13t27 -55q1 0 3 -5q3 -7 5 -2l8 27q0 5 4 19l5 19l2 8q0 1 1 3l1 2q0 13 6 22l1 2q-2 0 0 2l1 2l5 18 q0 2 1.5 6.5t1.5 6.5q1 5 2 6.5t3.5 2t8.5 -0.5q7 -1 16 -1q2 -1 7 -1.5t8 -0.5t9 -0.5t8 -1.5q21 -1 21 -3q0 -3 -7 -21q-1 -2 -2 -4.5t-2 -4.5t-1.5 -4t-1 -3t-1.5 -2v-1l-2 -5q-5 -12 -31 -77q-17 -45 -19 -48l-5 -14q0 -1 -1 -3.5t-1 -3.5q-4 -9 -4 -11t5 -13q1 -3 3 -7 l3.5 -7t1.5 -4l4 -6v-1q1 -1 1 -2q0 -3 1 -3t1 -1v-1l1 -1q0 -1 1 -3l2 -4l3 -7q0 -2 1 -2t1 -1q0 -2 5 -12q4 -7 11 -23q6 -12 8 -14v-1l1 -2q1 -1 5 -11q12 -25 12 -26l1 -2q2 0 2 -3q0 -2 4 -10q5 -10 10 -22q8 -21 11 -24q0 -1 -1 -2t-18 -4l-18 -1q0 2 -9 18 q-1 2 -2 4.5t-2 4t-2 3.5l-1.5 3t-0.5 2l-1 1q-1 1 -9 17q-10 20 -12 23q-2 4 -2 6q0 1 -1 1q-2 3 -3 6q0 1 -1.5 4t-4.5 8t-4 8q-8 18 -8 20q-2 4 -3 4l-1 4q-2 3 -4.5 8t-3.5 8q-13 28 -15 32q-3 5 -4 11q0 2 -1 3.5t-2 3.5v1q-1 1 -2 -1t-2.5 -6t-2.5 -9l-4 -15 q-2 -8 -2 -9q-1 0 -1 -2l-6 -20l-7 -24q-2 -6 -2 -7q0 -3 -1 -3q-1 -1 -6 -18l-4 -15q0 -1 -1 -5t-3 -11.5t-3 -11.5l-6 -24q-1 -1 -1 -5q-2 -2 -2 -6l-2 -4l-10 -1q-2 0 -12 -0.5t-15 -0.5q-9 -1 -19 -1q-8 -1 -27 -1.5t-19 0.5q-1 1 10 27q1 2 2 4.5t1.5 4t0.5 3.5l1 1 q5 12 7 12v1q-1 1 1 3q3 6 4 10l5 11l8 19q0 2 2 2q1 0 1 1q0 4 5 12q3 10 4 10l2 5q4 9 5 11q3 7 11 23q3 6 3 9l4 7q3 6 3 8q0 3 3 7q6 16 3 20q-36 64 -36 73q-2 5 -5 10l-5 10v1q-1 2 -2 5t-2 5q-5 8 -5 11q0 2 -1 3q-3 3 -1 3q0 2 -1 2t-1 2l-1 1q0 2 -1 4t-1 4 q-5 10 -6 13q0 1 -1 3t-1.5 3.5t-0.5 2.5t-0.5 2.5t-1.5 3.5t-1 3q-3 5 -3 7q-1 0 -1 2q2 0 0 2l-1 3q-1 3 -3 8t-3 9z" glyph-name="X" horiz-adv-x="360" unicode="X"/><glyph d="M-16 440q-5 8 -2 9h49l8 -1l10 -20l11 -20q0 -1 2 -3q3 -3 6 -10q4 -9 6 -9q1 -1 1 -3q0 -1 1 -2l4 -6q3 -8 13 -23l4 -6l1 -2q2 -3 4 -7t4 -7q9 -14 9 -17q0 -2 2 -2q1 0 1 -1q0 -2 2 -4t2 -5q2 -4 4 -6q2 -4 1 -5q0 -1 2 -3q1 0 3 -5l3 -6q9 -12 9 -15t1 -3q3 -1 7 -10 l1 -2q1 -2 2 -3q8 -10 11 -16q2 -4 5 -7t3 -5q0 -3 2 -3h1q-1 1 7 12q3 3 5 7l4 7q3 4 5 8t3 4l2 1q0 1 2 5l3 3q0 2 2 4q3 3 3 4t3.5 6t4.5 6l1 1l2 4l2 4q3 6 6 9l1 3q0 1 4 5q1 1 3 4t3 4q1 4 7 12t8 9q0 1 2 5l3 3q1 0 1 2t5 7l5 6q0 1 4 5t4 5t2 3q1 1 1 3q1 2 6 7 q2 4 2 5l1 1l3 3l4 6l3 3q1 0 1 2l4 6l3 4q0 1 3 4q3 2 3 4q0 3 5 6q5 5 5 7l4 6q3 2 6 8l2 3h28l26 -1v-1l-3 -6q-3 -3 -3 -6l-2 -3q-1 1 -1 -1q2 -2 -1 -2q-2 -2 -2 -4t-1 -2t-3.5 -5t-2.5 -7q-1 -3 -3 -4q-4 -4 -2 -4l-2 -4q-8 -8 -8 -13q0 -1 -1 -2l-6 -11q-1 -2 -3 -5 t-3.5 -5t-1.5 -3l-3 -6l-2 -3q-1 0 -1 -2q1 0 0.5 -0.5l-1.5 -1.5l-3 -3q0 -3 -3 -5l-1 -2q2 -2 -7 -12q-1 0 -1.5 -1t0.5 -2q-1 -2 -3 -3q0 -1 -1 -2v0q2 0 -1 -3q-4 -4 -4 -5q0 -2 -2 -4q-3 -2 -3 -3q0 -2 -2 -4t-1 -2q0 -2 -1 -3q-8 -6 -25 -34l-8 -13l-1 -139v-32v-29 t-0.5 -26t-0.5 -22.5v-16.5v-11v-4q-1 -2 -34 -2h-47q-16 -2 -31 -2q-5 0 -21 -1l-32 -2l-12 -1l1 37q0 8 0.5 18.5t1 16t0.5 7.5q1 7 1 79.5t-1 92.5l-1 25l-5 9l-5 10q-1 1 -10 19q-9 17 -10 17v1q0 2 -3.5 8.5t-4.5 7.5t-1 2q0 2 -3 8q-5 10 -7 13l-4 6q-1 1 -5.5 10.5 t-4.5 10.5q0 2 -5 9q-1 3 -4 8.5t-4 6.5q-3 6 -6 9l-1 3q0 2 -7 12q-6 9 -11 19q-4 7 -5 7v2l-1 1l-2 4z" glyph-name="Y" horiz-adv-x="354" unicode="Y"/><glyph d="M328 113l10 -1v-4q-1 -2 -1 -6q-1 -2 -3 -19q-1 -8 -7 -37q-1 -13 -4 -23q0 -2 -0.5 -4.5t-1.5 -6.5t-1 -6q-3 -10 -6 -10h-4h-10t-14 -0.5t-17.5 -0.5h-19.5l-145 -2q-2 0 -7.5 -0.5t-16 -1t-17.5 -0.5h-33v26q2 52 3 53q0 1 2 3q0 3 2 3q1 0 1 1q0 2 3 5q20 20 22 24 l2 3q2 3 4 5q5 5 5 6q4 5 6 5q0 2 7 9l7 8l6 6q17 20 21 25q1 1 3.5 4.5t3.5 4.5l2 2q-1 0 -1 1q1 1 2 1q2 0 2 1q-1 3 2 3q3 3 5 6l7 7q3 1 3 3q0 1 8 11l15 15q7 9 8 9q1 1 1 4q0 1 1 1t5 4t3 5q0 2 2 2q3 1 3 3v2q1 0 6 5t5 6t2 3v-1v0h1l2 3q0 2 3 3q1 1 0 3h-3 q-4 0 -9 0.5t-10 0.5q-30 0 -42 1l-42 3q-3 0 -6.5 0.5t-6 0.5t-4.5 0.5t-4 0.5h-1q-2 0 -3 13v19q-1 3 -1 18q-1 12 -1.5 28t-1.5 25.5t-1 11.5v7l9 1h16.5h8.5q0 -1 30 -1l31 1h2h2q0 -2 6 0h34q16 1 36 1h8h1q1 1 13 1q3 -1 20 -1l15 -1h2q2 -1 4 -1q1 0 3 -1h3 q0 -29 -1 -36l-2 -19q-3 -40 -6 -54l-1 -8l-16 -15q-3 -3 -9 -8t-10.5 -9t-6.5 -6q-6 -5 -62 -61l-58 -56q-4 -6 -4 -7q0 -2 1 0h2q0 -1 4 -1q5 0 5 -1l9 -2l38 -4l23 -2q2 0 18 -2q30 -3 32 -3q5 0 8 -1q11 0 19 -2q10 -2 22 -2z" glyph-name="Z" horiz-adv-x="368" unicode="Z"/><glyph d="M20 -94v7q1 5 0 281q0 130 2 130q1 1 0 3v2l52 1h82h32q2 0 1 -21q0 -3 -3 -27l-2 -16q0 -1 -8 -1t-23 1t-32 3l-23 2q-2 0 -3 -45q-3 -110 -5 -121q0 -10 -1 -18q0 -5 -3 -42q0 -4 -0.5 -10t-1.5 -14t-1 -13t-0.5 -11.5t-1 -10.5t-0.5 -5q0 -5 1 -5q2 -2 36.5 -3.5 t37.5 0.5l-1 -35q0 -10 -0.5 -18t-1 -11.5t-0.5 -5.5l-1 -6h-4q-14 2 -91 2h-35l-1 3q0 3 -1 4z" glyph-name="bracketleft" horiz-adv-x="210" unicode="["/><glyph d="M26 311l-6 8q0 5 8 3h5t11 0.5t13 0.5q14 1 30 1h5q0 1 16 1h16l3 -4q3 -1 3 -4l3 -3l1 -2q1 -1 2 -3t2 -3l4 -6l2 -2q1 -2 2 -3l6 -9l4 -6l1 -2l8 -10q5 -7 9 -12q3 -3 3 -5l12 -17q4 -6 4 -7l1 -1q1 0 7 -10q7 -8 9 -13q3 -3 7 -11q6 -9 9 -12q1 -1 3 -4q1 -3 2 -4 q1 0 3 -4l2 -4q13 -21 26 -40q11 -18 11 -19q1 -2 3 -3q2 -4 2 -5q1 -2 3 -3q2 -2 2 -4q0 -3 5 -8l2 -4l2 -4l3 -3q0 -1 2 -3l2 -3q0 -1 2 -3t2 -4q0 -3 2 -3l1 -1q0 -1 2 -3q4 -6 5 -9l2 -2q1 0 1 -1t2 -5q3 -2 3 -4q0 -3 2 -3q2 -2 2 -3q0 -2 2 -2l1 -1v-1l1 -2q3 -2 4 -7 q3 -5 4 -5l1 -1q0 -3 3 -7l4 -6q0 -1 3 -4l2 -3v-1l1 -1q3 -5 -4 -5h-6q-4 0 -22 -2q-1 0 -5.5 -0.5t-7.5 -0.5q-2 0 -6 -0.5t-5 -0.5h-5q-6 -1 -10 -1q-13 -1 -15 1l-2 2q0 1 -7.5 11t-10.5 13l-4 6q-1 1 -7 9q-5 6 -25 33q-1 1 -3 3.5t-3 3.5q-3 3 -3 4t-3 4t-3 4 q-1 2 -3 4l-3 3q0 1 -3.5 6.5t-4.5 5.5l-1 1q0 3 -18 25l-2 4l-2 2l-2 3q0 1 -1 3q-1 0 -5 6q-1 1 -3 4t-3 4q-9 12 -12 18l-4 5l-2 3l-9 13l-12 18l-5 7l-1 2q-2 2 -3.5 4.5t-3.5 4.5q-4 8 -23 36l-33 48q0 1 -2 3l-1 2l-1 2q-1 1 -2.5 3t-2.5 4z" glyph-name="backslash" horiz-adv-x="372" unicode="\"/><glyph d="M21 -54q-2 11 3 12q15 3 32 3q1 0 4 0.5t7 1t7 0.5q44 4 50 4q7 0 7 1q1 1 3 1h5q3 1 2 21q0 6 -0.5 16.5t-0.5 12.5q-4 29 -4 69q0 6 -0.5 15t-1 13.5t-0.5 5.5l-2 24q0 3 -1 16.5t-2 18.5q-2 16 -1 17q0 2 -1 3l-2 26q-2 28 -2 37q-2 12 -2 19l-1 8l-9 -1l-9 1 q0 2 -1 2t0 -1q1 -2 -5 -3q-3 0 -9 -1q-3 0 -7.5 -0.5t-5.5 -0.5q-1 -1 -22 -3l-19 -3q-1 0 -2 1t-1 0q0 -2 -3 -2t-3 2q-1 1 -1 10t-1 9l-2 22q0 3 6 3q4 0 41 4h5q4 1 6 1q7 0 23 2q7 1 21 2.5t21 2.5q1 0 6.5 0.5t8.5 0.5q2 0 5 0.5t5 0.5l2 1q6 0 11 1q3 0 8 0.5t6 0.5 h4l1 -11q2 -12 2 -17q0 -1 0.5 -4.5t1 -8.5t0.5 -9q2 -47 3 -56l1 -22q1 -5 1 -12l1 -1q0 -2 0.5 -5t0.5 -5q0 -3 0.5 -9.5t0.5 -8.5q2 -8 2 -15q0 -6 4 -45q2 -20 3 -22q0 -1 0.5 -7.5t0.5 -9.5q2 -12 2 -18q0 -3 1 -9t1 -8q0 -9 2 -21l3 -26q2 -14 3.5 -27.5t2.5 -21.5 t1 -11q0 -7 2 -17l1 -10q0 -3 -22 -4l-24 -1q-7 -1 -13 -1q-1 0 -12 -1t-14 -1q-24 -4 -52 -4l-37 -2q-39 -3 -40 -1v3q-3 29 -6 52z" glyph-name="bracketright" horiz-adv-x="261" unicode="]"/><glyph d="M297 -33q1 1 3 0.5t3 -1.5l1 -6q1 -7 2 -14.5t1 -11.5l1 -6l-9 -1q-2 0 -9 -0.5t-10 -0.5l-11 -2h-4q-2 0 -12 -0.5t-14 -0.5q-18 -2 -24 -2h-4l-2 -1q-2 0 -5 -0.5t-5 -0.5q-32 -2 -35 -2q-36 0 -50 -1q-4 0 -13 -0.5t-11 -0.5l-39 -1q-5 -1 -15 -1q-8 0 -8 3 q-2 10 -2 36q1 5 12 5h12q2 1 17 1q4 0 12 0.5t11 0.5q15 0 20 1h13h11q2 0 10 0.5t13 0.5q8 1 20 1q1 0 9 0.5t14 0.5q14 0 34 2q38 2 54 2h9z" glyph-name="underscore" horiz-adv-x="322" unicode="_"/><glyph d="M418 484q-12 8 -7 13q2 3 7 7q3 5 14 12q3 3 7 6l4 4q11 11 23 15q6 0 17 -9l3 -2q1 0 2 -1q0 -2 6 -6l7 -5l1 -1q1 1 6 -4t6 -5q7 -3 8 -6q0 -1 4 -3q5 -3 9.5 -7t3.5 -5h1l28 -22l5 -5q1 0 2 -1q2 -2 3 -2q2 -3 4 -3q4 0 8 -9q2 -2 -14 -17l-4 -4t-3.5 -3t-2.5 -3 l-2 -1q-2 -3 -10 -10l-15 -14l-8 -7q-3 3 -7 6q-22 22 -57 49q-2 2 -6 5.5t-9.5 8.5t-8.5 7l-16 14q-5 5 -9 8z" glyph-name="grave" horiz-adv-x="1000" unicode="`"/><glyph d="M21 8q-1 2 -1 4l1 1q1 0 0 1v3l2 12l1 11q0 3 1 6q0 2 1 4v3q1 1 0 1t-1 1.5t0.5 4t1.5 3.5q0 2 -1 2q0 2 1 5q0 1 0.5 3.5t1 6t0.5 6.5l1 11l2 6q0 2 0.5 5t0.5 4q2 6 2 9q-1 4 1 6q3 1 1 3q-1 0 -1 1t0.5 3.5t1.5 6.5q4 22 4 28v2q1 2 2 5t1 6q2 12 3 15l1 9 q1 5 2 10.5t2 8.5q0 2 0.5 5.5t1.5 8t1 7.5t1.5 10.5t1.5 9.5q2 6 2 9q3 12 3 20q0 5 2 5q1 4 1 9q0 1 5 33q2 8 2 12q2 10 3 11v4q0 4 1 4q1 1 1 4q0 4 2.5 13.5t4.5 10.5h18q44 -2 51 -1h17q14 0 15 1q1 0 2 -1q2 -2 2 0q6 1 16 1h23h8l1 -4q1 -1 3 -13q0 -5 12 -63 q12 -53 16 -64q1 -3 1 -6q-1 -1 0 -1q1 1 3 -14q4 -18 4 -19l1 -4v-2q2 -2 1 -3q0 -2 2 -8q0 -3 1.5 -8.5t3 -14t2.5 -14.5q0 -2 1 -6t1.5 -7t0.5 -4q1 -5 7 -33q1 -9 2 -11l1 -2q0 -2 0.5 -4.5t0.5 -4.5t1 -5q1 -8 2 -10q0 -1 1 -4.5t1.5 -9t1.5 -9.5q1 -6 5 -28 q3 -11 3 -15v-4h-9q-9 2 -16 0h-39q-28 0 -31.5 1t-5.5 12q0 9 -2 11q-5 12 -5 26q0 4 -1 5v3q0 2 -1 3l-2 4q2 0 0 4l-1 7q0 2 -2 10q-3 12 -4 19q-1 3 -1.5 6.5t-1.5 6.5l-1 2l-1 2v5l-1 7q-1 1 -1.5 3t-0.5 3v4q-2 8 -9 8q-21 -3 -22 -4q-2 -2 -11 -133q-2 -14 -3 -14 q0 -1 -7 -1h-16h-52h-14q0 -1 -16 -1h-17q-3 0 -3 3z" glyph-name="a" unicode="a"/><glyph d="M30 390v7q0 7 1 8q4 2 21 2q4 0 5 1h4h3q0 1 10 1h12q0 1 12 1q19 0 26 1l5 1h9q5 1 12 1q1 1 10 1q2 0 6 0.5t5 0.5q7 1 25 0.5t20 -1.5q2 -2 4 -2q1 1 6 -1q1 -1 5 -1q1 0 3 -2q4 -4 15 -4q2 0 2 -1q0 -2 2 0q3 0 6 -3l5 -3l2 -1q0 -2 3 -3l4 -4q2 -2 4 -2q1 0 3 -2 q4 -4 7 -6q5 -2 5 -4q2 -3 5 -6q5 -5 5 -7q0 -4 1 -5q2 -2 5 -11.5t3 -13.5q0 -6 2 -6v-14q-1 -21 -11 -35q-16 -18 -26 -23l-27 -14q-38 -19 -36 -22q0 -1 3 0q3 0 3 -1q2 -1 4 -1l5 -1q0 -4 8 -4q3 0 3 -2q2 -2 4 -1q3 0 3 -1t4 -1t5.5 -1t0.5 -3q0 -4 7 -4q3 0 3 -1 q1 -1 2 -1q3 0 3 -2q0 -1 3 -1t3 -1q1 -1 4 -2q3 0 3 -2h2q2 0 2 -2q2 -2 4 -2q3 2 3 -1q0 -2 6 -4l5 -5q1 -1 2 -1t5 -4q3 -5 5 -5t4 -5l6 -7l4 -4v-10q-2 -32 -5 -52q-1 -12 -5 -16l-2 -3q0 -2 -1 -3q-1 0 -6 -5q-2 -6 -11 -15q-18 -25 -38 -38q-3 -3 -18 -8 q-10 -2 -13 -4l-18 -3q-11 -1 -64.5 1t-70.5 4q-20 2 -27 2q-9 0 -11 2q-2 1 -2 10q-1 4 -1 18q-1 5 -1 20q0 3 -0.5 9t-0.5 7v61q1 18 1 37q0 3 -0.5 9.5t-1.5 8.5q0 6 -1 11l-1 8q-2 2 0 2q1 4 0 8q-1 21 0 67q2 37 0 42l-1 14q0 7 -1 7v9q-1 4 -1 12q0 1 -0.5 7t-0.5 10 v13z" glyph-name="b" horiz-adv-x="362" unicode="b"/><glyph d="M30 208q-1 1 0.5 19.5t2.5 26.5l1 6v9q0 10 1 10v4q3 27 3 28v7q0 2 2 4q2 4 1 8l1 1q1 -1 5 5q1 1 1 2l1 1q1 0 1 2v2q2 0 2 2q0 3 2 3q3 3 3 6q0 4 2 4l1 2l3 3q3 5 4 5q1 1 1 2q0 2 1 2q1 1 1 3l1 1l2 4t2 3q4 6 3 7q-4 4 2 4q2 0 5 3q2 2 4 2l5 3l4 3q0 -1 3.5 1 t9.5 5q14 7 16 7t2 1l3 2q2 2 2 3t2 1t2 2t4 2q8 -2 8 2q0 1 -1 1q-2 0 -2 2q0 3 -1 5t1 2t6 -3q3 -2 8 -2q1 0 2 1q2 0 2 1t2 1t7.5 2.5t5.5 3.5t2 1h2q2 1 3 1q10 5 18 5h3l2 1q0 2 5 2q15 0 17 2q0 1 7 1q13 0 19 2q5 2 5 1t3 -1q1 1 17 1h15l2 -3q3 -3 4 -2q2 2 2 3 q0 2 1 2q11 3 137 1l26 -1v-18q0 -4 -0.5 -10t-1 -10t-0.5 -6q0 -12 -1 -18l-1 -18q0 -4 -2 -34l-1 -13q-1 -2 0 -3q0 -6 -1 -11t-1 -12q0 -3 -10 -4q-2 0 -12 -0.5t-16 -0.5l-50 -3q-4 0 -40 -2l-38 -2q-3 -1 -31 -3q-40 -2 -56 -13q-15 -10 -18 -13.5t-11 -20.5 q-5 -9 -9 -21l-2.5 -5l-2.5 -5l-2 -4l-1 -2q-1 -2 -1 -5v-1q-2 0 -2 -2.5t1 -3.5q0 -1 3 -1q2 1 2 -1q0 -3 -1 -4q-3 -3 -1 -10q0 -2 2 -2q4 0 1 -4q-2 -1 0 -8q3 -6 6 -7q5 0 1 -4q-2 -2 1 -2q2 0 2 -2q0 -3 4 -3q3 0 3 -2q-1 -3 3 -3t4 -1q0 -3 2 -1q3 0 3 -2l3 -3 q2 0 3 -1q2 -1 4 -1q3 0 3 -2t2 -2q4 0 7 -1q9 0 9 -3q0 -2 2 -2q1 0 5 -2q6 -3 8 -3l8 -3q4 -2 5 -2h1q0 -1 7 -1q2 0 6.5 -0.5t6.5 -0.5q1 0 6 -0.5t7 -0.5q36 -2 48 -2q3 0 8 -0.5t6 -0.5h8l4 1q2 -2 5 -2q6 0 9 -1q6 -2 8 -1l8 -2q3 -1 13 -1q7 0 8 -1h2q2 -1 3 -1l3 -1 q2 -1 5 -1q16 0 16 -2l1 -1q2 1 4 0t1 -3v-3q0 -4 -0.5 -9.5t-0.5 -10.5q0 -20 -2 -34l-1 -14v-17q0 -4 -0.5 -14.5t-1.5 -14.5q0 -26 -2 -26q-9 -1 -21 -1q-11 -1 -31 -1q-2 0 -8 -0.5t-15.5 -1t-15.5 -0.5h-23l-14 -1h-31l-25 -1l-23 6q-26 6 -28 6q-39 9 -41 11l-6 3 l-6 3l-2 1q-1 1 -3 2t-3 2q-39 24 -75 61q-32 33 -33 46l-2 54v13l-1 7l-1 4v10v11z" glyph-name="c" horiz-adv-x="500" unicode="c"/><glyph d="M345 174q1 -23 0 -30q0 -9 -13 -44l-5 -14q0 -1 -1 -2q-2 -2 -2 -3l-7 -7q-9 -11 -21 -20q-3 -1 -19 -11q-14 -7 -17 -10q-9 -5 -20 -7q-2 0 -18 -4q-42 -11 -44 -9h-1q0 -4 -13 -2l-5 -1q-1 -1 -4 -1h-9h-12q-2 0 -5 -0.5t-4 -0.5h-6q0 2 -2 0h-3q-5 0 -7 -1h-11h-5 q-1 -1 -15 -1h-4h-4h-3q-4 -1 -8 -1h-15q-6 -1 -6 0q-1 1 -1 0l-1 -1q-1 0 -1 2t-1 2v4v9v7q2 2 0 2q-1 -1 -1 1v6v8v12q1 -1 1 -0.5t-1 2.5v10v22v5v10v9q1 5 0 17v9v9v10v7v19v10v8v17v14v8q0 1 -0.5 8.5t-0.5 12.5q1 3 1 10v10v11q-1 4 -1 13q1 3 1 17v16v5v4 q0 2 0.5 14.5t0.5 21.5q0 16 1 16l32 -1q11 0 20 -0.5t13 -0.5l4 -1q12 0 24 -1l23 -2l11 -2q12 -3 25 -5.5t15 -2.5q1 -1 3 -1.5t3 -0.5q13 -2 22 -8q2 -2 5 -2l2 -2q0 -1 1 -1q6 0 28 -19q14 -12 26 -21q1 -1 5 -4.5t7 -6.5l12 -11q6 -6 11 -16q0 -2 2 -4l8 -21 q1 -3 4 -29l2 -17l1 -2v-8q1 -3 1 -6q0 -5 1 -11q0 -15 1 -21z" glyph-name="d" horiz-adv-x="376" unicode="d"/><glyph d="M30 435q0 37 1 37q2 2 76 3h43q18 1 40 1q47 0 55 1h17h35q19 -1 75 -1l42 -2q2 -1 2 -18q0 -10 2 -12q2 0 0 -2q-1 -2 0 -31q1 -16 1 -54v-7l-59 1q-66 0 -99 -3q-32 -4 -57 -5l-56 -7l-6 -1l1 -5q0 -1 0.5 -7.5t0.5 -10.5q2 -14 2 -18q0 -1 0.5 -5.5t0.5 -7.5 q0 -8 2 -10v-2l-1 -1v-2q0 -2 0.5 -5.5t0.5 -6.5q1 -7 1 -16q2 -3 7 -3q7 -2 24 0q9 1 43 1l26 1q2 2 2 0q1 -1 4 -1l24 2q48 2 54 3q2 0 2 -1h2q2 1 19.5 1.5t19.5 -0.5q1 -1 8 -2h3v-40h-40h-13t-11.5 -0.5t-8.5 -0.5h-7h-2q-33 -1 -73 -1q-79 -1 -80 -2q-1 0 -1 -10 q0 -3 -1 -9t-1 -9l-1 -10q0 -8 -2 -50l-1 -17h6q75 0 84 -3h5l3 1h5.5h7.5q40 1 45 2q6 1 12 1q9 0 17 1q9 1 23 1q8 1 15.5 1.5t11 1t5.5 0.5q10 2 13 -1q2 -2 3 -23q5 -71 5 -77t0.5 -18t0.5 -16q1 -20 -3 -20h-9q-2 0 -6 -0.5t-10 -1t-10 -0.5q-30 0 -79 -3 q-12 0 -26.5 -1t-20.5 -1q-34 -2 -40 -3q-57 -4 -143 0q-3 1 -11 1q-11 0 -11 5q0 3 1 3q2 0 0 2q-2 10 -3 72q0 10 -0.5 30t-0.5 25q0 3 -0.5 29t-0.5 42q-1 28 -1 67q-2 36 -3 139z" glyph-name="e" horiz-adv-x="449" unicode="e"/><glyph d="M32 -55q-2 1 -1 89l2 124q0 4 0.5 15t1 28.5t0.5 29.5q0 19 0.5 44.5t0.5 26.5v49q0 8 0.5 19.5t1 19.5t0.5 11l1 30q0 17 1 17q1 1 19 1q5 1 20.5 1.5t22.5 0.5l115 2q15 0 36 0.5t23 0.5q21 3 74 4q4 0 13 0.5t12 1.5q14 0 20 1q3 0 9 0.5t8 0.5h7l-1 -24 q0 -7 -0.5 -27t-0.5 -29q0 -8 -0.5 -27.5t-1.5 -25.5v-25v-3l-40 1q-6 0 -56.5 0.5t-82.5 0.5q-24 0 -50 0.5t-42 0.5h-17l-10 1v-4q1 -1 1 -5t1 -5q1 -7 2 -21q0 -3 0.5 -5.5t0.5 -4.5v-2q1 -5 1 -10l1 -19q2 -34 2 -36l1 -13h1q4 2 50 2q32 1 44 2q24 2 50 2l25 1v-3 q0 -9 1 -18v-15l-8 -1h-11h-4q-4 0 -11 0.5t-13 0.5q-9 0 -22 0.5t-15 0.5q-39 3 -82 3h-8v-35q2 -70 3 -75q0 -20 1 -41q1 -57 0 -58t-47 -1.5t-49 0.5z" glyph-name="f" horiz-adv-x="419" unicode="f"/><glyph d="M30 185q0 61 1 64q1 2 2 9t1 9v3q0 4 1 9q0 12 3 30q0 1 0.5 4.5t0.5 5.5q3 17 15 42q7 16 7 17q1 1 1 2l14 21q0 1 1 1t3 4q3 6 13 13q8 4 9 5q8 6 28 14l10 4q2 2 26 9q4 2 5 3h3q2 0 2 1q2 1 4 1q4 2 5 3l2 1q1 -2 3 0l4 2q2 0 14 4l20 7q3 1 8.5 3t7.5 2q19 7 63 11 q1 0 5.5 0.5t6.5 0.5q5 1 11 1q16 2 22 3q5 0 17 2q1 0 18 0.5t27 0.5q33 0 33 -2q1 -1 1 -47q0 -12 0.5 -42t1.5 -41q1 -39 -2 -39h-5h-4h-11t-15.5 -0.5t-20 -0.5h-22.5q-74 -1 -80 -3q-10 -2 -12 -2q-1 -1 -5 -1q-10 0 -28 -16l-9 -5l-1 -1q0 -1 -3 -4q-10 -4 -21 -26 q-1 -1 -3 -5t-3 -5q-10 -20 -20 -53l-3 -11l2 -9q2 -10 3 -12l2 -11q4 -10 4 -14q5 -15 14 -26q2 -2 2 -3l6 -10q9 -12 19 -18q2 0 2 -2q1 -1 2 -1q10 0 10 -5h4q3 0 5 -2t4 -2q3 0 3 -1q-1 -1 3 -1q5 0 17 -2q4 -1 9 -1q4 0 7 -1q7 -2 8 -1q2 0 2 -1q2 -1 4 -1q27 0 29 1 q1 0 0.5 0.5l-1.5 1.5q-2 2 0 3q2 0 1 6q0 18 -1 34q0 30 -1 30t-2 1q-10 2 -47 4l-12 1q0 1 -15 1l-18 2l-4 1v24q0 6 0.5 12t0.5 9v4q21 0 45 1h44h8q14 -2 29 -1q12 0 24 -1h28l6 -1q0 -1 2 -1q3 0 4 -1q1 0 4.5 -0.5t5.5 -0.5l7 -1v-142v-32.5v-30.5t-0.5 -26.5 t-0.5 -22.5v-17v-11v-4q0 -1 -10 -1t-10 -1h-1h-4q-4 0 -11 0.5t-14 0.5q-28 0 -28 1h-6q-5 -2 -7 0h-9q-8 -2 -8 0h-5q-2 -2 -6 0h-11q-10 0 -13 1l-14 2q-8 0 -10 2l-3 1h-4h-7q0 1 -2 1h-7q-2 1 -7.5 1.5t-8.5 0.5q-23 0 -32 3l-3 1q-3 -3 -21 4q-1 0 -2 1l-2 1l-1 1 q-1 0 -3 2l-6 3l-3 3l-2 2q-3 0 -19 13l-4 2q-5 0 -25 20l-6 6q-5 4 -20 19.5t-19 20.5q-1 1 -3.5 4.5t-3.5 4.5l-9 12q0 2 -1 2q-9 6 -6 11q0 2 -1 1q-1 1 -1 3q0 1 -1 4.5t-2 6.5q-7 25 -8 29q-2 12 -3 14q-3 8 -2 10q0 1 -1 1v2q-1 1 -1 2v13q-1 10 0 10t0 1q-1 2 -1 4 q0 25 -2 27z" glyph-name="g" horiz-adv-x="481" unicode="g"/><glyph d="M401 264q0 -3 1 -8v-5v-58q0 -96 -1 -118q0 -5 -0.5 -10.5t-0.5 -9v-4.5q1 -29 -2 -29q-1 -1 -3 1q-3 5 -9 -1q-4 -4 -9 1q0 1 -1 0t-5 -1q-4 2 -4 0q0 -1 -19 -1h-20l-4 4q-3 3 -2 6q4 7 2 10q-1 1 0 2q0 3 -1 3v2q0 3 1 6v4q1 0 1 11q0 19 0.5 41.5t0.5 34v22.5v15v4 h-2q-3 1 -5 1q-10 0 -17.5 0.5t-10 1t-3.5 0.5q-20 0 -38 3q-8 1 -32 0.5t-25 -1.5t-1 -34t1 -52q3 -57 3 -61q1 -9 -1 -13q-2 -3 0 -3q2 -1 2 -8v-7h-7q-9 0 -10 1q-3 2 -3 0q0 -1 -6.5 -1.5t-7.5 0.5t-7 1l-5 -1q0 -1 -2.5 -1t-4.5 1q0 1 -1 1t-1 -1q-5 -2 -8 1q-2 2 -3 0 q-2 -2 -18 -2t-18 1h-2q0 -2 -4.5 -2t-5.5 1h-1q0 -1 -2 -1q-8 0 -16 -1q-13 -1 -16 0q-3 2 -3 0q-2 0 -4 -1q-9 -2 -11 5q0 136 1 175q1 19 1 98q1 35 1 70q1 2 1.5 10t0.5 11q0 15 1 15q0 1 2 1q2 1 3 1q0 1 1 1t1 -1h1q4 -1 6 0h10l5 1h3q3 0 7 0.5t8 0.5h16q0 1 3 1 q9 -3 13 -1q2 2 2 0l47 1q15 0 15 -1t3.5 -1t6.5 1q2 1 3 0.5t0 -2.5v-2q0 -2 -0.5 -4.5t-0.5 -5.5t-0.5 -11t-0.5 -12q-2 -24 -2 -78q0 -46 1 -47h74q7 1 14.5 1.5t12 0.5t4.5 -1t1 -1l3 1h5h2q2 -1 5 -1h9q2 -1 8 -1l4 -1l1 8q4 20 4 64q2 45 2 68v15h7q2 0 4 -0.5t3 -1.5 h2l2 -1q0 2 2 0q0 -2 9 -2q26 -3 26 -4q2 0 5 -25q0 -12 1 -14q0 -16 1 -34q0 -10 0.5 -25t0.5 -17z" glyph-name="h" horiz-adv-x="432" unicode="h"/><glyph d="M10 353v16q0 4 0.5 20t0.5 24q1 42 3 43q1 1 14 1t14 -1h2q0 2 7 0q6 -2 6 0t3 2l1 -1q0 -1 18 -1l44 -2h2l2 1q0 -1 3 -1q2 1 4 1l22 -2h25h6q1 1 2 1t1 -1l2 -1h4.5h5.5q4 0 10.5 -0.5t17.5 -1t22 -0.5q32 -1 33 0h1q1 0 53 -3q2 0 2 -1q1 -2 1 -54t-2 -54h-11 q-2 0 -13.5 0.5t-17.5 0.5l-47 1l-26 1v-6q1 -7 2 -7q1 -1 0 -3q-1 -1 -1 -28v-14.5t0.5 -12.5t0.5 -6l2 -60v-117l1 -34q0 -7 0.5 -16.5t1 -14.5t0.5 -6q0 -2 13 -2q2 0 5 -1q3 0 4 -1q7 0 13 -1q12 0 14 -1q1 0 5.5 -0.5t7.5 -0.5q11 -1 17 -1q3 -1 -1 -27q-1 -2 -1.5 -8 t-0.5 -8q-1 -14 -3 -14l-2 -1q0 -2 -29 0q-1 0 -12 0.5t-19 0.5q-12 1 -24 1l-22 2h-10h-9l-3 1q-1 1 -1 0q-2 -1 -7 0q-1 0 -9.5 0.5t-13.5 0.5t-14.5 0.5t-11.5 0.5q-1 0 -10.5 0.5t-15.5 0.5l-19 1q0 24 1 43v16v5h11l16 -2l67 -2h9h8v93q0 141 2 145q1 1 1 32t-1 48v12 l-10 1q-3 0 -12.5 0.5t-14.5 0.5q-4 0 -13 0.5t-12 1.5q-10 1 -53 1t-51 -1h-11z" glyph-name="i" horiz-adv-x="362" unicode="i"/><glyph d="M31 151q-1 1 -0.5 5.5t1.5 4.5l8 -2q2 -1 25 -3l23 -2q2 -1 21 -1l18 -2q1 0 3 -14l2 -15l1 -2q-1 -1 1.5 -14t4.5 -16q4 -10 12 -11l11 -1q4 -1 14 -1t14 1q6 0 8 1q11 1 14 4q11 8 13 17l2 4q1 0 1 2q2 3 3 7q3 6 3 25l-2 24q-1 3 -1 7q1 1 -8 39q-3 7 -8 8t-69 -3 q-4 0 -16 -0.5t-17 -0.5q-34 0 -52 -3l-17 -2q-1 0 -2 35q0 5 -0.5 13t-0.5 9q-2 19 -4 101q0 11 -1 25v15v4v3l1 2q2 1 31 1q103 0 125 4q32 4 93 5q22 0 27 1h10v-5l3 -42q0 -2 1 -7.5t1 -7.5q0 -10 1 -13q2 -22 2 -29l1 -11q1 -1 1 -11q1 -6 1 -14q1 -9 3 -43 q0 -6 0.5 -15t0.5 -10q2 -18 2 -32l1 -19q0 -10 2 -16q1 -2 1 -5.5t1 -4.5q0 -14 4 -34q3 -22 -1 -41q-6 -20 -24 -38q-20 -18 -21 -18l-4 -4q0 -2 -9.5 -7t-15.5 -6q-34 -9 -100 -10h-42l-8 3q-25 13 -49 44q-17 21 -20.5 27.5t-13.5 37.5l-9 26l-1 15v16z" glyph-name="j" horiz-adv-x="380" unicode="j"/><glyph d="M391 76q5 -6 -1 -9q-3 0 -3 -2q-1 -1 -2 -1q-7 0 -13 -6q-1 -1 -3 -1h-1q2 -2 -2 -2q-3 0 -2 -1q-1 -1 -2 -1l-27 -11l-37 -18q-19 -8 -22 -10l-10 -4l-2 -1q0 -2 -4 -2q-4 -3 -5 0l-3 2q-3 0 -44 43q-24 23 -55 54l-25 22q-3 3 -11 10.5t-10 9.5q-14 12 -11 8 q1 -12 1 -27q2 -38 3 -52q0 -12 1 -18q0 -3 0.5 -5.5t0.5 -4.5v-2v-2q0 -2 0.5 -5.5t0.5 -6.5v-4.5t0.5 -4t0.5 -2.5v-2q1 -7 1 -15q1 -13 -1 -13l-55 -4q-2 0 -3 12q0 11 -2 31l-4 81q0 20 -1 28q0 4 -0.5 16.5t-0.5 18.5t-0.5 18t-0.5 15t-0.5 14.5t-0.5 16.5 q0 6 -0.5 15.5t-0.5 11.5q-2 35 -4 62v15q-1 0 -1 35q1 35 2 36t8 1l35 4q2 0 2 -1q0 -2 2 0h3q4 1 6 1h7v-4q0 -1 -0.5 -7.5t-0.5 -10.5t-0.5 -15.5t-0.5 -16.5l-2 -17q0 -21 -1 -44q0 -43 1 -44q2 0 3 1q0 2 2 2t2 1t1 1t3 2l1 1q3 1 5 3l5 4q3 2 6 5q9 9 10 9q3 0 4 3 l4 4q5 0 5 4q0 2 2 2t11 7l5 5q1 0 6 5t7 5q1 1 1 2q0 2 2 2t8 6q2 1 4 3l2 2q2 0 2 1l1 2q3 0 3 2q1 1 3 1l1 1q-1 0 0 1t2 1q3 3 5 4l3 2h1q0 1 4.5 6t5.5 5q3 0 18 15l11 10q1 0 3.5 2.5t2.5 4.5q-1 3 2 1q2 0 3 2q0 2 5 4q4 2 3 3q0 4 8 7h3l3 1q3 1 4 -2l1 -3l4 -2 q3 -3 7 -3q6 -1 6 -2q1 -1 0 -3q-1 -4 3 -4q2 0 2 -1q2 -2 3 -2q2 0 4 -2q0 -2 3 -2q3 -1 0 -5q-2 -2 -2 -3l-2 -3l-2 -2t0 -1q0 -1 -1 -2q-2 0 -2 -2t-1 -2l-2 -2q-4 -8 -9 -13l-2 -2q0 -1 -1 -2q-2 -2 -2 -3q-3 -3 -3 -5q-1 -1 -2 -1q-2 -2 -2 -3q0 -3 -1 -2q-1 0 -1 -1 q0 -3 -4 -5l-3 -4q1 -1 -1 -3l-2 -2q2 -2 -1 -2q-2 -1 -19.5 -24.5t-17.5 -24.5t4 -3q4 -3 4 -5l1 -3q1 -1 1 -2q-1 -1 0 -1q2 2 7 -6q0 -1 1 -2q3 -5 4 -5t1 -1t4 -5t4 -5q0 -2 2 -4q3 -3 4 -5q0 -2 2 -2l4 -4q2 -4 1 -3l1 -2q2 -1 7 -6.5t8 -9.5l3 -3q0 -2 1 -2t3 -3l3 -6 l6 -7l5 -5l6 -6q2 0 3 -3q2 -4 3 -4q2 0 2 -4q3 -3 4 -3q2 0 2 -2v-2q1 0 3.5 -2.5t2.5 -3.5t2.5 -5t3.5 -4l2 -1q0 -2 3 -5q2 -2 4 -4.5t3 -4.5l1 -2q-1 0 0 -1l3 -3q5 -3 7 -8q2 -4 3 -4l2 -3q0 -4 2 -4q4 0 7 -7q0 -1 1 -2.5l2 -3t1 -2.5z" glyph-name="k" horiz-adv-x="414" unicode="k"/><glyph d="M31 -11v4v28q-2 27 0 35v6q-1 1 0 28v13v6q1 1 1 3q-2 9 0 28v19v12l1 32v23l1 48v10v14q0 13 -2 12h-2q0 1 2 1q2 1 3 32v13q0 2 0.5 9t0.5 10q0 13 1 16v10v7q1 0 1 3q-1 1 -0.5 1.5t3.5 0.5q5 0 5 1q3 1 7 1h9l4 -1q3 0 4 1h3q11 0 26 1l28 2l1 -2v-2q2 -3 0 -3 q-1 -2 0 -5v-16q1 -11 2 -11q1 -1 0 -3q-2 -1 0 -30v-10v-3q1 -2 1 -4q-1 0 -1 -3q3 -18 3 -67q0 -18 1 -43q1 -11 1 -30q1 -12 3 -13q5 -1 9 -1h8q2 0 2 1q3 0 6 -1h12q7 2 7 0q3 -1 6 -1h10h17q21 1 21 0h5q10 0 17 1h18h31q13 0 32 1h19h6q2 2 2 0q2 -1 5 -1q5 2 14 0h10 q1 0 2 -9t2 -17l2 -16l2 -8q0 -7 2 -19q5 -41 8 -72q2 -27 1 -28q-1 0 -5.5 -1t-8 -1h-4.5q0 1 -8 1q-5 -1 -18 -1q-2 0 -11.5 -0.5t-15.5 -0.5q-16 -2 -20 0h-7q-2 0 -6 -0.5t-9.5 -1t-9.5 -0.5q-25 0 -34 -1h-20q-13 0 -23 -1q-5 0 -14.5 -0.5t-10.5 -0.5q-16 0 -25 -1 q-5 0 -14.5 -0.5t-11.5 -0.5l-42 -2q-62 -2 -63 -2h-2z" glyph-name="l" horiz-adv-x="445" unicode="l"/><glyph d="M480 49q0 -1 0.5 -5.5t1 -12.5t0.5 -13q0 -26 -2 -26q-21 -2 -34 1h-6l1 24q1 34 0.5 106t-2.5 99q0 26 -1 46v10.5v10t-0.5 8t-0.5 5.5v2l-11 -12q-10 -12 -23 -28.5t-20 -25.5l-24 -32q-43 -56 -56 -74q-5 -7 -7 -8t-12 -2q-17 -2 -62 -0.5t-49 3.5q-7 5 -22 36l-8 17 l-4 10l-4 9q0 1 -4 9l-9 23q-1 4 -5 14t-9 23.5t-7 18.5q-2 8 -4 10l2 -29q0 -1 0.5 -13.5t0.5 -32.5v-39q0 -152 3 -176v-5h-33q-33 0 -34 2t0 125v93q-1 6 -1.5 28t-0.5 31q0 12 -0.5 31t-0.5 22q-1 5 -1.5 21.5t-0.5 23.5l-1 29q0 2 1 2q1 2 39 3q30 1 46 3q2 0 6.5 0.5 t5.5 0.5q6 0 7 -3l1 -5q2 -4 2 -6q1 -3 5 -17.5t5 -18.5q10 -27 10 -36q4 -12 8 -27q8 -28 8 -29q5 -18 8 -18q1 0 1 2q1 1 2 0q5 4 11 10q16 16 24 23q31 29 57 55q31 31 45 47l4 4l14 -1q4 0 17 -0.5t19 -0.5q21 0 37 -2h8.5h7.5l3 -1q7 0 10 -1l38 -3q1 0 1 -6 q-3 -21 -3 -179q0 -20 0.5 -56.5t1 -65.5t0.5 -31z" glyph-name="m" horiz-adv-x="512" unicode="m"/><glyph d="M31 40q-2 2 1 28l2 32q0 2 0.5 6.5t0.5 5.5l1 6v9l2 11v7q0 4 1 20t2 20q0 19 1 23q2 28 2 58q1 9 1 24q0 1 0.5 5t1 9t0.5 9q0 22 1 28v12q0 1 1 1v5l-1 5l-1 -1q-1 -1 -2 0t-1 2l1 2q1 0 3 2l3 3q3 0 1 -3q0 -2 4 -1q3 0 3 -2l1 -1q2 0 3 -1q2 -2 16 2q1 1 1 0 q0 -2 1 -2l1 1q-1 1 0 2q3 5 5 -1q1 -3 6 -3l10 1q4 0 5 -1h9q4 -1 11 -1t11 1q7 0 8 -1q2 0 3 1q4 2 4 1q-2 -2 1 -2l1 1q0 1 2 1l1 -1h-1q1 -1 3 0q4 0 4 -1q0 -3 3 -6v-1q1 -1 1 -2l1 -2q1 0 1 -1v-3q1 -1 7 -16q1 -1 2 -3t1.5 -3.5t1.5 -3t1 -2.5l5 -9q0 -1 2 -5l3 -6 l4 -9q2 -4 4 -7q3 -4 3 -7l2 -3l9 -18q2 -4 8 -15.5t10 -18.5l1 -2q0 -1 1 -1q0 -3 4 -8l6 -11q6 -11 9 -11q2 2 -1 40q-3 45 -3 49q0 3 -1.5 23.5t-2.5 31.5l-2 35q1 1 6 1q20 0 37 1l34 2q3 0 3 -9l-1 -11v-8v-14v-17v-12v-6v-15q1 -8 1 -20v-16v-12v-7v-31q0 -6 -1 -7v-1 l2 -3q0 -20 -1 -24v-10v-7q-1 0 -1 -6q2 -7 0 -12q0 -36 6 -84q0 -3 -4 -3q-5 0 -8 1h-13q-13 0 -36 3q-4 0 -5.5 1.5t-7.5 13.5l-9 20l-11 22q-6 12 -6 13l-1 2q-1 2 -2 3q-2 5 -26 53q-3 3 -3 6q-2 4 -5 8q-1 2 -2 4.5t-2 4t-1 2.5l-3 6l-5 12q-16 38 -21 46l-2 -11v-2v-9 v-12q-1 -5 -1 -11v-6q0 -1 -0.5 -6.5t-0.5 -8.5v-22.5v-18.5v-15l1 -18q-1 -1 1 -44l2 -29v-8l-5 -1q-15 0 -30 1q-18 2 -42 2q-21 0 -26 1h-17q-2 0 -5 1h-3z" glyph-name="n" horiz-adv-x="360" unicode="n"/><glyph d="M32 141l-2 6q1 1 1 43v29v18q-1 24 4 51q8 24 8 30q5 20 7 24q4 8 30 47q16 21 23 26q1 0 3 2t4 3q0 1 2 3l3 3q5 4 13 6q3 0 9 2q8 2 13 2q8 2 16 2q1 0 5 -0.5t9 -1.5t7 -1q7 0 17 -1h6q2 -1 8 -1q5 0 10 -1h6q2 -1 7 -1q4 0 31 -16q16 -8 19 -13l13 -13q8 -8 11 -14 l7 -22q13 -42 17 -49q3 -6 3 -20q2 -28 2 -55q0 -16 1 -31q1 -31 -2 -51v-2l-2 -5v-4q0 -2 -1 -5l-1 -7q0 -4 -5 -24q0 -4 -2 -16q-3 -15 -13 -34l-4 -10q-5 -8 -7 -9q-5 -5 -6 -5l-35 -32q-15 -13 -21 -15l-12 -4q-2 -1 -24 -5q-17 -2 -32 0q-52 8 -75 21q-12 6 -30 26 q-7 10 -9 10q-1 1 -8.5 11t-7.5 11l-2 11q-2 14 -3 15q0 1 -0.5 4t-0.5 5q-1 2 -3 18q-3 11 -3 15l-2 10q-2 8 -2 14z" glyph-name="o" horiz-adv-x="375" unicode="o"/><glyph d="M31 346q-2 15 1 17q3 3 4 3q2 1 4 3q1 0 3 2q1 1 2 1q3 2 7 4l6 4q1 1 2 1q2 0 2 1q1 1 2 1l4 2q2 2 5 2l3 1q0 2 5 2q1 0 2 1q2 0 2 1l1 1q0 -1 3 0q2 1 18 2t26 0q2 0 9 -0.5t10 -0.5t10.5 -1t10.5 -1h13q1 0 4 -0.5t4 -0.5q3 -1 14 -3q3 0 3 -2q1 -1 2 -1q6 0 6 -1 q0 -2 2 0q1 0 1 -1t3 -1t5 -2l2 -1h1q0 -1 4 -3q5 -2 6 -3q2 -2 4 -2q1 0 1 -1l5 -2l5 -2q0 -1 1 -1t4 -3l4 -2q2 0 2 -3l4 -6q3 -5 3 -6t1 -1t0 -1q1 -1 2 -1l1 -2q0 -3 1 -5q2 -4 2 -5q-2 -2 1 -2q1 0 0 -1q0 -3 1 -6l3 -10q11 -49 8 -67q-3 -9 -3 -19q-5 -34 -16 -56 l-4 -9l-9 -4q-28 -13 -56 -20q-5 -1 -11.5 -2t-12 -2.5t-6.5 -1.5q-10 0 -12 -1q-14 0 -28 -1l-25 -1q-2 0 -2 -57q1 -56 -1 -57q-2 -2 -25 -2q-25 0 -28 1h-5v8q-1 2 -3 24q-10 70 -12 148q0 7 -0.5 19t-0.5 15q0 2 -0.5 20.5t-0.5 30.5q-1 20 -1 38l-2 12q0 3 -0.5 10 t-0.5 9z" glyph-name="p" horiz-adv-x="328" unicode="p"/><glyph d="M31 194q-1 7 -1 24q1 6 1 19q0 2 4 42q2 10 4 12q1 1 3 4q1 3 2 4q0 3 2 3l1 2q-1 1 0 1t1 2t4 6q3 3 2 3h-1l2 2q1 3 3 3v1q0 2 1 2q2 0 2 3q2 4 5 7q4 4 4 5l1 1q2 0 6 4t5 4q2 0 3 3q3 3 3 1q1 0 1 1l1 2q2 -2 2 1q0 1 2 1t3 3q0 3 2 1q1 0 3 2t3 2q3 2 5 4q4 4 7 4h1 q0 2 5 4q2 0 2 1l3 3q1 1 2 1q0 2 8 2q4 0 4 2q1 1 6 1q3 -1 3 0q-2 0 -2 2q0 1 7 1t8 1h3h5q5 0 5 3q1 3 5 1q1 -1 1 -2l1 -1q1 1 4 0q2 -2 7 -2t6 -2q1 -1 6 -1q2 0 4.5 -0.5t3.5 -0.5q2 -2 2 0q1 1 4 -1q2 -2 5 -1h4q2 -2 4 -2q3 0 3 2t1.5 3t3.5 0q1 0 1 -2t2 -2t2 -1 q0 -2 2 -2l3 -3q0 -3 6 -3q6 -2 5 -3q0 -1 1 0q3 0 3 -1q1 -1 1 0q1 1 3 1t2 -2q0 -1 2 -1l1 -1q0 -3 7 -3q3 0 5 -3q4 -4 5 -4q2 -1 2 -3t2 -1q2 0 4 -2l1 -3q2 0 4 -3q3 -3 6 -3q2 0 2 -4q0 -3 1 -3t5.5 -4.5t4.5 -5.5l2 -2q1 0 3 -3l3 -3q2 0 2 -3q0 -2 3 -4t3 -4 q-2 -2 0 -2q4 2 4 -3q0 -1 3 -4q3 0 3 -2q-1 -1 0 -2.5t2 -2.5q6 -12 7 -17q0 -3 2 -11l2 -11q0 -3 2 -7v-5q0 -2 1 -2h1q-1 -1 1 -8q3 -22 1 -28l-2 -17q-2 -16 -2 -18q-2 -19 -12 -40q-3 -6 -3 -9l-1 -1q-4 0 -7 -16l-3 -3q-1 -1 -1 -3q15 1 17 2q1 0 1 -1t1 0l2 1 q2 0 8 0.5t13 0.5q19 1 21 3q2 1 4 1q6 0 10 1h6v-10q1 -6 1 -15l1 -9v-17q1 -21 -1 -21l-2 -1q-6 0 -12 -1q-9 0 -21 -2l-17 -1q-21 -3 -58 -6q-20 -2 -26 -2q-2 0 -13.5 -1.5t-18.5 -2.5q-31 -4 -56 1q-18 3 -19 3q-49 8 -71 21q-15 8 -26 19q-7 7 -16 22q-1 3 -3 6.5 t-3 6.5l-1 2l-6 14q-2 4 -4 10l-3 6q0 1 -1.5 4t-2.5 6.5t-2 6.5q-1 2 -2 5l-1.5 4.5t-1.5 3.5v1q-1 1 -3 19q0 8 -2 20z" glyph-name="q" horiz-adv-x="455" unicode="q"/><glyph d="M30 383v9q1 8 5 9h16l28 3q14 2 21 2q6 0 22 2q13 0 25 2l24 1q11 1 35.5 1t30.5 -1q1 -1 5 -1t5 -1q2 0 6.5 -0.5t5.5 -0.5h6q4 -1 11 -2q6 0 9 -3t4 -3l2 -2q2 -2 5 -4.5t6 -5.5q8 -8 20 -17q21 -18 32 -53q4 -10 -1 -38q-2 -11 -17 -25l-11 -11q-5 -5 -42 -23 q-24 -13 -24 -15t2 -4t2 -3q0 -2 9 -20l3 -9q0 -1 2 -1v-1q0 -2 1 -3q2 -2 2 -4q0 -1 2 -5q2 -2 2 -6q1 -1 7 -15q6 -12 6 -13t2 -5q1 -3 2.5 -5t2 -4t1.5 -5t2 -5.5l2 -5t3 -6.5l6 -15q1 -4 3 -8l3 -7q0 -3 10 -21q4 -8 3 -10t-13 -10l-12 -7l-2 3q-3 3 -3 7l-4 6 q-2 2 -4 6q-4 8 -7 12q-4 6 -7 11q-1 1 -2 3l-1 2l-4 7l-3 6q0 3 -2 3q-2 2 -2 3t-4 7t-4 7t-1 1l-4 6q-2 5 -6 9q0 1 -1.5 2t-1.5 2l-2 5l-3 4q-2 3 -3 6l-5 6q0 2 -6 10q-7 9 -7 10q-21 33 -24 31q-1 -1 -0.5 -16.5t1.5 -17.5l2 -27q0 -2 1 -2q1 -2 1 -3q0 -18 2 -24 q2 -16 0 -16v-1q2 -2 1 -3v-3q1 0 1 -5q0 -2 4 -34q0 -7 1 -10v-6q1 0 1 -7t-1 -8q-6 -3 -53 -3l-14 -1q0 -2 -3 0h-5q-4 -1 -17 -1t-13 1q0 2 -2 0q-1 -1 -22 -1q-12 1 -33 1h-11v4v6q-1 7 -1 12q0 16 1 16q2 1 2 2.5t-2 2.5q-2 0 -2 4.5t2 4.5v1q-1 1 -1 99q0 113 -3 117 q-1 1 -1 4q-1 4 -1 5q0 11 -1 16q0 6 -2 60q0 33 -1 33z" glyph-name="r" horiz-adv-x="376" unicode="r"/><glyph d="M32 270q-2 4 -2 27q1 26 7 40q3 6 18.5 27.5t17.5 22.5q1 1 1 2t3 4q11 6 16 11l7 5q1 0 8 5q17 13 24 13q3 0 7 2l5 1q8 0 12 3l4 1h2q2 1 4 1q2 1 34 1q8 0 28 0.5t27 1.5q23 1 51.5 1t29.5 -1t1 -50v-48l-8 -1q-11 -1 -23 -2l-18 -1.5t-8 -0.5q-41 -5 -43 -5l-20 -1 q-14 -2 -15 -2l-7 -7q-6 -5 -6 -10q0 -16 9 -27q3 -4 8 -8t7 -3h1q0 -1 4 -3.5t9 -4.5t6 -2q2 0 3 -1l6 -3q3 0 5 -2t3 -2q3 0 3 -1l1 -1q2 0 4 -1t4 -1q23 -9 24 -10q0 -1 1 -1q4 -1 7 -3q10 -5 13 -6l6 -4l8 -4q12 -8 22 -19l22 -21q7 -8 9 -12l6 -14q4 -10 4 -11 q0 -2 2 -2l1 -2v-3q3 -8 3 -28q-2 -20 -2 -25q-3 -16 -6 -30q0 -1 -0.5 -3t-1 -3.5l-1 -3t-0.5 -2.5q0 -4 -2 -4v-1q2 -6 -31 -33q-15 -14 -51 -25q-14 -4 -16 -4q-4 0 -4 -1q-3 0 -5 1q-4 2 -4 1q0 -2 -5 -3t-8 1h-1q0 -1 -5.5 -1t-6.5 1q-2 2 -2 0t-2 -2h-15q0 1 -1 1 t-2 -1q-1 0 -11.5 -0.5t-20.5 -0.5l-10 1q0 1 -11 1q-12 0 -13 2q-2 1 -3 -1q0 -2 -4 -2t-4 2h-3q-12 -4 -14 -1h-1q-2 -2 -10 -2q-5 0 -29 -2q-10 0 -10 1q-2 1 -4 -1q-12 -4 -20 -1q2 2 2 5v4l1 2q1 1 1 8q0 6 2 8v3q0 1 1 2v2l2 11q3 16 3 17l1 7q1 1 1.5 3t0.5 3v6 q4 8 4 27q0 1 11.5 0.5t17.5 -1.5l28 -2q2 0 8 -0.5t8 -1.5q20 -1 28 2q5 3 7 6l2 3q1 0 1 2q0 1 2 5q6 15 6 31q0 9 -5 14q-3 3 -3 4t-1 2q-3 0 -6 7q-1 1 -2 2.5t-2 3.5l-1 1l-5 5q-12 12 -16 12l-5 2q-1 1 -17 10l-14 7l-12 6q-10 5 -29 23q-20 20 -21 24l-8 12l-6 9 q0 2 -3 5z" glyph-name="s" horiz-adv-x="420" unicode="s"/><glyph d="M-21 251q-3 2 -2 64l2 72q0 11 -1 15v8q1 0 1 18l-1 18l4 1h7h5q1 1 5.5 1t6.5 -1h2q1 1 20 1q5 1 19 1.5t19 0.5q6 0 17.5 0.5t13.5 0.5q30 1 30 3t2 2q2 -2 2 0q0 1 3 1t3 -1t2 -1q3 1 7 1.5t6.5 0.5t2.5 -1q1 -1 1 -2q1 1 7 2t11.5 1t5.5 -1l1 -1q5 5 12 1q3 -2 3 0 q0 1 1 1q1 -1 3 1q4 4 6 0q0 -1 1 -2t2 2q1 2 5 2.5t6 -0.5h1q4 -1 6 0q6 0 7 -1q1 -2 2 0l3 2q2 -2 2 1q0 1 2 1q1 0 1 -3q0 -2 27 -1l14 1l7 1q7 -1 8 1q1 3 0 4q0 1 2 1q3 0 3 -2q-2 -2 2 -2q3 0 3 2q2 2 3 2q3 0 3 -2q3 -6 3 0q0 2 12 2h14q2 1 3 0q3 -1 6 -1 q10 0 12 -2t2 -12v-16v-5v-3q0 -3 0.5 -7.5t0.5 -8.5q0 -14 2 -44q0 -28 2 -30q1 -1 0 -1q-2 0 0 -15q4 -49 0 -53q-2 -2 -69 -9q-36 -4 -38 -4q-3 0 -19 -2l-15 -3q-1 0 0 -41.5t2 -59.5v-56q0 -10 -0.5 -43.5t-0.5 -48.5l-1 -54v-1q2 -2 1 -5l-1 -4l-30 1q-30 0 -31 1 q-1 52 -1 115q-2 186 -4 188l-69 2q-77 0 -95 3q-1 0 -5 0.5t-7 0.5z" glyph-name="t" horiz-adv-x="385" unicode="t"/><glyph d="M30 268l1 69q1 26 1 67v10v8l1 3q1 1 66 1t136 -0.5t84 -1.5q17 0 81 -2l26 -1l2 -13q0 -4 0.5 -9t0.5 -6q1 -5 3 -27q0 -2 0.5 -11t0.5 -13q0 -3 0.5 -18t0.5 -23q0 -19 -0.5 -49t-1 -52t-0.5 -23q-3 -17 -8 -34q0 -3 -2 -9q-4 -18 -12 -41q-8 -20 -29 -48 q-20 -26 -46 -38q-42 -19 -59 -22q-39 -7 -62 -3q-59 7 -76 16q-16 9 -34 27q-15 14 -28 33l-13 19q-4 4 -6 12q-2 3 -5 12l-7 23q0 6 -2 6q0 1 -1 2q0 3 -3 12l-3 12q-2 10 -2 41q0 4 -0.5 13t-1.5 12q0 18 -1 28q0 18 -1 18z" glyph-name="u" horiz-adv-x="464" unicode="u"/><glyph d="M22 351q-2 6 -2 8t7 3q9 0 10 1l36 1h7l1 -3q0 -1 5 -17q5 -27 7 -30l1 -3q1 -3 2 -8.5t2 -9.5l2 -10t2 -8l1 -3l7 -30q1 -10 12 -47q0 -1 0.5 -2.5t1.5 -3.5t1 -3q0 -3 3 -9q3 -7 3 -10q0 -2 1 -2q1 -1 1 -2v-2q1 -1 1 -3q0 -3 2 -5q1 -3 1 -1q0 1 1 4l5 19q0 3 1 6.5 t2 6.5v2q0 4 1 4l1 2q0 1 1 3.5t1 5.5q1 2 1.5 4t1 3.5t1.5 3.5v1q0 2 2 12q1 2 2 6l1 3q2 2 9 48q1 4 2 10t2 14t2 12q7 46 9 48q15 0 33 -1q76 -2 78 -4l-2 -15q0 -3 -1 -7t-1.5 -7.5t-0.5 -4.5q0 -2 -1 -5v-2q-1 0 -7 -41q-1 -3 -1 -6v-1q-1 -2 -1.5 -4t-0.5 -3 q0 -5 -2 -11q0 -2 -0.5 -5t-0.5 -4l-4 -24q-1 -4 -1.5 -9t-0.5 -9q-1 -2 -1 -8q0 -1 -1 -3q0 -3 -1 -3v-3q-1 -4 -1 -6q-2 -10 -2 -13q-1 -1 -1 -3.5t-1 -3.5q0 -1 -0.5 -4.5t-0.5 -5.5q-3 -14 -15 -102q0 -7 -2 -7q-4 -1 -8 -1q-3 0 -8.5 -0.5t-7.5 -0.5q-26 0 -36 -2 q-9 0 -14 -1l-17 -1q-3 0 -8 -0.5t-6 -0.5t-5.5 -0.5t-6.5 -0.5h-15h-9l-3 10q-2 8 -4 13l-1 2q0 2 -1 4.5t-1 4.5q-5 15 -7 19l-7 24q-7 23 -9 33l-4 13q-6 24 -10 42q-1 3 -1.5 6.5t-1.5 6t-1 3.5q-3 10 -5 22q-3 12 -6 25l-1 7q0 3 -2 9q-1 2 -1 8q0 1 -0.5 3t-1.5 3 l-6 26q-1 5 -2.5 12t-2.5 11.5t-1 6.5z" glyph-name="v" horiz-adv-x="294" unicode="v"/><glyph d="M32 423q-3 11 2 11q3 0 5 2q1 1 5 0q2 -2 2 0q-1 1 0 1t2 -1h11q0 1 2 1t2 -1q1 -1 4 -1t3 1q-1 1 1 1l1 1q4 0 4 -1q1 -1 7 -0.5t8 2.5h6q3 -1 27 -1t26 1q1 1 14 1q4 1 14.5 1.5t15.5 0.5q17 1 17 -1t2 -2q1 -2 1 -4q0 -15 3 -19l1 -1v-2l2 -6l1 -6q-1 -1 2 -5l3 -9 q0 -5 2 -11q1 -2 2.5 -6t1.5 -5v-7q0 -3 1 -3q1 -2 1 -4q0 -3 2 -4l4 -1q0 -1 -2 -1q-1 1 -2 0.5t-1 -1.5q2 0 2 -2q0 -4 1 -4t1 -2q0 -3 -1 -2v-7q2 -6 4 -6t0 -2q-2 -1 -2 -4t2 -4q1 0 1 1l1 1l1 -1q0 -2 1 -2q3 -3 -1 -3q-2 2 -2 -1q0 -2 1 -2t1 -3v-4q1 -1 1 -4t1 -3 t1 -3q-2 -3 0 -3q1 0 1 -6q0 -4 2 -6q1 0 1 -3v-7q1 -2 1.5 -3.5t-0.5 -1.5q0 -2 1 -3t1 -4v-2q1 0 1 -3q0 -5 1 -6q2 0 2 -4q-1 -1 1 -5l1 -2q-1 0 0 -4q3 -5 4 -14l3 -13v3q0 2 1 19t1 21l2 27v10v9l1 3q1 1 1 9q0 9 1 13v7q-1 2 0 3q2 0 2 9q0 3 0.5 8t0.5 7l1 11 q1 7 3 20t3 20l1 7q0 3 40 4l6 1l3 -13q9 -36 7 -40q0 -1 1 -1q2 0 2 -4q0 -3 1 -3q1 -1 3 -14q2 -10 4 -10t1 -2t-0.5 -9.5t2.5 -8.5q2 -2 2 -5q0 -4 1 -4v-5q-1 -4 1 -4q1 -2 1 -5q0 -5 2 -7q1 -1 1 -5q0 -3 2 -4q2 -2 1 -3q-1 0 -1 -4.5t1 -4.5q2 0 2 -9q0 -2 2 -6t2 -9 t2 -7t2 -5q0 -2 0.5 -6t1 -7.5t1.5 -3.5t1 -5q0 -3 2 -5q1 -3 1 -7q2 -7 4 -9q2 -4 2 -5t1 -2q3 0 4 12q0 14 3 29q1 4 1 11l1 16q1 0 1 4t1 4l2 10v6l1 4l1 2v6v6q0 11 2 13v3q1 3 1 5q0 7 1 9q1 5 0 5v1q4 16 4 25q0 8 1 9l1 2v3q0 12 1 13q3 3 3 22v7l1 2q1 1 1 2l1 13 q2 0 2 1q0 2 -1 2q-1 1 0 1v3q1 3 1 5q0 6 2 6v1q-1 1 -0.5 6.5t1.5 6.5q4 2 63 0q4 -1 17 -1.5t18 -0.5l19 -1q0 -1 -1 -2v-1q1 -1 1 -3q-1 0 -1 -3q-1 -3 -1 -4q0 -2 -0.5 -7t-0.5 -6t-0.5 -7.5t-0.5 -10.5q-1 -3 -1 -12.5t-1 -13.5q-2 -16 -2 -25q0 -3 -0.5 -9.5 t-0.5 -8.5q-2 -8 0 -9q4 -2 0 -2q-2 -2 -2 -7q0 -10 -1 -15l-1 -18q-2 -22 -3 -25q0 -2 2 -1q2 0 2 -2v-4q0 -4 -2 -2q-1 1 -1 2q-1 1 -1 -1q0 -27 -4 -49q0 -9 -1 -15q0 -6 -2 -36q-1 -6 -1 -12q0 -1 -1 -1q-1 -5 -1 -11q0 -15 -1 -20q0 -7 -2 -27t-2 -29q-2 -14 -2 -20 q-2 -10 -2 -24q-2 -22 -3 -25v-9h-19q-19 0 -20 1t-1 0q-9 -1 -20 0h-48l-30 2q-1 1 -6.5 21.5t-7.5 31.5l-1 10q0 1 -2 9.5t-4 14.5q-4 22 -12 54q-1 4 -2 9.5t-2 9.5t-1 5l-3 13q0 2 -1 5t-1.5 5.5t-0.5 4.5q0 1 -1 6l-2.5 12.5t-2.5 13.5q-6 30 -6 33q0 2 -1.5 9.5 t-2.5 11.5q0 3 -0.5 6t-1 5t-1.5 4v2q-4 22 -4 23q-1 6 -2 -6q-1 -4 -1 -9l-3 -32q0 -4 -0.5 -10.5t-1.5 -15.5t-1 -13l-2 -30q-1 -11 -6 -71q0 -14 -1 -18q-1 -5 -1.5 -21t-0.5 -23q0 -3 -3 -40l-2 -27q0 -1 -22.5 -1t-25.5 1q-2 1 -2 0q-7 -1 -20 -1l-100 3q-6 0 -7 16 q0 7 -2 15q-3 27 -3 29q0 5 -1 5q-1 3 -3 22q0 5 -2 13q0 8 -2 14q0 5 -2 21q-2 18 -3 20q0 3 -4 35q-2 10 -2 15v5l-1 4q-1 5 -1 11l-2 12q0 1 -0.5 5t-0.5 7q-1 5 -1 12l-7 44q-1 6 -1 13l-2 7q0 1 -0.5 4t-1.5 6.5t-1 5.5q-1 7 -2 11.5t-1.5 7.5t-0.5 5q-1 2 -5 24l-6 25 q-3 12 -3 16q0 2 -1 5q-2 5 -2 6z" glyph-name="w" horiz-adv-x="575" unicode="w"/><glyph d="M37 398q-7 18 -7 20t4 1q1 0 6 -0.5t8 -0.5l11 -1l3 -1h5q6 -2 14 -2q2 0 7.5 -0.5t7.5 -1.5q18 0 20 -2q1 -1 12 -22.5t11 -23.5l1 -4q1 -1 7.5 -13t6.5 -13t27 -55q1 0 3 -5q3 -7 5 -2l8 27q0 5 4 19l5 19l2 8q0 1 1 3l1 2q0 13 6 22l1 2q-2 0 0 2l1 2l5 18 q0 2 1.5 6.5t1.5 6.5q1 5 2 6.5t3.5 2t8.5 -0.5q7 -1 16 -1q2 -1 7 -1.5t8 -0.5t9 -0.5t8 -1.5q21 -1 21 -3q0 -3 -7 -21q-1 -2 -2 -4.5t-2 -4.5t-1.5 -4t-1 -3t-1.5 -2v-1l-2 -5q-5 -12 -31 -77q-17 -45 -19 -48l-5 -14q0 -1 -1 -3.5t-1 -3.5q-4 -9 -4 -11t5 -13q1 -3 3 -7 l3.5 -7t1.5 -4l4 -6v-1q1 -1 1 -2q0 -3 1 -3t1 -1v-1l1 -1q0 -1 1 -3l2 -4l3 -7q0 -2 1 -2t1 -1q0 -2 5 -12q4 -7 11 -23q6 -12 8 -14v-1l1 -2q1 -1 5 -11q12 -25 12 -26l1 -2q2 0 2 -3q0 -2 4 -10q5 -10 10 -22q8 -21 11 -24q0 -1 -1 -2t-18 -4l-18 -1q0 2 -9 18 q-1 2 -2 4.5t-2 4t-2 3.5l-1.5 3t-0.5 2l-1 1q-1 1 -9 17q-10 20 -12 23q-2 4 -2 6q0 1 -1 1q-2 3 -3 6q0 1 -1.5 4t-4.5 8t-4 8q-8 18 -8 20q-2 4 -3 4l-1 4q-2 3 -4.5 8t-3.5 8q-13 28 -15 32q-3 5 -4 11q0 2 -1 3.5t-2 3.5v1q-1 1 -2 -1t-2.5 -6t-2.5 -9l-4 -15 q-2 -8 -2 -9q-1 0 -1 -2l-6 -20l-7 -24q-2 -6 -2 -7q0 -3 -1 -3q-1 -1 -6 -18l-4 -15q0 -1 -1 -5t-3 -11.5t-3 -11.5l-6 -24q-1 -1 -1 -5q-2 -2 -2 -6l-2 -4l-10 -1q-2 0 -12 -0.5t-15 -0.5q-9 -1 -19 -1q-8 -1 -27 -1.5t-19 0.5q-1 1 10 27q1 2 2 4.5t1.5 4t0.5 3.5l1 1 q5 12 7 12v1q-1 1 1 3q3 6 4 10l5 11l8 19q0 2 2 2q1 0 1 1q0 4 5 12q3 10 4 10l2 5q4 9 5 11q3 7 11 23q3 6 3 9l4 7q3 6 3 8q0 3 3 7q6 16 3 20q-36 64 -36 73q-2 5 -5 10l-5 10v1q-1 2 -2 5t-2 5q-5 8 -5 11q0 2 -1 3q-3 3 -1 3q0 2 -1 2t-1 2l-1 1q0 2 -1 4t-1 4 q-5 10 -6 13q0 1 -1 3t-1.5 3.5t-0.5 2.5t-0.5 2.5t-1.5 3.5t-1 3q-3 5 -3 7q-1 0 -1 2q2 0 0 2l-1 3q-1 3 -3 8t-3 9z" glyph-name="x" horiz-adv-x="360" unicode="x"/><glyph d="M-16 440q-5 8 -2 9h49l8 -1l10 -20l11 -20q0 -1 2 -3q3 -3 6 -10q4 -9 6 -9q1 -1 1 -3q0 -1 1 -2l4 -6q3 -8 13 -23l4 -6l1 -2q2 -3 4 -7t4 -7q9 -14 9 -17q0 -2 2 -2q1 0 1 -1q0 -2 2 -4t2 -5q2 -4 4 -6q2 -4 1 -5q0 -1 2 -3q1 0 3 -5l3 -6q9 -12 9 -15t1 -3q3 -1 7 -10 l1 -2q1 -2 2 -3q8 -10 11 -16q2 -4 5 -7t3 -5q0 -3 2 -3h1q-1 1 7 12q3 3 5 7l4 7q3 4 5 8t3 4l2 1q0 1 2 5l3 3q0 2 2 4q3 3 3 4t3.5 6t4.5 6l1 1l2 4l2 4q3 6 6 9l1 3q0 1 4 5q1 1 3 4t3 4q1 4 7 12t8 9q0 1 2 5l3 3q1 0 1 2t5 7l5 6q0 1 4 5t4 5t2 3q1 1 1 3q1 2 6 7 q2 4 2 5l1 1l3 3l4 6l3 3q1 0 1 2l4 6l3 4q0 1 3 4q3 2 3 4q0 3 5 6q5 5 5 7l4 6q3 2 6 8l2 3h28l26 -1v-1l-3 -6q-3 -3 -3 -6l-2 -3q-1 1 -1 -1q2 -2 -1 -2q-2 -2 -2 -4t-1 -2t-3.5 -5t-2.5 -7q-1 -3 -3 -4q-4 -4 -2 -4l-2 -4q-8 -8 -8 -13q0 -1 -1 -2l-6 -11q-1 -2 -3 -5 t-3.5 -5t-1.5 -3l-3 -6l-2 -3q-1 0 -1 -2q1 0 0.5 -0.5l-1.5 -1.5l-3 -3q0 -3 -3 -5l-1 -2q2 -2 -7 -12q-1 0 -1.5 -1t0.5 -2q-1 -2 -3 -3q0 -1 -1 -2v0q2 0 -1 -3q-4 -4 -4 -5q0 -2 -2 -4q-3 -2 -3 -3q0 -2 -2 -4t-1 -2q0 -2 -1 -3q-8 -6 -25 -34l-8 -13l-1 -139v-32v-29 t-0.5 -26t-0.5 -22.5v-16.5v-11v-4q-1 -2 -34 -2h-47q-16 -2 -31 -2q-5 0 -21 -1l-32 -2l-12 -1l1 37q0 8 0.5 18.5t1 16t0.5 7.5q1 7 1 79.5t-1 92.5l-1 25l-5 9l-5 10q-1 1 -10 19q-9 17 -10 17v1q0 2 -3.5 8.5t-4.5 7.5t-1 2q0 2 -3 8q-5 10 -7 13l-4 6q-1 1 -5.5 10.5 t-4.5 10.5q0 2 -5 9q-1 3 -4 8.5t-4 6.5q-3 6 -6 9l-1 3q0 2 -7 12q-6 9 -11 19q-4 7 -5 7v2l-1 1l-2 4z" glyph-name="y" horiz-adv-x="354" unicode="y"/><glyph d="M328 113l10 -1v-4q-1 -2 -1 -6q-1 -2 -3 -19q-1 -8 -7 -37q-1 -13 -4 -23q0 -2 -0.5 -4.5t-1.5 -6.5t-1 -6q-3 -10 -6 -10h-4h-10t-14 -0.5t-17.5 -0.5h-19.5l-145 -2q-2 0 -7.5 -0.5t-16 -1t-17.5 -0.5h-33v26q2 52 3 53q0 1 2 3q0 3 2 3q1 0 1 1q0 2 3 5q20 20 22 24 l2 3q2 3 4 5q5 5 5 6q4 5 6 5q0 2 7 9l7 8l6 6q17 20 21 25q1 1 3.5 4.5t3.5 4.5l2 2q-1 0 -1 1q1 1 2 1q2 0 2 1q-1 3 2 3q3 3 5 6l7 7q3 1 3 3q0 1 8 11l15 15q7 9 8 9q1 1 1 4q0 1 1 1t5 4t3 5q0 2 2 2q3 1 3 3v2q1 0 6 5t5 6t2 3v-1v0h1l2 3q0 2 3 3q1 1 0 3h-3 q-4 0 -9 0.5t-10 0.5q-30 0 -42 1l-42 3q-3 0 -6.5 0.5t-6 0.5t-4.5 0.5t-4 0.5h-1q-2 0 -3 13v19q-1 3 -1 18q-1 12 -1.5 28t-1.5 25.5t-1 11.5v7l9 1h16.5h8.5q0 -1 30 -1l31 1h2h2q0 -2 6 0h34q16 1 36 1h8h1q1 1 13 1q3 -1 20 -1l15 -1h2q2 -1 4 -1q1 0 3 -1h3 q0 -29 -1 -36l-2 -19q-3 -40 -6 -54l-1 -8l-16 -15q-3 -3 -9 -8t-10.5 -9t-6.5 -6q-6 -5 -62 -61l-58 -56q-4 -6 -4 -7q0 -2 1 0h2q0 -1 4 -1q5 0 5 -1l9 -2l38 -4l23 -2q2 0 18 -2q30 -3 32 -3q5 0 8 -1q11 0 19 -2q10 -2 22 -2z" glyph-name="z" horiz-adv-x="368" unicode="z"/><glyph d="M167 372q1 0 1 3q0 4 -3 4q-2 0 -2 1q-4 1 -9 1q-10 1 -15 -2l-10 -4l-5 -2q-1 -1 -15 -8l-7 -2l-1 -1q0 -1 -3 -1q-1 -1 -2 -1q0 -1 -5 -6l-6 -5l-2 -6l-5 -11q0 -2 -2 -5.5t-2 -5.5l-4 -10q0 -5 -2 -9l-1 -10q0 -11 -4 -43l-2 -17q0 -13 -2 -25q-2 -10 -2 -18l-1 -9v-4 q-1 -8 -29 -27q-5 -3 -6 -18l-1 -9l4 -3l4 -2q5 0 27 -22l7 -7v-9q0 -12 -3 -28q0 -5 -1 -6q-1 -2 -5 -23t-4 -25q0 -11 3 -24t5 -13q1 -1 1 -2q0 -3 2 -5t2 -4q-2 -2 25 -25q8 -8 10 -8l6 -5q7 -7 9 -8q5 -3 6 -5l2 -1q0 1 3 -2q2 -2 8.5 -3.5t7.5 -0.5q1 6 1 12q0 9 2 25 q2 6 0.5 10t-2.5 5.5t-7 7.5l-6 6q-2 1 -3 3q-8 13 -9 98q-2 91 -3 104v45q3 60 15 68l10 8q7 5 8 5q2 1 4 3q3 3 4 3l4 19q1 5 2.5 14.5t1.5 11.5t0.5 6t1.5 5z" glyph-name="braceleft" horiz-adv-x="188" unicode="{"/><glyph d="M101 -66q0 -2 1 -3q-1 -1 -3 -1q-1 0 -4 -0.5t-5 -0.5t-2 1h-1q-1 -1 -3 -1h-4h-6t-8 1h-3h-3q-3 -1 -14 -1q-7 0 -8 -1q-4 0 -5 1h-7q-2 0 -4 3q0 4 1 4l-1 1q-1 0 -1 6v15v15v7v3q1 1 1 10t-1 14q0 2 1 4v2q2 0 0 2q-1 0 -1 26v19v50q0 14 -1 20v14q1 1 1 6v14v14v9v11 v16v49v15q0 33 -1 54v21v20v59q1 2 15 2h19h17q2 -1 12 -1h10q1 -1 1 -4v-19v-28q-1 -8 -1 -17q2 -2 0 -11q0 -20 1 -44v-18v-29q1 -5 1 -29v-23q1 -6 1 -17v-14v-12v-5q1 -1 1 -7q-1 -7 0 -20v-21q1 -8 1 -32q1 -9 1 -20v-9v-5v-5v-2q-1 0 -1 -2q1 -1 1.5 -6.5t-0.5 -8.5 q0 -3 1 -6v-8v-5q1 -1 0 -1t-1 -2l1 -7q-1 0 0 -1v-3q1 -2 1 -3q-2 -5 0 -5v-7v-8v-6v-11q2 -7 0 -11v-7zM97 -44h1q0 1 -1 2v-2z" glyph-name="bar" horiz-adv-x="122" unicode="|"/><glyph d="M38 341l-3 2v18q1 5 1.5 21t0.5 23q0 6 0.5 12t0.5 10v4q0 1 3 0q1 0 9 -4q25 -9 39 -22q6 -4 8 -9q0 -2 2 -4t9 -24.5t9 -36.5l3 -19q0 -8 2 -24q2 -13 7 -19q6 -6 12 -9q14 -6 20 -8q2 -1 2 -4q-1 -2 -1 -18v-15l-8 -6q-8 -7 -13 -16q-3 -9 -2 -18q0 -3 0.5 -6t0.5 -5 v-2q2 -2 2 -90q0 -30 -2 -40q-6 -24 -10 -29q-1 -2 -4 -5q-7 -11 -13 -17q-7 -7 -8 -7q-2 0 -4 -2q-3 -2 -21 -11l-8 -4q-1 0 -3 -1h-2h-2q-13 -10 -18 -5q-2 4 -2 45q0 26 2 27l6 4q1 3 4 3q2 0 11 12q4 7 4 19q0 4 -2 38v9q0 10 -0.5 25t-0.5 29q-2 149 -6 156 q-8 15 -25 23z" glyph-name="braceright" horiz-adv-x="168" unicode="}"/><glyph d="M133 331q1 -10 -5 -23q-12 -26 -33 -32q-4 -1 -10 -2t-9 -1h-4l-4 2q-3 0 -5 2l-4 1q-1 0 -1 1q-1 1 -2 1q-2 0 -3 1t-4 1l-7 4q0 1 -1 2q-1 0 -1 2q0 1 -2 3t-8 15l-3 5q-1 0 -1 2t-1 2q-1 1 -1 2l-3 6q-1 4 -1 10l1 13l1 1q0 2 1 4l1 3q0 1 2 3q2 3 1 3t3.5 4.5t10 9.5 t7.5 6l6 3l3 3q1 0 1 1q0 2 11 0q1 -1 11 -3q19 -2 31 -14l3 -2q3 0 10 -14l3 -6q1 0 3 -8q0 -1 1 -3t1 -3q1 0 1 -5zM139 -34q1 0 1 -1.5t-1 -1.5l-1 -1v-1q-2 0 -1 -1t2 -1q2 -2 2 -3t-2 -3q-4 -3 -1 -6v-3l-1 -1q0 -2 1 -2q1 -1 2 -1h1q0 -1 -2 -1q-3 0 -1 -6q2 -4 1 -5 q-2 0 0 -2q1 -2 0 -6t0 -5q3 -2 0 -5q-1 -1 0 -2q2 0 0 -2t0 -2t2 -2q0 -3 -2 -1q-1 0 0 -1q0 -1 -2 -1l-3 -1q-1 -1 -5 -1h-5q-2 -1 -5 -1q-2 1 -4 1q0 -1 -3 -1q-2 0 -1 1q0 1 -1 1q-2 -1 -7 -1t-5 1q-1 0 -2 -1q-4 -2 -4 0q0 1 -15 1h-25h-12q-3 -1 -3 3q-1 6 -2 53 l-1 42v5q1 0 1 3q-1 1 -1 7q0 1 -0.5 2.5t-1.5 2.5t1 2l1 2q-1 0 -1 2v1q1 0 1 14t-1 15v1q1 1 1 5.5t-1 4.5q-1 5 0 11q0 9 -2 11q-2 1 0 3t2 6.5t-1 6.5q-2 3 -1 4q2 0 2 9q-1 5 -1 10v1q1 0 1 7.5t-1 8.5t0 2q2 0 0 3q-2 2 0 6v5v15q-1 14 0 28v13v1q-1 1 -1 10v9h4 q1 0 7.5 0.5t11.5 0.5q7 1 21 1q4 1 25 1h20h10v-3q0 -3 0.5 -8.5t0.5 -13.5t0.5 -20.5t0.5 -26.5t2 -100v-16q1 0 1 -20q1 -35 2 -38t0 -3q-1 -1 0 -5v-5q-1 -1 0 -3v-2l1 -1q2 0 0 -2q-1 -2 1 -3z" glyph-name="exclamdown" horiz-adv-x="161" unicode=""/><glyph d="M575 526q13 -19 10 -34q-5 -16 -7 -16q-1 0 -2 -2l-3 -3l-2 -1q-1 -1 -2 -1l-1 -1l-2 -2q-2 0 -2 -2q-5 -5 -5 -3h-2h-1h-3q-2 -1 -13 0q-4 0 -4 -1q-2 0 -2 1h-2l-1 -1q-1 1 -6 1q-3 0 -7 3l-8 5v1q-2 0 -2 2l-2 2l-2 2l-1 2l-1 4q-2 4 -3 9.5t-1 7.5l-1 5v3q0 1 -1 2 q1 3 4 7l2 1q1 1 2 2.5t2 2.5q5 9 20 16l3 1l13 1h5h6q2 -1 5 -1q2 -1 4 -1q7 -3 13 -12zM476 505v-1q0 -1 1 -2v-2v-5h-1v-2q-1 0 -1 -2q-2 -2 -5 -8q-2 -2 -2 -3l-1 -1h-1v-2q-2 -1 -3 -3q-2 -2 -4 -3l-7 -3h-1q-1 -1 -2 -1h-2h-2h-1l-4 1q-3 0 -7 1.5t-5 2.5h-2 q-1 1 -2 1l-2 1q0 1 -1 1l-1 1l-2 4q0 2 -2 6q-3 13 -1 19v3l4 8l2 4l3 3l3 3l2 2q5 4 13 4q17 1 25 -7q9 -9 8 -11v-2l1 -3v-2v-2z" glyph-name="dieresis" horiz-adv-x="1000" unicode=""/><glyph d="M192 282l3 -34q0 -11 1 -16v-10l-5 -4l-5 -5l-19 -15q-4 -3 -9 -7.5t-8.5 -7t-4.5 -3.5q-3 -3 -7 -5q-4 -4 -7 -6l-6 -5l-6 -4q-6 -6 -8 -7q-4 -3 -17.5 -14t-13.5 -12q2 -2 5 -4l6 -4q1 -2 3 -3q4 -2 5 -4q4 -2 5 -3q1 0 3 -2q3 -2 4 -3q8 -4 9 -5l2 -2q0 -1 1 -1t3 -2 l18 -12q1 0 2 -1l3 -2q1 1 1 0v-2l2 -1q0 1 2 -1l3 -2q0 1 3 -2q4 -2 5 -2t3 -3l3 -3q6 -1 6 -13q0 -1 3 -23q2 -20 3 -22q0 -9 2 -22v-7l-5 4q-5 5 -13 11l-27 20q-23 18 -24 19q-6 4 -9 7q-39 30 -46 36l-10 8q-2 1 -12.5 9.5t-12.5 9.5q-3 3 -4 28q-1 18 -2 29v1v8v7l5 4 q6 4 6 5q2 2 4 2l5 5q3 3 4 3q2 0 5 3q4 2 10 8l8 6q0 1 1 1l4 2q4 4 10 7q2 1 4 3l3.5 3.5t2.5 1.5q2 2 4 2q1 1 1 2l2 1q2 0 2 1q1 2 4 3l6 5q1 0 3 1.5t2 2.5q4 2 7 5l5 4q1 0 5 4l6 4l1 1q0 1 1 1t3 2q0 2 2 2q1 0 3 2l3 2l4 4q1 1 10 7l7 5q0 2 2 2q3 0 3 2l1 1 q3 0 4 3q2 2 4 2l1 1q0 1 1 0q2 0 2 -8t1 -9zM381 234q1 -2 1.5 -8t0.5 -8v-10l-5 -4l-5 -5l-19 -15q-20 -16 -22 -18q-3 -3 -7 -5q-4 -4 -7 -6l-6 -5q0 2 -6 -4t-8 -7q-4 -3 -17.5 -14t-13.5 -12q2 -2 5 -4l6 -4q1 -2 3 -3q4 -2 5 -3q3 -3 5 -4q2 0 7 -5l9 -5l2 -2 q0 -1 1 -1t3 -2l18 -12h1l1 -1l3 -2l1 -2l2 -1h1l1 -1l3 -2q0 1 3 -2q4 -2 5 -2q2 0 3 -3l3 -3q6 -1 6 -13q0 -1 3 -23l2 -21q0 -3 2 -22l1 -8l-5 5l-13 10q-16 12 -27 20l-24 19q-6 4 -9 7q-39 30 -46 36l-10 8q-2 2 -12.5 10t-12.5 9q-3 3 -4 28q-1 18 -2 29v1v8v7l5 4 q3 2 6 5q2 2 4 2l5 5q3 3 4 3q3 1 5 3q1 0 2.5 1.5l3.5 3.5t4 3l8 6q0 1 1 1l4 2q5 5 10 7q2 1 4 3l3.5 3.5t2.5 1.5l3 2q2 0 2 2l2 1l2 1q1 2 3 3q1 1 3.5 2.5t3.5 2.5l5 4q5 2 7 6l5 3q1 0 5 4t6 4l1 1q0 1 1 1t3 2q0 2 2 2q1 0 3 2t3 2l4 4q1 1 10 7q7 5 7 6q1 1 2 1 q3 0 3 2q0 1 1 1t4 3q2 2 4 2q1 1 1 2h1q2 -2 2 -9v-9q3 0 3 -34z" glyph-name="guillemotleft" horiz-adv-x="403" unicode=""/><glyph d="M595 480v-59h-6q-12 0 -34 -0.5t-32 -1.5q-12 -1 -32 -1q-26 0 -54 -2q-6 -1 -20 -1q-9 0 -10 3q-1 6 -2 26t0 23q1 5 3 5.5t13 1.5h15q1 0 9.5 0.5t13.5 0.5t16 0.5t15 0.5q8 1 27 1h17q2 1 15 1q2 0 13.5 0.5t17.5 0.5q5 1 15 1z" glyph-name="macron" horiz-adv-x="1000" unicode=""/><glyph d="M530 558q0 1 2 1t12 -8q2 -1 9.5 -7t10.5 -9q2 -2 5 -4.5t5.5 -4t3.5 -2.5l4 -4l-3 -4q-2 -4 -5 -7l-2 -3q2 0 -1 -3q-9 -9 -14 -19q-1 -1 -3 -3.5t-3 -3.5t-3 -4t-3 -4q-6 -10 -10 -14l-1 -3l-3 -3q-4 -6 -8 -10l-14 -19q-3 -3 -5 -7l-5 -7q-5 -5 -5 -7l-4 -6 q-5 -5 -7 -9q-4 -6 -8 -10l-4 -6l-3 3q-1 0 -3 2t-5 4.5t-5 4.5q-37 31 -37 33q0 1 2 2q0 1 8 11l13 17l7 9l8 11q10 10 10 12q4 4 6 8q4 4 8 10q5 5 9 11q1 2 7.5 9t9.5 12l17 22q7 7 7 9z" glyph-name="acute" horiz-adv-x="1000" unicode=""/><glyph d="M20 255q0 12 6 23q12 26 33 32q7 2 15 3t8 0q0 -2 4 -2q3 0 5 -2l3 -1l2 -1q0 -1 2 -1q2 -1 3 -1q2 -2 4 -2q7 0 7 -4q0 -1 1 -1q1 -1 1 -2q0 -2 2 -4q2 -1 8 -15q0 -1 2 -3q1 -1 1 -2q1 -1 1 -2q0 -2 1 -2t1 -1l2 -7q2 -3 2 -10q-1 -13 -2 -13v-1q-1 -2 -1 -3 q-1 -2 -1 -4l-2 -3l-2 -2q5 0 -15 -16q-4 -3 -6 -4l-2 -2q-2 -1 -3 -2l-4 -2l-1 -1q0 -2 -11 0l-10 2q-21 5 -31 15l-3 2q-4 0 -10 14l-4 6l-1 3q-1 3 -1 5l-3 6q0 3 -1 5z" glyph-name="periodcentered" horiz-adv-x="154" unicode=""/><glyph d="M455 -45q1 5 2 6t19 1.5t19 -0.5l1 -3q0 -3 0.5 -11.5t1.5 -20.5q0 -3 0.5 -7t1 -6.5t0.5 -3.5v-7q1 -3 1 -11q1 -4 1 -8q0 -2 12 -6l8 -3q0 -1 2 -1t10 -11.5t8 -13.5v-1l1 -2q3 -3 0.5 -21t-7.5 -27q-8 -14 -16 -20q-7 -5 -30 -15l-19 -9l-4 -1q-1 1 -2 15v14l5 3l8 4 q6 3 12 16q3 8 -1 18q-2 5 -13 10q-9 2 -11 4q-1 2 -3 23q0 9 -1 13q0 10 -1 15q0 6 -2 26q0 7 -2 30q0 11 -1 11z" glyph-name="cedilla" horiz-adv-x="1000" unicode=""/><glyph d="M374 184l1 -7q0 -8 -1 -8q0 -7 -2 -30q-1 -26 -4 -28q-4 -4 -24 -19q-1 0 -11 -8q-3 -3 -21 -17t-24 -19q-1 -1 -10 -7q-1 -1 -9.5 -7.5t-14.5 -11.5q-7 -5 -16 -12l-10 -8q-5 -3 -13 -11l-6 -4l1 7q1 19 2 22q0 6 2 22q0 3 1 8.5t1.5 9t0.5 5.5q1 11 6 13q3 0 3 3 q2 3 3 3q3 0 5 2q3 3 3 2q2 0 3 2q2 2 2 1q1 0 2 1q1 0 1 2q1 0 3 2q3 3 3 1q14 9 17 12l3 2q1 0 1 1l2 2q6 3 9 5q7 5 8 5l4 3l3 3l2 1l4 3q2 2 5 4l6 4q0 1 -13.5 12t-18.5 14l-8 7q-5 3 -5 4q-3 2 -6 5l-8 6q-1 1 -7 5l-22 18l-19 15l-5 5l-5 4l1 10q0 3 0.5 9t0.5 7 l3 34v9l2 8q1 1 1 0q1 -1 2 -1l3 -2q3 -3 4 -3t1 -1q0 -2 3 -2q2 0 2 -2l7 -5q6 -3 10 -7l4 -4q1 0 3 -2t3 -2t3 -2l2 -2q2 0 2 -1t1 -1q3 -2 5 -4l5 -4q2 0 5 -4l7 -5q1 -1 3 -2.5t3 -1.5q1 -3 6 -5l4 -3q0 -1 1 -1l2 -1q0 -2 2 -2l4 -2l10 -8q2 -1 5.5 -4t4.5 -3 q2 -2 4 -2q1 0 1 -1q3 -3 7 -6q10 -8 11 -8q3 -3 5 -3l3 -3l5 -5q2 0 4 -2l6 -5zM185 182q0 -1 6 -5l5 -4v-7v-8v-1q0 -1 -0.5 -3.5t-0.5 -5.5t-0.5 -8.5t-0.5 -11.5q-1 -25 -4 -28l-25 -19q-2 -2 -10 -8q-7 -6 -46 -36q-3 -3 -9 -7l-24 -19q-11 -8 -27 -20q-8 -6 -13 -11 l-5 -4v7q2 13 2 22q1 2 3 22q3 22 3 23q0 12 6 13l3 3q2 3 3 3t5 2q3 3 3 2q1 0 3 2t2 1q1 0 2 1t0 2q0 1 1 0l3 2q2 2 2 1q15 9 18 12q2 2 3 2t1 1q-2 0 2 2q1 1 9 5q1 1 2.5 2t2.5 2l2 1q1 1 5 3q1 2 5 4l3 3l6 4l5 4q0 1 -13.5 12t-17.5 14q-2 1 -8 7l-6 4l-6 5 q-3 2 -7 6q-4 2 -7 5q-1 1 -4.5 3.5t-8.5 7t-9 7.5l-19 15q-3 2 -5 5l-5 4v10q1 5 1 16l3 34q1 1 1 9t2 8q1 1 1 0l1 -1q2 0 4 -2q1 -3 4 -3q1 0 1 -1q0 -2 3 -2q2 0 2 -2l7 -5q9 -6 10 -7l4 -4q2 -1 3 -2q2 -2 3 -2q2 -1 2 -2q2 -2 3 -2t1 -1l1 -1l6 -4q4 -4 5 -4 q3 -1 5 -4q3 -3 7 -5l5 -4q1 -1 3 -2.5t3 -2.5l4 -3q0 -1 2 -1q1 -1 2 -1l1 -2q2 0 4 -2q1 0 2.5 -1.5l3.5 -3.5t4 -3q6 -3 10 -7l4 -2q1 0 1 -1l8 -6q6 -6 10 -8q3 -3 5 -3q1 0 4 -3l5 -5q2 0 4 -2z" glyph-name="guillemotright" horiz-adv-x="395" unicode=""/><glyph d="M200 288q0 -4 1 -6v-5q0 -2 -2 -8q-1 -9 -7 -13l-3 -2q0 -1 -2.5 -3t-3.5 -2q-1 1 -4 -1q-1 -3 -5 -3h-4q0 -1 -2 -1t-3 -1q0 -1 -2 -1h-2q-2 -1 -10.5 0.5t-8.5 2.5l-1 1q-2 -2 -2 1l-2 2q-2 0 -1 1q-1 1 -2 1l-1 1q0 1 -1 1q-2 0 -3 2l-3 3q-1 1 -3 4q0 3 -2 4 q-2 0 -2 1q-1 1 -2 1q-2 2 -1 2v1q-1 1 -1 5v3v5v9q0 6 1 8t1 4q0 5 9 19q0 1 4 5q2 2 2 3l3 2q4 2 4 4q1 1 2 1q3 0 3 1q1 1 4.5 0.5t4.5 -1.5t2 0q2 0 4 -1t5 -1t3 -1q1 0 5 -2q8 -2 13 -8l3 -3q5 -5 8 -9q2 -4 1 -4v-1q1 0 1 -2q-1 -1 0 -7.5t2 -8.5v-3zM147 48h-1 q0 -2 -2 -1h-2q0 -1 -5 -1t-5 -1h-2q-2 0 -2 -1q-2 -1 -3 0q-3 0 -4 -1h-2h-3q-2 -1 -4 -1t-5 -3q-10 -6 -5 -25q1 -6 4 -8t16 -9q10 -6 38 -16l21 -6q7 -3 5 -5v-2q-1 -3 -1 -5v-13v-7v-5q-1 -2 -1 -7v-7q0 -4 -2 -4h-5h-6q-4 2 -4 0q-1 -1 -2 0h-8h-13q-4 1 -9 1 q0 -1 -5 -1q-3 1 -6 1q-1 -1 -8.5 -1t-9.5 1l-17 2l-6 2q-4 0 -6 2q0 2 -4 2l-5 1q0 1 -2 1q-1 0 -1 1t-3 1t-3 2t-4 2t-4 2t-1 2q-2 0 -2 2q-3 3 -5 4l-2 2l-5 5q-4 4 -5 4t-2 2t0 3v2q-1 -1 -3 3q-2 5 -3 5v3q0 4 -1 4q-2 1 -1 4v4q-2 0 0 2q0 1 -1 1v2v1v4v3v9v7 q-1 6 3 18q0 3 2 7q0 1 1 4v2q2 2 6 15q0 2 1 2l1 1q0 4 5 7l1 2l3 3q1 2 4 5l2 2q-2 0 2 2l3 3q0 2 4 4l6 6q1 1 15 11q15 12 16.5 14t2.5 10q0 2 0.5 7t0.5 6l1 5q-2 0 0 5q4 32 4 44q1 4 1 9q2 2 51 -5l24 -3l1 -3q0 -1 0.5 -3.5t0.5 -4.5q0 -3 2 -17l2 -13v-11 q1 -5 1 -12v-19v-7v-9v-33v-10q2 -7 -4 -7q-8 -2 -15 -2q-8 -2 -11 -2h-3l-3 -1q-1 -1 -4 -1z" glyph-name="questiondown" horiz-adv-x="221" unicode=""/><glyph d="M51 577q-12 8 -7 13q2 4 7 7q3 5 14 12l4.5 4.5l4.5 4.5l2 1q11 11 23 15q6 0 17 -9l3 -2q1 0 2 -1q0 -2 6 -6l7 -5l1 -1q1 1 6 -4t6 -5q7 -3 8 -6q0 -1 4 -3q5 -3 9.5 -7t3.5 -5h1q1 0 28 -22l5 -5q1 0 2 -1q2 -2 3 -2q1 -3 4 -3t8 -9q2 -2 -14 -17l-4 -4t-3.5 -3 t-3.5 -2l-1 -2q-2 -3 -10 -10l-15 -14l-8 -7q-3 3 -7 6q-22 22 -57 49l-24 21l-16 14q-5 5 -9 8zM21 8q-1 2 -1 4l1 1q1 0 0 1v3l2 12l1 11q0 3 1 6q0 2 1 4v3q1 1 0 1t-1 1.5t0.5 4t1.5 3.5q0 2 -1 2q0 2 1 5q0 1 0.5 3.5t1 6t0.5 6.5l1 11l2 6q0 2 0.5 5t0.5 4q2 6 2 9 q-1 4 1 6q3 1 1 3q-1 0 -1 1t0.5 3.5t1.5 6.5q4 22 4 28v2q1 2 2 5t1 6q2 12 3 15l1 9q1 5 2 10.5t2 8.5q0 2 0.5 5.5t1.5 8t1 7.5t1.5 10.5t1.5 9.5q2 6 2 9q3 12 3 20q0 5 2 5q1 4 1 9q0 1 5 33q2 8 2 12q2 10 3 11v4q0 4 1 4q1 1 1 4q0 4 2.5 13.5t4.5 10.5h18 q44 -2 51 -1h17q14 0 15 1q1 0 2 -1q2 -2 2 0q6 1 16 1h23h8l1 -4q1 -1 3 -13q0 -5 12 -63q12 -53 16 -64q1 -3 1 -6q-1 -1 0 -1q1 1 3 -14q4 -18 4 -19l1 -4v-2q2 -2 1 -3q0 -2 2 -8q0 -3 1.5 -8.5t3 -14t2.5 -14.5q0 -2 1 -6t1.5 -7t0.5 -4q1 -5 7 -33q1 -9 2 -11l1 -2 q0 -2 0.5 -4.5t0.5 -4.5t1 -5q1 -8 2 -10q0 -1 1 -4.5t1.5 -9t1.5 -9.5q1 -6 5 -28q3 -11 3 -15v-4h-9q-9 2 -16 0h-39q-28 0 -31.5 1t-5.5 12q0 9 -2 11q-5 12 -5 26q0 4 -1 5v3q0 2 -1 3l-2 4q2 0 0 4l-1 7q0 2 -2 10q-3 12 -4 19q-1 3 -1.5 6.5t-1.5 6.5l-1 2l-1 2v5 l-1 7q-1 1 -1.5 3t-0.5 3v4q-2 8 -9 8q-21 -3 -22 -4q-2 -2 -11 -133q-2 -14 -3 -14q0 -1 -7 -1h-16h-52h-14q0 -1 -16 -1h-17q-3 0 -3 3z" glyph-name="Agrave" unicode=""/><glyph d="M221 674q0 1 2 1t12 -8q2 -1 9.5 -7t10.5 -9q2 -2 5 -4.5t5.5 -4t3.5 -2.5l4 -4l-3 -4q-2 -4 -5 -7l-2 -3q2 0 -1 -3q-9 -9 -14 -19q-1 -1 -3 -3.5t-3 -3.5t-3 -4t-3 -4q-6 -10 -10 -14l-2 -3q-1 -2 -2 -3q-4 -6 -8 -10l-14 -19q-3 -3 -5 -7l-5 -7q-5 -5 -5 -7l-4 -6 q-5 -5 -7 -9q-4 -6 -8 -10l-4 -6l-3 3q-1 0 -3 2t-5 4.5t-5 4.5q-37 31 -37 33q0 1 2 2q0 1 8 11l13 17l7 9l8 11q10 10 10 12q4 4 6 8q4 4 8 10q5 5 9 11q1 1 7.5 8.5t9.5 12.5l17 22q7 7 7 9zM21 8q-1 2 -1 4l1 1q1 0 0 1v3l2 12l1 11q0 3 1 6q0 2 1 4v3q1 1 0 1t-1 1.5 t0.5 4t1.5 3.5q0 2 -1 2q0 2 1 5q0 1 0.5 3.5t1 6t0.5 6.5l1 11l2 6q0 2 0.5 5t0.5 4q2 6 2 9q-1 4 1 6q3 1 1 3q-1 0 -1 1t0.5 3.5t1.5 6.5q4 22 4 28v2q1 2 2 5t1 6q2 12 3 15l1 9q1 5 2 10.5t2 8.5q0 2 0.5 5.5t1.5 8t1 7.5t1.5 10.5t1.5 9.5q2 6 2 9q3 12 3 20q0 5 2 5 q1 4 1 9q0 1 5 33q2 8 2 12q2 10 3 11v4q0 4 1 4q1 1 1 4q0 4 2.5 13.5t4.5 10.5h18q44 -2 51 -1h17q14 0 15 1q1 0 2 -1q2 -2 2 0q6 1 16 1h23h8l1 -4q1 -1 3 -13q0 -5 12 -63q12 -53 16 -64q1 -3 1 -6q-1 -1 0 -1q1 1 3 -14q4 -18 4 -19l1 -4v-2q2 -2 1 -3q0 -2 2 -8 q0 -3 1.5 -8.5t3 -14t2.5 -14.5q0 -2 1 -6t1.5 -7t0.5 -4q1 -5 7 -33q1 -9 2 -11l1 -2q0 -2 0.5 -4.5t0.5 -4.5t1 -5q1 -8 2 -10q0 -1 1 -4.5t1.5 -9t1.5 -9.5q1 -6 5 -28q3 -11 3 -15v-4h-9q-9 2 -16 0h-39q-28 0 -31.5 1t-5.5 12q0 9 -2 11q-5 12 -5 26q0 4 -1 5v3 q0 2 -1 3l-2 4q2 0 0 4l-1 7q0 2 -2 10q-3 12 -4 19q-1 3 -1.5 6.5t-1.5 6.5l-1 2l-1 2v5l-1 7q-1 1 -1.5 3t-0.5 3v4q-2 8 -9 8q-21 -3 -22 -4q-2 -2 -11 -133q-2 -14 -3 -14q0 -1 -7 -1h-16h-52h-14q0 -1 -16 -1h-17q-3 0 -3 3z" glyph-name="Aacute" unicode=""/><glyph d="M56 506q-4 1 -3 5q1 1 1 3l1 2q2 0 2 2t1.5 3.5t2.5 0.5t1 0q-1 1 1.5 5t4.5 5l3 5l2 1q1 0 1 1l1 1l1 2q0 1 1 1t1 1l1 2q0 2 2 2l1 1q1 3 3 4l3 4q-1 0 1 2t2 3q0 2 2 2q5 5 11 13l3 5q0 3 2 4l5 5q2 3 4 3h3q0 1 2 1q2 -2 4 0q3 1 3 0q0 2 7 2h8l2 1h5.5h8.5q2 1 6 1 q1 1 5 1q3 -2 5 0q1 1 4.5 1t3.5 -1l23 -33l6 -8l5 -6q1 0 1 -1q0 -2 1 -3l13 -19q1 -1 9 -13q1 -1 2 -4l6 -9l-40 -2q-1 0 -7.5 -0.5t-9.5 -0.5t-8 -0.5t-6 -0.5q-8 0 -8 3q0 2 -2 2l-2 1q1 1 -0.5 2.5t-3.5 1.5q-2 1 -2 2q-1 2 -5.5 5t-5.5 2v1l-5 5q-1 0 -2 -1 q-2 -5 -13 -10l-5 -5l-4 -3q-2 -1 -4 -3q-1 -1 -4.5 -3.5t-4.5 -3.5q-5 -4 -5.5 -4t-1.5 1q0 1 -1 1h-2h-2q-2 1 -5 2t-6 1l-11 4h-4h-3q0 1 -1 1h-1q-2 2 -10 4zM315 25q3 -11 3 -15v-4h-9q-9 2 -16 0h-39q-28 0 -31.5 1t-5.5 12q0 9 -2 11q-5 12 -5 26q0 4 -1 5v3 q0 2 -1 3l-2 4q2 0 0 4l-1 7q0 2 -2 10q-3 12 -4 19q-1 3 -1.5 6.5t-1.5 6.5l-1 2l-1 2v5l-1 7q-1 1 -1.5 3t-0.5 3v4q-2 8 -9 8q-21 -3 -22 -4q-2 -2 -11 -133q-2 -14 -3 -14q0 -1 -7 -1h-16h-52h-14q0 -1 -16 -1h-17q-3 0 -3 3q-1 2 -1 4l1 1q1 0 0 1v3l2 12l1 11q0 3 1 6 q0 2 1 4v3q1 1 0 1t-1 1.5t0.5 4t1.5 3.5q0 2 -1 2q0 2 1 5q0 1 0.5 3.5t1 6t0.5 6.5l1 11l2 6q0 2 0.5 5t0.5 4q2 6 2 9q-1 4 1 6q3 1 1 3q-1 0 -1 1t0.5 3.5t1.5 6.5q4 22 4 28v2q1 2 2 5t1 6q2 12 3 15l1 9q1 5 2 10.5t2 8.5q0 2 0.5 5.5t1.5 8t1 7.5t1.5 10.5t1.5 9.5 q2 6 2 9q3 12 3 20q0 5 2 5q1 4 1 9q0 1 5 33q2 8 2 12q2 10 3 11v4q0 4 1 4q1 1 1 4q0 4 2.5 13.5t4.5 10.5h18q44 -2 51 -1h17q14 0 15 1q1 0 2 -1q2 -2 2 0q6 1 16 1h23h8l1 -4q1 -1 3 -13q0 -5 12 -63q12 -53 16 -64q1 -3 1 -6q-1 -1 0 -1q1 1 3 -14q4 -18 4 -19l1 -4 v-2q2 -2 1 -3q0 -2 2 -8q0 -3 1.5 -8.5t3 -14t2.5 -14.5q0 -2 1 -6t1.5 -7t0.5 -4q1 -5 7 -33q1 -9 2 -11l1 -2q0 -2 0.5 -4.5t0.5 -4.5t1 -5q1 -8 2 -10q0 -1 1 -4.5t1.5 -9t1.5 -9.5q1 -6 5 -28z" glyph-name="Acircumflex" unicode=""/><glyph d="M30 518q-1 1 -1 2q-1 1 3 7.5t5 6.5v1q0 2 3 5q1 3 7 11l8 12q4 6 4 7q1 1 3 1q4 0 6 -1q3 -5 25 -12q7 -2 15 -1q9 0 9 2l5 4h2q0 2 5 4t6 5q2 2 4 2l2 1q0 1 1 2q1 0 2 1t4.5 4t7.5 5l3 2l1 1q0 2 2 2l7 2q15 5 26 8q14 2 15 3q12 3 30 -2q7 -2 12 -9l4 -5q3 -1 6 -6 l3 -4q8 -8 8 -12l3 -3l2 -2v-2q2 -1 11 -22q1 -2 4 -13l6 -27q2 -2 0 -2h-10l-24 -3l-34 -2q-3 5 -6 11q-9 14 -17 22q-11 4 -14 4q-9 0 -13 2q-11 1 -46 -23q-32 -22 -56 -22q-7 0 -20 8q-21 15 -25 20zM21 8q-1 2 -1 4l1 1q1 0 0 1v3l2 12l1 11q0 3 1 6q0 2 1 4v3q1 1 0 1 t-1 1.5t0.5 4t1.5 3.5q0 2 -1 2q0 2 1 5q0 1 0.5 3.5t1 6t0.5 6.5l1 11l2 6q0 2 0.5 5t0.5 4q2 6 2 9q-1 4 1 6q3 1 1 3q-1 0 -1 1t0.5 3.5t1.5 6.5q4 22 4 28v2q1 2 2 5t1 6q2 12 3 15l1 9q1 5 2 10.5t2 8.5q0 2 0.5 5.5t1.5 8t1 7.5t1.5 10.5t1.5 9.5q2 6 2 9q3 12 3 20 q0 5 2 5q1 4 1 9q0 1 5 33q2 8 2 12q2 10 3 11v4q0 4 1 4q1 1 1 4q0 4 2.5 13.5t4.5 10.5h18q44 -2 51 -1h17q14 0 15 1q1 0 2 -1q2 -2 2 0q6 1 16 1h23h8l1 -4q1 -1 3 -13q0 -5 12 -63q12 -53 16 -64q1 -3 1 -6q-1 -1 0 -1q1 1 3 -14q4 -18 4 -19l1 -4v-2q2 -2 1 -3 q0 -2 2 -8q0 -3 1.5 -8.5t3 -14t2.5 -14.5q0 -2 1 -6t1.5 -7t0.5 -4q1 -5 7 -33q1 -9 2 -11l1 -2q0 -2 0.5 -4.5t0.5 -4.5t1 -5q1 -8 2 -10q0 -1 1 -4.5t1.5 -9t1.5 -9.5q1 -6 5 -28q3 -11 3 -15v-4h-9q-9 2 -16 0h-39q-28 0 -31.5 1t-5.5 12q0 9 -2 11q-5 12 -5 26 q0 4 -1 5v3q0 2 -1 3l-2 4q2 0 0 4l-1 7q0 2 -2 10q-3 12 -4 19q-1 3 -1.5 6.5t-1.5 6.5l-1 2l-1 2v5l-1 7q-1 1 -1.5 3t-0.5 3v4q-2 8 -9 8q-21 -3 -22 -4q-2 -2 -11 -133q-2 -14 -3 -14q0 -1 -7 -1h-16h-52h-14q0 -1 -16 -1h-17q-3 0 -3 3z" glyph-name="Atilde" unicode=""/><glyph d="M139 536v3q0 1 -1 2q1 3 4 7l6 6q5 9 20 16l3 1l13 1h5h6q2 -1 5 -1q2 -1 4 -1q7 -3 13 -12q13 -19 10 -34q-5 -16 -7 -16q-1 0 -2 -2l-3 -3l-2 -1q-1 -1 -2 -1l-1 -1l-2 -2q-2 0 -2 -2q-5 -5 -5 -3h-2h-1h-3q-2 -1 -13 0q-4 0 -4 -1q-2 0 -2 1h-2l-1 -1q-1 1 -6 1 q-3 0 -7 3l-8 5v1q-2 0 -2 2l-2 2l-2 2l-1 2l-1 4q-2 4 -3 9.5t-1 7.5zM60 512q0 2 -2 6q-3 13 -1 19v3l4 8l2 4l3 3l3 3l2 2q5 4 13 4q17 1 25 -7q9 -9 8 -11v-2l1 -3v-2v-2v-1q0 -1 1 -2v-2v-5h-1v-2q-1 0 -1 -2q-2 -2 -5 -8q-2 -2 -2 -3l-1 -1h-1v-2q-2 -1 -3 -3 q-2 -2 -4 -3l-7 -3h-1q-1 -1 -2 -1h-2h-2h-1l-4 1q-3 0 -7 1.5t-5 2.5h-2q-1 1 -2 1l-2 1q0 1 -1 1l-1 1zM315 25q3 -11 3 -15v-4h-9q-9 2 -16 0h-39q-28 0 -31.5 1t-5.5 12q0 9 -2 11q-5 12 -5 26q0 4 -1 5v3q0 2 -1 3l-2 4q2 0 0 4l-1 7q0 2 -2 10q-3 12 -4 19 q-1 3 -1.5 6.5t-1.5 6.5l-1 2l-1 2v5l-1 7q-1 1 -1.5 3t-0.5 3v4q-2 8 -9 8q-21 -3 -22 -4q-2 -2 -11 -133q-2 -14 -3 -14q0 -1 -7 -1h-16h-52h-14q0 -1 -16 -1h-17q-3 0 -3 3q-1 2 -1 4l1 1q1 0 0 1v3l2 12l1 11q0 3 1 6q0 2 1 4v3q1 1 0 1t-1 1.5t0.5 4t1.5 3.5q0 2 -1 2 q0 2 1 5q0 1 0.5 3.5t1 6t0.5 6.5l1 11l2 6q0 2 0.5 5t0.5 4q2 6 2 9q-1 4 1 6q3 1 1 3q-1 0 -1 1t0.5 3.5t1.5 6.5q4 22 4 28v2q1 2 2 5t1 6q2 12 3 15l1 9q1 5 2 10.5t2 8.5q0 2 0.5 5.5t1.5 8t1 7.5t1.5 10.5t1.5 9.5q2 6 2 9q3 12 3 20q0 5 2 5q1 4 1 9q0 1 5 33 q2 8 2 12q2 10 3 11v4q0 4 1 4q1 1 1 4q0 4 2.5 13.5t4.5 10.5h18q44 -2 51 -1h17q14 0 15 1q1 0 2 -1q2 -2 2 0q6 1 16 1h23h8l1 -4q1 -1 3 -13q0 -5 12 -63q12 -53 16 -64q1 -3 1 -6q-1 -1 0 -1q1 1 3 -14q4 -18 4 -19l1 -4v-2q2 -2 1 -3q0 -2 2 -8q0 -3 1.5 -8.5t3 -14 t2.5 -14.5q0 -2 1 -6t1.5 -7t0.5 -4q1 -5 7 -33q1 -9 2 -11l1 -2q0 -2 0.5 -4.5t0.5 -4.5t1 -5q1 -8 2 -10q0 -1 1 -4.5t1.5 -9t1.5 -9.5q1 -6 5 -28z" glyph-name="Adieresis" unicode=""/><glyph d="M86 535q0 6 -1 9q-2 2 -2 8q1 1 3 12q0 12 9 20l4 3q0 2 3.5 5t5.5 3t5 3q2 4 8 4l6 2q1 1 3 1t4 2q1 1 3 1h3q2 1 8.5 1t13.5 -0.5t7 -1.5q0 -3 2 -1q1 0 3 -2l3 -3l3 -1q-2 -2 1 -2l2 -1q0 -3 2 -1q3 0 4 -3q1 0 3 -2t3 -2q4 -4 4 -6q1 -5 4 -5q4 0 4 -2l3 -2 q2 -2 1 -2q0 -2 1 -2t1 -7l1 -6v-7q0 -1 0.5 -6t0.5 -7q2 -8 -1 -12q-1 -2 -1 -6q3 -5 -10 -30q-1 -1 -3 -4t-3 -4q-3 -3 -3 -5q-1 -2 -5 -4l-5 -5q0 -3 -3 -3q-4 0 -4 -1q-2 -1 -7.5 -1t-7.5 2q-1 0 -2 -1q-3 -2 -7 1q-2 1 -7 1t-5 1q-4 1 -8 1q-12 4 -19 12l-6 4 q-8 8 -12 13q-4 6 -3 7v1q-1 -1 -1 2q1 2 -1 12t-4 12q-1 0 -1 5zM122 542v-3l1 -3q0 -2 1 -2q1 -1 1.5 -5t-0.5 -5q0 -1 1 -1q0 -2 2 -3q2 -6 5 -6l1 -1q4 -4 9 -4l2 -1q1 0 1 -1h1q3 0 4 -1h2h2h6l1 1q2 0 2 1t2 2l2 2q0 1 1 2l3 3q0 1 1 3.5t1 5.5l1 3q1 2 1 3q2 2 0 4v6 v3v3l-1 2v1q0 1 -1 1l-1 1h-1q-2 0 -3 3q0 2 -1 2l-2 2l-2 1l-1 1h-2v1q-1 1 -2 1l-1 1q0 1 -5.5 1.5t-6.5 -0.5h-2l-1 -1q-1 -1 -2 -1h-1h-2q-2 0 -4 -2q-1 -1 -2 -1q-4 0 -4 -3q0 -2 -1 -2q-4 -4 -4 -8q-1 -2 -1 -6zM315 25q3 -11 3 -15v-4h-9q-9 2 -16 0h-39 q-28 0 -31.5 1t-5.5 12q0 9 -2 11q-5 12 -5 26q0 4 -1 5v3q0 2 -1 3l-2 4q2 0 0 4l-1 7q0 2 -2 10q-3 12 -4 19q-1 3 -1.5 6.5t-1.5 6.5l-1 2l-1 2v5l-1 7q-1 1 -1.5 3t-0.5 3v4q-2 8 -9 8q-21 -3 -22 -4q-2 -2 -11 -133q-2 -14 -3 -14q0 -1 -7 -1h-16h-52h-14q0 -1 -16 -1 h-17q-3 0 -3 3q-1 2 -1 4l1 1q1 0 0 1v3l2 12l1 11q0 3 1 6q0 2 1 4v3q1 1 0 1t-1 1.5t0.5 4t1.5 3.5q0 2 -1 2q0 2 1 5q0 1 0.5 3.5t1 6t0.5 6.5l1 11l2 6q0 2 0.5 5t0.5 4q2 6 2 9q-1 4 1 6q3 1 1 3q-1 0 -1 1t0.5 3.5t1.5 6.5q4 22 4 28v2q1 2 2 5t1 6q2 12 3 15l1 9 q1 5 2 10.5t2 8.5q0 2 0.5 5.5t1.5 8t1 7.5t1.5 10.5t1.5 9.5q2 6 2 9q3 12 3 20q0 5 2 5q1 4 1 9q0 1 5 33q2 8 2 12q2 10 3 11v4q0 4 1 4q1 1 1 4q0 4 2.5 13.5t4.5 10.5h18q44 -2 51 -1h17q14 0 15 1q1 0 2 -1q2 -2 2 0q6 1 16 1h23h8l1 -4q1 -1 3 -13q0 -5 12 -63 q12 -53 16 -64q1 -3 1 -6q-1 -1 0 -1q1 1 3 -14q4 -18 4 -19l1 -4v-2q2 -2 1 -3q0 -2 2 -8q0 -3 1.5 -8.5t3 -14t2.5 -14.5q0 -2 1 -6t1.5 -7t0.5 -4q1 -5 7 -33q1 -9 2 -11l1 -2q0 -2 0.5 -4.5t0.5 -4.5t1 -5q1 -8 2 -10q0 -1 1 -4.5t1.5 -9t1.5 -9.5q1 -6 5 -28z" glyph-name="Aring" unicode=""/><glyph d="M409 343l-56 -7l-6 -1l1 -5q0 -1 0.5 -7.5t0.5 -10.5q2 -14 2 -18q0 -1 0.5 -5.5t0.5 -7.5q0 -8 2 -10v-2l-1 -1l1 -2v-5.5v-6.5q1 -7 1 -16q1 -3 7 -3q7 -2 24 0q9 1 43 1l26 1q2 2 2 0q1 -1 4 -1h3q4 1 10.5 1.5t10.5 0.5q48 2 54 3q2 0 2 -1h2q2 1 19.5 1.5t19.5 -0.5 q0 -1 8 -2h3v-40h-40h-13t-11.5 -0.5t-8.5 -0.5h-6h-3q-33 -1 -73 -1q-79 -1 -80 -2q-1 0 -1 -10q-1 -3 -1 -9.5t-1 -8.5l-1 -10q0 -8 -2 -50l-1 -17h6q75 0 84 -3h5l2 1h6.5h7.5q40 1 45 2q6 1 12 1q9 0 17 1q9 1 23 1q8 1 15.5 1.5t11 1t5.5 0.5q11 2 13 -1q2 -2 3 -23 q5 -71 5 -77t0.5 -18t0.5 -16q1 -20 -3 -20h-9q-2 0 -6 -0.5t-10 -1t-10 -0.5q-29 0 -79 -3q-12 0 -26.5 -1t-20.5 -1q-34 -2 -40 -3q-57 -4 -143 0q-3 1 -11 1q-11 0 -11 5q0 3 1 3q2 0 0 2q-2 10 -3 64q-18 0 -20.5 1.5t-4.5 11.5q0 9 -2 11q-5 12 -5 26q0 4 -1 5v3 q0 2 -1 3l-2 4q2 0 0 4l-1 7q0 2 -2 10q-3 12 -4 19q-1 3 -1.5 6.5t-1.5 6.5l-1 2l-1 2v5l-1 7q-1 1 -1.5 3t-0.5 3v4q-2 8 -9 8q-21 -3 -22 -4q-2 -2 -11 -133q-2 -14 -3 -14q0 -1 -7 -1h-16h-52h-14q0 -1 -16 -1h-17q-3 0 -3 3q-1 2 -1 4l1 1q1 0 0 1v3l2 12l1 11q0 3 1 6 q0 2 1 4v3q1 1 0 1t-1 1.5t0.5 4t1.5 3.5q0 2 -1 2q0 2 1 5q0 1 0.5 3.5t1 6t0.5 6.5l1 11l2 6q0 2 0.5 5t0.5 4q2 6 2 9q-1 4 1 6q3 1 1 3q-1 0 -1 1t0.5 3.5t1.5 6.5q4 22 4 28v2q1 2 2 5t1 6q2 12 3 15l1 9q1 5 2 10.5t2 8.5q0 2 0.5 5.5t1.5 8t1 7.5t1.5 10.5t1.5 9.5 q2 6 2 9q3 12 3 20q0 5 2 5q1 4 1 9q0 1 5 33q2 8 2 12q2 10 3 11v4q0 4 1 4q1 1 1 4q0 4 2.5 13.5t4.5 10.5h18q44 -2 51 -1h17q14 0 15 1q1 0 2 -1q2 -2 2 0q6 1 16 1h23h6l-1 34q0 37 1 37q2 2 76 3h43q18 1 40 1q47 0 55 1h17h35q19 -1 75 -1l42 -2q2 -1 2 -18 q0 -10 2 -12q2 0 0 -2q-1 -2 0 -31q1 -16 1 -54v-7l-59 1q-66 0 -99 -3q-32 -4 -57 -5z" glyph-name="AE" horiz-adv-x="654" unicode=""/><glyph d="M444 462l26 -1v-18q0 -4 -0.5 -10t-1 -10t-0.5 -6q0 -12 -1 -18l-1 -18q0 -4 -2 -34l-1 -13q-1 -2 0 -3q0 -6 -1 -11t-1 -12q0 -3 -10 -4q-2 0 -12 -0.5t-16 -0.5l-50 -3q-4 0 -40 -2l-38 -2q-3 -1 -31 -3q-40 -2 -56 -13q-15 -10 -18 -13.5t-11 -20.5q-5 -9 -9 -21 l-2.5 -5l-2.5 -5l-2 -4l-1 -2q-1 -2 -1 -5v-1q-2 0 -2 -2.5t1 -3.5q0 -1 3 -1q2 1 2 -1q0 -3 -1 -4q-3 -3 -1 -10q0 -2 2 -2q4 0 1 -4q-2 -1 0 -8q3 -6 6 -7q5 0 1 -4q-2 -2 1 -2q2 0 2 -2q0 -3 4 -3q3 0 3 -2q-1 -3 3 -3t4 -1q0 -3 2 -1q3 0 3 -2l3 -3q2 0 3 -1q2 -1 4 -1 q3 0 3 -2t2 -2q4 0 7 -1q9 0 9 -3q0 -2 2 -2q1 0 5 -2q6 -3 8 -3l8 -3q4 -2 5 -2h1q0 -1 7 -1q2 0 6.5 -0.5t6.5 -0.5q1 0 6 -0.5t7 -0.5q36 -2 48 -2q3 0 8 -0.5t6 -0.5h8l4 1q2 -2 5 -2q6 0 9 -1q6 -2 8 -1l8 -2q3 -1 13 -1q7 0 8 -1h2q2 -1 3 -1l3 -1q2 -1 5 -1 q16 0 16 -2l1 -1q2 1 4 0t1 -3v-3q0 -4 -0.5 -9.5t-0.5 -10.5q0 -20 -2 -34l-1 -14v-17q0 -4 -0.5 -14.5t-1.5 -14.5q0 -26 -2 -26q-9 -1 -21 -1q-11 -1 -31 -1q-2 0 -8 -0.5t-15.5 -1t-15.5 -0.5h-7q0 -10 1 -11v-7q1 -3 1 -11q1 -4 1 -8q0 -2 12 -6l8 -3q0 -1 2 -1 t10 -11.5t8 -13.5l1 -1v-2q3 -3 0.5 -21t-7.5 -27q-8 -14 -16 -20q-7 -5 -30 -15l-19 -9l-4 -1q-1 1 -2 15v14l5 3l8 4q6 3 12 16q3 8 -1 18q-2 5 -13 10q-9 2 -11 4q-1 2 -3 23q0 9 -1 13q0 10 -1 15q0 6 -2 26v6h-20l-25 -1l-23 6q-26 6 -28 6q-39 9 -41 11l-6 3l-6 3 l-2 1q-1 1 -3 2t-3 2q-39 24 -75 61q-32 33 -33 46l-2 54v13l-1 7l-1 4v10v11l-2 24q-1 1 0.5 19.5t2.5 26.5l1 6v9q0 10 1 10v4q3 27 3 28v7q0 2 2 4q2 4 1 8l1 1q1 -1 5 5q1 1 1 2l1 1q1 0 1 2v2q2 0 2 2q0 3 2 3q3 3 3 6q0 4 2 4l1 2l3 3q3 5 4 5q1 1 1 2q0 2 1 2 q1 1 1 3l1 1l2 4t2 3q4 6 3 7q-4 4 2 4q2 0 5 3q2 2 4 2l5 3l4 3q0 -1 3.5 1t9.5 5q14 7 16 7t2 1l3 2q2 2 2 3t2 1t2 2t4 2q8 -2 8 2q0 1 -1 1q-2 0 -2 2q0 3 -1 5t1 2t6 -3q3 -2 8 -2q1 0 2 1q2 0 2 1t2 1t7.5 2.5t5.5 3.5t2 1h2q2 1 3 1q10 5 18 5h3l2 1q0 2 5 2 q15 0 17 2q0 1 7 1q13 0 19 2q5 2 5 1t3 -1q1 1 17 1h15l2 -3q3 -3 4 -2q2 2 2 3q0 2 1 2q11 3 137 1z" glyph-name="Ccedilla" horiz-adv-x="500" unicode=""/><glyph d="M122 649q-12 8 -7 13q2 4 7 7q3 5 14 12l4.5 4.5l4.5 4.5l2 1q11 11 23 15q6 0 17 -9l3 -2q1 0 2 -1q0 -2 6 -6l7 -5l1 -1q1 1 6 -4t6 -5q7 -3 8 -6q0 -1 4 -3q5 -3 9.5 -7t3.5 -5h1l28 -22l5 -5q1 0 2 -1q2 -2 3 -2q2 -3 4 -3q4 0 8 -9q2 -2 -14 -17l-4 -4t-3.5 -3 t-2.5 -2l-2 -2q-2 -3 -10 -10l-15 -14l-8 -7q-3 3 -7 6q-22 22 -57 49l-24 21l-16 14q-5 5 -9 8zM30 435q0 37 1 37q2 2 76 3h43q18 1 40 1q47 0 55 1h17h35q19 -1 75 -1l42 -2q2 -1 2 -18q0 -10 2 -12q2 0 0 -2q-1 -2 0 -31q1 -16 1 -54v-7l-59 1q-66 0 -99 -3 q-32 -4 -57 -5l-56 -7l-6 -1l1 -5q0 -1 0.5 -7.5t0.5 -10.5q2 -14 2 -18q0 -1 0.5 -5.5t0.5 -7.5q0 -8 2 -10v-2l-1 -1v-2q0 -2 0.5 -5.5t0.5 -6.5q1 -7 1 -16q2 -3 7 -3q7 -2 24 0q9 1 43 1l26 1q2 2 2 0q1 -1 4 -1l24 2q48 2 54 3q2 0 2 -1h2q2 1 19.5 1.5t19.5 -0.5 q1 -1 8 -2h3v-40h-40h-13t-11.5 -0.5t-8.5 -0.5h-7h-2q-33 -1 -73 -1q-79 -1 -80 -2q-1 0 -1 -10q0 -3 -1 -9t-1 -9l-1 -10q0 -8 -2 -50l-1 -17h6q75 0 84 -3h5l3 1h5.5h7.5q40 1 45 2q6 1 12 1q9 0 17 1q9 1 23 1q8 1 15.5 1.5t11 1t5.5 0.5q10 2 13 -1q2 -2 3 -23 q5 -71 5 -77t0.5 -18t0.5 -16q1 -20 -3 -20h-9q-2 0 -6 -0.5t-10 -1t-10 -0.5q-30 0 -79 -3q-12 0 -26.5 -1t-20.5 -1q-34 -2 -40 -3q-57 -4 -143 0q-3 1 -11 1q-11 0 -11 5q0 3 1 3q2 0 0 2q-2 10 -3 72q0 10 -0.5 30t-0.5 25q0 3 -0.5 29t-0.5 42q-1 28 -1 67 q-2 36 -3 139z" glyph-name="Egrave" horiz-adv-x="449" unicode=""/><glyph d="M284 705q0 1 2 1t12 -8q2 -1 9.5 -7t10.5 -9q2 -2 5 -4.5t5.5 -4t3.5 -2.5l4 -4l-3 -4q-2 -4 -5 -7l-2 -3q2 0 -1 -3q-9 -9 -14 -19q-1 -1 -3 -3.5t-3 -3.5t-3 -4t-3 -4q-6 -10 -10 -14l-1 -2q-2 -3 -3 -4q-4 -6 -8 -10l-14 -19q-3 -3 -5 -7l-5 -7q-5 -5 -5 -7l-4 -6 q-5 -5 -7 -9q-4 -6 -8 -10l-4 -6l-3 3q-1 0 -3 2t-5 4.5t-5 4.5q-37 31 -37 33q0 1 2 2q0 1 8 11l13 17l7 9l8 11q10 10 10 12q4 4 6 8q4 4 8 10q5 5 9 11q1 1 7.5 8.5t9.5 12.5l17 22q7 7 7 9zM30 435q0 37 1 37q2 2 76 3h43q18 1 40 1q47 0 55 1h17h35q19 -1 75 -1l42 -2 q2 -1 2 -18q0 -10 2 -12q2 0 0 -2q-1 -2 0 -31q1 -16 1 -54v-7l-59 1q-66 0 -99 -3q-32 -4 -57 -5l-56 -7l-6 -1l1 -5q0 -1 0.5 -7.5t0.5 -10.5q2 -14 2 -18q0 -1 0.5 -5.5t0.5 -7.5q0 -8 2 -10v-2l-1 -1v-2q0 -2 0.5 -5.5t0.5 -6.5q1 -7 1 -16q2 -3 7 -3q7 -2 24 0 q9 1 43 1l26 1q2 2 2 0q1 -1 4 -1l24 2q48 2 54 3q2 0 2 -1h2q2 1 19.5 1.5t19.5 -0.5q1 -1 8 -2h3v-40h-40h-13t-11.5 -0.5t-8.5 -0.5h-7h-2q-33 -1 -73 -1q-79 -1 -80 -2q-1 0 -1 -10q0 -3 -1 -9t-1 -9l-1 -10q0 -8 -2 -50l-1 -17h6q75 0 84 -3h5l3 1h5.5h7.5q40 1 45 2 q6 1 12 1q9 0 17 1q9 1 23 1q8 1 15.5 1.5t11 1t5.5 0.5q10 2 13 -1q2 -2 3 -23q5 -71 5 -77t0.5 -18t0.5 -16q1 -20 -3 -20h-9q-2 0 -6 -0.5t-10 -1t-10 -0.5q-30 0 -79 -3q-12 0 -26.5 -1t-20.5 -1q-34 -2 -40 -3q-57 -4 -143 0q-3 1 -11 1q-11 0 -11 5q0 3 1 3q2 0 0 2 q-2 10 -3 72q0 10 -0.5 30t-0.5 25q0 3 -0.5 29t-0.5 42q-1 28 -1 67q-2 36 -3 139z" glyph-name="Eacute" horiz-adv-x="449" unicode=""/><glyph d="M120 566q-4 1 -3 5q1 1 1 3l1 2q2 0 2 2t1.5 3.5t2.5 0.5t1 0q-1 1 1.5 5t4.5 5l3 5l2 1q1 0 1 1l1 1l1 2q0 1 1 1t1 1l1 2q0 2 2 2l1 1q1 3 3 4l3 4q-1 0 1 2t2 3q0 2 2 2q5 5 11 13l3 5q0 3 2 4l5 5q2 3 4 3h3q0 1 2 1q2 -2 4 0q3 1 3 0q0 2 7 2h8l2 1h5.5h8.5q2 1 6 1 q1 1 5 1q3 -2 5 0q1 1 4.5 1t3.5 -1l23 -33l6 -8l5 -6q1 0 1 -1q0 -2 1 -3l13 -19q1 -1 9 -13q1 -1 2 -4l6 -9l-40 -2q-1 0 -7.5 -0.5t-9.5 -0.5q-4 0 -9 -1h-5q-8 0 -8 3q0 2 -2 2l-2 1q1 1 -0.5 2.5t-3.5 1.5q-2 1 -2 2q-1 2 -5.5 5t-5.5 2v1l-5 5q-1 0 -2 -1 q-2 -5 -13 -10l-5 -5l-4 -3q-2 -1 -4 -3q-1 -1 -4.5 -3.5t-4.5 -3.5q-5 -4 -5.5 -4t-1.5 1q0 1 -1 1h-2h-2q-2 1 -5 2t-6 1l-11 4h-4h-3q0 1 -1 1h-1q-2 2 -10 4zM204 343l-56 -7l-6 -1l1 -5q0 -1 0.5 -7.5t0.5 -10.5q2 -14 2 -18q0 -1 0.5 -5.5t0.5 -7.5q0 -8 2 -10v-2 l-1 -1v-2q0 -2 0.5 -5.5t0.5 -6.5q1 -7 1 -16q2 -3 7 -3q7 -2 24 0q9 1 43 1l26 1q2 2 2 0q1 -1 4 -1l24 2q48 2 54 3q2 0 2 -1h2q2 1 19.5 1.5t19.5 -0.5q1 -1 8 -2h3v-40h-40h-13t-11.5 -0.5t-8.5 -0.5h-7h-2q-33 -1 -73 -1q-79 -1 -80 -2q-1 0 -1 -10q0 -3 -1 -9t-1 -9 l-1 -10q0 -8 -2 -50l-1 -17h6q75 0 84 -3h5l3 1h5.5h7.5q40 1 45 2q6 1 12 1q9 0 17 1q9 1 23 1q8 1 15.5 1.5t11 1t5.5 0.5q10 2 13 -1q2 -2 3 -23q5 -71 5 -77t0.5 -18t0.5 -16q1 -20 -3 -20h-9q-2 0 -6 -0.5t-10 -1t-10 -0.5q-30 0 -79 -3q-12 0 -26.5 -1t-20.5 -1 q-34 -2 -40 -3q-57 -4 -143 0q-3 1 -11 1q-11 0 -11 5q0 3 1 3q2 0 0 2q-2 10 -3 72q0 10 -0.5 30t-0.5 25q0 3 -0.5 29t-0.5 42q-1 28 -1 67q-2 36 -3 139l-1 89q0 37 1 37q2 2 76 3h43q18 1 40 1q47 0 55 1h17h35q19 -1 75 -1l42 -2q2 -1 2 -18q0 -10 2 -12q2 0 0 -2 q-1 -2 0 -31q1 -16 1 -54v-7l-59 1q-66 0 -99 -3q-32 -4 -57 -5z" glyph-name="Ecircumflex" horiz-adv-x="449" unicode=""/><glyph d="M211 594v3q0 1 -1 2q1 3 4 7l2 1q1 1 2 2.5t2 2.5q5 9 20 16l3 1l13 1h5h6q2 -1 5 -1q2 -1 4 -1q7 -3 13 -12q13 -19 10 -34q-5 -16 -7 -16q-1 0 -2 -2l-3 -3l-2 -1q-1 -1 -2 -1l-1 -1l-2 -2q-2 0 -2 -2q-5 -5 -5 -3h-2h-1h-3q-2 -1 -13 0q-4 0 -4 -1q-2 0 -2 1h-2l-1 -1 q-1 1 -6 1q-3 0 -7 3l-8 5v1q-2 0 -2 2l-2 2l-2 2l-1 2l-1 4q-2 4 -3 9.5t-1 7.5zM132 570q0 2 -2 6q-3 13 -1 19v3l4 8l2 4l3 3l3 3l2 2q5 4 13 4q17 1 25 -7q9 -9 8 -11v-2l1 -3v-2v-2v-1q0 -1 1 -2v-2v-5h-1v-2q-1 0 -1 -2q-2 -2 -5 -8q-2 -2 -2 -3l-1 -1h-1v-2 q-2 -1 -3 -3q-2 -2 -4 -3l-7 -3h-1q-1 -1 -2 -1h-2h-2h-1l-4 1q-3 0 -7 1.5t-5 2.5h-2q-1 1 -2 1l-2 1q0 1 -1 1l-1 1zM204 343l-56 -7l-6 -1l1 -5q0 -1 0.5 -7.5t0.5 -10.5q2 -14 2 -18q0 -1 0.5 -5.5t0.5 -7.5q0 -8 2 -10v-2l-1 -1v-2q0 -2 0.5 -5.5t0.5 -6.5q1 -7 1 -16 q2 -3 7 -3q7 -2 24 0q9 1 43 1l26 1q2 2 2 0q1 -1 4 -1l24 2q48 2 54 3q2 0 2 -1h2q2 1 19.5 1.5t19.5 -0.5q1 -1 8 -2h3v-40h-40h-13t-11.5 -0.5t-8.5 -0.5h-7h-2q-33 -1 -73 -1q-79 -1 -80 -2q-1 0 -1 -10q0 -3 -1 -9t-1 -9l-1 -10q0 -8 -2 -50l-1 -17h6q75 0 84 -3h5l3 1 h5.5h7.5q40 1 45 2q6 1 12 1q9 0 17 1q9 1 23 1q8 1 15.5 1.5t11 1t5.5 0.5q10 2 13 -1q2 -2 3 -23q5 -71 5 -77t0.5 -18t0.5 -16q1 -20 -3 -20h-9q-2 0 -6 -0.5t-10 -1t-10 -0.5q-30 0 -79 -3q-12 0 -26.5 -1t-20.5 -1q-34 -2 -40 -3q-57 -4 -143 0q-3 1 -11 1q-11 0 -11 5 q0 3 1 3q2 0 0 2q-2 10 -3 72q0 10 -0.5 30t-0.5 25q0 3 -0.5 29t-0.5 42q-1 28 -1 67q-2 36 -3 139l-1 89q0 37 1 37q2 2 76 3h43q18 1 40 1q47 0 55 1h17h35q19 -1 75 -1l42 -2q2 -1 2 -18q0 -10 2 -12q2 0 0 -2q-1 -2 0 -31q1 -16 1 -54v-7l-59 1q-66 0 -99 -3 q-32 -4 -57 -5z" glyph-name="Edieresis" horiz-adv-x="449" unicode=""/><glyph d="M98 617q-12 8 -7 13q2 4 7 7q3 5 14 12l4.5 4.5l4.5 4.5l2 1q11 11 23 15q6 0 17 -9l3 -2q1 0 2 -1q0 -2 6 -6l7 -5l1 -1q1 1 6 -4t6 -5q7 -3 8 -6q0 -1 4 -3q5 -3 9.5 -7t3.5 -5h1q1 0 28 -22l5 -5q1 0 2 -1q2 -2 3 -2q2 -3 4 -3q4 0 8 -9q2 -2 -14 -17l-4 -4t-3.5 -3 t-2.5 -2l-2 -2q-2 -3 -10 -10l-15 -14l-8 -7q-3 3 -7 6q-22 22 -57 49q-2 2 -6 5.5t-9.5 8.5t-8.5 7l-16 14q-5 5 -9 8zM10 353v16q0 4 0.5 20t0.5 24q1 42 3 43q1 1 14 1t14 -1h2q0 2 7 0q6 -2 6 0t3 2l1 -1q0 -1 18 -1l44 -2h2l2 1q0 -1 3 -1q2 1 4 1l22 -2h25h6q1 1 2 1 t1 -1l2 -1h4.5h5.5q4 0 10.5 -0.5t17.5 -1t22 -0.5q32 -1 33 0h1q1 0 53 -3q2 0 2 -1q1 -2 1 -54t-2 -54h-11q-2 0 -13.5 0.5t-17.5 0.5l-47 1l-26 1v-6q1 -7 2 -7q1 -1 0 -3q-1 -1 -1 -28v-14.5t0.5 -12.5t0.5 -6l2 -60v-117l1 -34q0 -7 0.5 -16.5t1 -14.5t0.5 -6 q0 -2 13 -2q2 0 5 -1q3 0 4 -1q7 0 13 -1q12 0 14 -1q1 0 5.5 -0.5t7.5 -0.5q11 -1 17 -1q3 -1 -1 -27q-1 -2 -1.5 -8t-0.5 -8q-1 -14 -3 -14l-2 -1q0 -2 -29 0q-1 0 -12 0.5t-19 0.5q-12 1 -24 1l-22 2h-10h-9l-3 1q-1 1 -1 0q-2 -1 -7 0q-1 0 -9.5 0.5t-13.5 0.5 t-14.5 0.5t-11.5 0.5q-1 0 -10.5 0.5t-15.5 0.5l-19 1q0 24 1 43v16v5h11l16 -2l67 -2h9h8v93q0 141 2 145q1 1 1 32t-1 48v12l-10 1q-3 0 -12.5 0.5t-14.5 0.5q-4 0 -13 0.5t-12 1.5q-10 1 -53 1t-51 -1h-11z" glyph-name="Igrave" horiz-adv-x="362" unicode=""/><glyph d="M247 691q0 1 2 1t12 -8q2 -1 9.5 -7t10.5 -9q2 -2 5 -4.5t5.5 -4t3.5 -2.5l4 -4l-3 -4q-2 -4 -5 -7l-2 -3q2 0 -1 -3q-9 -9 -14 -19q-1 -1 -3 -3.5t-3 -3.5t-3 -4t-3 -4q-6 -10 -10 -14l-2 -2q-1 -3 -2 -4q-4 -6 -8 -10l-14 -19q-3 -3 -5 -7l-5 -7q-5 -5 -5 -7l-4 -6 q-5 -5 -7 -9q-4 -6 -8 -10l-4 -6l-3 3q-1 0 -3 2t-5 4.5t-5 4.5q-37 31 -37 33q0 1 2 2q0 1 8 11l13 17l7 9l8 11q10 10 10 12q4 4 6 8q4 4 8 10q5 5 9 11q1 2 7.5 9.5t9.5 11.5l17 22q7 7 7 9zM10 353v16q0 4 0.5 20t0.5 24q1 42 3 43q1 1 14 1t14 -1h2q0 2 7 0q6 -2 6 0 t3 2l1 -1q0 -1 18 -1l44 -2h2l2 1q0 -1 3 -1q2 1 4 1l22 -2h25h6q1 1 2 1t1 -1l2 -1h4.5h5.5q4 0 10.5 -0.5t17.5 -1t22 -0.5q32 -1 33 0h1q1 0 53 -3q2 0 2 -1q1 -2 1 -54t-2 -54h-11q-2 0 -13.5 0.5t-17.5 0.5l-47 1l-26 1v-6q1 -7 2 -7q1 -1 0 -3q-1 -1 -1 -28v-14.5 t0.5 -12.5t0.5 -6l2 -60v-117l1 -34q0 -7 0.5 -16.5t1 -14.5t0.5 -6q0 -2 13 -2q2 0 5 -1q3 0 4 -1q7 0 13 -1q12 0 14 -1q1 0 5.5 -0.5t7.5 -0.5q11 -1 17 -1q3 -1 -1 -27q-1 -2 -1.5 -8t-0.5 -8q-1 -14 -3 -14l-2 -1q0 -2 -29 0q-1 0 -12 0.5t-19 0.5q-12 1 -24 1l-22 2 h-10h-9l-3 1q-1 1 -1 0q-2 -1 -7 0q-1 0 -9.5 0.5t-13.5 0.5t-14.5 0.5t-11.5 0.5q-1 0 -10.5 0.5t-15.5 0.5l-19 1q0 24 1 43v16v5h11l16 -2l67 -2h9h8v93q0 141 2 145q1 1 1 32t-1 48v12l-10 1q-3 0 -12.5 0.5t-14.5 0.5q-4 0 -13 0.5t-12 1.5q-10 1 -53 1t-51 -1h-11z " glyph-name="Iacute" horiz-adv-x="362" unicode=""/><glyph d="M116 538q-4 1 -3 5q1 1 1 3l1 2q2 0 2 2t1.5 3.5t2.5 0.5t1 0q-1 1 1.5 5t4.5 5l3 5l2 1q1 0 1 1l1 1l1 2q0 1 1 1t1 1l1 2q0 2 2 2l1 1q1 3 3 4l3 4v1l1 1q2 2 2 3q0 2 2 2q5 5 11 13l3 5q0 3 2 4l5 5q2 3 4 3h3q0 1 2 1q2 -2 4 0q3 1 3 0q0 2 7 2h8l2 1h5.5h8.5 q2 1 6 1q1 1 5 1q3 -2 5 0q1 1 4.5 1t3.5 -1l23 -33l6 -8l5 -6q1 0 1 -1q0 -2 1 -3l13 -19q1 -1 9 -13q1 -1 2 -4l6 -9l-40 -2q-1 0 -7.5 -0.5t-9.5 -0.5t-8 -0.5t-6 -0.5q-8 0 -8 3q0 2 -2 2l-2 1q1 1 -0.5 2.5t-3.5 1.5q-2 1 -2 2q-1 2 -5.5 5t-5.5 2v1l-5 5q-1 0 -2 -1 q-2 -5 -13 -10l-5 -5l-4 -3q-2 -1 -4 -3q-1 -1 -4.5 -3.5t-4.5 -3.5q-5 -4 -5.5 -4t-1.5 1q0 1 -1 1h-2h-2q-2 1 -5 2t-6 1l-11 4h-4h-3q0 1 -1 1h-1q-2 2 -10 4zM341 446q1 -2 1 -54t-2 -54h-11q-2 0 -13.5 0.5t-17.5 0.5l-47 1l-26 1v-6q1 -7 2 -7q1 -1 0 -3q-1 -1 -1 -28 v-14.5t0.5 -12.5t0.5 -6l2 -60v-117l1 -34q0 -7 0.5 -16.5t1 -14.5t0.5 -6q0 -2 13 -2q2 0 5 -1q3 0 4 -1q7 0 13 -1q12 0 14 -1q1 0 5.5 -0.5t7.5 -0.5q11 -1 17 -1q3 -1 -1 -27q-1 -2 -1.5 -8t-0.5 -8q-1 -14 -3 -14l-2 -1q0 -2 -29 0q-1 0 -12 0.5t-19 0.5q-12 1 -24 1 l-22 2h-10h-9l-3 1q-1 1 -1 0q-2 -1 -7 0q-1 0 -9.5 0.5t-13.5 0.5t-14.5 0.5t-11.5 0.5q-1 0 -10.5 0.5t-15.5 0.5l-19 1q0 24 1 43v16v5h11l16 -2l67 -2h9h8v93q0 141 2 145q1 1 1 32t-1 48v12l-10 1q-3 0 -12.5 0.5t-14.5 0.5q-4 0 -13 0.5t-12 1.5q-10 1 -53 1t-51 -1 h-11v16q0 4 0.5 20t0.5 24q1 42 3 43q1 1 14 1t14 -1h2q0 2 7 0q6 -2 6 0t3 2l1 -1q0 -1 18 -1l44 -2h2l2 1q0 -1 3 -1q2 1 4 1l22 -2h25h6q1 1 2 1t1 -1l2 -1h4.5h5.5q4 0 10.5 -0.5t17.5 -1t22 -0.5q32 -1 33 0h1q1 0 53 -3q2 0 2 -1z" glyph-name="Icircumflex" horiz-adv-x="362" unicode=""/><glyph d="M203 568v3q0 1 -1 2q1 3 4 7l6 6q5 9 20 16l3 1l13 1h5h6q2 -1 5 -1q2 -1 4 -1q7 -3 13 -12q13 -19 10 -34q-5 -16 -7 -16q-1 0 -2 -2l-3 -3l-2 -1q-1 -1 -2 -1l-1 -1l-2 -2q-2 0 -2 -2q-5 -5 -5 -3h-2h-1h-3q-2 -1 -13 0q-4 0 -4 -1q-2 0 -2 1h-2l-1 -1q-1 1 -6 1 q-2 0 -7 3l-8 5v1q-2 0 -2 2l-2 2l-2 2l-1 2l-1 4q-2 4 -3 9.5t-1 7.5zM124 544q0 2 -2 6q-3 13 -1 19v3l4 8l2 4l3 3l3 3l2 2q5 4 13 4q17 1 25 -7q9 -9 8 -11v-2l1 -3v-2v-2v-1q0 -1 1 -2v-2v-5h-1v-2q-1 0 -1 -2q-2 -2 -5 -8q-2 -2 -2 -3l-1 -1h-1v-2q-2 -1 -3 -3 q-2 -2 -4 -3l-7 -3h-1q-1 -1 -2 -1h-2h-2h-1l-4 1q-3 0 -7 1.5t-5 2.5h-2q-1 1 -2 1l-2 1q0 1 -1 1l-1 1q-1 3 -2 4zM341 446q1 -2 1 -54t-2 -54h-11q-2 0 -13.5 0.5t-17.5 0.5l-47 1l-26 1v-6q1 -7 2 -7q1 -1 0 -3q-1 -1 -1 -28v-14.5t0.5 -12.5t0.5 -6l2 -60v-117l1 -34 q0 -7 0.5 -16.5t1 -14.5t0.5 -6q0 -2 13 -2q2 0 5 -1q3 0 4 -1q7 0 13 -1q12 0 14 -1q1 0 5.5 -0.5t7.5 -0.5q11 -1 17 -1q3 -1 -1 -27q-1 -2 -1.5 -8t-0.5 -8q-1 -14 -3 -14l-2 -1q0 -2 -29 0q-1 0 -12 0.5t-19 0.5q-12 1 -24 1l-22 2h-10h-9l-3 1q-1 1 -1 0q-2 -1 -7 0 q-1 0 -9.5 0.5t-13.5 0.5t-14.5 0.5t-11.5 0.5q-1 0 -10.5 0.5t-15.5 0.5l-19 1q0 24 1 43v16v5h11l16 -2l67 -2h9h8v93q0 141 2 145q1 1 1 32t-1 48v12l-10 1q-3 0 -12.5 0.5t-14.5 0.5q-4 0 -13 0.5t-12 1.5q-10 1 -53 1t-51 -1h-11v16q0 4 0.5 20t0.5 24q1 42 3 43 q1 1 14 1t14 -1h2q0 2 7 0q6 -2 6 0t3 2l1 -1q0 -1 18 -1l44 -2h2l2 1q0 -1 3 -1q2 1 4 1l22 -2h25h6q1 1 2 1t1 -1l2 -1h4.5h5.5q4 0 10.5 -0.5t17.5 -1t22 -0.5q32 -1 33 0h1q1 0 53 -3q2 0 2 -1z" glyph-name="Idieresis" horiz-adv-x="362" unicode=""/><glyph d="M345 174q1 -23 0 -30q0 -9 -13 -44l-5 -14q0 -1 -1 -2q-2 -2 -2 -3l-7 -7q-9 -11 -21 -20q-3 -1 -19 -11q-14 -7 -17 -10q-9 -5 -20 -7q-2 0 -18 -4q-42 -11 -44 -9h-1q0 -4 -13 -2l-5 -1q-1 -1 -4 -1h-9h-12q-2 0 -5 -0.5t-4 -0.5h-6q0 2 -2 0h-3q-5 0 -7 -1h-11h-5 q-1 -1 -15 -1h-4h-4h-3q-4 -1 -8 -1h-15q-6 -1 -6 0q-1 1 -1 0l-1 -1q-1 0 -1 2t-1 2v4v9v7q2 2 0 2q-1 -1 -1 1v6v8v12q1 -1 1 -0.5t-1 2.5v10v22v5v10v9q1 5 0 17v9v9v10v7v19v10v8v17v14v8q0 1 -0.5 8.5t-0.5 12.5q1 3 1 10v10v11q-1 4 -1 13q1 3 1 17v16v5v4 q0 2 0.5 14.5t0.5 21.5q0 16 1 16l32 -1q11 0 20 -0.5t13 -0.5l4 -1q12 0 24 -1l23 -2l11 -2q12 -3 25 -5.5t15 -2.5q1 -1 3 -1.5t3 -0.5q13 -2 22 -8q2 -2 5 -2l2 -2q0 -1 1 -1q6 0 28 -19q14 -12 26 -21q1 -1 5 -4.5t7 -6.5l12 -11q6 -6 11 -16q0 -2 2 -4l8 -21 q1 -3 4 -29l2 -17l1 -2v-8q1 -3 1 -6q0 -5 1 -11q0 -15 1 -21zM-221 225q2 0 13.5 0.5t17.5 0.5q5 1 15 1v-59h-6q-12 0 -34 -0.5t-32 -1.5q-12 -1 -32 -1q-26 0 -54 -2q-6 -1 -20 -1q-9 0 -10 3q-1 6 -2 26t0 23q1 5 3 5.5t13 1.5h15q1 0 9.5 0.5t13.5 0.5t16 0.5t15 0.5 q8 1 27 1h17q2 1 15 1z" glyph-name="Eth" horiz-adv-x="376" unicode=""/><glyph d="M56 498q-1 1 -1 2q-1 1 3 7.5t5 6.5v1q0 2 3 5q1 3 7 11q1 1 2.5 3.5l3 5t2.5 3.5q4 6 4 7q1 1 3 1q4 0 6 -1q3 -5 25 -12q7 -2 15 -1q9 0 9 2l5 4h2q0 2 5 4t6 5q2 2 4 2l2 1q0 1 1 2q1 0 2 1t4.5 4t7.5 5l3 2l1 1q0 2 2 2l7 2q15 5 26 8q14 2 15 3q12 3 30 -2 q7 -2 12 -9l4 -5q3 -1 6 -6l3 -4q8 -8 8 -12l3 -3l2 -2v-2q2 -1 11 -22q1 -2 4 -13l6 -27q2 -2 0 -2h-10l-24 -3l-34 -2q-3 5 -6 11q-9 14 -17 22q-11 4 -14 4q-9 0 -13 2q-11 1 -46 -23q-32 -22 -56 -22q-7 0 -20 8q-21 15 -25 20zM31 40q-2 2 1 28l2 32q0 2 0.5 6.5 t0.5 5.5l1 6v9l2 11v7q0 4 1 20t2 20q0 19 1 23q2 28 2 58q1 9 1 24q0 1 0.5 5t1 9t0.5 9q0 22 1 28v12q0 1 1 1v5l-1 5l-1 -1q-1 -1 -2 0t-1 2l1 2q1 0 3 2l3 3q3 0 1 -3q0 -2 4 -1q3 0 3 -2l1 -1q2 0 3 -1q2 -2 16 2q1 1 1 0q0 -2 1 -2l1 1q-1 1 0 2q3 5 5 -1q1 -3 6 -3 l10 1q4 0 5 -1h9q4 -1 11 -1t11 1q7 0 8 -1q2 0 3 1q4 2 4 1q-2 -2 1 -2l1 1q0 1 2 1l1 -1h-1q1 -1 3 0q4 0 4 -1q0 -3 3 -6v-1q1 -1 1 -2l1 -2q1 0 1 -1v-3q1 -1 7 -16q1 -1 2 -3t1.5 -3.5t1.5 -3t1 -2.5l5 -9q0 -1 2 -5l3 -6l4 -9q2 -4 4 -7q3 -4 3 -7l2 -3l9 -18 q2 -4 8 -15.5t10 -18.5l1 -2q0 -1 1 -1q0 -3 4 -8l6 -11q6 -11 9 -11q2 2 -1 40q-3 45 -3 49q0 3 -1.5 23.5t-2.5 31.5l-2 35q1 1 6 1q20 0 37 1l34 2q3 0 3 -9l-1 -11v-8v-14v-17v-12v-6v-15q1 -8 1 -20v-16v-12v-7v-31q0 -6 -1 -7v-1l2 -3q0 -20 -1 -24v-10v-7q-1 0 -1 -6 q2 -7 0 -12q0 -36 6 -84q0 -3 -4 -3q-5 0 -8 1h-13q-13 0 -36 3q-4 0 -5.5 1.5t-7.5 13.5l-9 20l-11 22q-6 12 -6 13l-1 2q-1 2 -2 3q-2 5 -26 53q-3 3 -3 6q-2 4 -5 8q-1 2 -2 4.5t-2 4t-1 2.5l-3 6l-5 12q-16 38 -21 46l-2 -11v-2v-9v-12q-1 -5 -1 -11v-6q0 -1 -0.5 -6.5 t-0.5 -8.5v-22.5v-18.5v-15l1 -18q-1 -1 1 -44l2 -29v-8l-5 -1q-15 0 -30 1q-18 2 -42 2q-21 0 -26 1h-17q-2 0 -5 1h-3z" glyph-name="Ntilde" horiz-adv-x="360" unicode=""/><glyph d="M113 572q-12 8 -7 13q2 3 7 7q3 5 14 12l4.5 4.5t4.5 3.5l2 2q11 11 23 15q6 0 17 -9l3 -2q1 0 2 -1q0 -2 6 -6l7 -5l1 -1q1 1 6 -4t6 -5q7 -3 8 -6q0 -1 4 -3q5 -3 9.5 -7t3.5 -5h1q1 0 28 -22l5 -5q1 0 2 -1q2 -2 3 -2q1 -3 4 -3t8 -9q2 -2 -14 -17l-4 -4t-3.5 -3 t-3.5 -3l-1 -1q-2 -3 -10 -10l-15 -14l-8 -7q-3 3 -7 6q-22 22 -57 49l-24 21l-16 14q-5 5 -9 8zM32 141l-2 6q1 1 1 43v29v18q-1 24 4 51q8 24 8 30q5 20 7 24q4 8 30 47q16 21 23 26q1 0 3 2t4 3q0 1 2 3l3 3q5 4 13 6q3 0 9 2q8 2 13 2q8 2 16 2q1 0 5 -0.5t9 -1.5t7 -1 q7 0 17 -1h6q2 -1 8 -1q5 0 10 -1h6q2 -1 7 -1q4 0 31 -16q16 -8 19 -13l13 -13q8 -8 11 -14l7 -22q13 -42 17 -49q3 -6 3 -20q2 -28 2 -55q0 -16 1 -31q1 -31 -2 -51v-2l-2 -5v-4q0 -2 -1 -5l-1 -7q0 -4 -5 -24q0 -4 -2 -16q-3 -15 -13 -34l-4 -10q-5 -8 -7 -9q-5 -5 -6 -5 l-35 -32q-15 -13 -21 -15l-12 -4q-2 -1 -24 -5q-17 -2 -32 0q-52 8 -75 21q-12 6 -30 26q-7 10 -9 10q-1 1 -8.5 11t-7.5 11l-2 11q-2 14 -3 15q0 1 -0.5 4t-0.5 5q-1 2 -3 18q-3 11 -3 15l-2 10q-2 8 -2 14z" glyph-name="Ograve" horiz-adv-x="375" unicode=""/><glyph d="M268 680q0 1 2 1t12 -8q2 -1 9.5 -7t10.5 -9q2 -2 5 -4.5t5.5 -4t3.5 -2.5l4 -4l-3 -4q-2 -4 -5 -7l-2 -3q2 0 -1 -3q-9 -9 -14 -19q-1 -1 -3 -3.5t-3 -3.5t-3 -4t-3 -4q-6 -10 -10 -14l-1 -3l-3 -3q-4 -6 -8 -10l-14 -19q-3 -3 -5 -7l-5 -7q-5 -5 -5 -7l-4 -6 q-5 -5 -7 -9q-4 -6 -8 -10l-4 -6l-3 3q-1 0 -3 2t-5 4.5t-5 4.5q-37 31 -37 33q0 1 2 2q0 1 8 11l13 17l7 9l8 11q10 10 10 12q4 4 6 8q4 4 8 10q5 5 9 11q1 1 7.5 8.5t9.5 12.5l17 22q7 7 7 9zM32 141l-2 6q1 1 1 43v29v18q-1 24 4 51q8 24 8 30q5 20 7 24q4 8 30 47 q16 21 23 26q1 0 3 2t4 3q0 1 2 3l3 3q5 4 13 6q3 0 9 2q8 2 13 2q8 2 16 2q1 0 5 -0.5t9 -1.5t7 -1q7 0 17 -1h6q2 -1 8 -1q5 0 10 -1h6q2 -1 7 -1q4 0 31 -16q16 -8 19 -13l13 -13q8 -8 11 -14l7 -22q13 -42 17 -49q3 -6 3 -20q2 -28 2 -55q0 -16 1 -31q1 -31 -2 -51v-2 l-2 -5v-4q0 -2 -1 -5l-1 -7q0 -4 -5 -24q0 -4 -2 -16q-3 -15 -13 -34l-4 -10q-5 -8 -7 -9q-5 -5 -6 -5l-35 -32q-15 -13 -21 -15l-12 -4q-2 -1 -24 -5q-17 -2 -32 0q-52 8 -75 21q-12 6 -30 26q-7 10 -9 10q-1 1 -8.5 11t-7.5 11l-2 11q-2 14 -3 15q0 1 -0.5 4t-0.5 5 q-1 2 -3 18q-3 11 -3 15l-2 10q-2 8 -2 14z" glyph-name="Oacute" horiz-adv-x="375" unicode=""/><glyph d="M102 545q-4 1 -3 5q1 1 1 3l1 2q2 0 2 2q0 1 1.5 3t2.5 1t1 0q-1 1 1.5 5t4.5 5l3 5l2 1q1 0 1 1l1 1q1 1 1 2t1 1t1 1l1 2q0 2 2 2l1 1q1 3 3 4l3 4q-1 0 1 2t2 3q0 2 2 2q5 5 11 13l3 5q0 3 2 4l5 5q2 3 4 3h3q0 1 2 1q2 -2 4 0q3 2 3 0q0 2 7 2h8h2q2 0 5.5 0.5 t8.5 0.5q2 1 6 1q1 1 5 1q3 -2 5 0q1 1 4.5 1t3.5 -1l23 -33l6 -8l5 -6q1 0 1 -1q0 -2 1 -3l13 -19q1 -1 9 -13q1 -1 2 -4l6 -9l-40 -2q-1 0 -7.5 -0.5t-9.5 -0.5h-9l-5 -1q-8 0 -8 3q0 2 -2 2l-2 1q1 1 -0.5 2.5t-3.5 1.5q-2 1 -2 2q-1 2 -5.5 5t-5.5 2v1l-5 5q-1 0 -2 -1 q-2 -5 -13 -10l-5 -5l-4 -3q-2 -1 -4 -3q-1 -1 -4.5 -3.5t-4.5 -3.5q-5 -3 -5.5 -3.5t-1.5 0.5q0 1 -1 1h-2l-2 1q-2 0 -5 1t-6 1l-11 4h-4h-3q0 1 -1 1h-1q-2 2 -10 4zM345 198q1 -31 -2 -51v-2l-2 -5v-4q0 -2 -1 -5l-1 -7q0 -4 -5 -24q0 -4 -2 -16q-3 -15 -13 -34l-4 -10 q-5 -8 -7 -9q-5 -5 -6 -5l-35 -32q-15 -13 -21 -15l-12 -4q-2 -1 -24 -5q-17 -2 -32 0q-52 8 -75 21q-12 6 -30 26q-7 10 -9 10q-1 1 -8.5 11t-7.5 11l-2 11q-2 14 -3 15q0 1 -0.5 4t-0.5 5q-1 2 -3 18q-3 11 -3 15l-2 10q-2 8 -2 14l-2 6q1 1 1 43v29v18q-1 24 4 51 q8 24 8 30q5 20 7 24q4 8 30 47q16 21 23 26q1 0 3 2t4 3q0 1 2 3l3 3q5 4 13 6q3 0 9 2q8 2 13 2q8 2 16 2q1 0 5 -0.5t9 -1.5t7 -1q7 0 17 -1h6q2 -1 8 -1q5 0 10 -1h6q2 -1 7 -1q4 0 31 -16q16 -8 19 -13l13 -13q8 -8 11 -14l7 -22q13 -42 17 -49q3 -6 3 -20q2 -28 2 -55 q0 -16 1 -31z" glyph-name="Ocircumflex" horiz-adv-x="375" unicode=""/><glyph d="M53 513q-1 1 -1 2q-1 1 3 7.5t5 6.5v1q0 2 3 5q1 3 7 11q1 1 2.5 3.5l3 5t2.5 3.5q4 6 4 7q1 1 3 1q4 0 6 -1q3 -5 25 -12q7 -2 15 -1q9 0 9 2l5 4h2q0 2 5 4t6 5q2 2 4 2l2 1q0 1 1 2q1 0 2 1t4.5 4t6.5 5l4 2l1 1q0 2 2 2l7 2q15 5 26 8q14 2 15 3q12 3 30 -2 q7 -2 12 -9l4 -5q3 -2 6 -6l3 -4q8 -8 8 -12l3 -3l2 -2v-2q2 -1 11 -22q1 -2 4 -13l6 -27q2 -2 0 -2h-10l-24 -3l-34 -2q-3 5 -6 11q-9 14 -17 22q-11 4 -14 4q-9 0 -13 2q-11 1 -46 -23q-32 -22 -56 -22q-7 0 -20 8q-21 15 -25 20zM32 141l-2 6q1 1 1 43v29v18q-1 24 4 51 q8 24 8 30q5 20 7 24q4 8 30 47q16 21 23 26q1 0 3 2t4 3q0 1 2 3l3 3q5 4 13 6q3 0 9 2q8 2 13 2q8 2 16 2q1 0 5 -0.5t9 -1.5t7 -1q7 0 17 -1h6q2 -1 8 -1q5 0 10 -1h6q2 -1 7 -1q4 0 31 -16q16 -8 19 -13l13 -13q8 -8 11 -14l7 -22q13 -42 17 -49q3 -6 3 -20q2 -28 2 -55 q0 -16 1 -31q1 -31 -2 -51v-2l-2 -5v-4q0 -2 -1 -5l-1 -7q0 -4 -5 -24q0 -4 -2 -16q-3 -15 -13 -34l-4 -10q-5 -8 -7 -9q-5 -5 -6 -5l-35 -32q-15 -13 -21 -15l-12 -4q-2 -1 -24 -5q-17 -2 -32 0q-52 8 -75 21q-12 6 -30 26q-7 10 -9 10q-1 1 -8.5 11t-7.5 11l-2 11 q-2 14 -3 15q0 1 -0.5 4t-0.5 5q-1 2 -3 18q-3 11 -3 15l-2 10q-2 8 -2 14z" glyph-name="Otilde" horiz-adv-x="375" unicode=""/><glyph d="M169 552v3q0 1 -1 2q1 3 4 7l2 1q1 1 2 2.5t2 2.5q5 9 20 16l3 1l13 1h5h6q2 -1 5 -1q2 -1 4 -1q7 -3 13 -12q13 -19 10 -34q-5 -16 -7 -16q-1 0 -2 -2l-3 -3l-2 -1q-1 -1 -2 -1l-1 -1l-2 -2q-2 0 -2 -2q-5 -5 -5 -3h-2h-1h-3q-2 -1 -13 0q-4 0 -4 -1q-2 0 -2 1h-2l-1 -1 q-1 1 -6 1q-3 0 -7 3l-8 5v1q-2 0 -2 2l-2 2l-2 2l-1 2l-1 4q-2 4 -3 9.5t-1 7.5zM90 528q0 2 -2 6q-3 13 -1 19v3l4 8l2 4l3 3l3 3l2 2q5 4 13 4q17 1 25 -7q9 -9 8 -11v-2l1 -3v-2v-2v-1q0 -1 1 -2v-2v-5h-1v-2q-1 0 -1 -2q-2 -2 -5 -8q-2 -2 -2 -3l-1 -1h-1v-2 q-2 -1 -3 -3q-2 -2 -4 -3l-7 -3h-1q-1 -1 -2 -1h-2h-2h-1l-4 1q-3 0 -7 1.5t-5 2.5h-2q-1 1 -2 1l-2 1q0 1 -1 1l-1 1zM345 198q1 -31 -2 -51v-2l-2 -5v-4q0 -2 -1 -5l-1 -7q0 -4 -5 -24q0 -4 -2 -16q-3 -15 -13 -34l-4 -10q-5 -8 -7 -9q-5 -5 -6 -5l-35 -32 q-15 -13 -21 -15l-12 -4q-2 -1 -24 -5q-17 -2 -32 0q-52 8 -75 21q-12 6 -30 26q-7 10 -9 10q-1 1 -8.5 11t-7.5 11l-2 11q-2 14 -3 15q0 1 -0.5 4t-0.5 5q-1 2 -3 18q-3 11 -3 15l-2 10q-2 8 -2 14l-2 6q1 1 1 43v29v18q-1 24 4 51q8 24 8 30q5 20 7 24q4 8 30 47 q16 21 23 26q1 0 3 2t4 3q0 1 2 3l3 3q5 4 13 6q3 0 9 2q8 2 13 2q8 2 16 2q1 0 5 -0.5t9 -1.5t7 -1q7 0 17 -1h6q2 -1 8 -1q5 0 10 -1h6q2 -1 7 -1q4 0 31 -16q16 -8 19 -13l13 -13q8 -8 11 -14l7 -22q13 -42 17 -49q3 -6 3 -20q2 -28 2 -55q0 -16 1 -31z" glyph-name="Odieresis" horiz-adv-x="375" unicode=""/><glyph d="M178 50q-10 -10 -17 -16q-5 -4 -15 -14l2 -2q4 -2 11 -11q14 -14 21 -22q7 -7 10 -11l-44 -39q0 1 -2 2.5t-2 2.5q-32 34 -39 41l-8 -8q-3 -2 -11 -10t-12 -11l-11 -11l-38 46q2 1 5 4q15 15 37 33q-18 20 -26 28q-6 4 -14 14q-6 7 -4 10q3 4 17.5 18t17.5 15q6 3 16 -7 q1 -2 5 -6t5 -6l16 -16q1 -1 4 -4.5t5 -5.5q16 14 33 30l14 14q7 6 10 4q28 -28 32 -36q3 -4 2 -6t-9 -10q-4 -3 -11 -10z" glyph-name="multiply" horiz-adv-x="218" unicode=""/><glyph d="M344 229q0 -16 1 -31q1 -31 -2 -51v-2l-2 -5v-4q0 -2 -1 -5l-1 -7q0 -4 -5 -24q0 -4 -2 -16q-3 -15 -13 -34l-4 -10q-5 -8 -7 -9q-5 -5 -6 -5l-35 -32q-15 -13 -21 -15l-12 -4q-2 -1 -24 -5q-17 -2 -32 0q-46 8 -73 20q-3 0 -13.5 0.5t-15.5 0.5q-4 0 -13 0.5t-12 1.5 q-10 0 -14 2q-6 0 -6.5 1.5t1.5 5.5t3 8q2 2 7 14l5 10q0 1 1 2q2 4 2 5q0 2 1 3l-3 5q0 1 -2 11q-2 14 -3 15q0 1 -0.5 4t-0.5 5q-1 2 -3 18q-3 11 -3 15l-2 10q-2 8 -2 14l-2 6q1 1 1 43v29v18q-1 24 4 51q8 24 8 30q5 20 7 24q4 8 30 47q16 21 23 26q1 0 3 2t4 3q0 1 2 3 l3 3q5 4 13 6q3 0 9 2q8 2 13 2q8 2 16 2q1 0 5 -0.5t9 -1.5t7 -1q7 0 17 -1h6q2 -1 8 -1q4 0 9 -0.5t6 -0.5q0 4 3 7l3 9l12 -1q3 0 8 -1l5 -1h3q0 -1 1 -1h5h1q2 -1 4 -1.5t4 -0.5q10 0 13 -2h9l4 -1q5 -1 10 -1l10 -1q1 -2 7 -2q10 -2 10 -3q0 -5 -4 -17q-2 -5 -6 -13.5 t-6.5 -14.5t-3.5 -7l-1 -4q-1 -1 -6 -11l4 -12q13 -42 17 -49q3 -6 3 -20q2 -28 2 -55z" glyph-name="Oslash" horiz-adv-x="375" unicode=""/><glyph d="M133 592q-12 8 -7 13q2 3 7 7q3 5 14 12l4.5 4.5t4.5 3.5l2 2q11 11 23 15q6 0 17 -9l3 -2q1 0 2 -1q0 -2 6 -6l7 -5l1 -1q1 1 6 -4t6 -5q7 -3 8 -6q0 -1 4 -3q5 -3 9.5 -7t3.5 -5h1q1 0 28 -22l5 -5q1 0 2 -1q2 -2 3 -2q1 -3 4 -3t8 -9q2 -2 -14 -17l-4 -4t-3.5 -3 t-3.5 -3l-1 -1q-2 -3 -10 -10l-15 -14l-8 -7q-3 3 -7 6q-22 22 -57 49q-2 2 -6 5.5t-9.5 8.5t-8.5 7l-16 14q-5 5 -9 8zM30 268l1 69q1 26 1 67v10v8l1 3q1 1 66 1t136 -0.5t84 -1.5q17 0 81 -2l26 -1l2 -13q0 -4 0.5 -9t0.5 -6q1 -5 3 -27q0 -2 0.5 -11t0.5 -13 q0 -3 0.5 -18t0.5 -23q0 -19 -0.5 -49t-1 -52t-0.5 -23q-3 -17 -8 -34q0 -3 -2 -9q-4 -18 -12 -41q-8 -20 -29 -48q-20 -26 -46 -38q-42 -19 -59 -22q-39 -7 -62 -3q-59 7 -76 16q-16 9 -34 27q-15 14 -28 33l-13 19q-4 4 -6 12q-2 3 -5 12l-7 23q0 6 -2 6q0 1 -1 2 q0 3 -3 12l-3 12q-2 10 -2 41q0 4 -0.5 13t-1.5 12q0 18 -1 28q0 18 -1 18z" glyph-name="Ugrave" horiz-adv-x="464" unicode=""/><glyph d="M278 654q0 1 2 1t12 -8q2 -1 9.5 -7t10.5 -9q2 -2 5 -4.5t5.5 -4t3.5 -2.5l4 -4l-3 -4q-2 -4 -5 -7l-2 -3q2 0 -1 -3q-9 -9 -14 -19q-1 -1 -3 -3.5t-3 -3.5t-3 -4t-3 -4q-6 -10 -10 -14l-1 -3l-3 -3q-4 -6 -8 -10l-14 -19q-3 -3 -5 -7l-5 -7q-5 -5 -5 -7l-4 -6 q-5 -5 -7 -9q-4 -6 -8 -10l-4 -6l-3 3q-1 0 -3 2t-5 4.5t-5 4.5q-37 31 -37 33q0 1 2 2q0 1 8 11l13 17l7 9l8 11q10 10 10 12q4 4 6 8q4 4 8 10q5 5 9 11q1 2 7.5 9t9.5 12l17 22q7 7 7 9zM30 268l1 69q1 26 1 67v10v8l1 3q1 1 66 1t136 -0.5t84 -1.5q17 0 81 -2l26 -1 l2 -13q0 -4 0.5 -9t0.5 -6q1 -5 3 -27q0 -2 0.5 -11t0.5 -13q0 -3 0.5 -18t0.5 -23q0 -19 -0.5 -49t-1 -52t-0.5 -23q-3 -17 -8 -34q0 -3 -2 -9q-4 -18 -12 -41q-8 -20 -29 -48q-20 -26 -46 -38q-42 -19 -59 -22q-39 -7 -62 -3q-59 7 -76 16q-16 9 -34 27q-15 14 -28 33 l-13 19q-4 4 -6 12q-2 3 -5 12l-7 23q0 6 -2 6q0 1 -1 2q0 3 -3 12l-3 12q-2 10 -2 41q0 4 -0.5 13t-1.5 12q0 18 -1 28q0 18 -1 18z" glyph-name="Uacute" horiz-adv-x="464" unicode=""/><glyph d="M130 519q-4 1 -3 5q1 1 1 3l1 2q2 0 2 2q0 1 1.5 3t2.5 1t1 0q-1 1 1.5 5t4.5 5l3 5l2 1q1 0 1 1l1 1q1 1 1 2t1 1t1 1l1 2q0 2 2 2l1 1q1 3 3 4l3 4q0 1 1 2q2 2 2 3q0 2 2 2q5 5 11 13l3 5q0 3 2 4l5 5q2 3 4 3h3q0 1 2 1q2 -2 4 0q3 2 3 0q0 2 7 2h8h2q2 0 5.5 0.5 t8.5 0.5q2 1 6 1q1 1 5 1q3 -2 5 0q1 1 4.5 1t3.5 -1l23 -33l6 -8l5 -6q1 0 1 -1q0 -2 1 -3l13 -19q1 -1 9 -13q1 -1 2 -4l6 -9l-40 -2q-1 0 -7.5 -0.5t-9.5 -0.5h-9l-5 -1q-8 0 -8 3q0 2 -2 2l-2 1q1 1 -0.5 2.5t-3.5 1.5q-2 1 -2 2q-1 2 -5.5 5t-5.5 2v1l-5 5q-1 0 -2 -1 q-2 -5 -13 -10l-5 -5l-4 -3q-2 -1 -4 -3q-1 -1 -4.5 -3.5t-4.5 -3.5q-5 -3 -5.5 -3.5t-1.5 0.5q0 1 -1 1h-2l-2 1q-2 0 -5 1t-6 1l-11 4h-4h-3q0 1 -1 1h-1q-2 2 -10 4zM433 342q0 -3 0.5 -18t0.5 -23q0 -19 -0.5 -49t-1 -52t-0.5 -23q-3 -17 -8 -34q0 -3 -2 -9 q-4 -18 -12 -41q-8 -20 -29 -48q-20 -26 -46 -38q-42 -19 -59 -22q-39 -7 -62 -3q-59 7 -76 16q-16 9 -34 27q-15 14 -28 33l-13 19q-4 4 -6 12q-2 3 -5 12l-7 23q0 6 -2 6q0 1 -1 2q0 3 -3 12l-3 12q-2 10 -2 41q0 4 -0.5 13t-1.5 12q0 18 -1 28q0 18 -1 18l1 69q1 26 1 67 v10v8l1 3q1 1 66 1t136 -0.5t84 -1.5q17 0 81 -2l26 -1l2 -13q0 -4 0.5 -9t0.5 -6q1 -5 3 -27q0 -2 0.5 -11t0.5 -13z" glyph-name="Ucircumflex" horiz-adv-x="464" unicode=""/><glyph d="M215 541v3q0 1 -1 2q1 3 4 7l6 6q5 9 20 16l3 1l13 1h5h6q2 -1 5 -1q2 -1 4 -1q7 -3 13 -12q13 -19 10 -34q-5 -16 -7 -16q-1 0 -2 -2l-3 -3l-2 -1q-1 -1 -2 -1l-1 -1l-2 -2q-2 0 -2 -2q-5 -5 -5 -3h-2h-1h-3q-2 -1 -13 0q-4 0 -4 -1q-2 0 -2 1h-2l-1 -1q-1 1 -6 1 q-2 0 -7 3l-8 5v1q-2 0 -2 2l-2 2l-2 2l-1 2l-1 4q-2 4 -3 9.5t-1 7.5zM136 517q0 2 -2 6q-3 13 -1 19v3l4 8l2 4l3 3l3 3l2 2q5 4 13 4q17 1 25 -7q9 -10 8 -11v-2l1 -3v-2v-2v-1q0 -1 1 -2v-2v-5h-1v-2q-1 0 -1 -2q-2 -2 -5 -8q-2 -2 -2 -3l-1 -1h-1v-2q-2 -1 -3 -3 q-2 -2 -4 -3l-7 -3h-1q-1 -1 -2 -1h-2h-2h-1h-4q-3 1 -7 2.5t-5 2.5l-2 1h-2l-2 1q0 1 -1 1l-1 1q-1 3 -2 4zM433 342q0 -3 0.5 -18t0.5 -23q0 -19 -0.5 -49t-1 -52t-0.5 -23q-3 -17 -8 -34q0 -3 -2 -9q-4 -18 -12 -41q-8 -20 -29 -48q-20 -26 -46 -38q-42 -19 -59 -22 q-39 -7 -62 -3q-59 7 -76 16q-16 9 -34 27q-15 14 -28 33l-13 19q-4 4 -6 12q-2 3 -5 12l-7 23q0 6 -2 6q0 1 -1 2q0 3 -3 12l-3 12q-2 10 -2 41q0 4 -0.5 13t-1.5 12q0 18 -1 28q0 18 -1 18l1 69q1 26 1 67v10v8l1 3q1 1 66 1t136 -0.5t84 -1.5q17 0 81 -2l26 -1l2 -13 q0 -4 0.5 -9t0.5 -6q1 -5 3 -27q0 -2 0.5 -11t0.5 -13z" glyph-name="Udieresis" horiz-adv-x="464" unicode=""/><glyph d="M207 646q0 1 2 1t12 -8q2 -1 9.5 -7t10.5 -9q2 -2 5 -4.5t5.5 -4t3.5 -2.5l4 -4l-3 -4q-2 -4 -5 -7l-2 -3q2 0 -1 -3q-9 -9 -14 -19q-1 -1 -3 -3.5t-3 -3.5t-3 -4t-3 -4q-6 -10 -10 -14l-2 -3q-1 -2 -2 -3q-4 -6 -8 -10l-14 -19q-3 -3 -5 -7l-5 -7q-5 -5 -5 -7l-4 -6 q-5 -5 -7 -9q-4 -6 -8 -10l-4 -6l-3 3q-1 0 -3 2t-5 4.5t-5 4.5q-37 31 -37 33q0 1 2 2q0 1 8 11l13 17l7 9l8 11q10 10 10 12q4 4 6 8q4 4 8 10q5 5 9 11q1 2 7.5 9.5t9.5 11.5l17 22q7 7 7 9zM-16 440q-5 8 -2 9h49l8 -1l10 -20l11 -20q0 -1 2 -3q3 -3 6 -10q4 -9 6 -9 q1 -1 1 -3q0 -1 1 -2l4 -6q3 -8 13 -23l4 -6l1 -2q2 -3 4 -7t4 -7q9 -14 9 -17q0 -2 2 -2q1 0 1 -1q0 -2 2 -4t2 -5q2 -4 4 -6q2 -4 1 -5q0 -1 2 -3q1 0 3 -5l3 -6q9 -12 9 -15t1 -3q3 -1 7 -10l1 -2q1 -2 2 -3q8 -10 11 -16q2 -4 5 -7t3 -5q0 -3 2 -3h1q-1 1 7 12q3 3 5 7 l4 7q3 4 5 8t3 4l2 1q0 1 2 5l3 3q0 2 2 4q3 3 3 4t3.5 6t4.5 6l1 1l2 4l2 4q3 6 6 9l1 3q0 1 4 5q1 1 3 4t3 4q1 4 7 12t8 9q0 1 2 5l3 3q1 0 1 2t5 7l5 6q0 1 4 5t4 5t2 3q1 1 1 3q1 2 6 7q2 4 2 5l1 1l3 3l4 6l3 3q1 0 1 2l4 6l3 4q0 1 3 4q3 2 3 4q0 3 5 6q5 5 5 7l4 6 q3 2 6 8l2 3h28l26 -1v-1l-3 -6q-3 -3 -3 -6l-2 -3q-1 1 -1 -1q2 -2 -1 -2q-2 -2 -2 -4t-1 -2t-3.5 -5t-2.5 -7q-1 -3 -3 -4q-4 -4 -2 -4l-2 -4q-8 -8 -8 -13q0 -1 -1 -2l-6 -11q-1 -2 -3 -5t-3.5 -5t-1.5 -3l-3 -6l-2 -3q-1 0 -1 -2q1 0 0.5 -0.5l-1.5 -1.5l-3 -3 q0 -3 -3 -5l-1 -2q2 -2 -7 -12q-1 0 -1.5 -1t0.5 -2q-1 -2 -3 -3q0 -1 -1 -2v0q2 0 -1 -3q-4 -4 -4 -5q0 -2 -2 -4q-3 -2 -3 -3q0 -2 -2 -4t-1 -2q0 -2 -1 -3q-8 -6 -25 -34l-8 -13l-1 -139v-32v-29t-0.5 -26t-0.5 -22.5v-16.5v-11v-4q-1 -2 -34 -2h-47q-16 -2 -31 -2 q-5 0 -21 -1l-32 -2l-12 -1l1 37q0 8 0.5 18.5t1 16t0.5 7.5q1 7 1 79.5t-1 92.5l-1 25l-5 9l-5 10q-1 1 -10 19q-9 17 -10 17v1q0 2 -3.5 8.5t-4.5 7.5t-1 2q0 2 -3 8q-5 10 -7 13l-4 6q-1 1 -5.5 10.5t-4.5 10.5q0 2 -5 9q-1 3 -4 8.5t-4 6.5q-3 6 -6 9l-1 3q0 2 -7 12 q-6 9 -11 19q-4 7 -5 7v2l-1 1l-2 4z" glyph-name="Yacute" horiz-adv-x="354" unicode=""/><glyph d="M51 577q-12 8 -7 13q2 4 7 7q3 5 14 12l4.5 4.5l4.5 4.5l2 1q11 11 23 15q6 0 17 -9l3 -2q1 0 2 -1q0 -2 6 -6l7 -5l1 -1q1 1 6 -4t6 -5q7 -3 8 -6q0 -1 4 -3q5 -3 9.5 -7t3.5 -5h1q1 0 28 -22l5 -5q1 0 2 -1q2 -2 3 -2q1 -3 4 -3t8 -9q2 -2 -14 -17l-4 -4t-3.5 -3 t-3.5 -2l-1 -2q-2 -3 -10 -10l-15 -14l-8 -7q-3 3 -7 6q-22 22 -57 49l-24 21l-16 14q-5 5 -9 8zM21 8q-1 2 -1 4l1 1q1 0 0 1v3l2 12l1 11q0 3 1 6q0 2 1 4v3q1 1 0 1t-1 1.5t0.5 4t1.5 3.5q0 2 -1 2q0 2 1 5q0 1 0.5 3.5t1 6t0.5 6.5l1 11l2 6q0 2 0.5 5t0.5 4q2 6 2 9 q-1 4 1 6q3 1 1 3q-1 0 -1 1t0.5 3.5t1.5 6.5q4 22 4 28v2q1 2 2 5t1 6q2 12 3 15l1 9q1 5 2 10.5t2 8.5q0 2 0.5 5.5t1.5 8t1 7.5t1.5 10.5t1.5 9.5q2 6 2 9q3 12 3 20q0 5 2 5q1 4 1 9q0 1 5 33q2 8 2 12q2 10 3 11v4q0 4 1 4q1 1 1 4q0 4 2.5 13.5t4.5 10.5h18 q44 -2 51 -1h17q14 0 15 1q1 0 2 -1q2 -2 2 0q6 1 16 1h23h8l1 -4q1 -1 3 -13q0 -5 12 -63q12 -53 16 -64q1 -3 1 -6q-1 -1 0 -1q1 1 3 -14q4 -18 4 -19l1 -4v-2q2 -2 1 -3q0 -2 2 -8q0 -3 1.5 -8.5t3 -14t2.5 -14.5q0 -2 1 -6t1.5 -7t0.5 -4q1 -5 7 -33q1 -9 2 -11l1 -2 q0 -2 0.5 -4.5t0.5 -4.5t1 -5q1 -8 2 -10q0 -1 1 -4.5t1.5 -9t1.5 -9.5q1 -6 5 -28q3 -11 3 -15v-4h-9q-9 2 -16 0h-39q-28 0 -31.5 1t-5.5 12q0 9 -2 11q-5 12 -5 26q0 4 -1 5v3q0 2 -1 3l-2 4q2 0 0 4l-1 7q0 2 -2 10q-3 12 -4 19q-1 3 -1.5 6.5t-1.5 6.5l-1 2l-1 2v5 l-1 7q-1 1 -1.5 3t-0.5 3v4q-2 8 -9 8q-21 -3 -22 -4q-2 -2 -11 -133q-2 -14 -3 -14q0 -1 -7 -1h-16h-52h-14q0 -1 -16 -1h-17q-3 0 -3 3z" glyph-name="agrave" unicode=""/><glyph d="M221 674q0 1 2 1t12 -8q2 -1 9.5 -7t10.5 -9q2 -2 5 -4.5t5.5 -4t3.5 -2.5l4 -4l-3 -4q-2 -4 -5 -7l-2 -3q2 0 -1 -3q-9 -9 -14 -19q-1 -1 -3 -3.5t-3 -3.5t-3 -4t-3 -4q-6 -10 -10 -14l-2 -3q-1 -2 -2 -3q-4 -6 -8 -10l-14 -19q-3 -3 -5 -7l-5 -7q-5 -5 -5 -7l-4 -6 q-5 -5 -7 -9q-4 -6 -8 -10l-4 -6l-3 3q-1 0 -3 2t-5 4.5t-5 4.5q-37 31 -37 33q0 1 2 2q0 1 8 11l13 17l7 9l8 11q10 10 10 12q4 4 6 8q4 4 8 10q5 5 9 11q1 1 7.5 8.5t9.5 12.5l17 22q7 7 7 9zM21 8q-1 2 -1 4l1 1q1 0 0 1v3l2 12l1 11q0 3 1 6q0 2 1 4v3q1 1 0 1t-1 1.5 t0.5 4t1.5 3.5q0 2 -1 2q0 2 1 5q0 1 0.5 3.5t1 6t0.5 6.5l1 11l2 6q0 2 0.5 5t0.5 4q2 6 2 9q-1 4 1 6q3 1 1 3q-1 0 -1 1t0.5 3.5t1.5 6.5q4 22 4 28v2q1 2 2 5t1 6q2 12 3 15l1 9q1 5 2 10.5t2 8.5q0 2 0.5 5.5t1.5 8t1 7.5t1.5 10.5t1.5 9.5q2 6 2 9q3 12 3 20q0 5 2 5 q1 4 1 9q0 1 5 33q2 8 2 12q2 10 3 11v4q0 4 1 4q1 1 1 4q0 4 2.5 13.5t4.5 10.5h18q44 -2 51 -1h17q14 0 15 1q1 0 2 -1q2 -2 2 0q6 1 16 1h23h8l1 -4q1 -1 3 -13q0 -5 12 -63q12 -53 16 -64q1 -3 1 -6q-1 -1 0 -1q1 1 3 -14q4 -18 4 -19l1 -4v-2q2 -2 1 -3q0 -2 2 -8 q0 -3 1.5 -8.5t3 -14t2.5 -14.5q0 -2 1 -6t1.5 -7t0.5 -4q1 -5 7 -33q1 -9 2 -11l1 -2q0 -2 0.5 -4.5t0.5 -4.5t1 -5q1 -8 2 -10q0 -1 1 -4.5t1.5 -9t1.5 -9.5q1 -6 5 -28q3 -11 3 -15v-4h-9q-9 2 -16 0h-39q-28 0 -31.5 1t-5.5 12q0 9 -2 11q-5 12 -5 26q0 4 -1 5v3 q0 2 -1 3l-2 4q2 0 0 4l-1 7q0 2 -2 10q-3 12 -4 19q-1 3 -1.5 6.5t-1.5 6.5l-1 2l-1 2v5l-1 7q-1 1 -1.5 3t-0.5 3v4q-2 8 -9 8q-21 -3 -22 -4q-2 -2 -11 -133q-2 -14 -3 -14q0 -1 -7 -1h-16h-52h-14q0 -1 -16 -1h-17q-3 0 -3 3z" glyph-name="aacute" unicode=""/><glyph d="M56 506q-4 1 -3 5q1 1 1 3l1 2q2 0 2 2t1.5 3.5t2.5 0.5t1 0q-1 1 1.5 5t4.5 5l3 5l2 1q1 0 1 1l1 1l1 2q0 1 1 1t1 1l1 2q0 2 2 2l1 1q1 3 3 4l3 4q-1 0 1 2t2 3q0 2 2 2q5 5 11 13l3 5q0 3 2 4l5 5q2 3 4 3h3q0 1 2 1q2 -2 4 0q3 1 3 0q0 2 7 2h8l2 1h5.5h8.5q2 1 6 1 q1 1 5 1q3 -2 5 0q1 1 4.5 1t3.5 -1l23 -33l6 -8l5 -6q1 0 1 -1q0 -2 1 -3l13 -19q1 -1 9 -13q1 -1 2 -4l6 -9l-40 -2q-1 0 -7.5 -0.5t-9.5 -0.5t-8 -0.5t-6 -0.5q-8 0 -8 3q0 2 -2 2l-2 1q1 1 -0.5 2.5t-3.5 1.5q-2 1 -2 2q-1 2 -5.5 5t-5.5 2v1l-5 5q-1 0 -2 -1 q-2 -5 -13 -10l-5 -5l-4 -3q-2 -1 -4 -3q-1 -1 -4.5 -3.5t-4.5 -3.5q-5 -4 -5.5 -4t-1.5 1q0 1 -1 1h-2h-2q-2 1 -5 2t-6 1l-11 4h-4h-3q0 1 -1 1h-1q-2 2 -10 4zM315 25q3 -11 3 -15v-4h-9q-9 2 -16 0h-39q-28 0 -31.5 1t-5.5 12q0 9 -2 11q-5 12 -5 26q0 4 -1 5v3 q0 2 -1 3l-2 4q2 0 0 4l-1 7q0 2 -2 10q-3 12 -4 19q-1 3 -1.5 6.5t-1.5 6.5l-1 2l-1 2v5l-1 7q-1 1 -1.5 3t-0.5 3v4q-2 8 -9 8q-21 -3 -22 -4q-2 -2 -11 -133q-2 -14 -3 -14q0 -1 -7 -1h-16h-52h-14q0 -1 -16 -1h-17q-3 0 -3 3q-1 2 -1 4l1 1q1 0 0 1v3l2 12l1 11q0 3 1 6 q0 2 1 4v3q1 1 0 1t-1 1.5t0.5 4t1.5 3.5q0 2 -1 2q0 2 1 5q0 1 0.5 3.5t1 6t0.5 6.5l1 11l2 6q0 2 0.5 5t0.5 4q2 6 2 9q-1 4 1 6q3 1 1 3q-1 0 -1 1t0.5 3.5t1.5 6.5q4 22 4 28v2q1 2 2 5t1 6q2 12 3 15l1 9q1 5 2 10.5t2 8.5q0 2 0.5 5.5t1.5 8t1 7.5t1.5 10.5t1.5 9.5 q2 6 2 9q3 12 3 20q0 5 2 5q1 4 1 9q0 1 5 33q2 8 2 12q2 10 3 11v4q0 4 1 4q1 1 1 4q0 4 2.5 13.5t4.5 10.5h18q44 -2 51 -1h17q14 0 15 1q1 0 2 -1q2 -2 2 0q6 1 16 1h23h8l1 -4q1 -1 3 -13q0 -5 12 -63q12 -53 16 -64q1 -3 1 -6q-1 -1 0 -1q1 1 3 -14q4 -18 4 -19l1 -4 v-2q2 -2 1 -3q0 -2 2 -8q0 -3 1.5 -8.5t3 -14t2.5 -14.5q0 -2 1 -6t1.5 -7t0.5 -4q1 -5 7 -33q1 -9 2 -11l1 -2q0 -2 0.5 -4.5t0.5 -4.5t1 -5q1 -8 2 -10q0 -1 1 -4.5t1.5 -9t1.5 -9.5q1 -6 5 -28z" glyph-name="acircumflex" unicode=""/><glyph d="M30 518q-1 1 -1 2q-1 1 3 7.5t5 6.5v1q0 2 3 5q1 3 7 11l8 12q4 6 4 7q1 1 3 1q4 0 6 -1q3 -5 25 -12q7 -2 15 -1q9 0 9 2l5 4h2q0 2 5 4t6 5q2 2 4 2l2 1q0 1 1 2q1 0 2 1t4.5 4t7.5 5l3 2l1 1q0 2 2 2l7 2q15 5 26 8q14 2 15 3q12 3 30 -2q7 -2 12 -9l4 -5q3 -1 6 -6 l3 -4q8 -8 8 -12l3 -3l2 -2v-2q2 -1 11 -22q1 -2 4 -13l6 -27q2 -2 0 -2h-10l-24 -3l-34 -2q-3 5 -6 11q-9 14 -17 22q-11 4 -14 4q-9 0 -13 2q-11 1 -46 -23q-32 -22 -56 -22q-7 0 -20 8q-21 15 -25 20zM21 8q-1 2 -1 4l1 1q1 0 0 1v3l2 12l1 11q0 3 1 6q0 2 1 4v3q1 1 0 1 t-1 1.5t0.5 4t1.5 3.5q0 2 -1 2q0 2 1 5q0 1 0.5 3.5t1 6t0.5 6.5l1 11l2 6q0 2 0.5 5t0.5 4q2 6 2 9q-1 4 1 6q3 1 1 3q-1 0 -1 1t0.5 3.5t1.5 6.5q4 22 4 28v2q1 2 2 5t1 6q2 12 3 15l1 9q1 5 2 10.5t2 8.5q0 2 0.5 5.5t1.5 8t1 7.5t1.5 10.5t1.5 9.5q2 6 2 9q3 12 3 20 q0 5 2 5q1 4 1 9q0 1 5 33q2 8 2 12q2 10 3 11v4q0 4 1 4q1 1 1 4q0 4 2.5 13.5t4.5 10.5h18q44 -2 51 -1h17q14 0 15 1q1 0 2 -1q2 -2 2 0q6 1 16 1h23h8l1 -4q1 -1 3 -13q0 -5 12 -63q12 -53 16 -64q1 -3 1 -6q-1 -1 0 -1q1 1 3 -14q4 -18 4 -19l1 -4v-2q2 -2 1 -3 q0 -2 2 -8q0 -3 1.5 -8.5t3 -14t2.5 -14.5q0 -2 1 -6t1.5 -7t0.5 -4q1 -5 7 -33q1 -9 2 -11l1 -2q0 -2 0.5 -4.5t0.5 -4.5t1 -5q1 -8 2 -10q0 -1 1 -4.5t1.5 -9t1.5 -9.5q1 -6 5 -28q3 -11 3 -15v-4h-9q-9 2 -16 0h-39q-28 0 -31.5 1t-5.5 12q0 9 -2 11q-5 12 -5 26 q0 4 -1 5v3q0 2 -1 3l-2 4q2 0 0 4l-1 7q0 2 -2 10q-3 12 -4 19q-1 3 -1.5 6.5t-1.5 6.5l-1 2l-1 2v5l-1 7q-1 1 -1.5 3t-0.5 3v4q-2 8 -9 8q-21 -3 -22 -4q-2 -2 -11 -133q-2 -14 -3 -14q0 -1 -7 -1h-16h-52h-14q0 -1 -16 -1h-17q-3 0 -3 3z" glyph-name="atilde" unicode=""/><glyph d="M139 536v3q0 1 -1 2q1 3 4 7l6 6q5 9 20 16l3 1l13 1h5h6q2 -1 5 -1q2 -1 4 -1q7 -3 13 -12q13 -19 10 -34q-5 -16 -7 -16q-1 0 -2 -2l-3 -3l-2 -1q-1 -1 -2 -1l-1 -1l-2 -2q-2 0 -2 -2q-5 -5 -5 -3h-2h-1h-3q-2 -1 -13 0q-4 0 -4 -1q-2 0 -2 1h-2l-1 -1q-1 1 -6 1 q-3 0 -7 3l-8 5v1q-2 0 -2 2l-2 2l-2 2l-1 2l-1 4q-2 4 -3 9.5t-1 7.5zM60 512q0 2 -2 6q-3 13 -1 19v3l4 8l2 4l3 3l3 3l2 2q5 4 13 4q17 1 25 -7q9 -9 8 -11v-2l1 -3v-2v-2v-1q0 -1 1 -2v-2v-5h-1v-2q-1 0 -1 -2q-2 -2 -5 -8q-2 -2 -2 -3l-1 -1h-1v-2q-2 -1 -3 -3 q-2 -2 -4 -3l-7 -3h-1q-1 -1 -2 -1h-2h-2h-1l-4 1q-3 0 -7 1.5t-5 2.5h-2q-1 1 -2 1l-2 1q0 1 -1 1l-1 1zM315 25q3 -11 3 -15v-4h-9q-9 2 -16 0h-39q-28 0 -31.5 1t-5.5 12q0 9 -2 11q-5 12 -5 26q0 4 -1 5v3q0 2 -1 3l-2 4q2 0 0 4l-1 7q0 2 -2 10q-3 12 -4 19 q-1 3 -1.5 6.5t-1.5 6.5l-1 2l-1 2v5l-1 7q-1 1 -1.5 3t-0.5 3v4q-2 8 -9 8q-21 -3 -22 -4q-2 -2 -11 -133q-2 -14 -3 -14q0 -1 -7 -1h-16h-52h-14q0 -1 -16 -1h-17q-3 0 -3 3q-1 2 -1 4l1 1q1 0 0 1v3l2 12l1 11q0 3 1 6q0 2 1 4v3q1 1 0 1t-1 1.5t0.5 4t1.5 3.5q0 2 -1 2 q0 2 1 5q0 1 0.5 3.5t1 6t0.5 6.5l1 11l2 6q0 2 0.5 5t0.5 4q2 6 2 9q-1 4 1 6q3 1 1 3q-1 0 -1 1t0.5 3.5t1.5 6.5q4 22 4 28v2q1 2 2 5t1 6q2 12 3 15l1 9q1 5 2 10.5t2 8.5q0 2 0.5 5.5t1.5 8t1 7.5t1.5 10.5t1.5 9.5q2 6 2 9q3 12 3 20q0 5 2 5q1 4 1 9q0 1 5 33 q2 8 2 12q2 10 3 11v4q0 4 1 4q1 1 1 4q0 4 2.5 13.5t4.5 10.5h18q44 -2 51 -1h17q14 0 15 1q1 0 2 -1q2 -2 2 0q6 1 16 1h23h8l1 -4q1 -1 3 -13q0 -5 12 -63q12 -53 16 -64q1 -3 1 -6q-1 -1 0 -1q1 1 3 -14q4 -18 4 -19l1 -4v-2q2 -2 1 -3q0 -2 2 -8q0 -3 1.5 -8.5t3 -14 t2.5 -14.5q0 -2 1 -6t1.5 -7t0.5 -4q1 -5 7 -33q1 -9 2 -11l1 -2q0 -2 0.5 -4.5t0.5 -4.5t1 -5q1 -8 2 -10q0 -1 1 -4.5t1.5 -9t1.5 -9.5q1 -6 5 -28z" glyph-name="adieresis" unicode=""/><glyph d="M86 535q0 6 -1 9q-2 2 -2 8q1 1 3 12q0 12 9 20l4 3q0 2 3.5 5t5.5 3t5 3q2 4 8 4l6 2q1 1 3 1t4 2q1 1 3 1h3q2 1 8.5 1t13.5 -0.5t7 -1.5q0 -3 2 -1q1 0 3 -2l3 -3l3 -1q-2 -2 1 -2l2 -1q0 -3 2 -1q3 0 4 -3q1 0 3 -2t3 -2q4 -4 4 -6q1 -5 4 -5q4 0 4 -2l3 -2 q2 -2 1 -2q0 -2 1 -2t1 -7l1 -6v-7q0 -1 0.5 -6t0.5 -7q2 -8 -1 -12q-1 -2 -1 -6q3 -5 -10 -30q-1 -1 -3 -4t-3 -4q-3 -3 -3 -5q-1 -2 -5 -4l-5 -5q0 -3 -3 -3q-4 0 -4 -1q-2 -1 -7.5 -1t-7.5 2q-1 0 -2 -1q-3 -2 -7 1q-2 1 -7 1t-5 1q-4 1 -8 1q-12 4 -19 12l-6 4 q-8 8 -12 13q-4 6 -3 7v1q-1 -1 -1 2q1 2 -1 12t-4 12q-1 0 -1 5zM122 542v-3l1 -3q0 -2 1 -2q1 -1 1.5 -5t-0.5 -5q0 -1 1 -1q0 -2 2 -3q2 -6 5 -6l1 -1q4 -4 9 -4l2 -1q1 0 1 -1h1q3 0 4 -1h2h2h6l1 1q2 0 2 1t2 2l2 2q0 1 1 2l3 3q0 1 1 3.5t1 5.5l1 3q1 2 1 3q2 2 0 4v6 v3v3l-1 2v1q0 1 -1 1l-1 1h-1q-2 0 -3 3q0 2 -1 2l-2 2l-2 1l-1 1h-2v1q-1 1 -2 1l-1 1q0 1 -5.5 1.5t-6.5 -0.5h-2l-1 -1q-1 -1 -2 -1h-1h-2q-2 0 -4 -2q-1 -1 -2 -1q-4 0 -4 -3q0 -2 -1 -2q-4 -4 -4 -8q-1 -2 -1 -6zM315 25q3 -11 3 -15v-4h-9q-9 2 -16 0h-39 q-28 0 -31.5 1t-5.5 12q0 9 -2 11q-5 12 -5 26q0 4 -1 5v3q0 2 -1 3l-2 4q2 0 0 4l-1 7q0 2 -2 10q-3 12 -4 19q-1 3 -1.5 6.5t-1.5 6.5l-1 2l-1 2v5l-1 7q-1 1 -1.5 3t-0.5 3v4q-2 8 -9 8q-21 -3 -22 -4q-2 -2 -11 -133q-2 -14 -3 -14q0 -1 -7 -1h-16h-52h-14q0 -1 -16 -1 h-17q-3 0 -3 3q-1 2 -1 4l1 1q1 0 0 1v3l2 12l1 11q0 3 1 6q0 2 1 4v3q1 1 0 1t-1 1.5t0.5 4t1.5 3.5q0 2 -1 2q0 2 1 5q0 1 0.5 3.5t1 6t0.5 6.5l1 11l2 6q0 2 0.5 5t0.5 4q2 6 2 9q-1 4 1 6q3 1 1 3q-1 0 -1 1t0.5 3.5t1.5 6.5q4 22 4 28v2q1 2 2 5t1 6q2 12 3 15l1 9 q1 5 2 10.5t2 8.5q0 2 0.5 5.5t1.5 8t1 7.5t1.5 10.5t1.5 9.5q2 6 2 9q3 12 3 20q0 5 2 5q1 4 1 9q0 1 5 33q2 8 2 12q2 10 3 11v4q0 4 1 4q1 1 1 4q0 4 2.5 13.5t4.5 10.5h18q44 -2 51 -1h17q14 0 15 1q1 0 2 -1q2 -2 2 0q6 1 16 1h23h8l1 -4q1 -1 3 -13q0 -5 12 -63 q12 -53 16 -64q1 -3 1 -6q-1 -1 0 -1q1 1 3 -14q4 -18 4 -19l1 -4v-2q2 -2 1 -3q0 -2 2 -8q0 -3 1.5 -8.5t3 -14t2.5 -14.5q0 -2 1 -6t1.5 -7t0.5 -4q1 -5 7 -33q1 -9 2 -11l1 -2q0 -2 0.5 -4.5t0.5 -4.5t1 -5q1 -8 2 -10q0 -1 1 -4.5t1.5 -9t1.5 -9.5q1 -6 5 -28z" glyph-name="aring" unicode=""/><glyph d="M409 343l-56 -7l-6 -1l1 -5q0 -1 0.5 -7.5t0.5 -10.5q2 -14 2 -18q0 -1 0.5 -5.5t0.5 -7.5q0 -8 2 -10v-2l-1 -1l1 -2v-5.5v-6.5q1 -7 1 -16q1 -3 7 -3q7 -2 24 0q9 1 43 1l26 1q2 2 2 0q1 -1 4 -1h3q4 1 10.5 1.5t10.5 0.5q48 2 54 3q2 0 2 -1h2q2 1 19.5 1.5t19.5 -0.5 q0 -1 8 -2h3v-40h-40h-13t-11.5 -0.5t-8.5 -0.5h-6h-3q-33 -1 -73 -1q-79 -1 -80 -2q-1 0 -1 -10q-1 -3 -1 -9.5t-1 -8.5l-1 -10q0 -8 -2 -50l-1 -17h6q75 0 84 -3h5l2 1h6.5h7.5q40 1 45 2q6 1 12 1q9 0 17 1q9 1 23 1q8 1 15.5 1.5t11 1t5.5 0.5q11 2 13 -1q2 -2 3 -23 q5 -71 5 -77t0.5 -18t0.5 -16q1 -20 -3 -20h-9q-2 0 -6 -0.5t-10 -1t-10 -0.5q-29 0 -79 -3q-12 0 -26.5 -1t-20.5 -1q-34 -2 -40 -3q-57 -4 -143 0q-3 1 -11 1q-11 0 -11 5q0 3 1 3q2 0 0 2q-2 10 -3 64q-18 0 -20.5 1.5t-4.5 11.5q0 9 -2 11q-5 12 -5 26q0 4 -1 5v3 q0 2 -1 3l-2 4q2 0 0 4l-1 7q0 2 -2 10q-3 12 -4 19q-1 3 -1.5 6.5t-1.5 6.5l-1 2l-1 2v5l-1 7q-1 1 -1.5 3t-0.5 3v4q-2 8 -9 8q-21 -3 -22 -4q-2 -2 -11 -133q-2 -14 -3 -14q0 -1 -7 -1h-16h-52h-14q0 -1 -16 -1h-17q-3 0 -3 3q-1 2 -1 4l1 1q1 0 0 1v3l2 12l1 11q0 3 1 6 q0 2 1 4v3q1 1 0 1t-1 1.5t0.5 4t1.5 3.5q0 2 -1 2q0 2 1 5q0 1 0.5 3.5t1 6t0.5 6.5l1 11l2 6q0 2 0.5 5t0.5 4q2 6 2 9q-1 4 1 6q3 1 1 3q-1 0 -1 1t0.5 3.5t1.5 6.5q4 22 4 28v2q1 2 2 5t1 6q2 12 3 15l1 9q1 5 2 10.5t2 8.5q0 2 0.5 5.5t1.5 8t1 7.5t1.5 10.5t1.5 9.5 q2 6 2 9q3 12 3 20q0 5 2 5q1 4 1 9q0 1 5 33q2 8 2 12q2 10 3 11v4q0 4 1 4q1 1 1 4q0 4 2.5 13.5t4.5 10.5h18q44 -2 51 -1h17q14 0 15 1q1 0 2 -1q2 -2 2 0q6 1 16 1h23h6l-1 34q0 37 1 37q2 2 76 3h43q18 1 40 1q47 0 55 1h17h35q19 -1 75 -1l42 -2q2 -1 2 -18 q0 -10 2 -12q2 0 0 -2q-1 -2 0 -31q1 -16 1 -54v-7l-59 1q-66 0 -99 -3q-32 -4 -57 -5z" glyph-name="ae" horiz-adv-x="654" unicode=""/><glyph d="M444 462l26 -1v-18q0 -4 -0.5 -10t-1 -10t-0.5 -6q0 -12 -1 -18l-1 -18q0 -4 -2 -34l-1 -13q-1 -2 0 -3q0 -6 -1 -11t-1 -12q0 -3 -10 -4q-2 0 -12 -0.5t-16 -0.5l-50 -3q-4 0 -40 -2l-38 -2q-3 -1 -31 -3q-40 -2 -56 -13q-15 -10 -18 -13.5t-11 -20.5q-5 -9 -9 -21 l-2.5 -5l-2.5 -5l-2 -4l-1 -2q-1 -2 -1 -5v-1q-2 0 -2 -2.5t1 -3.5q0 -1 3 -1q2 1 2 -1q0 -3 -1 -4q-3 -3 -1 -10q0 -2 2 -2q4 0 1 -4q-2 -1 0 -8q3 -6 6 -7q5 0 1 -4q-2 -2 1 -2q2 0 2 -2q0 -3 4 -3q3 0 3 -2q-1 -3 3 -3t4 -1q0 -3 2 -1q3 0 3 -2l3 -3q2 0 3 -1q2 -1 4 -1 q3 0 3 -2t2 -2q4 0 7 -1q9 0 9 -3q0 -2 2 -2q1 0 5 -2q6 -3 8 -3l8 -3q4 -2 5 -2h1q0 -1 7 -1q2 0 6.5 -0.5t6.5 -0.5q1 0 6 -0.5t7 -0.5q36 -2 48 -2q3 0 8 -0.5t6 -0.5h8l4 1q2 -2 5 -2q6 0 9 -1q6 -2 8 -1l8 -2q3 -1 13 -1q7 0 8 -1h2q2 -1 3 -1l3 -1q2 -1 5 -1 q16 0 16 -2l1 -1q2 1 4 0t1 -3v-3q0 -4 -0.5 -9.5t-0.5 -10.5q0 -20 -2 -34l-1 -14v-17q0 -4 -0.5 -14.5t-1.5 -14.5q0 -26 -2 -26q-9 -1 -21 -1q-11 -1 -31 -1q-2 0 -8 -0.5t-15.5 -1t-15.5 -0.5h-7q0 -10 1 -11v-7q1 -3 1 -11q1 -4 1 -8q0 -2 12 -6l8 -3q0 -1 2 -1 t10 -11.5t8 -13.5l1 -1v-2q3 -3 0.5 -21t-7.5 -27q-8 -14 -16 -20q-7 -5 -30 -15l-19 -9l-4 -1q-1 1 -2 15v14l5 3l8 4q6 3 12 16q3 8 -1 18q-2 5 -13 10q-9 2 -11 4q-1 2 -3 23q0 9 -1 13q0 10 -1 15q0 6 -2 26v6h-20l-25 -1l-23 6q-26 6 -28 6q-39 9 -41 11l-6 3l-6 3 l-2 1q-1 1 -3 2t-3 2q-39 24 -75 61q-32 33 -33 46l-2 54v13l-1 7l-1 4v10v11l-2 24q-1 1 0.5 19.5t2.5 26.5l1 6v9q0 10 1 10v4q3 27 3 28v7q0 2 2 4q2 4 1 8l1 1q1 -1 5 5q1 1 1 2l1 1q1 0 1 2v2q2 0 2 2q0 3 2 3q3 3 3 6q0 4 2 4l1 2l3 3q3 5 4 5q1 1 1 2q0 2 1 2 q1 1 1 3l1 1l2 4t2 3q4 6 3 7q-4 4 2 4q2 0 5 3q2 2 4 2l5 3l4 3q0 -1 3.5 1t9.5 5q14 7 16 7t2 1l3 2q2 2 2 3t2 1t2 2t4 2q8 -2 8 2q0 1 -1 1q-2 0 -2 2q0 3 -1 5t1 2t6 -3q3 -2 8 -2q1 0 2 1q2 0 2 1t2 1t7.5 2.5t5.5 3.5t2 1h2q2 1 3 1q10 5 18 5h3l2 1q0 2 5 2 q15 0 17 2q0 1 7 1q13 0 19 2q5 2 5 1t3 -1q1 1 17 1h15l2 -3q3 -3 4 -2q2 2 2 3q0 2 1 2q11 3 137 1z" glyph-name="ccedilla" horiz-adv-x="500" unicode=""/><glyph d="M122 649q-12 8 -7 13q2 4 7 7q3 5 14 12l4.5 4.5l4.5 4.5l2 1q11 11 23 15q6 0 17 -9l3 -2q1 0 2 -1q0 -2 6 -6l7 -5l1 -1q1 1 6 -4t6 -5q7 -3 8 -6q0 -1 4 -3q5 -3 9.5 -7t3.5 -5h1l28 -22l5 -5q1 0 2 -1q2 -2 3 -2q2 -3 4 -3q4 0 8 -9q2 -2 -14 -17l-4 -4t-3.5 -3 t-2.5 -2l-2 -2q-2 -3 -10 -10l-15 -14l-8 -7q-3 3 -7 6q-22 22 -57 49l-24 21l-16 14q-5 5 -9 8zM30 435q0 37 1 37q2 2 76 3h43q18 1 40 1q47 0 55 1h17h35q19 -1 75 -1l42 -2q2 -1 2 -18q0 -10 2 -12q2 0 0 -2q-1 -2 0 -31q1 -16 1 -54v-7l-59 1q-66 0 -99 -3 q-32 -4 -57 -5l-56 -7l-6 -1l1 -5q0 -1 0.5 -7.5t0.5 -10.5q2 -14 2 -18q0 -1 0.5 -5.5t0.5 -7.5q0 -8 2 -10v-2l-1 -1v-2q0 -2 0.5 -5.5t0.5 -6.5q1 -7 1 -16q2 -3 7 -3q7 -2 24 0q9 1 43 1l26 1q2 2 2 0q1 -1 4 -1l24 2q48 2 54 3q2 0 2 -1h2q2 1 19.5 1.5t19.5 -0.5 q1 -1 8 -2h3v-40h-40h-13t-11.5 -0.5t-8.5 -0.5h-7h-2q-33 -1 -73 -1q-79 -1 -80 -2q-1 0 -1 -10q0 -3 -1 -9t-1 -9l-1 -10q0 -8 -2 -50l-1 -17h6q75 0 84 -3h5l3 1h5.5h7.5q40 1 45 2q6 1 12 1q9 0 17 1q9 1 23 1q8 1 15.5 1.5t11 1t5.5 0.5q10 2 13 -1q2 -2 3 -23 q5 -71 5 -77t0.5 -18t0.5 -16q1 -20 -3 -20h-9q-2 0 -6 -0.5t-10 -1t-10 -0.5q-30 0 -79 -3q-12 0 -26.5 -1t-20.5 -1q-34 -2 -40 -3q-57 -4 -143 0q-3 1 -11 1q-11 0 -11 5q0 3 1 3q2 0 0 2q-2 10 -3 72q0 10 -0.5 30t-0.5 25q0 3 -0.5 29t-0.5 42q-1 28 -1 67 q-2 36 -3 139z" glyph-name="egrave" horiz-adv-x="449" unicode=""/><glyph d="M284 705q0 1 2 1t12 -8q2 -1 9.5 -7t10.5 -9q2 -2 5 -4.5t5.5 -4t3.5 -2.5l4 -4l-3 -4q-2 -4 -5 -7l-2 -3q2 0 -1 -3q-9 -9 -14 -19q-1 -1 -3 -3.5t-3 -3.5t-3 -4t-3 -4q-6 -10 -10 -14l-1 -2q-2 -3 -3 -4q-4 -6 -8 -10l-14 -19q-3 -3 -5 -7l-5 -7q-5 -5 -5 -7l-4 -6 q-5 -5 -7 -9q-4 -6 -8 -10l-4 -6l-3 3q-1 0 -3 2t-5 4.5t-5 4.5q-37 31 -37 33q0 1 2 2q0 1 8 11l13 17l7 9l8 11q10 10 10 12q4 4 6 8q4 4 8 10q5 5 9 11q1 1 7.5 8.5t9.5 12.5l17 22q7 7 7 9zM30 435q0 37 1 37q2 2 76 3h43q18 1 40 1q47 0 55 1h17h35q19 -1 75 -1l42 -2 q2 -1 2 -18q0 -10 2 -12q2 0 0 -2q-1 -2 0 -31q1 -16 1 -54v-7l-59 1q-66 0 -99 -3q-32 -4 -57 -5l-56 -7l-6 -1l1 -5q0 -1 0.5 -7.5t0.5 -10.5q2 -14 2 -18q0 -1 0.5 -5.5t0.5 -7.5q0 -8 2 -10v-2l-1 -1v-2q0 -2 0.5 -5.5t0.5 -6.5q1 -7 1 -16q2 -3 7 -3q7 -2 24 0 q9 1 43 1l26 1q2 2 2 0q1 -1 4 -1l24 2q48 2 54 3q2 0 2 -1h2q2 1 19.5 1.5t19.5 -0.5q1 -1 8 -2h3v-40h-40h-13t-11.5 -0.5t-8.5 -0.5h-7h-2q-33 -1 -73 -1q-79 -1 -80 -2q-1 0 -1 -10q0 -3 -1 -9t-1 -9l-1 -10q0 -8 -2 -50l-1 -17h6q75 0 84 -3h5l3 1h5.5h7.5q40 1 45 2 q6 1 12 1q9 0 17 1q9 1 23 1q8 1 15.5 1.5t11 1t5.5 0.5q10 2 13 -1q2 -2 3 -23q5 -71 5 -77t0.5 -18t0.5 -16q1 -20 -3 -20h-9q-2 0 -6 -0.5t-10 -1t-10 -0.5q-30 0 -79 -3q-12 0 -26.5 -1t-20.5 -1q-34 -2 -40 -3q-57 -4 -143 0q-3 1 -11 1q-11 0 -11 5q0 3 1 3q2 0 0 2 q-2 10 -3 72q0 10 -0.5 30t-0.5 25q0 3 -0.5 29t-0.5 42q-1 28 -1 67q-2 36 -3 139z" glyph-name="eacute" horiz-adv-x="449" unicode=""/><glyph d="M120 566q-4 1 -3 5q1 1 1 3l1 2q2 0 2 2t1.5 3.5t2.5 0.5t1 0q-1 1 1.5 5t4.5 5l3 5l2 1q1 0 1 1l1 1l1 2q0 1 1 1t1 1l1 2q0 2 2 2l1 1q1 3 3 4l3 4q-1 0 1 2t2 3q0 2 2 2q5 5 11 13l3 5q0 3 2 4l5 5q2 3 4 3h3q0 1 2 1q2 -2 4 0q3 1 3 0q0 2 7 2h8l2 1h5.5h8.5q2 1 6 1 q1 1 5 1q3 -2 5 0q1 1 4.5 1t3.5 -1l23 -33l6 -8l5 -6q1 0 1 -1q0 -2 1 -3l13 -19q1 -1 9 -13q1 -1 2 -4l6 -9l-40 -2q-1 0 -7.5 -0.5t-9.5 -0.5q-4 0 -9 -1h-5q-8 0 -8 3q0 2 -2 2l-2 1q1 1 -0.5 2.5t-3.5 1.5q-2 1 -2 2q-1 2 -5.5 5t-5.5 2v1l-5 5q-1 0 -2 -1 q-2 -5 -13 -10l-5 -5l-4 -3q-2 -1 -4 -3q-1 -1 -4.5 -3.5t-4.5 -3.5q-5 -4 -5.5 -4t-1.5 1q0 1 -1 1h-2h-2q-2 1 -5 2t-6 1l-11 4h-4h-3q0 1 -1 1h-1q-2 2 -10 4zM204 343l-56 -7l-6 -1l1 -5q0 -1 0.5 -7.5t0.5 -10.5q2 -14 2 -18q0 -1 0.5 -5.5t0.5 -7.5q0 -8 2 -10v-2 l-1 -1v-2q0 -2 0.5 -5.5t0.5 -6.5q1 -7 1 -16q2 -3 7 -3q7 -2 24 0q9 1 43 1l26 1q2 2 2 0q1 -1 4 -1l24 2q48 2 54 3q2 0 2 -1h2q2 1 19.5 1.5t19.5 -0.5q1 -1 8 -2h3v-40h-40h-13t-11.5 -0.5t-8.5 -0.5h-7h-2q-33 -1 -73 -1q-79 -1 -80 -2q-1 0 -1 -10q0 -3 -1 -9t-1 -9 l-1 -10q0 -8 -2 -50l-1 -17h6q75 0 84 -3h5l3 1h5.5h7.5q40 1 45 2q6 1 12 1q9 0 17 1q9 1 23 1q8 1 15.5 1.5t11 1t5.5 0.5q10 2 13 -1q2 -2 3 -23q5 -71 5 -77t0.5 -18t0.5 -16q1 -20 -3 -20h-9q-2 0 -6 -0.5t-10 -1t-10 -0.5q-30 0 -79 -3q-12 0 -26.5 -1t-20.5 -1 q-34 -2 -40 -3q-57 -4 -143 0q-3 1 -11 1q-11 0 -11 5q0 3 1 3q2 0 0 2q-2 10 -3 72q0 10 -0.5 30t-0.5 25q0 3 -0.5 29t-0.5 42q-1 28 -1 67q-2 36 -3 139l-1 89q0 37 1 37q2 2 76 3h43q18 1 40 1q47 0 55 1h17h35q19 -1 75 -1l42 -2q2 -1 2 -18q0 -10 2 -12q2 0 0 -2 q-1 -2 0 -31q1 -16 1 -54v-7l-59 1q-66 0 -99 -3q-32 -4 -57 -5z" glyph-name="ecircumflex" horiz-adv-x="449" unicode=""/><glyph d="M211 594v3q0 1 -1 2q1 3 4 7l2 1q1 1 2 2.5t2 2.5q5 9 20 16l3 1l13 1h5h6q2 -1 5 -1q2 -1 4 -1q7 -3 13 -12q13 -19 10 -34q-5 -16 -7 -16q-1 0 -2 -2l-3 -3l-2 -1q-1 -1 -2 -1l-1 -1l-2 -2q-2 0 -2 -2q-5 -5 -5 -3h-2h-1h-3q-2 -1 -13 0q-4 0 -4 -1q-2 0 -2 1h-2l-1 -1 q-1 1 -6 1q-3 0 -7 3l-8 5v1q-2 0 -2 2l-2 2l-2 2l-1 2l-1 4q-2 4 -3 9.5t-1 7.5zM132 570q0 2 -2 6q-3 13 -1 19v3l4 8l2 4l3 3l3 3l2 2q5 4 13 4q17 1 25 -7q9 -9 8 -11v-2l1 -3v-2v-2v-1q0 -1 1 -2v-2v-5h-1v-2q-1 0 -1 -2q-2 -2 -5 -8q-2 -2 -2 -3l-1 -1h-1v-2 q-2 -1 -3 -3q-2 -2 -4 -3l-7 -3h-1q-1 -1 -2 -1h-2h-2h-1l-4 1q-3 0 -7 1.5t-5 2.5h-2q-1 1 -2 1l-2 1q0 1 -1 1l-1 1zM204 343l-56 -7l-6 -1l1 -5q0 -1 0.5 -7.5t0.5 -10.5q2 -14 2 -18q0 -1 0.5 -5.5t0.5 -7.5q0 -8 2 -10v-2l-1 -1v-2q0 -2 0.5 -5.5t0.5 -6.5q1 -7 1 -16 q2 -3 7 -3q7 -2 24 0q9 1 43 1l26 1q2 2 2 0q1 -1 4 -1l24 2q48 2 54 3q2 0 2 -1h2q2 1 19.5 1.5t19.5 -0.5q1 -1 8 -2h3v-40h-40h-13t-11.5 -0.5t-8.5 -0.5h-7h-2q-33 -1 -73 -1q-79 -1 -80 -2q-1 0 -1 -10q0 -3 -1 -9t-1 -9l-1 -10q0 -8 -2 -50l-1 -17h6q75 0 84 -3h5l3 1 h5.5h7.5q40 1 45 2q6 1 12 1q9 0 17 1q9 1 23 1q8 1 15.5 1.5t11 1t5.5 0.5q10 2 13 -1q2 -2 3 -23q5 -71 5 -77t0.5 -18t0.5 -16q1 -20 -3 -20h-9q-2 0 -6 -0.5t-10 -1t-10 -0.5q-30 0 -79 -3q-12 0 -26.5 -1t-20.5 -1q-34 -2 -40 -3q-57 -4 -143 0q-3 1 -11 1q-11 0 -11 5 q0 3 1 3q2 0 0 2q-2 10 -3 72q0 10 -0.5 30t-0.5 25q0 3 -0.5 29t-0.5 42q-1 28 -1 67q-2 36 -3 139l-1 89q0 37 1 37q2 2 76 3h43q18 1 40 1q47 0 55 1h17h35q19 -1 75 -1l42 -2q2 -1 2 -18q0 -10 2 -12q2 0 0 -2q-1 -2 0 -31q1 -16 1 -54v-7l-59 1q-66 0 -99 -3 q-32 -4 -57 -5z" glyph-name="edieresis" horiz-adv-x="449" unicode=""/><glyph d="M98 617q-12 8 -7 13q2 4 7 7q3 5 14 12l4.5 4.5l4.5 4.5l2 1q11 11 23 15q6 0 17 -9l3 -2q1 0 2 -1q0 -2 6 -6l7 -5l1 -1q1 1 6 -4t6 -5q7 -3 8 -6q0 -1 4 -3q5 -3 9.5 -7t3.5 -5h1q1 0 28 -22l5 -5q1 0 2 -1q2 -2 3 -2q2 -3 4 -3q4 0 8 -9q2 -2 -14 -17l-4 -4t-3.5 -3 t-2.5 -2l-2 -2q-2 -3 -10 -10l-15 -14l-8 -7q-3 3 -7 6q-22 22 -57 49q-2 2 -6 5.5t-9.5 8.5t-8.5 7l-16 14q-5 5 -9 8zM10 353v16q0 4 0.5 20t0.5 24q1 42 3 43q1 1 14 1t14 -1h2q0 2 7 0q6 -2 6 0t3 2l1 -1q0 -1 18 -1l44 -2h2l2 1q0 -1 3 -1q2 1 4 1l22 -2h25h6q1 1 2 1 t1 -1l2 -1h4.5h5.5q4 0 10.5 -0.5t17.5 -1t22 -0.5q32 -1 33 0h1q1 0 53 -3q2 0 2 -1q1 -2 1 -54t-2 -54h-11q-2 0 -13.5 0.5t-17.5 0.5l-47 1l-26 1v-6q1 -7 2 -7q1 -1 0 -3q-1 -1 -1 -28v-14.5t0.5 -12.5t0.5 -6l2 -60v-117l1 -34q0 -7 0.5 -16.5t1 -14.5t0.5 -6 q0 -2 13 -2q2 0 5 -1q3 0 4 -1q7 0 13 -1q12 0 14 -1q1 0 5.5 -0.5t7.5 -0.5q11 -1 17 -1q3 -1 -1 -27q-1 -2 -1.5 -8t-0.5 -8q-1 -14 -3 -14l-2 -1q0 -2 -29 0q-1 0 -12 0.5t-19 0.5q-12 1 -24 1l-22 2h-10h-9l-3 1q-1 1 -1 0q-2 -1 -7 0q-1 0 -9.5 0.5t-13.5 0.5 t-14.5 0.5t-11.5 0.5q-1 0 -10.5 0.5t-15.5 0.5l-19 1q0 24 1 43v16v5h11l16 -2l67 -2h9h8v93q0 141 2 145q1 1 1 32t-1 48v12l-10 1q-3 0 -12.5 0.5t-14.5 0.5q-4 0 -13 0.5t-12 1.5q-10 1 -53 1t-51 -1h-11z" glyph-name="igrave" horiz-adv-x="362" unicode=""/><glyph d="M247 691q0 1 2 1t12 -8q2 -1 9.5 -7t10.5 -9q2 -2 5 -4.5t5.5 -4t3.5 -2.5l4 -4l-3 -4q-2 -4 -5 -7l-2 -3q2 0 -1 -3q-9 -9 -14 -19q-1 -1 -3 -3.5t-3 -3.5t-3 -4t-3 -4q-6 -10 -10 -14l-2 -2q-1 -3 -2 -4q-4 -6 -8 -10l-14 -19q-3 -3 -5 -7l-5 -7q-5 -5 -5 -7l-4 -6 q-5 -5 -7 -9q-4 -6 -8 -10l-4 -6l-3 3q-1 0 -3 2t-5 4.5t-5 4.5q-37 31 -37 33q0 1 2 2q0 1 8 11l13 17l7 9l8 11q10 10 10 12q4 4 6 8q4 4 8 10q5 5 9 11q1 2 7.5 9.5t9.5 11.5l17 22q7 7 7 9zM10 353v16q0 4 0.5 20t0.5 24q1 42 3 43q1 1 14 1t14 -1h2q0 2 7 0q6 -2 6 0 t3 2l1 -1q0 -1 18 -1l44 -2h2l2 1q0 -1 3 -1q2 1 4 1l22 -2h25h6q1 1 2 1t1 -1l2 -1h4.5h5.5q4 0 10.5 -0.5t17.5 -1t22 -0.5q32 -1 33 0h1q1 0 53 -3q2 0 2 -1q1 -2 1 -54t-2 -54h-11q-2 0 -13.5 0.5t-17.5 0.5l-47 1l-26 1v-6q1 -7 2 -7q1 -1 0 -3q-1 -1 -1 -28v-14.5 t0.5 -12.5t0.5 -6l2 -60v-117l1 -34q0 -7 0.5 -16.5t1 -14.5t0.5 -6q0 -2 13 -2q2 0 5 -1q3 0 4 -1q7 0 13 -1q12 0 14 -1q1 0 5.5 -0.5t7.5 -0.5q11 -1 17 -1q3 -1 -1 -27q-1 -2 -1.5 -8t-0.5 -8q-1 -14 -3 -14l-2 -1q0 -2 -29 0q-1 0 -12 0.5t-19 0.5q-12 1 -24 1l-22 2 h-10h-9l-3 1q-1 1 -1 0q-2 -1 -7 0q-1 0 -9.5 0.5t-13.5 0.5t-14.5 0.5t-11.5 0.5q-1 0 -10.5 0.5t-15.5 0.5l-19 1q0 24 1 43v16v5h11l16 -2l67 -2h9h8v93q0 141 2 145q1 1 1 32t-1 48v12l-10 1q-3 0 -12.5 0.5t-14.5 0.5q-4 0 -13 0.5t-12 1.5q-10 1 -53 1t-51 -1h-11z " glyph-name="iacute" horiz-adv-x="362" unicode=""/><glyph d="M116 538q-4 1 -3 5q1 1 1 3l1 2q2 0 2 2t1.5 3.5t2.5 0.5t1 0q-1 1 1.5 5t4.5 5l3 5l2 1q1 0 1 1l1 1l1 2q0 1 1 1t1 1l1 2q0 2 2 2l1 1q1 3 3 4l3 4v1l1 1q2 2 2 3q0 2 2 2q5 5 11 13l3 5q0 3 2 4l5 5q2 3 4 3h3q0 1 2 1q2 -2 4 0q3 1 3 0q0 2 7 2h8l2 1h5.5h8.5 q2 1 6 1q1 1 5 1q3 -2 5 0q1 1 4.5 1t3.5 -1l23 -33l6 -8l5 -6q1 0 1 -1q0 -2 1 -3l13 -19q1 -1 9 -13q1 -1 2 -4l6 -9l-40 -2q-1 0 -7.5 -0.5t-9.5 -0.5t-8 -0.5t-6 -0.5q-8 0 -8 3q0 2 -2 2l-2 1q1 1 -0.5 2.5t-3.5 1.5q-2 1 -2 2q-1 2 -5.5 5t-5.5 2v1l-5 5q-1 0 -2 -1 q-2 -5 -13 -10l-5 -5l-4 -3q-2 -1 -4 -3q-1 -1 -4.5 -3.5t-4.5 -3.5q-5 -4 -5.5 -4t-1.5 1q0 1 -1 1h-2h-2q-2 1 -5 2t-6 1l-11 4h-4h-3q0 1 -1 1h-1q-2 2 -10 4zM341 446q1 -2 1 -54t-2 -54h-11q-2 0 -13.5 0.5t-17.5 0.5l-47 1l-26 1v-6q1 -7 2 -7q1 -1 0 -3q-1 -1 -1 -28 v-14.5t0.5 -12.5t0.5 -6l2 -60v-117l1 -34q0 -7 0.5 -16.5t1 -14.5t0.5 -6q0 -2 13 -2q2 0 5 -1q3 0 4 -1q7 0 13 -1q12 0 14 -1q1 0 5.5 -0.5t7.5 -0.5q11 -1 17 -1q3 -1 -1 -27q-1 -2 -1.5 -8t-0.5 -8q-1 -14 -3 -14l-2 -1q0 -2 -29 0q-1 0 -12 0.5t-19 0.5q-12 1 -24 1 l-22 2h-10h-9l-3 1q-1 1 -1 0q-2 -1 -7 0q-1 0 -9.5 0.5t-13.5 0.5t-14.5 0.5t-11.5 0.5q-1 0 -10.5 0.5t-15.5 0.5l-19 1q0 24 1 43v16v5h11l16 -2l67 -2h9h8v93q0 141 2 145q1 1 1 32t-1 48v12l-10 1q-3 0 -12.5 0.5t-14.5 0.5q-4 0 -13 0.5t-12 1.5q-10 1 -53 1t-51 -1 h-11v16q0 4 0.5 20t0.5 24q1 42 3 43q1 1 14 1t14 -1h2q0 2 7 0q6 -2 6 0t3 2l1 -1q0 -1 18 -1l44 -2h2l2 1q0 -1 3 -1q2 1 4 1l22 -2h25h6q1 1 2 1t1 -1l2 -1h4.5h5.5q4 0 10.5 -0.5t17.5 -1t22 -0.5q32 -1 33 0h1q1 0 53 -3q2 0 2 -1z" glyph-name="icircumflex" horiz-adv-x="362" unicode=""/><glyph d="M203 568v3q0 1 -1 2q1 3 4 7l6 6q5 9 20 16l3 1l13 1h5h6q2 -1 5 -1q2 -1 4 -1q7 -3 13 -12q13 -19 10 -34q-5 -16 -7 -16q-1 0 -2 -2l-3 -3l-2 -1q-1 -1 -2 -1l-1 -1l-2 -2q-2 0 -2 -2q-5 -5 -5 -3h-2h-1h-3q-2 -1 -13 0q-4 0 -4 -1q-2 0 -2 1h-2l-1 -1q-1 1 -6 1 q-2 0 -7 3l-8 5v1q-2 0 -2 2l-2 2l-2 2l-1 2l-1 4q-2 4 -3 9.5t-1 7.5zM124 544q0 2 -2 6q-3 13 -1 19v3l4 8l2 4l3 3l3 3l2 2q5 4 13 4q17 1 25 -7q9 -9 8 -11v-2l1 -3v-2v-2v-1q0 -1 1 -2v-2v-5h-1v-2q-1 0 -1 -2q-2 -2 -5 -8q-2 -2 -2 -3l-1 -1h-1v-2q-2 -1 -3 -3 q-2 -2 -4 -3l-7 -3h-1q-1 -1 -2 -1h-2h-2h-1l-4 1q-3 0 -7 1.5t-5 2.5h-2q-1 1 -2 1l-2 1q0 1 -1 1l-1 1q-1 3 -2 4zM341 446q1 -2 1 -54t-2 -54h-11q-2 0 -13.5 0.5t-17.5 0.5l-47 1l-26 1v-6q1 -7 2 -7q1 -1 0 -3q-1 -1 -1 -28v-14.5t0.5 -12.5t0.5 -6l2 -60v-117l1 -34 q0 -7 0.5 -16.5t1 -14.5t0.5 -6q0 -2 13 -2q2 0 5 -1q3 0 4 -1q7 0 13 -1q12 0 14 -1q1 0 5.5 -0.5t7.5 -0.5q11 -1 17 -1q3 -1 -1 -27q-1 -2 -1.5 -8t-0.5 -8q-1 -14 -3 -14l-2 -1q0 -2 -29 0q-1 0 -12 0.5t-19 0.5q-12 1 -24 1l-22 2h-10h-9l-3 1q-1 1 -1 0q-2 -1 -7 0 q-1 0 -9.5 0.5t-13.5 0.5t-14.5 0.5t-11.5 0.5q-1 0 -10.5 0.5t-15.5 0.5l-19 1q0 24 1 43v16v5h11l16 -2l67 -2h9h8v93q0 141 2 145q1 1 1 32t-1 48v12l-10 1q-3 0 -12.5 0.5t-14.5 0.5q-4 0 -13 0.5t-12 1.5q-10 1 -53 1t-51 -1h-11v16q0 4 0.5 20t0.5 24q1 42 3 43 q1 1 14 1t14 -1h2q0 2 7 0q6 -2 6 0t3 2l1 -1q0 -1 18 -1l44 -2h2l2 1q0 -1 3 -1q2 1 4 1l22 -2h25h6q1 1 2 1t1 -1l2 -1h4.5h5.5q4 0 10.5 -0.5t17.5 -1t22 -0.5q32 -1 33 0h1q1 0 53 -3q2 0 2 -1z" glyph-name="idieresis" horiz-adv-x="362" unicode=""/><glyph d="M345 174q1 -23 0 -30q0 -9 -13 -44l-5 -14q0 -1 -1 -2q-2 -2 -2 -3l-7 -7q-9 -11 -21 -20q-3 -1 -19 -11q-14 -7 -17 -10q-9 -5 -20 -7q-2 0 -18 -4q-42 -11 -44 -9h-1q0 -4 -13 -2l-5 -1q-1 -1 -4 -1h-9h-12q-2 0 -5 -0.5t-4 -0.5h-6q0 2 -2 0h-3q-5 0 -7 -1h-11h-5 q-1 -1 -15 -1h-4h-4h-3q-4 -1 -8 -1h-15q-6 -1 -6 0q-1 1 -1 0l-1 -1q-1 0 -1 2t-1 2v4v9v7q2 2 0 2q-1 -1 -1 1v6v8v12q1 -1 1 -0.5t-1 2.5v10v22v5v10v9q1 5 0 17v9v9v10v7v19v10v8v17v14v8q0 1 -0.5 8.5t-0.5 12.5q1 3 1 10v10v11q-1 4 -1 13q1 3 1 17v16v5v4 q0 2 0.5 14.5t0.5 21.5q0 16 1 16l32 -1q11 0 20 -0.5t13 -0.5l4 -1q12 0 24 -1l23 -2l11 -2q12 -3 25 -5.5t15 -2.5q1 -1 3 -1.5t3 -0.5q13 -2 22 -8q2 -2 5 -2l2 -2q0 -1 1 -1q6 0 28 -19q14 -12 26 -21q1 -1 5 -4.5t7 -6.5l12 -11q6 -6 11 -16q0 -2 2 -4l8 -21 q1 -3 4 -29l2 -17l1 -2v-8q1 -3 1 -6q0 -5 1 -11q0 -15 1 -21zM-221 225q2 0 13.5 0.5t17.5 0.5q5 1 15 1v-59h-6q-12 0 -34 -0.5t-32 -1.5q-12 -1 -32 -1q-26 0 -54 -2q-6 -1 -20 -1q-9 0 -10 3q-1 6 -2 26t0 23q1 5 3 5.5t13 1.5h15q1 0 9.5 0.5t13.5 0.5t16 0.5t15 0.5 q8 1 27 1h17q2 1 15 1z" glyph-name="eth" horiz-adv-x="376" unicode=""/><glyph d="M56 498q-1 1 -1 2q-1 1 3 7.5t5 6.5v1q0 2 3 5q1 3 7 11q1 1 2.5 3.5l3 5t2.5 3.5q4 6 4 7q1 1 3 1q4 0 6 -1q3 -5 25 -12q7 -2 15 -1q9 0 9 2l5 4h2q0 2 5 4t6 5q2 2 4 2l2 1q0 1 1 2q1 0 2 1t4.5 4t7.5 5l3 2l1 1q0 2 2 2l7 2q15 5 26 8q14 2 15 3q12 3 30 -2 q7 -2 12 -9l4 -5q3 -1 6 -6l3 -4q8 -8 8 -12l3 -3l2 -2v-2q2 -1 11 -22q1 -2 4 -13l6 -27q2 -2 0 -2h-10l-24 -3l-34 -2q-3 5 -6 11q-9 14 -17 22q-11 4 -14 4q-9 0 -13 2q-11 1 -46 -23q-32 -22 -56 -22q-7 0 -20 8q-21 15 -25 20zM31 40q-2 2 1 28l2 32q0 2 0.5 6.5 t0.5 5.5l1 6v9l2 11v7q0 4 1 20t2 20q0 19 1 23q2 28 2 58q1 9 1 24q0 1 0.5 5t1 9t0.5 9q0 22 1 28v12q0 1 1 1v5l-1 5l-1 -1q-1 -1 -2 0t-1 2l1 2q1 0 3 2l3 3q3 0 1 -3q0 -2 4 -1q3 0 3 -2l1 -1q2 0 3 -1q2 -2 16 2q1 1 1 0q0 -2 1 -2l1 1q-1 1 0 2q3 5 5 -1q1 -3 6 -3 l10 1q4 0 5 -1h9q4 -1 11 -1t11 1q7 0 8 -1q2 0 3 1q4 2 4 1q-2 -2 1 -2l1 1q0 1 2 1l1 -1h-1q1 -1 3 0q4 0 4 -1q0 -3 3 -6v-1q1 -1 1 -2l1 -2q1 0 1 -1v-3q1 -1 7 -16q1 -1 2 -3t1.5 -3.5t1.5 -3t1 -2.5l5 -9q0 -1 2 -5l3 -6l4 -9q2 -4 4 -7q3 -4 3 -7l2 -3l9 -18 q2 -4 8 -15.5t10 -18.5l1 -2q0 -1 1 -1q0 -3 4 -8l6 -11q6 -11 9 -11q2 2 -1 40q-3 45 -3 49q0 3 -1.5 23.5t-2.5 31.5l-2 35q1 1 6 1q20 0 37 1l34 2q3 0 3 -9l-1 -11v-8v-14v-17v-12v-6v-15q1 -8 1 -20v-16v-12v-7v-31q0 -6 -1 -7v-1l2 -3q0 -20 -1 -24v-10v-7q-1 0 -1 -6 q2 -7 0 -12q0 -36 6 -84q0 -3 -4 -3q-5 0 -8 1h-13q-13 0 -36 3q-4 0 -5.5 1.5t-7.5 13.5l-9 20l-11 22q-6 12 -6 13l-1 2q-1 2 -2 3q-2 5 -26 53q-3 3 -3 6q-2 4 -5 8q-1 2 -2 4.5t-2 4t-1 2.5l-3 6l-5 12q-16 38 -21 46l-2 -11v-2v-9v-12q-1 -5 -1 -11v-6q0 -1 -0.5 -6.5 t-0.5 -8.5v-22.5v-18.5v-15l1 -18q-1 -1 1 -44l2 -29v-8l-5 -1q-15 0 -30 1q-18 2 -42 2q-21 0 -26 1h-17q-2 0 -5 1h-3z" glyph-name="ntilde" horiz-adv-x="360" unicode=""/><glyph d="M113 572q-12 8 -7 13q2 3 7 7q3 5 14 12l4.5 4.5t4.5 3.5l2 2q11 11 23 15q6 0 17 -9l3 -2q1 0 2 -1q0 -2 6 -6l7 -5l1 -1q1 1 6 -4t6 -5q7 -3 8 -6q0 -1 4 -3q5 -3 9.5 -7t3.5 -5h1q1 0 28 -22l5 -5q1 0 2 -1q2 -2 3 -2q1 -3 4 -3t8 -9q2 -2 -14 -17l-4 -4t-3.5 -3 t-3.5 -3l-1 -1q-2 -3 -10 -10l-15 -14l-8 -7q-3 3 -7 6q-22 22 -57 49l-24 21l-16 14q-5 5 -9 8zM32 141l-2 6q1 1 1 43v29v18q-1 24 4 51q8 24 8 30q5 20 7 24q4 8 30 47q16 21 23 26q1 0 3 2t4 3q0 1 2 3l3 3q5 4 13 6q3 0 9 2q8 2 13 2q8 2 16 2q1 0 5 -0.5t9 -1.5t7 -1 q7 0 17 -1h6q2 -1 8 -1q5 0 10 -1h6q2 -1 7 -1q4 0 31 -16q16 -8 19 -13l13 -13q8 -8 11 -14l7 -22q13 -42 17 -49q3 -6 3 -20q2 -28 2 -55q0 -16 1 -31q1 -31 -2 -51v-2l-2 -5v-4q0 -2 -1 -5l-1 -7q0 -4 -5 -24q0 -4 -2 -16q-3 -15 -13 -34l-4 -10q-5 -8 -7 -9q-5 -5 -6 -5 l-35 -32q-15 -13 -21 -15l-12 -4q-2 -1 -24 -5q-17 -2 -32 0q-52 8 -75 21q-12 6 -30 26q-7 10 -9 10q-1 1 -8.5 11t-7.5 11l-2 11q-2 14 -3 15q0 1 -0.5 4t-0.5 5q-1 2 -3 18q-3 11 -3 15l-2 10q-2 8 -2 14z" glyph-name="ograve" horiz-adv-x="375" unicode=""/><glyph d="M268 680q0 1 2 1t12 -8q2 -1 9.5 -7t10.5 -9q2 -2 5 -4.5t5.5 -4t3.5 -2.5l4 -4l-3 -4q-2 -4 -5 -7l-2 -3q2 0 -1 -3q-9 -9 -14 -19q-1 -1 -3 -3.5t-3 -3.5t-3 -4t-3 -4q-6 -10 -10 -14l-1 -3l-3 -3q-4 -6 -8 -10l-14 -19q-3 -3 -5 -7l-5 -7q-5 -5 -5 -7l-4 -6 q-5 -5 -7 -9q-4 -6 -8 -10l-4 -6l-3 3q-1 0 -3 2t-5 4.5t-5 4.5q-37 31 -37 33q0 1 2 2q0 1 8 11l13 17l7 9l8 11q10 10 10 12q4 4 6 8q4 4 8 10q5 5 9 11q1 1 7.5 8.5t9.5 12.5l17 22q7 7 7 9zM32 141l-2 6q1 1 1 43v29v18q-1 24 4 51q8 24 8 30q5 20 7 24q4 8 30 47 q16 21 23 26q1 0 3 2t4 3q0 1 2 3l3 3q5 4 13 6q3 0 9 2q8 2 13 2q8 2 16 2q1 0 5 -0.5t9 -1.5t7 -1q7 0 17 -1h6q2 -1 8 -1q5 0 10 -1h6q2 -1 7 -1q4 0 31 -16q16 -8 19 -13l13 -13q8 -8 11 -14l7 -22q13 -42 17 -49q3 -6 3 -20q2 -28 2 -55q0 -16 1 -31q1 -31 -2 -51v-2 l-2 -5v-4q0 -2 -1 -5l-1 -7q0 -4 -5 -24q0 -4 -2 -16q-3 -15 -13 -34l-4 -10q-5 -8 -7 -9q-5 -5 -6 -5l-35 -32q-15 -13 -21 -15l-12 -4q-2 -1 -24 -5q-17 -2 -32 0q-52 8 -75 21q-12 6 -30 26q-7 10 -9 10q-1 1 -8.5 11t-7.5 11l-2 11q-2 14 -3 15q0 1 -0.5 4t-0.5 5 q-1 2 -3 18q-3 11 -3 15l-2 10q-2 8 -2 14z" glyph-name="oacute" horiz-adv-x="375" unicode=""/><glyph d="M102 545q-4 1 -3 5q1 1 1 3l1 2q2 0 2 2q0 1 1.5 3t2.5 1t1 0q-1 1 1.5 5t4.5 5l3 5l2 1q1 0 1 1l1 1q1 1 1 2t1 1t1 1l1 2q0 2 2 2l1 1q1 3 3 4l3 4q-1 0 1 2t2 3q0 2 2 2q5 5 11 13l3 5q0 3 2 4l5 5q2 3 4 3h3q0 1 2 1q2 -2 4 0q3 2 3 0q0 2 7 2h8h2q2 0 5.5 0.5 t8.5 0.5q2 1 6 1q1 1 5 1q3 -2 5 0q1 1 4.5 1t3.5 -1l23 -33l6 -8l5 -6q1 0 1 -1q0 -2 1 -3l13 -19q1 -1 9 -13q1 -1 2 -4l6 -9l-40 -2q-1 0 -7.5 -0.5t-9.5 -0.5h-9l-5 -1q-8 0 -8 3q0 2 -2 2l-2 1q1 1 -0.5 2.5t-3.5 1.5q-2 1 -2 2q-1 2 -5.5 5t-5.5 2v1l-5 5q-1 0 -2 -1 q-2 -5 -13 -10l-5 -5l-4 -3q-2 -1 -4 -3q-1 -1 -4.5 -3.5t-4.5 -3.5q-5 -3 -5.5 -3.5t-1.5 0.5q0 1 -1 1h-2l-2 1q-2 0 -5 1t-6 1l-11 4h-4h-3q0 1 -1 1h-1q-2 2 -10 4zM345 198q1 -31 -2 -51v-2l-2 -5v-4q0 -2 -1 -5l-1 -7q0 -4 -5 -24q0 -4 -2 -16q-3 -15 -13 -34l-4 -10 q-5 -8 -7 -9q-5 -5 -6 -5l-35 -32q-15 -13 -21 -15l-12 -4q-2 -1 -24 -5q-17 -2 -32 0q-52 8 -75 21q-12 6 -30 26q-7 10 -9 10q-1 1 -8.5 11t-7.5 11l-2 11q-2 14 -3 15q0 1 -0.5 4t-0.5 5q-1 2 -3 18q-3 11 -3 15l-2 10q-2 8 -2 14l-2 6q1 1 1 43v29v18q-1 24 4 51 q8 24 8 30q5 20 7 24q4 8 30 47q16 21 23 26q1 0 3 2t4 3q0 1 2 3l3 3q5 4 13 6q3 0 9 2q8 2 13 2q8 2 16 2q1 0 5 -0.5t9 -1.5t7 -1q7 0 17 -1h6q2 -1 8 -1q5 0 10 -1h6q2 -1 7 -1q4 0 31 -16q16 -8 19 -13l13 -13q8 -8 11 -14l7 -22q13 -42 17 -49q3 -6 3 -20q2 -28 2 -55 q0 -16 1 -31z" glyph-name="ocircumflex" horiz-adv-x="375" unicode=""/><glyph d="M53 513q-1 1 -1 2q-1 1 3 7.5t5 6.5v1q0 2 3 5q1 3 7 11q1 1 2.5 3.5l3 5t2.5 3.5q4 6 4 7q1 1 3 1q4 0 6 -1q3 -5 25 -12q7 -2 15 -1q9 0 9 2l5 4h2q0 2 5 4t6 5q2 2 4 2l2 1q0 1 1 2q1 0 2 1t4.5 4t6.5 5l4 2l1 1q0 2 2 2l7 2q15 5 26 8q14 2 15 3q12 3 30 -2 q7 -2 12 -9l4 -5q3 -2 6 -6l3 -4q8 -8 8 -12l3 -3l2 -2v-2q2 -1 11 -22q1 -2 4 -13l6 -27q2 -2 0 -2h-10l-24 -3l-34 -2q-3 5 -6 11q-9 14 -17 22q-11 4 -14 4q-9 0 -13 2q-11 1 -46 -23q-32 -22 -56 -22q-7 0 -20 8q-21 15 -25 20zM32 141l-2 6q1 1 1 43v29v18q-1 24 4 51 q8 24 8 30q5 20 7 24q4 8 30 47q16 21 23 26q1 0 3 2t4 3q0 1 2 3l3 3q5 4 13 6q3 0 9 2q8 2 13 2q8 2 16 2q1 0 5 -0.5t9 -1.5t7 -1q7 0 17 -1h6q2 -1 8 -1q5 0 10 -1h6q2 -1 7 -1q4 0 31 -16q16 -8 19 -13l13 -13q8 -8 11 -14l7 -22q13 -42 17 -49q3 -6 3 -20q2 -28 2 -55 q0 -16 1 -31q1 -31 -2 -51v-2l-2 -5v-4q0 -2 -1 -5l-1 -7q0 -4 -5 -24q0 -4 -2 -16q-3 -15 -13 -34l-4 -10q-5 -8 -7 -9q-5 -5 -6 -5l-35 -32q-15 -13 -21 -15l-12 -4q-2 -1 -24 -5q-17 -2 -32 0q-52 8 -75 21q-12 6 -30 26q-7 10 -9 10q-1 1 -8.5 11t-7.5 11l-2 11 q-2 14 -3 15q0 1 -0.5 4t-0.5 5q-1 2 -3 18q-3 11 -3 15l-2 10q-2 8 -2 14z" glyph-name="otilde" horiz-adv-x="375" unicode=""/><glyph d="M169 552v3q0 1 -1 2q1 3 4 7l2 1q1 1 2 2.5t2 2.5q5 9 20 16l3 1l13 1h5h6q2 -1 5 -1q2 -1 4 -1q7 -3 13 -12q13 -19 10 -34q-5 -16 -7 -16q-1 0 -2 -2l-3 -3l-2 -1q-1 -1 -2 -1l-1 -1l-2 -2q-2 0 -2 -2q-5 -5 -5 -3h-2h-1h-3q-2 -1 -13 0q-4 0 -4 -1q-2 0 -2 1h-2l-1 -1 q-1 1 -6 1q-3 0 -7 3l-8 5v1q-2 0 -2 2l-2 2l-2 2l-1 2l-1 4q-2 4 -3 9.5t-1 7.5zM90 528q0 2 -2 6q-3 13 -1 19v3l4 8l2 4l3 3l3 3l2 2q5 4 13 4q17 1 25 -7q9 -9 8 -11v-2l1 -3v-2v-2v-1q0 -1 1 -2v-2v-5h-1v-2q-1 0 -1 -2q-2 -2 -5 -8q-2 -2 -2 -3l-1 -1h-1v-2 q-2 -1 -3 -3q-2 -2 -4 -3l-7 -3h-1q-1 -1 -2 -1h-2h-2h-1l-4 1q-3 0 -7 1.5t-5 2.5h-2q-1 1 -2 1l-2 1q0 1 -1 1l-1 1zM345 198q1 -31 -2 -51v-2l-2 -5v-4q0 -2 -1 -5l-1 -7q0 -4 -5 -24q0 -4 -2 -16q-3 -15 -13 -34l-4 -10q-5 -8 -7 -9q-5 -5 -6 -5l-35 -32 q-15 -13 -21 -15l-12 -4q-2 -1 -24 -5q-17 -2 -32 0q-52 8 -75 21q-12 6 -30 26q-7 10 -9 10q-1 1 -8.5 11t-7.5 11l-2 11q-2 14 -3 15q0 1 -0.5 4t-0.5 5q-1 2 -3 18q-3 11 -3 15l-2 10q-2 8 -2 14l-2 6q1 1 1 43v29v18q-1 24 4 51q8 24 8 30q5 20 7 24q4 8 30 47 q16 21 23 26q1 0 3 2t4 3q0 1 2 3l3 3q5 4 13 6q3 0 9 2q8 2 13 2q8 2 16 2q1 0 5 -0.5t9 -1.5t7 -1q7 0 17 -1h6q2 -1 8 -1q5 0 10 -1h6q2 -1 7 -1q4 0 31 -16q16 -8 19 -13l13 -13q8 -8 11 -14l7 -22q13 -42 17 -49q3 -6 3 -20q2 -28 2 -55q0 -16 1 -31z" glyph-name="odieresis" horiz-adv-x="375" unicode=""/><glyph d="M344 229q0 -16 1 -31q1 -31 -2 -51v-2l-2 -5v-4q0 -2 -1 -5l-1 -7q0 -4 -5 -24q0 -4 -2 -16q-3 -15 -13 -34l-4 -10q-5 -8 -7 -9q-5 -5 -6 -5l-35 -32q-15 -13 -21 -15l-12 -4q-2 -1 -24 -5q-17 -2 -32 0q-46 8 -73 20q-3 0 -13.5 0.5t-15.5 0.5q-4 0 -13 0.5t-12 1.5 q-10 0 -14 2q-6 0 -6.5 1.5t1.5 5.5t3 8q2 2 7 14l5 10q0 1 1 2q2 4 2 5q0 2 1 3l-3 5q0 1 -2 11q-2 14 -3 15q0 1 -0.5 4t-0.5 5q-1 2 -3 18q-3 11 -3 15l-2 10q-2 8 -2 14l-2 6q1 1 1 43v29v18q-1 24 4 51q8 24 8 30q5 20 7 24q4 8 30 47q16 21 23 26q1 0 3 2t4 3q0 1 2 3 l3 3q5 4 13 6q3 0 9 2q8 2 13 2q8 2 16 2q1 0 5 -0.5t9 -1.5t7 -1q7 0 17 -1h6q2 -1 8 -1q4 0 9 -0.5t6 -0.5q0 4 3 7l3 9l12 -1q3 0 8 -1l5 -1h3q0 -1 1 -1h5h1q2 -1 4 -1.5t4 -0.5q10 0 13 -2h9l4 -1q5 -1 10 -1l10 -1q1 -2 7 -2q10 -2 10 -3q0 -5 -4 -17q-2 -5 -6 -13.5 t-6.5 -14.5t-3.5 -7l-1 -4q-1 -1 -6 -11l4 -12q13 -42 17 -49q3 -6 3 -20q2 -28 2 -55z" glyph-name="oslash" horiz-adv-x="375" unicode=""/><glyph d="M133 592q-12 8 -7 13q2 3 7 7q3 5 14 12l4.5 4.5t4.5 3.5l2 2q11 11 23 15q6 0 17 -9l3 -2q1 0 2 -1q0 -2 6 -6l7 -5l1 -1q1 1 6 -4t6 -5q7 -3 8 -6q0 -1 4 -3q5 -3 9.5 -7t3.5 -5h1q1 0 28 -22l5 -5q1 0 2 -1q2 -2 3 -2q1 -3 4 -3t8 -9q2 -2 -14 -17l-4 -4t-3.5 -3 t-3.5 -3l-1 -1q-2 -3 -10 -10l-15 -14l-8 -7q-3 3 -7 6q-22 22 -57 49q-2 2 -6 5.5t-9.5 8.5t-8.5 7l-16 14q-5 5 -9 8zM30 268l1 69q1 26 1 67v10v8l1 3q1 1 66 1t136 -0.5t84 -1.5q17 0 81 -2l26 -1l2 -13q0 -4 0.5 -9t0.5 -6q1 -5 3 -27q0 -2 0.5 -11t0.5 -13 q0 -3 0.5 -18t0.5 -23q0 -19 -0.5 -49t-1 -52t-0.5 -23q-3 -17 -8 -34q0 -3 -2 -9q-4 -18 -12 -41q-8 -20 -29 -48q-20 -26 -46 -38q-42 -19 -59 -22q-39 -7 -62 -3q-59 7 -76 16q-16 9 -34 27q-15 14 -28 33l-13 19q-4 4 -6 12q-2 3 -5 12l-7 23q0 6 -2 6q0 1 -1 2 q0 3 -3 12l-3 12q-2 10 -2 41q0 4 -0.5 13t-1.5 12q0 18 -1 28q0 18 -1 18z" glyph-name="ugrave" horiz-adv-x="464" unicode=""/><glyph d="M278 654q0 1 2 1t12 -8q2 -1 9.5 -7t10.5 -9q2 -2 5 -4.5t5.5 -4t3.5 -2.5l4 -4l-3 -4q-2 -4 -5 -7l-2 -3q2 0 -1 -3q-9 -9 -14 -19q-1 -1 -3 -3.5t-3 -3.5t-3 -4t-3 -4q-6 -10 -10 -14l-1 -3l-3 -3q-4 -6 -8 -10l-14 -19q-3 -3 -5 -7l-5 -7q-5 -5 -5 -7l-4 -6 q-5 -5 -7 -9q-4 -6 -8 -10l-4 -6l-3 3q-1 0 -3 2t-5 4.5t-5 4.5q-37 31 -37 33q0 1 2 2q0 1 8 11l13 17l7 9l8 11q10 10 10 12q4 4 6 8q4 4 8 10q5 5 9 11q1 2 7.5 9t9.5 12l17 22q7 7 7 9zM30 268l1 69q1 26 1 67v10v8l1 3q1 1 66 1t136 -0.5t84 -1.5q17 0 81 -2l26 -1 l2 -13q0 -4 0.5 -9t0.5 -6q1 -5 3 -27q0 -2 0.5 -11t0.5 -13q0 -3 0.5 -18t0.5 -23q0 -19 -0.5 -49t-1 -52t-0.5 -23q-3 -17 -8 -34q0 -3 -2 -9q-4 -18 -12 -41q-8 -20 -29 -48q-20 -26 -46 -38q-42 -19 -59 -22q-39 -7 -62 -3q-59 7 -76 16q-16 9 -34 27q-15 14 -28 33 l-13 19q-4 4 -6 12q-2 3 -5 12l-7 23q0 6 -2 6q0 1 -1 2q0 3 -3 12l-3 12q-2 10 -2 41q0 4 -0.5 13t-1.5 12q0 18 -1 28q0 18 -1 18z" glyph-name="uacute" horiz-adv-x="464" unicode=""/><glyph d="M130 519q-4 1 -3 5q1 1 1 3l1 2q2 0 2 2q0 1 1.5 3t2.5 1t1 0q-1 1 1.5 5t4.5 5l3 5l2 1q1 0 1 1l1 1q1 1 1 2t1 1t1 1l1 2q0 2 2 2l1 1q1 3 3 4l3 4q0 1 1 2q2 2 2 3q0 2 2 2q5 5 11 13l3 5q0 3 2 4l5 5q2 3 4 3h3q0 1 2 1q2 -2 4 0q3 2 3 0q0 2 7 2h8h2q2 0 5.5 0.5 t8.5 0.5q2 1 6 1q1 1 5 1q3 -2 5 0q1 1 4.5 1t3.5 -1l23 -33l6 -8l5 -6q1 0 1 -1q0 -2 1 -3l13 -19q1 -1 9 -13q1 -1 2 -4l6 -9l-40 -2q-1 0 -7.5 -0.5t-9.5 -0.5h-9l-5 -1q-8 0 -8 3q0 2 -2 2l-2 1q1 1 -0.5 2.5t-3.5 1.5q-2 1 -2 2q-1 2 -5.5 5t-5.5 2v1l-5 5q-1 0 -2 -1 q-2 -5 -13 -10l-5 -5l-4 -3q-2 -1 -4 -3q-1 -1 -4.5 -3.5t-4.5 -3.5q-5 -3 -5.5 -3.5t-1.5 0.5q0 1 -1 1h-2l-2 1q-2 0 -5 1t-6 1l-11 4h-4h-3q0 1 -1 1h-1q-2 2 -10 4zM433 342q0 -3 0.5 -18t0.5 -23q0 -19 -0.5 -49t-1 -52t-0.5 -23q-3 -17 -8 -34q0 -3 -2 -9 q-4 -18 -12 -41q-8 -20 -29 -48q-20 -26 -46 -38q-42 -19 -59 -22q-39 -7 -62 -3q-59 7 -76 16q-16 9 -34 27q-15 14 -28 33l-13 19q-4 4 -6 12q-2 3 -5 12l-7 23q0 6 -2 6q0 1 -1 2q0 3 -3 12l-3 12q-2 10 -2 41q0 4 -0.5 13t-1.5 12q0 18 -1 28q0 18 -1 18l1 69q1 26 1 67 v10v8l1 3q1 1 66 1t136 -0.5t84 -1.5q17 0 81 -2l26 -1l2 -13q0 -4 0.5 -9t0.5 -6q1 -5 3 -27q0 -2 0.5 -11t0.5 -13z" glyph-name="ucircumflex" horiz-adv-x="464" unicode=""/><glyph d="M215 541v3q0 1 -1 2q1 3 4 7l6 6q5 9 20 16l3 1l13 1h5h6q2 -1 5 -1q2 -1 4 -1q7 -3 13 -12q13 -19 10 -34q-5 -16 -7 -16q-1 0 -2 -2l-3 -3l-2 -1q-1 -1 -2 -1l-1 -1l-2 -2q-2 0 -2 -2q-5 -5 -5 -3h-2h-1h-3q-2 -1 -13 0q-4 0 -4 -1q-2 0 -2 1h-2l-1 -1q-1 1 -6 1 q-2 0 -7 3l-8 5v1q-2 0 -2 2l-2 2l-2 2l-1 2l-1 4q-2 4 -3 9.5t-1 7.5zM136 517q0 2 -2 6q-3 13 -1 19v3l4 8l2 4l3 3l3 3l2 2q5 4 13 4q17 1 25 -7q9 -10 8 -11v-2l1 -3v-2v-2v-1q0 -1 1 -2v-2v-5h-1v-2q-1 0 -1 -2q-2 -2 -5 -8q-2 -2 -2 -3l-1 -1h-1v-2q-2 -1 -3 -3 q-2 -2 -4 -3l-7 -3h-1q-1 -1 -2 -1h-2h-2h-1h-4q-3 1 -7 2.5t-5 2.5l-2 1h-2l-2 1q0 1 -1 1l-1 1q-1 3 -2 4zM433 342q0 -3 0.5 -18t0.5 -23q0 -19 -0.5 -49t-1 -52t-0.5 -23q-3 -17 -8 -34q0 -3 -2 -9q-4 -18 -12 -41q-8 -20 -29 -48q-20 -26 -46 -38q-42 -19 -59 -22 q-39 -7 -62 -3q-59 7 -76 16q-16 9 -34 27q-15 14 -28 33l-13 19q-4 4 -6 12q-2 3 -5 12l-7 23q0 6 -2 6q0 1 -1 2q0 3 -3 12l-3 12q-2 10 -2 41q0 4 -0.5 13t-1.5 12q0 18 -1 28q0 18 -1 18l1 69q1 26 1 67v10v8l1 3q1 1 66 1t136 -0.5t84 -1.5q17 0 81 -2l26 -1l2 -13 q0 -4 0.5 -9t0.5 -6q1 -5 3 -27q0 -2 0.5 -11t0.5 -13z" glyph-name="udieresis" horiz-adv-x="464" unicode=""/><glyph d="M207 646q0 1 2 1t12 -8q2 -1 9.5 -7t10.5 -9q2 -2 5 -4.5t5.5 -4t3.5 -2.5l4 -4l-3 -4q-2 -4 -5 -7l-2 -3q2 0 -1 -3q-9 -9 -14 -19q-1 -1 -3 -3.5t-3 -3.5t-3 -4t-3 -4q-6 -10 -10 -14l-2 -3q-1 -2 -2 -3q-4 -6 -8 -10l-14 -19q-3 -3 -5 -7l-5 -7q-5 -5 -5 -7l-4 -6 q-5 -5 -7 -9q-4 -6 -8 -10l-4 -6l-3 3q-1 0 -3 2t-5 4.5t-5 4.5q-37 31 -37 33q0 1 2 2q0 1 8 11l13 17l7 9l8 11q10 10 10 12q4 4 6 8q4 4 8 10q5 5 9 11q1 2 7.5 9.5t9.5 11.5l17 22q7 7 7 9zM-16 440q-5 8 -2 9h49l8 -1l10 -20l11 -20q0 -1 2 -3q3 -3 6 -10q4 -9 6 -9 q1 -1 1 -3q0 -1 1 -2l4 -6q3 -8 13 -23l4 -6l1 -2q2 -3 4 -7t4 -7q9 -14 9 -17q0 -2 2 -2q1 0 1 -1q0 -2 2 -4t2 -5q2 -4 4 -6q2 -4 1 -5q0 -1 2 -3q1 0 3 -5l3 -6q9 -12 9 -15t1 -3q3 -1 7 -10l1 -2q1 -2 2 -3q8 -10 11 -16q2 -4 5 -7t3 -5q0 -3 2 -3h1q-1 1 7 12q3 3 5 7 l4 7q3 4 5 8t3 4l2 1q0 1 2 5l3 3q0 2 2 4q3 3 3 4t3.5 6t4.5 6l1 1l2 4l2 4q3 6 6 9l1 3q0 1 4 5q1 1 3 4t3 4q1 4 7 12t8 9q0 1 2 5l3 3q1 0 1 2t5 7l5 6q0 1 4 5t4 5t2 3q1 1 1 3q1 2 6 7q2 4 2 5l1 1l3 3l4 6l3 3q1 0 1 2l4 6l3 4q0 1 3 4q3 2 3 4q0 3 5 6q5 5 5 7l4 6 q3 2 6 8l2 3h28l26 -1v-1l-3 -6q-3 -3 -3 -6l-2 -3q-1 1 -1 -1q2 -2 -1 -2q-2 -2 -2 -4t-1 -2t-3.5 -5t-2.5 -7q-1 -3 -3 -4q-4 -4 -2 -4l-2 -4q-8 -8 -8 -13q0 -1 -1 -2l-6 -11q-1 -2 -3 -5t-3.5 -5t-1.5 -3l-3 -6l-2 -3q-1 0 -1 -2q1 0 0.5 -0.5l-1.5 -1.5l-3 -3 q0 -3 -3 -5l-1 -2q2 -2 -7 -12q-1 0 -1.5 -1t0.5 -2q-1 -2 -3 -3q0 -1 -1 -2v0q2 0 -1 -3q-4 -4 -4 -5q0 -2 -2 -4q-3 -2 -3 -3q0 -2 -2 -4t-1 -2q0 -2 -1 -3q-8 -6 -25 -34l-8 -13l-1 -139v-32v-29t-0.5 -26t-0.5 -22.5v-16.5v-11v-4q-1 -2 -34 -2h-47q-16 -2 -31 -2 q-5 0 -21 -1l-32 -2l-12 -1l1 37q0 8 0.5 18.5t1 16t0.5 7.5q1 7 1 79.5t-1 92.5l-1 25l-5 9l-5 10q-1 1 -10 19q-9 17 -10 17v1q0 2 -3.5 8.5t-4.5 7.5t-1 2q0 2 -3 8q-5 10 -7 13l-4 6q-1 1 -5.5 10.5t-4.5 10.5q0 2 -5 9q-1 3 -4 8.5t-4 6.5q-3 6 -6 9l-1 3q0 2 -7 12 q-6 9 -11 19q-4 7 -5 7v2l-1 1l-2 4z" glyph-name="yacute" horiz-adv-x="354" unicode=""/><glyph d="M195 565v3q0 1 -1 2q1 3 4 7l6 6q5 9 20 16l3 1l13 1h5h6q2 -1 5 -1q2 -1 4 -1q7 -3 13 -12q13 -19 10 -34q-5 -16 -7 -16q-1 0 -2 -2l-3 -3l-2 -1q-1 -1 -2 -1l-1 -1l-2 -2q-2 0 -2 -2q-5 -5 -5 -3h-2h-1h-3q-2 -1 -13 0q-4 0 -4 -1q-2 0 -2 1h-2l-1 -1q-1 1 -6 1 q-3 0 -7 3l-8 5v1q-2 0 -2 2l-2 2l-2 2l-1 2l-1 4q-2 4 -3 9.5t-1 7.5zM116 541q0 2 -2 6q-3 13 -1 19v3l4 8l2 4l3 3l3 3l2 2q5 4 13 4q17 1 25 -7q9 -10 8 -11v-2l1 -3v-2v-2v-1q0 -1 1 -2v-2v-5h-1v-2q-1 0 -1 -2q-2 -2 -5 -8q-2 -2 -2 -3l-1 -1h-1v-2q-2 -1 -3 -3 q-2 -2 -4 -3l-7 -3h-1q-1 -1 -2 -1h-2h-2h-1h-4q-3 1 -7 2.5t-5 2.5l-2 1h-2l-2 1q0 1 -1 1l-1 1q-1 3 -2 4zM368 448l26 -1v-1l-3 -6q-3 -3 -3 -6l-2 -3q-1 1 -1 -1q2 -2 -1 -2q-2 -2 -2 -4t-1 -2t-3.5 -5t-2.5 -7q-1 -3 -3 -4q-4 -4 -2 -4l-2 -4q-8 -8 -8 -13q0 -1 -1 -2 l-6 -11q-1 -2 -3 -5t-3.5 -5t-1.5 -3l-3 -6l-2 -3q-1 0 -1 -2q1 0 0.5 -0.5l-1.5 -1.5l-3 -3q0 -3 -3 -5l-1 -2q2 -2 -7 -12q-1 0 -1.5 -1t0.5 -2q-1 -2 -3 -3q0 -1 -1 -2v0q2 0 -1 -3q-4 -4 -4 -5q0 -2 -2 -4q-3 -2 -3 -3q0 -2 -2 -4t-1 -2q0 -2 -1 -3q-8 -6 -25 -34 l-8 -13l-1 -139v-32v-29t-0.5 -26t-0.5 -22.5v-16.5v-11v-4q-1 -2 -34 -2h-47q-16 -2 -31 -2q-5 0 -21 -1l-32 -2l-12 -1l1 37q0 8 0.5 18.5t1 16t0.5 7.5q1 7 1 79.5t-1 92.5l-1 25l-5 9l-5 10q-1 1 -10 19q-9 17 -10 17v1q0 2 -3.5 8.5t-4.5 7.5t-1 2q0 2 -3 8 q-5 10 -7 13l-4 6q-1 1 -5.5 10.5t-4.5 10.5q0 2 -5 9q-1 3 -4 8.5t-4 6.5q-3 6 -6 9l-1 3q0 2 -7 12q-6 9 -11 19q-4 7 -5 7v2l-1 1l-2 4l-2 4q-5 8 -2 9h49l8 -1l10 -20l11 -20q0 -1 2 -3q3 -3 6 -10q4 -9 6 -9q1 -1 1 -3q0 -1 1 -2l4 -6q3 -8 13 -23l4 -6l1 -2q2 -3 4 -7 t4 -7q9 -14 9 -17q0 -2 2 -2q1 0 1 -1q0 -2 2 -4t2 -5q2 -4 4 -6q2 -4 1 -5q0 -1 2 -3q1 0 3 -5l3 -6q9 -12 9 -15t1 -3q3 -1 7 -10l1 -2q1 -2 2 -3q8 -10 11 -16q2 -4 5 -7t3 -5q0 -3 2 -3h1q-1 1 7 12q3 3 5 7l4 7q3 4 5 8t3 4l2 1q0 1 2 5l3 3q0 2 2 4q3 3 3 4t3.5 6 t4.5 6l1 1l2 4l2 4q3 6 6 9l1 3q0 1 4 5q1 1 3 4t3 4q1 4 7 12t8 9q0 1 2 5l3 3q1 0 1 2t5 7l5 6q0 1 4 5t4 5t2 3q1 1 1 3q1 2 6 7q2 4 2 5l1 1l3 3l4 6l3 3q1 0 1 2l4 6l3 4q0 1 3 4q3 2 3 4q0 3 5 6q5 5 5 7l4 6q3 2 6 8l2 3h28z" glyph-name="ydieresis" horiz-adv-x="354" unicode=""/><glyph d="M242 580v-59h-6q-12 0 -34 -0.5t-32 -1.5q-12 -1 -32 -1q-26 0 -54 -2q-6 -1 -20 -1q-9 0 -10 3q-1 6 -2 26t0 23q1 5 3 5.5t13 1.5h15q1 0 9.5 0.5t13.5 0.5t16 0.5t15 0.5q8 1 27 1h17q2 1 15 1q2 0 13.5 0.5t17.5 0.5q5 1 15 1zM21 8q-1 2 -1 4l1 1q1 0 0 1v3l2 12 l1 11q0 3 1 6q0 2 1 4v3q1 1 0 1t-1 1.5t0.5 4t1.5 3.5q0 2 -1 2q0 2 1 5q0 1 0.5 3.5t1 6t0.5 6.5l1 11l2 6q0 2 0.5 5t0.5 4q2 6 2 9q-1 4 1 6q3 1 1 3q-1 0 -1 1t0.5 3.5t1.5 6.5q4 22 4 28v2q1 2 2 5t1 6q2 12 3 15l1 9q1 5 2 10.5t2 8.5q0 2 0.5 5.5t1.5 8t1 7.5 t1.5 10.5t1.5 9.5q2 6 2 9q3 12 3 20q0 5 2 5q1 4 1 9q0 1 5 33q2 8 2 12q2 10 3 11v4q0 4 1 4q1 1 1 4q0 4 2.5 13.5t4.5 10.5h18q44 -2 51 -1h17q14 0 15 1q1 0 2 -1q2 -2 2 0q6 1 16 1h23h8l1 -4q1 -1 3 -13q0 -5 12 -63q12 -53 16 -64q1 -3 1 -6q-1 -1 0 -1q1 1 3 -14 q4 -18 4 -19l1 -4v-2q2 -2 1 -3q0 -2 2 -8q0 -3 1.5 -8.5t3 -14t2.5 -14.5q0 -2 1 -6t1.5 -7t0.5 -4q1 -5 7 -33q1 -9 2 -11l1 -2q0 -2 0.5 -4.5t0.5 -4.5t1 -5q1 -8 2 -10q0 -1 1 -4.5t1.5 -9t1.5 -9.5q1 -6 5 -28q3 -11 3 -15v-4h-9q-9 2 -16 0h-39q-28 0 -31.5 1t-5.5 12 q0 9 -2 11q-5 12 -5 26q0 4 -1 5v3q0 2 -1 3l-2 4q2 0 0 4l-1 7q0 2 -2 10q-3 12 -4 19q-1 3 -1.5 6.5t-1.5 6.5l-1 2l-1 2v5l-1 7q-1 1 -1.5 3t-0.5 3v4q-2 8 -9 8q-21 -3 -22 -4q-2 -2 -11 -133q-2 -14 -3 -14q0 -1 -7 -1h-16h-52h-14q0 -1 -16 -1h-17q-3 0 -3 3z" glyph-name="Amacron" unicode=""/><glyph d="M242 580v-59h-6q-12 0 -34 -0.5t-32 -1.5q-12 -1 -32 -1q-26 0 -54 -2q-6 -1 -20 -1q-9 0 -10 3q-1 6 -2 26t0 23q1 5 3 5.5t13 1.5h15q1 0 9.5 0.5t13.5 0.5t16 0.5t15 0.5q8 1 27 1h17q2 1 15 1q2 0 13.5 0.5t17.5 0.5q5 1 15 1zM21 8q-1 2 -1 4l1 1q1 0 0 1v3l2 12 l1 11q0 3 1 6q0 2 1 4v3q1 1 0 1t-1 1.5t0.5 4t1.5 3.5q0 2 -1 2q0 2 1 5q0 1 0.5 3.5t1 6t0.5 6.5l1 11l2 6q0 2 0.5 5t0.5 4q2 6 2 9q-1 4 1 6q3 1 1 3q-1 0 -1 1t0.5 3.5t1.5 6.5q4 22 4 28v2q1 2 2 5t1 6q2 12 3 15l1 9q1 5 2 10.5t2 8.5q0 2 0.5 5.5t1.5 8t1 7.5 t1.5 10.5t1.5 9.5q2 6 2 9q3 12 3 20q0 5 2 5q1 4 1 9q0 1 5 33q2 8 2 12q2 10 3 11v4q0 4 1 4q1 1 1 4q0 4 2.5 13.5t4.5 10.5h18q44 -2 51 -1h17q14 0 15 1q1 0 2 -1q2 -2 2 0q6 1 16 1h23h8l1 -4q1 -1 3 -13q0 -5 12 -63q12 -53 16 -64q1 -3 1 -6q-1 -1 0 -1q1 1 3 -14 q4 -18 4 -19l1 -4v-2q2 -2 1 -3q0 -2 2 -8q0 -3 1.5 -8.5t3 -14t2.5 -14.5q0 -2 1 -6t1.5 -7t0.5 -4q1 -5 7 -33q1 -9 2 -11l1 -2q0 -2 0.5 -4.5t0.5 -4.5t1 -5q1 -8 2 -10q0 -1 1 -4.5t1.5 -9t1.5 -9.5q1 -6 5 -28q3 -11 3 -15v-4h-9q-9 2 -16 0h-39q-28 0 -31.5 1t-5.5 12 q0 9 -2 11q-5 12 -5 26q0 4 -1 5v3q0 2 -1 3l-2 4q2 0 0 4l-1 7q0 2 -2 10q-3 12 -4 19q-1 3 -1.5 6.5t-1.5 6.5l-1 2l-1 2v5l-1 7q-1 1 -1.5 3t-0.5 3v4q-2 8 -9 8q-21 -3 -22 -4q-2 -2 -11 -133q-2 -14 -3 -14q0 -1 -7 -1h-16h-52h-14q0 -1 -16 -1h-17q-3 0 -3 3z" glyph-name="amacron" unicode=""/><glyph d="M65 607q-1 3 -1 7q2 3 14 1h10q1 0 5.5 -0.5t7.5 -0.5q2 -1 8 -1q17 2 19 -2q1 -5 1 -10l2 -10v-3q0 -2 1 -2q1 -1 0 -2q0 -2 8 -12q14 -15 24 -11q11 3 17 11q2 2 6 26l2 11h2h8h7q1 0 4.5 -0.5t5.5 -0.5q5 -1 13 -1h5h2q4 1 12.5 0.5t9.5 -1.5q1 -2 -4.5 -26.5 t-8.5 -32.5q-2 -9 -8 -18q-7 -10 -41 -29q-2 0 -5 -1t-7 -2.5t-6 -2.5l-11 -4l-8 2q-9 2 -24 7q-19 5 -35 17q-12 11 -13 13q-8 16 -8 18l-2 7q-7 14 -10 39q0 1 -1 3v3v3q-1 3 -1 5zM21 8q-1 2 -1 4l1 1q1 0 0 1v3l2 12l1 11q0 3 1 6q0 2 1 4v3q1 1 0 1t-1 1.5t0.5 4 t1.5 3.5q0 2 -1 2q0 2 1 5q0 1 0.5 3.5t1 6t0.5 6.5l1 11l2 6q0 2 0.5 5t0.5 4q2 6 2 9q-1 4 1 6q3 1 1 3q-1 0 -1 1t0.5 3.5t1.5 6.5q4 22 4 28v2q1 2 2 5t1 6q2 12 3 15l1 9q1 5 2 10.5t2 8.5q0 2 0.5 5.5t1.5 8t1 7.5t1.5 10.5t1.5 9.5q2 6 2 9q3 12 3 20q0 5 2 5 q1 4 1 9q0 1 5 33q2 8 2 12q2 10 3 11v4q0 4 1 4q1 1 1 4q0 4 2.5 13.5t4.5 10.5h18q44 -2 51 -1h17q14 0 15 1q1 0 2 -1q2 -2 2 0q6 1 16 1h23h8l1 -4q1 -1 3 -13q0 -5 12 -63q12 -53 16 -64q1 -3 1 -6q-1 -1 0 -1q1 1 3 -14q4 -18 4 -19l1 -4v-2q2 -2 1 -3q0 -2 2 -8 q0 -3 1.5 -8.5t3 -14t2.5 -14.5q0 -2 1 -6t1.5 -7t0.5 -4q1 -5 7 -33q1 -9 2 -11l1 -2q0 -2 0.5 -4.5t0.5 -4.5t1 -5q1 -8 2 -10q0 -1 1 -4.5t1.5 -9t1.5 -9.5q1 -6 5 -28q3 -11 3 -15v-4h-9q-9 2 -16 0h-39q-28 0 -31.5 1t-5.5 12q0 9 -2 11q-5 12 -5 26q0 4 -1 5v3 q0 2 -1 3l-2 4q2 0 0 4l-1 7q0 2 -2 10q-3 12 -4 19q-1 3 -1.5 6.5t-1.5 6.5l-1 2l-1 2v5l-1 7q-1 1 -1.5 3t-0.5 3v4q-2 8 -9 8q-21 -3 -22 -4q-2 -2 -11 -133q-2 -14 -3 -14q0 -1 -7 -1h-16h-52h-14q0 -1 -16 -1h-17q-3 0 -3 3z" glyph-name="Abreve" unicode=""/><glyph d="M65 607q-1 3 -1 7q2 3 14 1h10q1 0 5.5 -0.5t7.5 -0.5q2 -1 8 -1q17 2 19 -2q1 -5 1 -10l2 -10v-3q0 -2 1 -2q1 -1 0 -2q0 -2 8 -12q14 -15 24 -11q11 3 17 11q2 2 6 26l2 11h2h8h7q1 0 4.5 -0.5t5.5 -0.5q5 -1 13 -1h5h2q4 1 12.5 0.5t9.5 -1.5q1 -2 -4.5 -26.5 t-8.5 -32.5q-2 -9 -8 -18q-7 -10 -41 -29q-2 0 -5 -1t-7 -2.5t-6 -2.5l-11 -4l-8 2q-9 2 -24 7q-19 5 -35 17q-12 11 -13 13q-8 16 -8 18l-2 7q-7 14 -10 39q0 1 -1 3v3v3q-1 3 -1 5zM21 8q-1 2 -1 4l1 1q1 0 0 1v3l2 12l1 11q0 3 1 6q0 2 1 4v3q1 1 0 1t-1 1.5t0.5 4 t1.5 3.5q0 2 -1 2q0 2 1 5q0 1 0.5 3.5t1 6t0.5 6.5l1 11l2 6q0 2 0.5 5t0.5 4q2 6 2 9q-1 4 1 6q3 1 1 3q-1 0 -1 1t0.5 3.5t1.5 6.5q4 22 4 28v2q1 2 2 5t1 6q2 12 3 15l1 9q1 5 2 10.5t2 8.5q0 2 0.5 5.5t1.5 8t1 7.5t1.5 10.5t1.5 9.5q2 6 2 9q3 12 3 20q0 5 2 5 q1 4 1 9q0 1 5 33q2 8 2 12q2 10 3 11v4q0 4 1 4q1 1 1 4q0 4 2.5 13.5t4.5 10.5h18q44 -2 51 -1h17q14 0 15 1q1 0 2 -1q2 -2 2 0q6 1 16 1h23h8l1 -4q1 -1 3 -13q0 -5 12 -63q12 -53 16 -64q1 -3 1 -6q-1 -1 0 -1q1 1 3 -14q4 -18 4 -19l1 -4v-2q2 -2 1 -3q0 -2 2 -8 q0 -3 1.5 -8.5t3 -14t2.5 -14.5q0 -2 1 -6t1.5 -7t0.5 -4q1 -5 7 -33q1 -9 2 -11l1 -2q0 -2 0.5 -4.5t0.5 -4.5t1 -5q1 -8 2 -10q0 -1 1 -4.5t1.5 -9t1.5 -9.5q1 -6 5 -28q3 -11 3 -15v-4h-9q-9 2 -16 0h-39q-28 0 -31.5 1t-5.5 12q0 9 -2 11q-5 12 -5 26q0 4 -1 5v3 q0 2 -1 3l-2 4q2 0 0 4l-1 7q0 2 -2 10q-3 12 -4 19q-1 3 -1.5 6.5t-1.5 6.5l-1 2l-1 2v5l-1 7q-1 1 -1.5 3t-0.5 3v4q-2 8 -9 8q-21 -3 -22 -4q-2 -2 -11 -133q-2 -14 -3 -14q0 -1 -7 -1h-16h-52h-14q0 -1 -16 -1h-17q-3 0 -3 3z" glyph-name="abreve" unicode=""/><glyph d="M315 25q3 -11 3 -15v-4h-9q-3 1 -9 1l-1 -1q-2 -2 -4 -2l-1 -1q0 -1 -1 -1t-3 -2t-4 -2l-3 -2l-1 -1q-1 0 -7.5 -4.5t-7.5 -6.5l-1 -1v-2q-4 -12 -4 -16v-7q-1 -3 -1 -6q0 -1 1 -1t1 -3q0 -1 1 -2q2 -2 2 -3q3 -3 3 -4q1 -2 6 -7t6 -4q3 -1 6 -3l4 -2l2 -1v-1q5 0 5 -2 l1 -1q2 0 3 -1l4 -1q1 0 1 -5l-1 -6v-2q-1 -2 -1 -3v-8q-1 -2 -1 -9q0 -1 -1 -5t-1 -5q-1 -2 -1 -11q0 -8 -1 -9q-4 -5 -14 2l-12 7q-31 18 -52 38q-7 7 -14 20q-14 25 -15 49q-1 14 2 29q2 8 2 10t18 22q-5 12 -5 26q0 4 -1 5v3q0 2 -1 3l-2 4q2 0 0 4l-1 7q0 2 -2 10 q-3 12 -4 19q-1 3 -1.5 6.5t-1.5 6.5l-1 2l-1 2v5l-1 7q-1 1 -1.5 3t-0.5 3v4q-2 8 -9 8q-21 -3 -22 -4q-2 -2 -11 -133q-2 -14 -3 -14q0 -1 -7 -1h-16h-52h-14q0 -1 -16 -1h-17q-3 0 -3 3q-1 2 -1 4l1 1q1 0 0 1v3l2 12l1 11q0 3 1 6q0 2 1 4v3q1 1 0 1t-1 1.5t0.5 4 t1.5 3.5q0 2 -1 2q0 2 1 5q0 1 0.5 3.5t1 6t0.5 6.5l1 11l2 6q0 2 0.5 5t0.5 4q2 6 2 9q-1 4 1 6q3 1 1 3q-1 0 -1 1t0.5 3.5t1.5 6.5q4 22 4 28v2q1 2 2 5t1 6q2 12 3 15l1 9q1 5 2 10.5t2 8.5q0 2 0.5 5.5t1.5 8t1 7.5t1.5 10.5t1.5 9.5q2 6 2 9q3 12 3 20q0 5 2 5 q1 4 1 9q0 1 5 33q2 8 2 12q2 10 3 11v4q0 4 1 4q1 1 1 4q0 4 2.5 13.5t4.5 10.5h18q44 -2 51 -1h17q14 0 15 1q1 0 2 -1q2 -2 2 0q6 1 16 1h23h8l1 -4q1 -1 3 -13q0 -5 12 -63q12 -53 16 -64q1 -3 1 -6q-1 -1 0 -1q1 1 3 -14q4 -18 4 -19l1 -4v-2q2 -2 1 -3q0 -2 2 -8 q0 -3 1.5 -8.5t3 -14t2.5 -14.5q0 -2 1 -6t1.5 -7t0.5 -4q1 -5 7 -33q1 -9 2 -11l1 -2q0 -2 0.5 -4.5t0.5 -4.5t1 -5q1 -8 2 -10q0 -1 1 -4.5t1.5 -9t1.5 -9.5q1 -6 5 -28z" glyph-name="Aogonek" unicode=""/><glyph d="M315 25q3 -11 3 -15v-4h-9q-3 1 -9 1l-1 -1q-2 -2 -4 -2l-1 -1q0 -1 -1 -1t-3 -2t-4 -2l-3 -2l-1 -1q-1 0 -7.5 -4.5t-7.5 -6.5l-1 -1v-2q-4 -12 -4 -16v-7q-1 -3 -1 -6q0 -1 1 -1t1 -3q0 -1 1 -2q2 -2 2 -3q3 -3 3 -4q1 -2 6 -7t6 -4q3 -1 6 -3l4 -2l2 -1v-1q5 0 5 -2 l1 -1q2 0 3 -1l4 -1q1 0 1 -5l-1 -6v-2q-1 -2 -1 -3v-8q-1 -2 -1 -9q0 -1 -1 -5t-1 -5q-1 -2 -1 -11q0 -8 -1 -9q-4 -5 -14 2l-12 7q-31 18 -52 38q-7 7 -14 20q-14 25 -15 49q-1 14 2 29q2 8 2 10t18 22q-5 12 -5 26q0 4 -1 5v3q0 2 -1 3l-2 4q2 0 0 4l-1 7q0 2 -2 10 q-3 12 -4 19q-1 3 -1.5 6.5t-1.5 6.5l-1 2l-1 2v5l-1 7q-1 1 -1.5 3t-0.5 3v4q-2 8 -9 8q-21 -3 -22 -4q-2 -2 -11 -133q-2 -14 -3 -14q0 -1 -7 -1h-16h-52h-14q0 -1 -16 -1h-17q-3 0 -3 3q-1 2 -1 4l1 1q1 0 0 1v3l2 12l1 11q0 3 1 6q0 2 1 4v3q1 1 0 1t-1 1.5t0.5 4 t1.5 3.5q0 2 -1 2q0 2 1 5q0 1 0.5 3.5t1 6t0.5 6.5l1 11l2 6q0 2 0.5 5t0.5 4q2 6 2 9q-1 4 1 6q3 1 1 3q-1 0 -1 1t0.5 3.5t1.5 6.5q4 22 4 28v2q1 2 2 5t1 6q2 12 3 15l1 9q1 5 2 10.5t2 8.5q0 2 0.5 5.5t1.5 8t1 7.5t1.5 10.5t1.5 9.5q2 6 2 9q3 12 3 20q0 5 2 5 q1 4 1 9q0 1 5 33q2 8 2 12q2 10 3 11v4q0 4 1 4q1 1 1 4q0 4 2.5 13.5t4.5 10.5h18q44 -2 51 -1h17q14 0 15 1q1 0 2 -1q2 -2 2 0q6 1 16 1h23h8l1 -4q1 -1 3 -13q0 -5 12 -63q12 -53 16 -64q1 -3 1 -6q-1 -1 0 -1q1 1 3 -14q4 -18 4 -19l1 -4v-2q2 -2 1 -3q0 -2 2 -8 q0 -3 1.5 -8.5t3 -14t2.5 -14.5q0 -2 1 -6t1.5 -7t0.5 -4q1 -5 7 -33q1 -9 2 -11l1 -2q0 -2 0.5 -4.5t0.5 -4.5t1 -5q1 -8 2 -10q0 -1 1 -4.5t1.5 -9t1.5 -9.5q1 -6 5 -28z" glyph-name="aogonek" unicode=""/><glyph d="M371 707q0 1 2 1t12 -8q2 -1 9.5 -7t10.5 -9q2 -2 5 -4.5t5.5 -4t3.5 -2.5l4 -4l-3 -4q-2 -4 -5 -7l-2 -3q2 0 -1 -3q-9 -9 -14 -19q-1 -1 -3 -3.5t-3 -3.5t-3 -4t-3 -4q-6 -10 -10 -14l-2 -2q-1 -3 -2 -4q-4 -6 -8 -10l-14 -19q-3 -3 -5 -7l-5 -7q-5 -5 -5 -7l-4 -6 q-5 -5 -7 -9q-4 -6 -8 -10l-4 -6l-3 3q-1 0 -3 2t-5 4.5t-5 4.5q-37 31 -37 33q0 1 2 2q0 1 8 11l13 17l7 9l8 11q10 10 10 12q4 4 6 8q4 4 8 10q5 5 9 11q1 1 7.5 8.5t9.5 12.5l17 22q7 7 7 9zM30 208q-1 1 0.5 19.5t2.5 26.5l1 6v9q0 10 1 10v4q3 27 3 28v7q0 2 2 4 q2 4 1 8l1 1q1 -1 5 5q1 1 1 2l1 1q1 0 1 2v2q2 0 2 2q0 3 2 3q3 3 3 6q0 4 2 4l1 2l3 3q3 5 4 5q1 1 1 2q0 2 1 2q1 1 1 3l1 1l2 4t2 3q4 6 3 7q-4 4 2 4q2 0 5 3q2 2 4 2l5 3l4 3q0 -1 3.5 1t9.5 5q14 7 16 7t2 1l3 2q2 2 2 3t2 1t2 2t4 2q8 -2 8 2q0 1 -1 1q-2 0 -2 2 q0 3 -1 5t1 2t6 -3q3 -2 8 -2q1 0 2 1q2 0 2 1t2 1t7.5 2.5t5.5 3.5t2 1h2q2 1 3 1q10 5 18 5h3l2 1q0 2 5 2q15 0 17 2q0 1 7 1q13 0 19 2q5 2 5 1t3 -1q1 1 17 1h15l2 -3q3 -3 4 -2q2 2 2 3q0 2 1 2q11 3 137 1l26 -1v-18q0 -4 -0.5 -10t-1 -10t-0.5 -6q0 -12 -1 -18 l-1 -18q0 -4 -2 -34l-1 -13q-1 -2 0 -3q0 -6 -1 -11t-1 -12q0 -3 -10 -4q-2 0 -12 -0.5t-16 -0.5l-50 -3q-4 0 -40 -2l-38 -2q-3 -1 -31 -3q-40 -2 -56 -13q-15 -10 -18 -13.5t-11 -20.5q-5 -9 -9 -21l-2.5 -5l-2.5 -5l-2 -4l-1 -2q-1 -2 -1 -5v-1q-2 0 -2 -2.5t1 -3.5 q0 -1 3 -1q2 1 2 -1q0 -3 -1 -4q-3 -3 -1 -10q0 -2 2 -2q4 0 1 -4q-2 -1 0 -8q3 -6 6 -7q5 0 1 -4q-2 -2 1 -2q2 0 2 -2q0 -3 4 -3q3 0 3 -2q-1 -3 3 -3t4 -1q0 -3 2 -1q3 0 3 -2l3 -3q2 0 3 -1q2 -1 4 -1q3 0 3 -2t2 -2q4 0 7 -1q9 0 9 -3q0 -2 2 -2q1 0 5 -2q6 -3 8 -3 l8 -3q4 -2 5 -2h1q0 -1 7 -1q2 0 6.5 -0.5t6.5 -0.5q1 0 6 -0.5t7 -0.5q36 -2 48 -2q3 0 8 -0.5t6 -0.5h8l4 1q2 -2 5 -2q6 0 9 -1q6 -2 8 -1l8 -2q3 -1 13 -1q7 0 8 -1h2q2 -1 3 -1l3 -1q2 -1 5 -1q16 0 16 -2l1 -1q2 1 4 0t1 -3v-3q0 -4 -0.5 -9.5t-0.5 -10.5 q0 -20 -2 -34l-1 -14v-17q0 -4 -0.5 -14.5t-1.5 -14.5q0 -26 -2 -26q-9 -1 -21 -1q-11 -1 -31 -1q-2 0 -8 -0.5t-15.5 -1t-15.5 -0.5h-23l-14 -1h-31l-25 -1l-23 6q-26 6 -28 6q-39 9 -41 11l-6 3l-6 3l-2 1q-1 1 -3 2t-3 2q-39 24 -75 61q-32 33 -33 46l-2 54v13l-1 7l-1 4 v10v11z" glyph-name="Cacute" horiz-adv-x="500" unicode=""/><glyph d="M371 707q0 1 2 1t12 -8q2 -1 9.5 -7t10.5 -9q2 -2 5 -4.5t5.5 -4t3.5 -2.5l4 -4l-3 -4q-2 -4 -5 -7l-2 -3q2 0 -1 -3q-9 -9 -14 -19q-1 -1 -3 -3.5t-3 -3.5t-3 -4t-3 -4q-6 -10 -10 -14l-2 -2q-1 -3 -2 -4q-4 -6 -8 -10l-14 -19q-3 -3 -5 -7l-5 -7q-5 -5 -5 -7l-4 -6 q-5 -5 -7 -9q-4 -6 -8 -10l-4 -6l-3 3q-1 0 -3 2t-5 4.5t-5 4.5q-37 31 -37 33q0 1 2 2q0 1 8 11l13 17l7 9l8 11q10 10 10 12q4 4 6 8q4 4 8 10q5 5 9 11q1 1 7.5 8.5t9.5 12.5l17 22q7 7 7 9zM30 208q-1 1 0.5 19.5t2.5 26.5l1 6v9q0 10 1 10v4q3 27 3 28v7q0 2 2 4 q2 4 1 8l1 1q1 -1 5 5q1 1 1 2l1 1q1 0 1 2v2q2 0 2 2q0 3 2 3q3 3 3 6q0 4 2 4l1 2l3 3q3 5 4 5q1 1 1 2q0 2 1 2q1 1 1 3l1 1l2 4t2 3q4 6 3 7q-4 4 2 4q2 0 5 3q2 2 4 2l5 3l4 3q0 -1 3.5 1t9.5 5q14 7 16 7t2 1l3 2q2 2 2 3t2 1t2 2t4 2q8 -2 8 2q0 1 -1 1q-2 0 -2 2 q0 3 -1 5t1 2t6 -3q3 -2 8 -2q1 0 2 1q2 0 2 1t2 1t7.5 2.5t5.5 3.5t2 1h2q2 1 3 1q10 5 18 5h3l2 1q0 2 5 2q15 0 17 2q0 1 7 1q13 0 19 2q5 2 5 1t3 -1q1 1 17 1h15l2 -3q3 -3 4 -2q2 2 2 3q0 2 1 2q11 3 137 1l26 -1v-18q0 -4 -0.5 -10t-1 -10t-0.5 -6q0 -12 -1 -18 l-1 -18q0 -4 -2 -34l-1 -13q-1 -2 0 -3q0 -6 -1 -11t-1 -12q0 -3 -10 -4q-2 0 -12 -0.5t-16 -0.5l-50 -3q-4 0 -40 -2l-38 -2q-3 -1 -31 -3q-40 -2 -56 -13q-15 -10 -18 -13.5t-11 -20.5q-5 -9 -9 -21l-2.5 -5l-2.5 -5l-2 -4l-1 -2q-1 -2 -1 -5v-1q-2 0 -2 -2.5t1 -3.5 q0 -1 3 -1q2 1 2 -1q0 -3 -1 -4q-3 -3 -1 -10q0 -2 2 -2q4 0 1 -4q-2 -1 0 -8q3 -6 6 -7q5 0 1 -4q-2 -2 1 -2q2 0 2 -2q0 -3 4 -3q3 0 3 -2q-1 -3 3 -3t4 -1q0 -3 2 -1q3 0 3 -2l3 -3q2 0 3 -1q2 -1 4 -1q3 0 3 -2t2 -2q4 0 7 -1q9 0 9 -3q0 -2 2 -2q1 0 5 -2q6 -3 8 -3 l8 -3q4 -2 5 -2h1q0 -1 7 -1q2 0 6.5 -0.5t6.5 -0.5q1 0 6 -0.5t7 -0.5q36 -2 48 -2q3 0 8 -0.5t6 -0.5h8l4 1q2 -2 5 -2q6 0 9 -1q6 -2 8 -1l8 -2q3 -1 13 -1q7 0 8 -1h2q2 -1 3 -1l3 -1q2 -1 5 -1q16 0 16 -2l1 -1q2 1 4 0t1 -3v-3q0 -4 -0.5 -9.5t-0.5 -10.5 q0 -20 -2 -34l-1 -14v-17q0 -4 -0.5 -14.5t-1.5 -14.5q0 -26 -2 -26q-9 -1 -21 -1q-11 -1 -31 -1q-2 0 -8 -0.5t-15.5 -1t-15.5 -0.5h-23l-14 -1h-31l-25 -1l-23 6q-26 6 -28 6q-39 9 -41 11l-6 3l-6 3l-2 1q-1 1 -3 2t-3 2q-39 24 -75 61q-32 33 -33 46l-2 54v13l-1 7l-1 4 v10v11z" glyph-name="cacute" horiz-adv-x="500" unicode=""/><glyph d="M250 590q0 12 6 23q12 25 33 32q8 2 15 2.5t8 -0.5q2 -1 4 -1q1 0 2.5 -0.5t2.5 -1.5l3 -2q2 0 2 -1q1 -1 2 -1q2 0 3 -1l4 -1q7 -2 7 -4q0 -1 1 -2q1 0 1 -2l2 -3q2 -2 8 -15l3 -5q1 -1 1 -2q0 -2 1 -2q1 -1 1 -2l2 -6q2 -4 2 -10q-1 -13 -2 -13v-1q-1 -2 -1 -3l-1 -4 l-2 -3l-2 -3q4 0 -14 -14q-5 -4 -7 -5l-5 -4l-2 -2l-2 -1q-1 0 -1 -1h-3t-8 1l-10 2q-16 2 -31 14l-3 3q-4 0 -10 13q-1 2 -2.5 4t-1.5 3l-1 3q-1 2 -1 4q-2 6 -3 7q0 2 -1 5zM30 208q-1 1 0.5 19.5t2.5 26.5l1 6v9q0 10 1 10v4q3 27 3 28v7q0 2 2 4q2 4 1 8l1 1q1 -1 5 5 q1 1 1 2l1 1q1 0 1 2v2q2 0 2 2q0 3 2 3q3 3 3 6q0 4 2 4l1 2l3 3q3 5 4 5q1 1 1 2q0 2 1 2q1 1 1 3l1 1l2 4t2 3q4 6 3 7q-4 4 2 4q2 0 5 3q2 2 4 2l5 3l4 3q0 -1 3.5 1t9.5 5q14 7 16 7t2 1l3 2q2 2 2 3t2 1t2 2t4 2q8 -2 8 2q0 1 -1 1q-2 0 -2 2q0 3 -1 5t1 2t6 -3 q3 -2 8 -2q1 0 2 1q2 0 2 1t2 1t7.5 2.5t5.5 3.5t2 1h2q2 1 3 1q10 5 18 5h3l2 1q0 2 5 2q15 0 17 2q0 1 7 1q13 0 19 2q5 2 5 1t3 -1q1 1 17 1h15l2 -3q3 -3 4 -2q2 2 2 3q0 2 1 2q11 3 137 1l26 -1v-18q0 -4 -0.5 -10t-1 -10t-0.5 -6q0 -12 -1 -18l-1 -18q0 -4 -2 -34 l-1 -13q-1 -2 0 -3q0 -6 -1 -11t-1 -12q0 -3 -10 -4q-2 0 -12 -0.5t-16 -0.5l-50 -3q-4 0 -40 -2l-38 -2q-3 -1 -31 -3q-40 -2 -56 -13q-15 -10 -18 -13.5t-11 -20.5q-5 -9 -9 -21l-2.5 -5l-2.5 -5l-2 -4l-1 -2q-1 -2 -1 -5v-1q-2 0 -2 -2.5t1 -3.5q0 -1 3 -1q2 1 2 -1 q0 -3 -1 -4q-3 -3 -1 -10q0 -2 2 -2q4 0 1 -4q-2 -1 0 -8q3 -6 6 -7q5 0 1 -4q-2 -2 1 -2q2 0 2 -2q0 -3 4 -3q3 0 3 -2q-1 -3 3 -3t4 -1q0 -3 2 -1q3 0 3 -2l3 -3q2 0 3 -1q2 -1 4 -1q3 0 3 -2t2 -2q4 0 7 -1q9 0 9 -3q0 -2 2 -2q1 0 5 -2q6 -3 8 -3l8 -3q4 -2 5 -2h1 q0 -1 7 -1q2 0 6.5 -0.5t6.5 -0.5q1 0 6 -0.5t7 -0.5q36 -2 48 -2q3 0 8 -0.5t6 -0.5h8l4 1q2 -2 5 -2q6 0 9 -1q6 -2 8 -1l8 -2q3 -1 13 -1q7 0 8 -1h2q2 -1 3 -1l3 -1q2 -1 5 -1q16 0 16 -2l1 -1q2 1 4 0t1 -3v-3q0 -4 -0.5 -9.5t-0.5 -10.5q0 -20 -2 -34l-1 -14v-17 q0 -4 -0.5 -14.5t-1.5 -14.5q0 -26 -2 -26q-9 -1 -21 -1q-11 -1 -31 -1q-2 0 -8 -0.5t-15.5 -1t-15.5 -0.5h-23l-14 -1h-31l-25 -1l-23 6q-26 6 -28 6q-39 9 -41 11l-6 3l-6 3l-2 1q-1 1 -3 2t-3 2q-39 24 -75 61q-32 33 -33 46l-2 54v13l-1 7l-1 4v10v11z" glyph-name="Cdotaccent" horiz-adv-x="500" unicode=""/><glyph d="M250 590q0 12 6 23q12 25 33 32q8 2 15 2.5t8 -0.5q2 -1 4 -1q1 0 2.5 -0.5t2.5 -1.5l3 -2q2 0 2 -1q1 -1 2 -1q2 0 3 -1l4 -1q7 -2 7 -4q0 -1 1 -2q1 0 1 -2l2 -3q2 -2 8 -15l3 -5q1 -1 1 -2q0 -2 1 -2q1 -1 1 -2l2 -6q2 -4 2 -10q-1 -13 -2 -13v-1q-1 -2 -1 -3l-1 -4 l-2 -3l-2 -3q4 0 -14 -14q-5 -4 -7 -5l-5 -4l-2 -2l-2 -1q-1 0 -1 -1h-3t-8 1l-10 2q-16 2 -31 14l-3 3q-4 0 -10 13q-1 2 -2.5 4t-1.5 3l-1 3q-1 2 -1 4q-2 6 -3 7q0 2 -1 5zM30 208q-1 1 0.5 19.5t2.5 26.5l1 6v9q0 10 1 10v4q3 27 3 28v7q0 2 2 4q2 4 1 8l1 1q1 -1 5 5 q1 1 1 2l1 1q1 0 1 2v2q2 0 2 2q0 3 2 3q3 3 3 6q0 4 2 4l1 2l3 3q3 5 4 5q1 1 1 2q0 2 1 2q1 1 1 3l1 1l2 4t2 3q4 6 3 7q-4 4 2 4q2 0 5 3q2 2 4 2l5 3l4 3q0 -1 3.5 1t9.5 5q14 7 16 7t2 1l3 2q2 2 2 3t2 1t2 2t4 2q8 -2 8 2q0 1 -1 1q-2 0 -2 2q0 3 -1 5t1 2t6 -3 q3 -2 8 -2q1 0 2 1q2 0 2 1t2 1t7.5 2.5t5.5 3.5t2 1h2q2 1 3 1q10 5 18 5h3l2 1q0 2 5 2q15 0 17 2q0 1 7 1q13 0 19 2q5 2 5 1t3 -1q1 1 17 1h15l2 -3q3 -3 4 -2q2 2 2 3q0 2 1 2q11 3 137 1l26 -1v-18q0 -4 -0.5 -10t-1 -10t-0.5 -6q0 -12 -1 -18l-1 -18q0 -4 -2 -34 l-1 -13q-1 -2 0 -3q0 -6 -1 -11t-1 -12q0 -3 -10 -4q-2 0 -12 -0.5t-16 -0.5l-50 -3q-4 0 -40 -2l-38 -2q-3 -1 -31 -3q-40 -2 -56 -13q-15 -10 -18 -13.5t-11 -20.5q-5 -9 -9 -21l-2.5 -5l-2.5 -5l-2 -4l-1 -2q-1 -2 -1 -5v-1q-2 0 -2 -2.5t1 -3.5q0 -1 3 -1q2 1 2 -1 q0 -3 -1 -4q-3 -3 -1 -10q0 -2 2 -2q4 0 1 -4q-2 -1 0 -8q3 -6 6 -7q5 0 1 -4q-2 -2 1 -2q2 0 2 -2q0 -3 4 -3q3 0 3 -2q-1 -3 3 -3t4 -1q0 -3 2 -1q3 0 3 -2l3 -3q2 0 3 -1q2 -1 4 -1q3 0 3 -2t2 -2q4 0 7 -1q9 0 9 -3q0 -2 2 -2q1 0 5 -2q6 -3 8 -3l8 -3q4 -2 5 -2h1 q0 -1 7 -1q2 0 6.5 -0.5t6.5 -0.5q1 0 6 -0.5t7 -0.5q36 -2 48 -2q3 0 8 -0.5t6 -0.5h8l4 1q2 -2 5 -2q6 0 9 -1q6 -2 8 -1l8 -2q3 -1 13 -1q7 0 8 -1h2q2 -1 3 -1l3 -1q2 -1 5 -1q16 0 16 -2l1 -1q2 1 4 0t1 -3v-3q0 -4 -0.5 -9.5t-0.5 -10.5q0 -20 -2 -34l-1 -14v-17 q0 -4 -0.5 -14.5t-1.5 -14.5q0 -26 -2 -26q-9 -1 -21 -1q-11 -1 -31 -1q-2 0 -8 -0.5t-15.5 -1t-15.5 -0.5h-23l-14 -1h-31l-25 -1l-23 6q-26 6 -28 6q-39 9 -41 11l-6 3l-6 3l-2 1q-1 1 -3 2t-3 2q-39 24 -75 61q-32 33 -33 46l-2 54v13l-1 7l-1 4v10v11z" glyph-name="cdotaccent" horiz-adv-x="500" unicode=""/></font>
</defs>
</svg>
