<?xml version="1.0" encoding="UTF-8"?>
<svg width="512px" height="168px" viewBox="0 0 512 168" version="1.1" xmlns="http://www.w3.org/2000/svg" xmlns:xlink="http://www.w3.org/1999/xlink">
    <title>Artboard</title>
    <g id="Artboard" stroke="none" stroke-width="1" fill="none" fill-rule="evenodd" opacity="0.5">
        <path d="M583.650757,96.7077516 C583.650757,61.4530004 568.976663,29.6255675 545.403087,7.00006564 C534.010251,-3.93457695 522.396157,0.519182183 508.370866,7.50927382 L506.709575,8.3425641 L502.45381,10.49766 L500.708409,11.3762388 C488.987231,17.2468509 475.545081,23.2825196 459.325378,23.2825196 C443.105676,23.2825196 429.996763,17.1048026 418.690971,10.9813354 L417.008462,10.0640012 L411.318515,6.92722029 C411.054501,6.78263125 410.791429,6.63895249 410.52928,6.49628139 L408.967294,5.65312555 C396.557362,-0.982922686 381.178076,0.390551433 370.571655,10.0640012 C345.641845,32.800915 335,60.3079533 335,96.7077516 C335,164.684132 391.610634,125.397171 459.325378,125.499573 C527.040123,125.601975 583.650757,165.370762 583.650757,96.7077516 Z" id="Path" fill="#79AEA3" opacity="0.5"></path>
        <path d="M292.297591,167 C384.544491,167 459.325378,125.455063 459.325378,74.206785 C459.325378,22.9585075 384.543719,76.0280529 292.29682,76.0280529 C271.880282,76.0280529 223.118429,20.5068545 205.034408,17.800415 C141.41041,8.27850066 125.268261,34.3010285 125.268261,74.206785 C125.268261,125.455063 200.050692,167 292.297591,167 Z" id="Oval" fill="#589286" opacity="0.5"></path>
        <path d="M379.170002,137.668619 C407.302895,140.808165 420.686743,139.463899 439.171874,120.978768 C457.657005,102.493637 457.999438,90.095532 453.11259,63.7260319 C448.225741,37.3565318 435.119951,28.5318778 419.527088,14.9752365 C406.545219,3.68862738 389.078721,23.6460446 364.097621,20.0609331 C339.116522,16.4758216 333.046054,-12.2712448 316.287343,0.158995136 C299.528631,12.5892351 299.713167,43.8633313 305.227415,63.7260319 C310.741663,83.5887325 324.266384,76.4573305 342.543104,94.7340509 C360.819825,113.010771 351.03711,134.529073 379.170002,137.668619 Z" id="Oval" fill="#79AEA3" transform="translate(378.830952, 68.023296) rotate(-30.000000) translate(-378.830952, -68.023296) " opacity="0.5"></path>
        <path d="M111.239337,136.631051 C121.505677,144.867881 175.228866,162.113989 195.270572,142.633768 C214.85752,124.967336 214.85601,109.075951 210.916168,94.9985791 C207.009366,80.3593632 193.241881,64.5655549 175.824195,66.2396551 C158.344896,69.8133674 161.933362,98.476527 147.622814,105.250996 C134.876269,111.754306 110.332362,93.9623376 100.409073,103.953907 C90.4012704,113.794311 101.636348,129.447749 111.239337,136.631051 Z" id="Oval-Copy" fill="#79AEA3" opacity="0.5"></path>
        <path d="M22.8035445,131.313808 C33.9980795,132.908998 47.2332058,127.818383 47.2332058,115.194424 C47.2332058,109.699614 48.0729555,99.1614769 42.4197222,92.3127052 C36.7664889,85.4639336 29.2577769,85.5984103 22.8035445,85.5984103 C21.0949022,85.5984103 21.4124966,74.1162706 11.9095459,76.5696411 C2.40659524,79.0230117 -0.0541544568,97.7194648 -0.0541544568,108.456109 C-0.0541544568,121.080068 11.6090095,129.718619 22.8035445,131.313808 Z" id="Oval" fill="#589286" opacity="0.5"></path>
        <path d="M253.221574,76.3187049 C264.416109,77.9138944 277.651235,72.8232795 277.651235,60.1993209 C277.651235,54.7045107 278.490985,44.1663736 272.837752,37.317602 C267.184519,30.4688304 259.675806,30.603307 253.221574,30.603307 C241.792725,30.603307 230.363875,40.8370474 230.363875,53.4610059 C230.363875,66.0849645 242.027039,74.7235153 253.221574,76.3187049 Z" id="Oval-Copy-2" fill="#589286" transform="translate(254.029582, 53.602733) rotate(-120.000000) translate(-254.029582, -53.602733) " opacity="0.5"></path>
        <path d="M319.583938,144.169077 C327.85816,145.34813 337.640644,141.585502 337.640644,132.25475 C337.640644,128.193368 338.261329,120.40431 334.082852,115.342175 C331.297201,111.967418 326.43586,111.633054 319.49883,114.339084 C308.292355,116.742031 302.689117,121.053755 302.689117,127.274256 C302.689117,136.605008 311.309717,142.990024 319.583938,144.169077 Z" id="Oval-Copy-3" fill="#589286" transform="translate(320.181161, 128.455884) rotate(-233.000000) translate(-320.181161, -128.455884) " opacity="0.5"></path>
    </g>
</svg>