<svg xmlns="http://www.w3.org/2000/svg" xmlns:xlink="http://www.w3.org/1999/xlink" version="1.1" x="0px" y="0px" viewBox="0 0 100 125" enable-background="new 0 0 100 100" xml:space="preserve"><g><path d="M45.107,99.604c0,0.219-0.138,0.396-0.309,0.396H22.637c-0.171,0-0.309-0.177-0.309-0.396v-3.942   c0-0.219,0.138-0.396,0.309-0.396l22.161-4.337c0.171,0,0.309,0.177,0.309,0.396V99.604z"/><path d="M54.893,99.604c0,0.219,0.138,0.396,0.309,0.396h22.161c0.171,0,0.309-0.177,0.309-0.396v-3.942   c0-0.219-0.138-0.396-0.309-0.396l-22.161-4.337c-0.171,0-0.309,0.177-0.309,0.396V99.604z"/><path d="M53.089,97.857c0,0.171-0.138,0.309-0.309,0.309h-5.56c-0.171,0-0.309-0.138-0.309-0.309V86.12   c0-0.171,0.138-0.309,0.309-0.309h5.56c0.171,0,0.309,0.138,0.309,0.309V97.857z"/><g><path d="M50.001,83.542c-14.475,0-26.254-11.779-26.254-26.254c0-1.707,1.381-3.089,3.089-3.089s3.089,1.381,3.089,3.089    c0,11.07,9.007,20.076,20.076,20.076s20.076-9.007,20.076-20.076c0-1.707,1.381-3.089,3.089-3.089s3.089,1.381,3.089,3.089    C76.255,71.764,64.476,83.542,50.001,83.542z"/></g><path d="M55.284,20.541h10.159v-5.097C65.444,6.914,58.529,0,50,0c-8.529,0-15.443,6.914-15.443,15.443v5.097h10.159   c1.706,0,3.089,1.383,3.089,3.089c0,1.706-1.383,3.089-3.089,3.089H34.557v5.981h10.159c1.706,0,3.089,1.383,3.089,3.089   c0,1.706-1.383,3.089-3.089,3.089H34.557v5.981h10.159c1.706,0,3.089,1.383,3.089,3.089c0,1.706-1.383,3.089-3.089,3.089H34.557   v6.256c0,8.529,6.914,15.443,15.443,15.443c8.529,0,15.443-6.914,15.443-15.443v-6.256H55.284c-1.706,0-3.089-1.383-3.089-3.089   c0-1.706,1.383-3.089,3.089-3.089h10.159v-5.981H55.284c-1.706,0-3.089-1.383-3.089-3.089c0-1.706,1.383-3.089,3.089-3.089h10.159   v-5.981H55.284c-1.706,0-3.089-1.383-3.089-3.089C52.196,21.924,53.578,20.541,55.284,20.541z M53.253,60.542   c0,1.797-1.456,3.253-3.253,3.253c-1.796,0-3.253-1.456-3.253-3.253c0-1.796,1.456-3.252,3.253-3.252   C51.796,57.29,53.253,58.746,53.253,60.542z"/></g></svg>